<?xml version="1.0" encoding="UTF-8" standalone="no"?>
<svg
   xmlns:dc="http://purl.org/dc/elements/1.1/"
   xmlns:cc="http://creativecommons.org/ns#"
   xmlns:rdf="http://www.w3.org/1999/02/22-rdf-syntax-ns#"
   xmlns:svg="http://www.w3.org/2000/svg"
   xmlns="http://www.w3.org/2000/svg"
   xmlns:xlink="http://www.w3.org/1999/xlink"
   xmlns:sodipodi="http://sodipodi.sourceforge.net/DTD/sodipodi-0.dtd"
   xmlns:inkscape="http://www.inkscape.org/namespaces/inkscape"
   width="75mm"
   height="70mm"
   viewBox="0 0 75 70"
   version="1.1"
   id="svg3833"
   sodipodi:docname="ampere_ex.svg"
   inkscape:version="1.0.1 (1.0.1+r75)">
  <defs
     id="defs3827">
    <marker
       style="overflow:visible;"
       id="marker22600"
       refX="0.0"
       refY="0.0"
       orient="auto"
       inkscape:stockid="Arrow1Mend"
       inkscape:isstock="true">
      <path
         transform="scale(0.4) rotate(180) translate(10,0)"
         style="fill-rule:evenodd;stroke:#000000;stroke-width:1pt;stroke-opacity:1;fill:#000000;fill-opacity:1"
         d="M 0.0,0.0 L 5.0,-5.0 L -12.5,0.0 L 5.0,5.0 L 0.0,0.0 z "
         id="path5714" />
    </marker>
    <marker
       style="overflow:visible"
       id="marker21329"
       refX="0.0"
       refY="0.0"
       orient="auto"
       inkscape:stockid="Arrow1Mstart"
       inkscape:isstock="true">
      <path
         transform="scale(0.4) translate(10,0)"
         style="fill-rule:evenodd;stroke:#d20000;stroke-width:1pt;stroke-opacity:1;fill:#d20000;fill-opacity:0.760784"
         d="M 0.0,0.0 L 5.0,-5.0 L -12.5,0.0 L 5.0,5.0 L 0.0,0.0 z "
         id="path5711" />
    </marker>
    <marker
       style="overflow:visible"
       id="marker7700"
       refX="0"
       refY="0"
       orient="auto"
       inkscape:stockid="Arrow1Sstart"
       inkscape:isstock="true">
      <path
         transform="matrix(0.2,0,0,0.2,1.2,0)"
         style="fill:#d20000;fill-opacity:0.760784;fill-rule:evenodd;stroke:#000000;stroke-width:1pt;stroke-opacity:1"
         d="M 0,0 5,-5 -12.5,0 5,5 Z"
         id="path7698" />
    </marker>
    <marker
       style="overflow:visible"
       id="marker7540"
       refX="0"
       refY="0"
       orient="auto"
       inkscape:stockid="Arrow1Send"
       inkscape:isstock="true">
      <path
         transform="matrix(-0.2,0,0,-0.2,-1.2,0)"
         style="fill:#000000;fill-opacity:0.5;fill-rule:evenodd;stroke:#000000;stroke-width:1pt;stroke-opacity:0.5"
         d="M 0,0 5,-5 -12.5,0 5,5 Z"
         id="path7538" />
    </marker>
    <marker
       style="overflow:visible"
       id="marker3610"
       refX="0"
       refY="0"
       orient="auto"
       inkscape:stockid="Arrow1Send"
       inkscape:isstock="true">
      <path
         transform="matrix(-0.2,0,0,-0.2,-1.2,0)"
         style="fill:#008800;fill-opacity:1;fill-rule:evenodd;stroke:#008800;stroke-width:1pt;stroke-opacity:1"
         d="M 0,0 5,-5 -12.5,0 5,5 Z"
         id="path3608" />
    </marker>
    <marker
       style="overflow:visible"
       id="marker3395"
       refX="0"
       refY="0"
       orient="auto"
       inkscape:stockid="Arrow1Send"
       inkscape:isstock="true">
      <path
         transform="matrix(-0.2,0,0,-0.2,-1.2,0)"
         style="fill:#008800;fill-opacity:1;fill-rule:evenodd;stroke:#008800;stroke-width:1pt;stroke-opacity:1"
         d="M 0,0 5,-5 -12.5,0 5,5 Z"
         id="path3393" />
    </marker>
    <marker
       style="overflow:visible"
       id="Arrow2Send"
       refX="0"
       refY="0"
       orient="auto"
       inkscape:stockid="Arrow2Send"
       inkscape:isstock="true">
      <path
         transform="matrix(-0.3,0,0,-0.3,0.69,0)"
         d="M 8.7185878,4.0337352 -2.2072895,0.01601326 8.7185884,-4.0017078 c -1.7454984,2.3720609 -1.7354408,5.6174519 -6e-7,8.035443 z"
         style="fill:#000000;fill-opacity:1;fill-rule:evenodd;stroke:#000000;stroke-width:0.625;stroke-linejoin:round;stroke-opacity:1"
         id="path6011" />
    </marker>
    <rect
       x="46.157078"
       y="20.21114"
       width="16.587317"
       height="10.917552"
       id="rect7504" />
    <marker
       style="overflow:visible"
       id="marker7404"
       refX="0"
       refY="0"
       orient="auto"
       inkscape:stockid="Arrow1Mend"
       inkscape:isstock="true">
      <path
         transform="matrix(-0.4,0,0,-0.4,-4,0)"
         style="fill:#d20000;fill-opacity:0.760784;fill-rule:evenodd;stroke:#d20000;stroke-width:1pt;stroke-opacity:1"
         d="M 0,0 5,-5 -12.5,0 5,5 Z"
         id="path7402" />
    </marker>
    <marker
       style="overflow:visible"
       id="marker4862"
       refX="0"
       refY="0"
       orient="auto"
       inkscape:stockid="Arrow1Mend"
       inkscape:isstock="true">
      <path
         transform="matrix(-0.4,0,0,-0.4,-4,0)"
         style="fill:#008800;fill-opacity:1;fill-rule:evenodd;stroke:#008800;stroke-width:1pt;stroke-opacity:1"
         d="M 0,0 5,-5 -12.5,0 5,5 Z"
         id="path4860" />
    </marker>
    <marker
       style="overflow:visible"
       id="marker4739"
       refX="0"
       refY="0"
       orient="auto"
       inkscape:stockid="Arrow1Mend"
       inkscape:isstock="true">
      <path
         transform="matrix(-0.4,0,0,-0.4,-4,0)"
         style="fill:#000000;fill-opacity:0.4;fill-rule:evenodd;stroke:#000000;stroke-width:1pt;stroke-opacity:0.4"
         d="M 0,0 5,-5 -12.5,0 5,5 Z"
         id="path4737" />
    </marker>
    <marker
       style="overflow:visible"
       id="Arrow1Mstart"
       refX="0"
       refY="0"
       orient="auto"
       inkscape:stockid="Arrow1Mstart"
       inkscape:isstock="true">
      <path
         transform="matrix(0.4,0,0,0.4,4,0)"
         style="fill:#000000;fill-opacity:0.5;fill-rule:evenodd;stroke:#000000;stroke-width:1pt;stroke-opacity:0.5"
         d="M 0,0 5,-5 -12.5,0 5,5 Z"
         id="path4447" />
    </marker>
    <marker
       style="overflow:visible"
       id="marker4862-4"
       refX="0"
       refY="0"
       orient="auto"
       inkscape:stockid="Arrow1Mend"
       inkscape:isstock="true">
      <path
         transform="matrix(-0.4,0,0,-0.4,-4,0)"
         style="fill:#008800;fill-opacity:1;fill-rule:evenodd;stroke:#008800;stroke-width:1pt;stroke-opacity:1"
         d="M 0,0 5,-5 -12.5,0 5,5 Z"
         id="path4860-9" />
    </marker>
    <g
       id="g7391">
      <symbol
         overflow="visible"
         id="symbol9776">
        <path
           style="stroke:none"
           d=""
           id="path8265" />
      </symbol>
      <symbol
         overflow="visible"
         id="symbol93">
        <path
           style="stroke:none"
           d="m 6.359375,-3.3125 c 0,-0.796875 -0.359375,-1.40625 -1.21875,-1.40625 -0.46875,0 -0.90625,0.1875 -1.28125,0.453125 C 3.453125,-4 3.125,-3.65625 2.921875,-3.203125 2.625,-2.609375 2.4375,-0.859375 2.359375,-0.171875 1.40625,-0.40625 1.09375,-1.15625 1.09375,-2.046875 c 0,-1.375 0.75,-2.265625 2.046875,-2.625 L 3.1875,-4.734375 3.125,-4.828125 C 1.65625,-4.609375 0.265625,-3.625 0.265625,-2 c 0,1.265625 0.875,1.890625 2.0625,2.0625 -0.109375,0.875 -0.296875,1.75 -0.46875,2.625 L 1.96875,2.765625 C 2.1875,2.65625 2.40625,2.578125 2.625,2.5 L 2.921875,0.046875 C 4.75,0 6.359375,-1.421875 6.359375,-3.3125 Z M 5.65625,-3.15625 c 0,1.59375 -1.140625,2.84375 -2.71875,3 l 0.265625,-1.625 c 0.140625,-0.875 0.375,-2.609375 1.578125,-2.609375 0.6875,0 0.875,0.65625 0.875,1.234375 z m 0,0"
           id="path8799" />
      </symbol>
    </g>
    <g
       id="g7377">
      <symbol
         overflow="visible"
         id="symbol1034">
        <path
           style="stroke:none"
           d=""
           id="path7150" />
      </symbol>
      <symbol
         overflow="visible"
         id="symbol2907">
        <path
           style="stroke:none"
           d="M 5.71875,-5.03125 C 5.71875,-6.15625 5.390625,-7 4.109375,-7 c -2.578125,0 -3.40625,2.890625 -3.40625,5.015625 0,1.1875 0.359375,2.140625 1.71875,2.140625 2.359375,0 3.296875,-3.3125 3.296875,-5.1875 z m -0.75,-0.125 c 0,0.453125 -0.0625,0.90625 -0.140625,1.359375 h -3.15625 c 0.234375,-1.03125 0.96875,-2.9375 2.265625,-2.9375 0.859375,0 1.03125,0.90625 1.03125,1.578125 z m -0.1875,1.671875 C 4.546875,-2.359375 4,-0.125 2.578125,-0.125 1.5625,-0.125 1.46875,-1.25 1.46875,-2.03125 1.46875,-2.515625 1.5625,-3 1.625,-3.484375 Z m 0,0"
           id="path5206" />
      </symbol>
    </g>
    <g
       id="g2264">
      <symbol
         overflow="visible"
         id="symbol2960">
        <path
           style="stroke:none"
           d=""
           id="path1139" />
      </symbol>
      <symbol
         overflow="visible"
         id="symbol731">
        <path
           style="stroke:none"
           d="M 3.671875,-3.640625 C 3.703125,-4.015625 3.75,-4.34375 3.828125,-4.75 3.71875,-4.796875 3.671875,-4.8125 3.625,-4.8125 c -0.3125,0 -0.609375,0.25 -0.96875,0.75 L 2.375,-3.671875 c -0.375,0.5625 -0.5,0.765625 -0.65625,1.125 l 0.078125,-0.40625 C 1.828125,-3.1875 1.90625,-3.59375 1.96875,-3.8125 l 0.0625,-0.25 c 0.046875,-0.171875 0.0625,-0.296875 0.0625,-0.421875 0,-0.203125 -0.078125,-0.328125 -0.234375,-0.328125 -0.203125,0 -0.578125,0.21875 -1.328125,0.75 l -0.265625,0.1875 0.0625,0.203125 0.3125,-0.203125 C 0.921875,-4.0625 1.03125,-4.109375 1.125,-4.109375 c 0.09375,0 0.171875,0.09375 0.171875,0.21875 C 1.296875,-3.3125 0.875,-1.25 0.46875,0.015625 L 0.5625,0.09375 C 0.71875,0.046875 0.875,0.015625 1.109375,-0.046875 L 1.234375,-0.0625 1.5,-1.25 c 0.171875,-0.828125 0.40625,-1.359375 0.84375,-1.9375 0.34375,-0.4375 0.609375,-0.640625 0.828125,-0.640625 0.140625,0 0.25,0.046875 0.359375,0.1875 z m 0,0"
           id="path2792" />
      </symbol>
    </g>
    <marker
       style="overflow:visible"
       id="marker4739-1"
       refX="0"
       refY="0"
       orient="auto"
       inkscape:stockid="Arrow1Mend"
       inkscape:isstock="true">
      <path
         transform="matrix(-0.4,0,0,-0.4,-4,0)"
         style="fill:#000000;fill-opacity:0.4;fill-rule:evenodd;stroke:#000000;stroke-width:1pt;stroke-opacity:0.4"
         d="M 0,0 5,-5 -12.5,0 5,5 Z"
         id="path4737-7" />
    </marker>
    <marker
       style="overflow:visible"
       id="Arrow1Mstart-1"
       refX="0"
       refY="0"
       orient="auto"
       inkscape:stockid="Arrow1Mstart"
       inkscape:isstock="true">
      <path
         transform="matrix(0.4,0,0,0.4,4,0)"
         style="fill:#000000;fill-opacity:0.4;fill-rule:evenodd;stroke:#000000;stroke-width:1pt;stroke-opacity:0.4"
         d="M 0,0 5,-5 -12.5,0 5,5 Z"
         id="path4447-5" />
    </marker>
    <g
       id="g7240">
      <symbol
         overflow="visible"
         id="symbol8811">
        <path
           style="stroke:none"
           d=""
           id="path5545" />
      </symbol>
      <symbol
         overflow="visible"
         id="symbol8872">
        <path
           style="stroke:none"
           d="m 4.59375,-2.9375 c 0,-1.0625 -0.75,-1.75 -1.875,-1.75 -0.359375,0 -0.609375,0.0625 -0.890625,0.21875 l -0.46875,0.28125 c -0.65625,0.390625 -0.9375,0.984375 -0.9375,1.9375 0,1.578125 0.796875,2.421875 2.28125,2.421875 0.5625,0 0.9375,-0.109375 1.578125,-0.4375 L 4.5,-0.734375 4.375,-0.890625 C 3.90625,-0.625 3.609375,-0.53125 3.203125,-0.53125 c -0.515625,0 -1,-0.28125 -1.25,-0.71875 -0.15625,-0.28125 -0.21875,-0.5 -0.234375,-0.96875 h 1.296875 c 0.578125,0 1.015625,-0.0625 1.578125,-0.203125 z M 2.5,-2.71875 H 2.453125 c -0.0625,0 -0.328125,-0.015625 -0.484375,-0.015625 L 1.65625,-2.75 C 1.6875,-3.734375 1.921875,-4.140625 2.5,-4.140625 c 0.578125,0 0.8125,0.40625 0.828125,1.390625 z m 0,0"
           id="path7693" />
      </symbol>
      <symbol
         overflow="visible"
         id="symbol1969">
        <path
           style="stroke:none"
           d=""
           id="path3517" />
      </symbol>
      <symbol
         overflow="visible"
         id="symbol908">
        <path
           style="stroke:none"
           d="M 2.5625,-2.546875 C 2.578125,-2.8125 2.625,-3.03125 2.671875,-3.3125 2.59375,-3.359375 2.578125,-3.359375 2.53125,-3.359375 c -0.203125,0 -0.421875,0.171875 -0.671875,0.515625 l -0.1875,0.28125 C 1.390625,-2.171875 1.3125,-2.03125 1.203125,-1.78125 L 1.25,-2.0625 c 0.03125,-0.171875 0.09375,-0.453125 0.125,-0.59375 l 0.046875,-0.1875 c 0.03125,-0.125 0.046875,-0.203125 0.046875,-0.296875 0,-0.140625 -0.0625,-0.21875 -0.171875,-0.21875 -0.140625,0 -0.40625,0.140625 -0.921875,0.515625 L 0.1875,-2.703125 0.234375,-2.5625 0.453125,-2.703125 C 0.640625,-2.84375 0.71875,-2.875 0.78125,-2.875 c 0.078125,0 0.125,0.0625 0.125,0.15625 0,0.40625 -0.296875,1.84375 -0.578125,2.734375 L 0.390625,0.0625 C 0.5,0.03125 0.609375,0 0.78125,-0.03125 L 0.859375,-0.046875 1.046875,-0.875 c 0.125,-0.578125 0.28125,-0.953125 0.59375,-1.34375 C 1.875,-2.53125 2.0625,-2.671875 2.21875,-2.671875 c 0.109375,0 0.171875,0.03125 0.25,0.125 z m 0,0"
           id="path6549" />
      </symbol>
    </g>
    <g
       id="g1013">
      <symbol
         overflow="visible"
         id="symbol1288">
        <path
           style="stroke:none"
           d=""
           id="path8739" />
      </symbol>
      <symbol
         overflow="visible"
         id="symbol1259">
        <path
           style="stroke:none"
           d="m 4.59375,-2.9375 c 0,-1.0625 -0.75,-1.75 -1.875,-1.75 -0.359375,0 -0.609375,0.0625 -0.890625,0.21875 l -0.46875,0.28125 c -0.65625,0.390625 -0.9375,0.984375 -0.9375,1.9375 0,1.578125 0.796875,2.421875 2.28125,2.421875 0.5625,0 0.9375,-0.109375 1.578125,-0.4375 L 4.5,-0.734375 4.375,-0.890625 C 3.90625,-0.625 3.609375,-0.53125 3.203125,-0.53125 c -0.515625,0 -1,-0.28125 -1.25,-0.71875 -0.15625,-0.28125 -0.21875,-0.5 -0.234375,-0.96875 h 1.296875 c 0.578125,0 1.015625,-0.0625 1.578125,-0.203125 z M 2.5,-2.71875 H 2.453125 c -0.0625,0 -0.328125,-0.015625 -0.484375,-0.015625 L 1.65625,-2.75 C 1.6875,-3.734375 1.921875,-4.140625 2.5,-4.140625 c 0.578125,0 0.8125,0.40625 0.828125,1.390625 z m 0,0"
           id="path8682" />
      </symbol>
      <symbol
         overflow="visible"
         id="symbol4300">
        <path
           style="stroke:none"
           d=""
           id="path7825" />
      </symbol>
      <symbol
         overflow="visible"
         id="symbol4632">
        <path
           style="stroke:none"
           d="m 4,-3.515625 c 0,-0.796875 -0.234375,-1.375 -1.125,-1.375 -1.8125,0 -2.375,2.015625 -2.375,3.5 0,0.828125 0.25,1.5 1.1875,1.5 1.65625,0 2.3125,-2.3125 2.3125,-3.625 z m -0.515625,-0.09375 c 0,0.3125 -0.0625,0.640625 -0.109375,0.953125 H 1.171875 C 1.34375,-3.375 1.84375,-4.703125 2.75,-4.703125 c 0.609375,0 0.734375,0.625 0.734375,1.09375 z M 3.34375,-2.4375 C 3.171875,-1.65625 2.796875,-0.09375 1.796875,-0.09375 1.09375,-0.09375 1.03125,-0.875 1.03125,-1.421875 1.03125,-1.75 1.09375,-2.09375 1.140625,-2.4375 Z m 0,0"
           id="path7776" />
      </symbol>
    </g>
    <g
       id="g377">
      <symbol
         overflow="visible"
         id="symbol27">
        <path
           style="stroke:none"
           d=""
           id="path6311" />
      </symbol>
      <symbol
         overflow="visible"
         id="symbol7434">
        <path
           style="stroke:none"
           d="m 4.59375,-2.9375 c 0,-1.0625 -0.75,-1.75 -1.875,-1.75 -0.359375,0 -0.609375,0.0625 -0.890625,0.21875 l -0.46875,0.28125 c -0.65625,0.390625 -0.9375,0.984375 -0.9375,1.9375 0,1.578125 0.796875,2.421875 2.28125,2.421875 0.5625,0 0.9375,-0.109375 1.578125,-0.4375 L 4.5,-0.734375 4.375,-0.890625 C 3.90625,-0.625 3.609375,-0.53125 3.203125,-0.53125 c -0.515625,0 -1,-0.28125 -1.25,-0.71875 -0.15625,-0.28125 -0.21875,-0.5 -0.234375,-0.96875 h 1.296875 c 0.578125,0 1.015625,-0.0625 1.578125,-0.203125 z M 2.5,-2.71875 H 2.453125 c -0.0625,0 -0.328125,-0.015625 -0.484375,-0.015625 L 1.65625,-2.75 C 1.6875,-3.734375 1.921875,-4.140625 2.5,-4.140625 c 0.578125,0 0.8125,0.40625 0.828125,1.390625 z m 0,0"
           id="path1167" />
      </symbol>
      <symbol
         overflow="visible"
         id="symbol8320">
        <path
           style="stroke:none"
           d=""
           id="path5017" />
      </symbol>
      <symbol
         overflow="visible"
         id="symbol4010">
        <path
           style="stroke:none"
           d="m 4.453125,-2.3125 c 0,-0.5625 -0.265625,-0.984375 -0.859375,-0.984375 -0.328125,0 -0.625,0.140625 -0.890625,0.3125 -0.28125,0.1875 -0.515625,0.4375 -0.65625,0.734375 -0.203125,0.4375 -0.34375,1.65625 -0.40625,2.125 -0.65625,-0.15625 -0.875,-0.6875 -0.875,-1.3125 0,-0.953125 0.53125,-1.578125 1.421875,-1.828125 L 2.234375,-3.3125 2.1875,-3.375 c -1.03125,0.15625 -2,0.84375 -2,1.96875 0,0.890625 0.609375,1.328125 1.4375,1.453125 C 1.546875,0.65625 1.421875,1.265625 1.296875,1.875 L 1.375,1.9375 C 1.53125,1.859375 1.6875,1.796875 1.84375,1.75 L 2.046875,0.03125 C 3.328125,0 4.453125,-0.984375 4.453125,-2.3125 Z m -0.5,0.109375 c 0,1.109375 -0.796875,1.984375 -1.90625,2.09375 l 0.1875,-1.125 C 2.34375,-1.859375 2.5,-3.0625 3.34375,-3.0625 c 0.484375,0 0.609375,0.453125 0.609375,0.859375 z m 0,0"
           id="path750" />
      </symbol>
    </g>
    <g
       id="g9679">
      <symbol
         overflow="visible"
         id="symbol6763">
        <path
           style="stroke:none"
           d=""
           id="path734" />
      </symbol>
      <symbol
         overflow="visible"
         id="symbol4216">
        <path
           style="stroke:none"
           d="m 0.203125,-0.875 c 0,0.203125 -0.015625,0.328125 -0.078125,0.640625 -0.015625,0.125 -0.03125,0.15625 -0.03125,0.21875 0.140625,0.078125 0.3125,0.125 0.421875,0.125 0.328125,0 0.71875,-0.28125 1.03125,-0.75 l 0.75,-1.171875 0.109375,0.6875 c 0.140625,0.84375 0.359375,1.234375 0.71875,1.234375 0.21875,0 0.546875,-0.171875 0.859375,-0.453125 L 4.46875,-0.78125 4.390625,-0.984375 C 4.03125,-0.671875 3.78125,-0.53125 3.625,-0.53125 c -0.15625,0 -0.28125,-0.09375 -0.390625,-0.296875 -0.078125,-0.1875 -0.1875,-0.5625 -0.25,-0.84375 L 2.8125,-2.6875 3.15625,-3.171875 c 0.46875,-0.640625 0.734375,-0.875 1.046875,-0.875 0.15625,0 0.28125,0.078125 0.328125,0.234375 l 0.140625,-0.046875 0.15625,-0.84375 C 4.703125,-4.78125 4.609375,-4.8125 4.53125,-4.8125 c -0.40625,0 -0.796875,0.359375 -1.421875,1.28125 l -0.375,0.546875 -0.046875,-0.46875 c -0.125,-1 -0.390625,-1.359375 -0.984375,-1.359375 -0.25,0 -0.484375,0.09375 -0.5625,0.21875 L 0.5625,-3.765625 0.734375,-3.671875 C 1.03125,-4 1.21875,-4.140625 1.421875,-4.140625 c 0.328125,0 0.546875,0.40625 0.71875,1.375 L 2.25,-2.140625 1.84375,-1.53125 c -0.421875,0.671875 -0.765625,1 -1.046875,1 -0.15625,0 -0.265625,-0.046875 -0.28125,-0.09375 L 0.40625,-0.90625 Z m 0,0"
           id="path3297" />
      </symbol>
    </g>
    <g
       id="g4162">
      <symbol
         overflow="visible"
         id="symbol9575">
        <path
           style="stroke:none"
           d=""
           id="path6329" />
      </symbol>
      <symbol
         overflow="visible"
         id="symbol6237">
        <path
           style="stroke:none"
           d="m -0.0625,1.796875 c -0.015625,0.0625 -0.015625,0.125 -0.015625,0.171875 0,0.4375 0.375,0.78125 0.8125,0.78125 1.0625,0 2.15625,-1.234375 2.75,-3.078125 L 4.890625,-4.71875 4.78125,-4.8125 c -0.296875,0.125 -0.53125,0.171875 -0.75,0.203125 l -0.34375,1.3125 c -0.125,0.46875 -0.46875,1.1875 -0.796875,1.6875 -0.34375,0.5 -0.84375,0.9375 -1.0625,0.9375 -0.109375,0 -0.203125,-0.21875 -0.1875,-0.46875 V -1.28125 l 0.15625,-1.921875 c 0.015625,-0.3125 0.03125,-0.6875 0.03125,-0.96875 0,-0.453125 -0.0625,-0.640625 -0.234375,-0.640625 -0.125,0 -0.265625,0.078125 -0.75,0.40625 l -0.8125,0.5625 0.109375,0.171875 0.5,-0.296875 L 0.671875,-4 c 0.109375,-0.0625 0.171875,-0.09375 0.21875,-0.09375 0.140625,0 0.21875,0.203125 0.21875,0.53125 0,0 0,0.0625 -0.015625,0.140625 L 0.921875,-1 v 0.40625 c 0,0.421875 0.171875,0.703125 0.421875,0.703125 0.375,0 1.203125,-0.84375 1.953125,-1.96875 L 2.8125,-0.15625 C 2.296875,1.609375 1.796875,2.328125 1.109375,2.328125 0.75,2.328125 0.484375,2.0625 0.484375,1.71875 0.484375,1.671875 0.5,1.578125 0.515625,1.5 L 0.40625,1.453125 Z m 0,0"
           id="path8353" />
      </symbol>
    </g>
    <g
       id="g8798">
      <symbol
         overflow="visible"
         id="symbol4244">
        <path
           style="stroke:none"
           d=""
           id="path278" />
      </symbol>
      <symbol
         overflow="visible"
         id="symbol5088">
        <path
           style="stroke:none"
           d="M -0.015625,-0.203125 0.078125,0.0625 c 0.296875,-0.234375 0.5625,-0.328125 0.90625,-0.328125 0.25,0 0.53125,0.0625 1.046875,0.171875 0.59375,0.15625 0.90625,0.203125 1.171875,0.203125 0.125,0 0.21875,-0.015625 0.5,-0.09375 0.109375,-0.625 0.1875,-0.96875 0.296875,-1.4375 H 3.78125 L 3.5625,-0.8125 c -0.046875,0.171875 -0.171875,0.25 -0.375,0.25 -0.125,0 -0.28125,-0.03125 -0.5,-0.078125 L 2.515625,-0.671875 C 2.1875,-0.75 1.84375,-0.796875 1.65625,-0.796875 c -0.328125,0 -0.59375,0.0625 -0.953125,0.203125 L 4.09375,-4.390625 4.140625,-4.71875 4.0625,-4.8125 3.828125,-4.578125 C 3.734375,-4.46875 3.625,-4.4375 3.484375,-4.4375 3.15625,-4.4375 2.625,-4.515625 2.15625,-4.640625 L 1.96875,-4.6875 C 1.6875,-4.765625 1.5,-4.8125 1.359375,-4.8125 c -0.171875,0 -0.375,0.03125 -0.609375,0.109375 l -0.328125,1.21875 h 0.21875 L 0.9375,-4.0625 c 0.171875,-0.046875 0.265625,-0.046875 0.390625,-0.046875 0.140625,0 0.25,0 0.453125,0.046875 0.328125,0.0625 0.59375,0.09375 0.796875,0.09375 0.359375,0 0.609375,-0.0625 0.9375,-0.234375 z m 0,0"
           id="path4316" />
      </symbol>
    </g>
    <g
       id="g30">
      <symbol
         overflow="visible"
         id="symbol6070">
        <path
           style="stroke:none"
           d=""
           id="path5971" />
      </symbol>
      <symbol
         overflow="visible"
         id="symbol5270">
        <path
           style="stroke:none"
           d="m 2.625,-6.875 c -1.546875,0 -2.328125,1.234375 -2.328125,3.640625 C 0.296875,-2.0625 0.5,-1.0625 0.84375,-0.5625 1.203125,-0.078125 1.75,0.203125 2.375,0.203125 c 1.5,0 2.265625,-1.296875 2.265625,-3.859375 0,-2.171875 -0.65625,-3.21875 -2.015625,-3.21875 z m -0.1875,0.359375 c 0.96875,0 1.359375,0.96875 1.359375,3.359375 0,2.125 -0.375,3 -1.296875,3 -0.96875,0 -1.375,-1 -1.375,-3.4375 0,-2.09375 0.375,-2.921875 1.3125,-2.921875 z m 0,0"
           id="path9949" />
      </symbol>
    </g>
    <g
       id="g920">
      <symbol
         overflow="visible"
         id="symbol5553">
        <path
           style="stroke:none"
           d=""
           id="path766" />
      </symbol>
      <symbol
         overflow="visible"
         id="symbol4875">
        <path
           style="stroke:none"
           d="m 4,-7.0625 c -2.265625,0 -3.78125,1.46875 -3.78125,3.65625 0,2.09375 1.453125,3.609375 3.46875,3.609375 2.234375,0 3.921875,-1.671875 3.921875,-3.859375 C 7.609375,-5.75 6.21875,-7.0625 4,-7.0625 Z m -0.15625,0.40625 c 1.703125,0 2.703125,1.21875 2.703125,3.296875 0,1.96875 -0.921875,3.140625 -2.453125,3.140625 -1.6875,0 -2.8125,-1.421875 -2.8125,-3.546875 0,-1.84375 0.921875,-2.890625 2.5625,-2.890625 z m 0,0"
           id="path9379" />
      </symbol>
    </g>
    <g
       id="g1997">
      <symbol
         overflow="visible"
         id="symbol6393">
        <path
           style="stroke:none"
           d=""
           id="path2276" />
      </symbol>
      <symbol
         overflow="visible"
         id="symbol1421">
        <path
           style="stroke:none"
           d="m 7.296875,-1.203125 c 0,0.796875 -0.046875,0.859375 -0.515625,0.90625 l -0.328125,0.03125 V 0.03125 C 6.90625,0.015625 7.203125,0 7.71875,0 8.28125,0 8.640625,0.015625 9.234375,0.03125 V -0.265625 L 8.75,-0.296875 c -0.453125,-0.03125 -0.5,-0.109375 -0.5,-0.90625 v -4.46875 c 0,-0.78125 0.046875,-0.875 0.5,-0.890625 L 9.171875,-6.59375 V -6.890625 C 8.40625,-6.875 8.40625,-6.875 8.25,-6.875 c -0.15625,0 -0.15625,0 -0.953125,-0.015625 L 4.6875,-1.359375 2.046875,-6.890625 C 1.25,-6.875 1.25,-6.875 1.109375,-6.875 c -0.15625,0 -0.15625,0 -0.953125,-0.015625 v 0.296875 l 0.4375,0.03125 c 0.46875,0.015625 0.515625,0.109375 0.515625,0.890625 v 4.46875 c 0,0.78125 -0.046875,0.875 -0.515625,0.90625 l -0.4375,0.03125 V 0.03125 C 1.140625,0 1.140625,0 1.3125,0 1.46875,0 1.46875,0 2.515625,0.03125 v -0.296875 l -0.4375,-0.03125 C 1.609375,-0.328125 1.5625,-0.421875 1.5625,-1.203125 v -4.5625 L 4.34375,0.125 h 0.203125 c 0.0625,-0.140625 0.125,-0.296875 0.1875,-0.453125 C 4.890625,-0.71875 5.015625,-1 5.078125,-1.140625 L 6.859375,-4.90625 C 7,-5.1875 7.125,-5.421875 7.296875,-5.765625 Z m 0,0"
           id="path702" />
      </symbol>
    </g>
    <g
       id="g87">
      <symbol
         overflow="visible"
         id="symbol6426">
        <path
           style="stroke:none"
           d=""
           id="path2879" />
      </symbol>
      <symbol
         overflow="visible"
         id="symbol2930">
        <path
           style="stroke:none"
           d="m 1.5,1.71875 c 0,-0.765625 0.25,-1.125 0.765625,-1.125 0.296875,0 0.578125,0.078125 0.96875,0.28125 l 1.4375,0.765625 C 5.28125,1.9375 5.453125,2 5.859375,2 6.59375,2 6.953125,1.578125 7.0625,0.609375 h -0.25 C 6.75,1.140625 6.53125,1.390625 6.125,1.390625 5.96875,1.390625 5.765625,1.34375 5.515625,1.25 L 3.15625,0.296875 C 2.90625,0.1875 2.734375,0.15625 2.5,0.15625 c -0.734375,0 -1.25,0.5 -1.25,1.265625 0,0.015625 0,0.078125 0.015625,0.15625 z m 3.125,-8.75 c -2.359375,0 -4.09375,1.8125 -4.09375,4.3125 0,1.890625 0.9375,2.890625 2.6875,2.890625 0.84375,0 1.5625,-0.1875 2.203125,-0.59375 1.25,-0.78125 2.03125,-2.234375 2.03125,-3.8125 0,-1.78125 -1.03125,-2.796875 -2.828125,-2.796875 z M 4.3125,-6.625 c 0.484375,0 0.96875,0.125 1.296875,0.328125 0.65625,0.375 0.96875,1.125 0.96875,2.21875 0,1.25 -0.390625,2.390625 -1.078125,3.078125 -0.484375,0.5 -1.140625,0.765625 -1.90625,0.765625 -1.4375,0 -2.1875,-0.859375 -2.1875,-2.53125 C 1.40625,-4.0625 1.796875,-5.21875 2.5,-5.90625 2.953125,-6.390625 3.5625,-6.625 4.3125,-6.625 Z m 0,0"
           id="path9829" />
      </symbol>
    </g>
    <g
       id="g4981">
      <symbol
         overflow="visible"
         id="symbol23">
        <path
           style="stroke:none"
           d=""
           id="path4134" />
      </symbol>
      <symbol
         overflow="visible"
         id="symbol5004">
        <path
           style="stroke:none"
           d="m 2.640625,-6.1875 c 0.5625,-0.015625 0.890625,-0.03125 1.453125,-0.03125 0.53125,0 0.953125,0.09375 0.96875,0.203125 L 5.140625,-5.28125 H 5.5 l 0.140625,-1.40625 -0.0625,-0.078125 c -0.359375,-0.015625 -0.546875,-0.03125 -0.9375,-0.03125 -0.234375,0 -0.53125,0.015625 -1.078125,0.015625 -0.734375,0.015625 -1.015625,0.015625 -1.296875,0.015625 -0.359375,0 -0.78125,0 -1.875,-0.015625 v 0.359375 L 0.75,-6.390625 c 0.453125,0.046875 0.484375,0.09375 0.484375,0.984375 v 4.453125 c 0,0.34375 -0.046875,0.5 -0.203125,0.578125 l -0.3125,0.171875 V 0.03125 C 1.703125,0 1.703125,0 1.9375,0 H 2.265625 C 3.28125,0.03125 3.671875,0.046875 4.1875,0.046875 4.703125,0.046875 5.015625,0.03125 5.59375,0 L 5.640625,-0.078125 5.75,-1.65625 H 5.359375 l -0.21875,0.9375 c 0,0.015625 -0.015625,0.015625 -0.03125,0.03125 -0.3125,0.09375 -0.609375,0.140625 -1.15625,0.140625 -0.421875,0 -0.796875,-0.015625 -1.3125,-0.03125 v -2.65625 c 0.28125,-0.03125 0.453125,-0.03125 0.671875,-0.03125 h 0.65625 c 0.375,0 0.53125,0.109375 0.5625,0.359375 l 0.0625,0.5 H 5 L 4.96875,-3.484375 c 0,-0.109375 0,-0.109375 0.03125,-1.0625 H 4.59375 l -0.0625,0.5625 c -0.015625,0.171875 -0.140625,0.21875 -0.5625,0.21875 H 3.3125 c -0.328125,0 -0.46875,0 -0.671875,-0.015625 z m 0,0"
           id="path3518" />
      </symbol>
      <symbol
         overflow="visible"
         id="symbol5222">
        <path
           style="stroke:none"
           d=""
           id="path4701" />
      </symbol>
      <symbol
         overflow="visible"
         id="symbol8179">
        <path
           style="stroke:none"
           d="M 3,1.9375 C 2.28125,1.046875 2.03125,0.5625 1.765625,-0.328125 1.5625,-1.046875 1.453125,-1.796875 1.453125,-2.65625 1.453125,-3.484375 1.5625,-4.1875 1.75,-4.828125 2,-5.65625 2.265625,-6.125 3,-6.984375 l -0.1875,-0.25 c -1.03125,0.921875 -1.453125,1.46875 -1.828125,2.453125 -0.25,0.671875 -0.390625,1.375 -0.390625,2.125 0,1.078125 0.25,2.078125 0.734375,2.96875 C 1.671875,0.984375 2,1.375 2.8125,2.140625 Z m 0,0"
           id="path9030" />
      </symbol>
      <symbol
         overflow="visible"
         id="symbol8675">
        <path
           style="stroke:none"
           d="m 0.515625,2.140625 c 0.6875,-0.640625 0.96875,-0.96875 1.28125,-1.46875 0.609375,-0.96875 0.921875,-2.125 0.921875,-3.3125 0,-0.765625 -0.125,-1.46875 -0.390625,-2.140625 -0.375,-0.96875 -0.78125,-1.515625 -1.8125,-2.453125 l -0.203125,0.25 c 0.734375,0.859375 1,1.328125 1.25,2.15625 0.203125,0.640625 0.296875,1.34375 0.296875,2.171875 0,0.859375 -0.09375,1.609375 -0.296875,2.328125 -0.265625,0.890625 -0.53125,1.375 -1.25,2.265625 z m 0,0"
           id="path8556" />
      </symbol>
      <symbol
         overflow="visible"
         id="symbol4176">
        <path
           style="stroke:none"
           d=""
           id="path9996" />
      </symbol>
      <symbol
         overflow="visible"
         id="symbol6871">
        <path
           style="stroke:none"
           d="M 9.34375,-6.625 9.375,-6.890625 H 9.09375 C 8.8125,-6.875 8.65625,-6.875 8.53125,-6.875 H 8.296875 l -0.59375,-0.015625 -0.15625,0.296875 c -0.265625,0.515625 -0.453125,0.859375 -0.6875,1.25 l -2.453125,4.203125 -1.5,-5.75 H 2.625 C 2.359375,-6.875 2.203125,-6.875 2.078125,-6.875 h -0.25 L 1.25,-6.890625 1.21875,-6.625 l 0.25,0.03125 C 2,-6.5625 2.171875,-6.453125 2.171875,-6.203125 c 0,0.0625 -0.015625,0.125 -0.03125,0.203125 l -1.4375,5.078125 c -0.171875,0.515625 -0.3125,0.640625 -0.859375,0.6875 L -0.1875,0.03125 0.203125,0.015625 C 0.53125,0.015625 0.78125,0 0.921875,0 c 0.140625,0 0.40625,0.015625 0.75,0.015625 L 2.03125,0.03125 2.046875,-0.25 1.671875,-0.28125 C 1.359375,-0.296875 1.1875,-0.40625 1.1875,-0.546875 c 0,-0.09375 0.015625,-0.234375 0.0625,-0.40625 l 1.25,-4.625 1.484375,5.75 h 0.21875 l 0.578125,-1.03125 c 0.765625,-1.40625 1.703125,-3.015625 2.375,-4.125 l 0.515625,-0.875 -0.359375,5.1875 C 7.265625,-0.390625 7.140625,-0.3125 6.640625,-0.28125 L 6.328125,-0.25 6.296875,0.03125 6.765625,0.015625 C 7.1875,0.015625 7.484375,0 7.640625,0 7.796875,0 8.09375,0.015625 8.5,0.015625 L 8.96875,0.03125 8.984375,-0.25 8.625,-0.28125 C 8.265625,-0.3125 8.078125,-0.421875 8.078125,-0.625 L 8.09375,-1 8.5,-6.296875 c 0.015625,-0.1875 0.171875,-0.28125 0.46875,-0.296875 z m 0,0"
           id="path7867" />
      </symbol>
    </g>
    <g
       id="g1677">
      <symbol
         overflow="visible"
         id="symbol9955">
        <path
           style="stroke:none"
           d=""
           id="path2461" />
      </symbol>
      <symbol
         overflow="visible"
         id="symbol7159">
        <path
           style="stroke:none"
           d="M 9.34375,-6.625 9.375,-6.890625 H 9.09375 C 8.8125,-6.875 8.65625,-6.875 8.53125,-6.875 H 8.296875 l -0.59375,-0.015625 -0.15625,0.296875 c -0.265625,0.515625 -0.453125,0.859375 -0.6875,1.25 l -2.453125,4.203125 -1.5,-5.75 H 2.625 C 2.359375,-6.875 2.203125,-6.875 2.078125,-6.875 h -0.25 L 1.25,-6.890625 1.21875,-6.625 l 0.25,0.03125 C 2,-6.5625 2.171875,-6.453125 2.171875,-6.203125 c 0,0.0625 -0.015625,0.125 -0.03125,0.203125 l -1.4375,5.078125 c -0.171875,0.515625 -0.3125,0.640625 -0.859375,0.6875 L -0.1875,0.03125 0.203125,0.015625 C 0.53125,0.015625 0.78125,0 0.921875,0 c 0.140625,0 0.40625,0.015625 0.75,0.015625 L 2.03125,0.03125 2.046875,-0.25 1.671875,-0.28125 C 1.359375,-0.296875 1.1875,-0.40625 1.1875,-0.546875 c 0,-0.09375 0.015625,-0.234375 0.0625,-0.40625 l 1.25,-4.625 1.484375,5.75 h 0.21875 l 0.578125,-1.03125 c 0.765625,-1.40625 1.703125,-3.015625 2.375,-4.125 l 0.515625,-0.875 -0.359375,5.1875 C 7.265625,-0.390625 7.140625,-0.3125 6.640625,-0.28125 L 6.328125,-0.25 6.296875,0.03125 6.765625,0.015625 C 7.1875,0.015625 7.484375,0 7.640625,0 7.796875,0 8.09375,0.015625 8.5,0.015625 L 8.96875,0.03125 8.984375,-0.25 8.625,-0.28125 C 8.265625,-0.3125 8.078125,-0.421875 8.078125,-0.625 L 8.09375,-1 8.5,-6.296875 c 0.015625,-0.1875 0.171875,-0.28125 0.46875,-0.296875 z m 0,0"
           id="path4238" />
      </symbol>
    </g>
    <g
       id="g1359">
      <symbol
         overflow="visible"
         id="symbol3480">
        <path
           style="stroke:none"
           d=""
           id="path3245" />
      </symbol>
      <symbol
         overflow="visible"
         id="symbol2927">
        <path
           style="stroke:none"
           d="m 4.625,-7.03125 c -2.359375,0 -4.09375,1.8125 -4.09375,4.3125 0,1.890625 0.9375,2.890625 2.6875,2.890625 0.84375,0 1.5625,-0.1875 2.203125,-0.59375 1.25,-0.78125 2.03125,-2.234375 2.03125,-3.8125 0,-1.78125 -1.03125,-2.796875 -2.828125,-2.796875 z M 4.3125,-6.625 c 0.484375,0 0.96875,0.125 1.296875,0.328125 0.65625,0.375 0.96875,1.125 0.96875,2.21875 0,1.25 -0.390625,2.390625 -1.078125,3.078125 -0.484375,0.5 -1.140625,0.765625 -1.90625,0.765625 -1.4375,0 -2.1875,-0.859375 -2.1875,-2.53125 C 1.40625,-4.0625 1.796875,-5.21875 2.5,-5.90625 2.953125,-6.390625 3.5625,-6.625 4.3125,-6.625 Z m 0,0"
           id="path9603" />
      </symbol>
    </g>
    <marker
       style="overflow:visible"
       id="marker3120-6"
       refX="0"
       refY="0"
       orient="auto"
       inkscape:stockid="Arrow1Send"
       inkscape:isstock="true">
      <path
         transform="matrix(-0.2,0,0,-0.2,-1.2,0)"
         style="fill:#008800;fill-opacity:1;fill-rule:evenodd;stroke:#008800;stroke-width:1pt;stroke-opacity:1"
         d="M 0,0 5,-5 -12.5,0 5,5 Z"
         id="path3118-7" />
    </marker>
    <marker
       style="overflow:visible"
       id="marker7404-2"
       refX="0"
       refY="0"
       orient="auto"
       inkscape:stockid="Arrow1Mend"
       inkscape:isstock="true">
      <path
         transform="matrix(-0.4,0,0,-0.4,-4,0)"
         style="fill:#d70000;fill-opacity:0.996078;fill-rule:evenodd;stroke:#d70000;stroke-width:1pt;stroke-opacity:0.996078"
         d="M 0,0 5,-5 -12.5,0 5,5 Z"
         id="path7402-9" />
    </marker>
    <marker
       style="overflow:visible"
       id="marker4862-1"
       refX="0"
       refY="0"
       orient="auto"
       inkscape:stockid="Arrow1Mend"
       inkscape:isstock="true">
      <path
         transform="matrix(-0.4,0,0,-0.4,-4,0)"
         style="fill:#008800;fill-opacity:1;fill-rule:evenodd;stroke:#008800;stroke-width:1pt;stroke-opacity:1"
         d="M 0,0 5,-5 -12.5,0 5,5 Z"
         id="path4860-2" />
    </marker>
    <marker
       style="overflow:visible"
       id="marker4739-7"
       refX="0"
       refY="0"
       orient="auto"
       inkscape:stockid="Arrow1Mend"
       inkscape:isstock="true">
      <path
         transform="matrix(-0.4,0,0,-0.4,-4,0)"
         style="fill:#000000;fill-opacity:0.4;fill-rule:evenodd;stroke:#000000;stroke-width:1pt;stroke-opacity:0.4"
         d="M 0,0 5,-5 -12.5,0 5,5 Z"
         id="path4737-0" />
    </marker>
    <marker
       style="overflow:visible"
       id="Arrow1Mstart-9"
       refX="0"
       refY="0"
       orient="auto"
       inkscape:stockid="Arrow1Mstart"
       inkscape:isstock="true">
      <path
         transform="matrix(0.4,0,0,0.4,4,0)"
         style="fill:#000000;fill-opacity:0.4;fill-rule:evenodd;stroke:#000000;stroke-width:1pt;stroke-opacity:0.4"
         d="M 0,0 5,-5 -12.5,0 5,5 Z"
         id="path4447-3" />
    </marker>
    <marker
       style="overflow:visible"
       id="marker4862-4-6"
       refX="0"
       refY="0"
       orient="auto"
       inkscape:stockid="Arrow1Mend"
       inkscape:isstock="true">
      <path
         transform="matrix(-0.4,0,0,-0.4,-4,0)"
         style="fill:#008800;fill-opacity:1;fill-rule:evenodd;stroke:#008800;stroke-width:1pt;stroke-opacity:1"
         d="M 0,0 5,-5 -12.5,0 5,5 Z"
         id="path4860-9-0" />
    </marker>
    <marker
       style="overflow:visible"
       id="Arrow1Sstart-6"
       refX="0"
       refY="0"
       orient="auto"
       inkscape:stockid="Arrow1Sstart"
       inkscape:isstock="true">
      <path
         transform="matrix(0.2,0,0,0.2,1.2,0)"
         style="fill:#008800;fill-opacity:0.952941;fill-rule:evenodd;stroke:#008800;stroke-width:1pt;stroke-opacity:0.952941"
         d="M 0,0 5,-5 -12.5,0 5,5 Z"
         id="path4453-2" />
    </marker>
    <marker
       style="overflow:visible"
       id="marker8130-8"
       refX="0"
       refY="0"
       orient="auto"
       inkscape:stockid="Arrow1Send"
       inkscape:isstock="true">
      <path
         transform="matrix(-0.2,0,0,-0.2,-1.2,0)"
         style="fill:#008800;fill-opacity:1;fill-rule:evenodd;stroke:#008800;stroke-width:1pt;stroke-opacity:1"
         d="M 0,0 5,-5 -12.5,0 5,5 Z"
         id="path8128-7" />
    </marker>
    <g
       id="g3282">
      <symbol
         overflow="visible"
         id="symbol3199">
        <path
           style="stroke:none;"
           d=""
           id="path9150" />
      </symbol>
      <symbol
         overflow="visible"
         id="symbol6804">
        <path
           style="stroke:none;"
           d="M 4.59375 -2.9375 C 4.59375 -4 3.84375 -4.6875 2.71875 -4.6875 C 2.359375 -4.6875 2.109375 -4.625 1.828125 -4.46875 L 1.359375 -4.1875 C 0.703125 -3.796875 0.421875 -3.203125 0.421875 -2.25 C 0.421875 -0.671875 1.21875 0.171875 2.703125 0.171875 C 3.265625 0.171875 3.640625 0.0625 4.28125 -0.265625 L 4.5 -0.734375 L 4.375 -0.890625 C 3.90625 -0.625 3.609375 -0.53125 3.203125 -0.53125 C 2.6875 -0.53125 2.203125 -0.8125 1.953125 -1.25 C 1.796875 -1.53125 1.734375 -1.75 1.71875 -2.21875 L 3.015625 -2.21875 C 3.59375 -2.21875 4.03125 -2.28125 4.59375 -2.421875 Z M 2.5 -2.71875 L 2.453125 -2.71875 C 2.390625 -2.71875 2.125 -2.734375 1.96875 -2.734375 L 1.65625 -2.75 C 1.6875 -3.734375 1.921875 -4.140625 2.5 -4.140625 C 3.078125 -4.140625 3.3125 -3.734375 3.328125 -2.75 Z M 2.5 -2.71875 "
           id="path3651" />
      </symbol>
      <symbol
         overflow="visible"
         id="symbol3246">
        <path
           style="stroke:none;"
           d=""
           id="path3960" />
      </symbol>
      <symbol
         overflow="visible"
         id="symbol5784">
        <path
           style="stroke:none;"
           d="M 0 -0.140625 L 0.0625 0.046875 C 0.265625 -0.125 0.453125 -0.1875 0.6875 -0.1875 C 0.859375 -0.1875 1.0625 -0.140625 1.421875 -0.0625 C 1.84375 0.046875 2.0625 0.078125 2.25 0.078125 C 2.328125 0.078125 2.390625 0.0625 2.59375 0 C 2.671875 -0.421875 2.71875 -0.65625 2.796875 -0.984375 L 2.640625 -0.984375 L 2.5 -0.578125 C 2.453125 -0.453125 2.375 -0.390625 2.21875 -0.390625 C 2.140625 -0.390625 2.03125 -0.40625 1.875 -0.453125 L 1.75 -0.46875 C 1.53125 -0.515625 1.296875 -0.5625 1.15625 -0.5625 C 0.9375 -0.5625 0.75 -0.515625 0.5 -0.40625 L 2.859375 -3.078125 L 2.90625 -3.296875 L 2.84375 -3.359375 L 2.671875 -3.203125 C 2.609375 -3.125 2.53125 -3.09375 2.4375 -3.09375 C 2.203125 -3.09375 1.84375 -3.15625 1.5 -3.25 L 1.375 -3.28125 C 1.1875 -3.328125 1.046875 -3.359375 0.953125 -3.359375 C 0.828125 -3.359375 0.6875 -3.34375 0.515625 -3.296875 L 0.296875 -2.4375 L 0.453125 -2.4375 L 0.65625 -2.84375 C 0.78125 -2.875 0.84375 -2.875 0.921875 -2.875 C 1.03125 -2.875 1.09375 -2.875 1.234375 -2.84375 C 1.484375 -2.796875 1.65625 -2.78125 1.8125 -2.78125 C 2.0625 -2.78125 2.21875 -2.8125 2.453125 -2.9375 Z M 0 -0.140625 "
           id="path7333" />
      </symbol>
    </g>
    <g
       id="g5658">
      <symbol
         overflow="visible"
         id="symbol2332">
        <path
           style="stroke:none;"
           d=""
           id="path4990" />
      </symbol>
      <symbol
         overflow="visible"
         id="symbol210">
        <path
           style="stroke:none;"
           d="M 1.046875 -6.625 L 1.59375 -6.59375 C 1.828125 -6.59375 1.9375 -6.515625 1.9375 -6.328125 C 1.9375 -6.1875 1.90625 -5.875 1.859375 -5.578125 L 1.109375 -1.25 C 0.953125 -0.34375 0.9375 -0.3125 0.53125 -0.28125 L 0.125 -0.25 L 0.09375 0.03125 L 0.515625 0.015625 C 0.921875 0.015625 1.21875 0 1.40625 0 C 1.578125 0 1.859375 0.015625 2.265625 0.015625 L 2.796875 0.03125 L 2.828125 -0.25 L 2.171875 -0.28125 C 1.90625 -0.296875 1.8125 -0.375 1.8125 -0.578125 C 1.8125 -0.671875 1.828125 -0.734375 1.859375 -0.921875 L 2.671875 -5.78125 C 2.671875 -5.796875 2.71875 -5.984375 2.765625 -6.1875 C 2.765625 -6.234375 2.796875 -6.328125 2.828125 -6.453125 C 3.1875 -6.515625 3.34375 -6.546875 3.53125 -6.546875 C 4.5625 -6.546875 5.046875 -6.09375 5.046875 -5.171875 C 5.046875 -4.09375 4.328125 -3.21875 3.453125 -3.21875 C 3.234375 -3.21875 3.03125 -3.265625 2.65625 -3.40625 L 2.6875 -3.09375 C 3.046875 -2.921875 3.25 -2.875 3.53125 -2.875 C 4.828125 -2.875 5.921875 -4.03125 5.921875 -5.390625 C 5.921875 -6.40625 5.296875 -6.921875 4.109375 -6.890625 L 2.734375 -6.875 L 1.609375 -6.890625 L 1.078125 -6.890625 Z M 1.046875 -6.625 "
           id="path3061" />
      </symbol>
    </g>
    <g
       id="g5945">
      <symbol
         overflow="visible"
         id="symbol4993">
        <path
           style="stroke:none;"
           d=""
           id="path8676" />
      </symbol>
      <symbol
         overflow="visible"
         id="symbol6264">
        <path
           style="stroke:none;"
           d="M 4.109375 -4.359375 C 3.546875 -4.59375 3.265625 -4.671875 2.921875 -4.671875 C 2.65625 -4.671875 2.40625 -4.609375 2.15625 -4.484375 L 1.28125 -4.03125 C 0.71875 -3.734375 0.34375 -3 0.34375 -2.15625 C 0.34375 -1.359375 0.625 -0.703125 1.109375 -0.296875 C 1.453125 -0.015625 1.90625 0.125 2.5625 0.125 C 2.765625 0.125 2.984375 0.078125 3.046875 0.046875 L 4.140625 -0.890625 L 4.09375 0.03125 C 4.578125 0.015625 4.75 0 4.859375 0 C 4.9375 0 5.078125 0 5.296875 0.015625 C 5.359375 0.015625 5.5625 0.015625 5.765625 0.03125 L 5.765625 -0.265625 L 5.3125 -0.296875 C 4.96875 -0.3125 4.9375 -0.390625 4.9375 -1.015625 L 4.9375 -7.15625 L 4.859375 -7.234375 C 4.421875 -7.0625 4.09375 -6.984375 3.296875 -6.875 L 3.296875 -6.59375 L 3.859375 -6.59375 C 4.03125 -6.59375 4.109375 -6.484375 4.109375 -6.1875 Z M 4.109375 -2.203125 C 4.109375 -1.5625 4.09375 -1.453125 3.953125 -1.21875 C 3.671875 -0.75 3.1875 -0.453125 2.71875 -0.453125 C 1.84375 -0.453125 1.21875 -1.296875 1.21875 -2.484375 C 1.21875 -3.5625 1.75 -4.203125 2.65625 -4.203125 C 3.03125 -4.203125 3.421875 -4.078125 3.78125 -3.84375 C 3.984375 -3.703125 4.109375 -3.5625 4.109375 -3.484375 Z M 4.109375 -2.203125 "
           id="path1948" />
      </symbol>
      <symbol
         overflow="visible"
         id="symbol790">
        <path
           style="stroke:none;"
           d=""
           id="path3364" />
      </symbol>
      <symbol
         overflow="visible"
         id="symbol7785">
        <path
           style="stroke:none;"
           d="M 4.53125 -6.296875 C 4.53125 -6.796875 4.140625 -7.109375 3.65625 -7.109375 C 2.046875 -7.109375 1.625 -4.3125 1.328125 -3.234375 L 0.15625 -2.4375 L 0.265625 -2.265625 L 1.21875 -2.90625 C 1.0625 -2.328125 0.75 -1.625 0.75 -1 C 0.75 -0.375 1.125 0.125 1.796875 0.125 C 2.65625 0.125 3.3125 -0.734375 3.65625 -1.421875 L 3.46875 -1.5 C 3.203125 -1 2.71875 -0.265625 2.078125 -0.265625 C 1.671875 -0.265625 1.453125 -0.59375 1.453125 -0.96875 C 1.453125 -1.5625 2 -3.046875 2.171875 -3.625 C 2.96875 -4.15625 4.53125 -5.21875 4.53125 -6.296875 Z M 4.234375 -6.234375 C 4.234375 -5.359375 2.90625 -4.390625 2.265625 -3.9375 L 2.734375 -5.46875 C 2.875 -5.9375 3.15625 -6.71875 3.734375 -6.71875 C 4.03125 -6.71875 4.234375 -6.546875 4.234375 -6.234375 Z M 4.234375 -6.234375 "
           id="path9976" />
      </symbol>
      <symbol
         overflow="visible"
         id="symbol2172">
        <path
           style="stroke:none;"
           d=""
           id="path8508" />
      </symbol>
      <symbol
         overflow="visible"
         id="symbol1233">
        <path
           style="stroke:none;"
           d="M 0.734375 -4.625 L 1.109375 -4.609375 C 1.28125 -4.609375 1.359375 -4.546875 1.359375 -4.421875 C 1.359375 -4.328125 1.328125 -4.109375 1.296875 -3.890625 L 0.78125 -0.875 C 0.65625 -0.234375 0.65625 -0.21875 0.375 -0.1875 L 0.09375 -0.171875 L 0.0625 0.015625 L 0.359375 0.015625 C 0.640625 0 0.859375 0 0.984375 0 C 1.09375 0 1.296875 0 1.578125 0.015625 L 1.953125 0.015625 L 1.96875 -0.171875 L 1.515625 -0.1875 C 1.34375 -0.203125 1.265625 -0.265625 1.265625 -0.40625 C 1.265625 -0.46875 1.28125 -0.515625 1.296875 -0.640625 L 1.875 -4.046875 C 1.875 -4.046875 1.890625 -4.1875 1.9375 -4.328125 C 1.9375 -4.359375 1.953125 -4.421875 1.984375 -4.515625 C 2.234375 -4.5625 2.34375 -4.578125 2.46875 -4.578125 C 3.1875 -4.578125 3.53125 -4.265625 3.53125 -3.609375 C 3.53125 -2.859375 3.03125 -2.25 2.40625 -2.25 C 2.265625 -2.25 2.125 -2.28125 1.859375 -2.390625 L 1.875 -2.171875 C 2.125 -2.046875 2.265625 -2 2.46875 -2 C 3.375 -2 4.140625 -2.828125 4.140625 -3.765625 C 4.140625 -4.46875 3.703125 -4.84375 2.875 -4.828125 L 1.90625 -4.796875 L 1.125 -4.8125 L 0.75 -4.828125 Z M 0.734375 -4.625 "
           id="path2869" />
      </symbol>
    </g>
    <marker
       style="overflow:visible"
       id="Arrow1Mstart-9-9"
       refX="0"
       refY="0"
       orient="auto"
       inkscape:stockid="Arrow1Mstart"
       inkscape:isstock="true">
      <path
         transform="matrix(0.4,0,0,0.4,4,0)"
         style="fill:#000000;fill-opacity:0.4;fill-rule:evenodd;stroke:#000000;stroke-width:1pt;stroke-opacity:0.4"
         d="M 0,0 5,-5 -12.5,0 5,5 Z"
         id="path4447-3-4" />
    </marker>
    <g
       id="g2424">
      <symbol
         overflow="visible"
         id="symbol7744">
        <path
           style="stroke:none;"
           d=""
           id="path3637" />
      </symbol>
      <symbol
         overflow="visible"
         id="symbol8416">
        <path
           style="stroke:none;"
           d="M 9.34375 -6.625 L 9.375 -6.890625 L 9.09375 -6.890625 C 8.8125 -6.875 8.65625 -6.875 8.53125 -6.875 L 8.296875 -6.875 L 7.703125 -6.890625 L 7.546875 -6.59375 C 7.28125 -6.078125 7.09375 -5.734375 6.859375 -5.34375 L 4.40625 -1.140625 L 2.90625 -6.890625 L 2.625 -6.890625 C 2.359375 -6.875 2.203125 -6.875 2.078125 -6.875 L 1.828125 -6.875 L 1.25 -6.890625 L 1.21875 -6.625 L 1.46875 -6.59375 C 2 -6.5625 2.171875 -6.453125 2.171875 -6.203125 C 2.171875 -6.140625 2.15625 -6.078125 2.140625 -6 L 0.703125 -0.921875 C 0.53125 -0.40625 0.390625 -0.28125 -0.15625 -0.234375 L -0.1875 0.03125 L 0.203125 0.015625 C 0.53125 0.015625 0.78125 0 0.921875 0 C 1.0625 0 1.328125 0.015625 1.671875 0.015625 L 2.03125 0.03125 L 2.046875 -0.25 L 1.671875 -0.28125 C 1.359375 -0.296875 1.1875 -0.40625 1.1875 -0.546875 C 1.1875 -0.640625 1.203125 -0.78125 1.25 -0.953125 L 2.5 -5.578125 L 3.984375 0.171875 L 4.203125 0.171875 L 4.78125 -0.859375 C 5.546875 -2.265625 6.484375 -3.875 7.15625 -4.984375 L 7.671875 -5.859375 L 7.3125 -0.671875 C 7.265625 -0.390625 7.140625 -0.3125 6.640625 -0.28125 L 6.328125 -0.25 L 6.296875 0.03125 L 6.765625 0.015625 C 7.1875 0.015625 7.484375 0 7.640625 0 C 7.796875 0 8.09375 0.015625 8.5 0.015625 L 8.96875 0.03125 L 8.984375 -0.25 L 8.625 -0.28125 C 8.265625 -0.3125 8.078125 -0.421875 8.078125 -0.625 L 8.09375 -1 L 8.5 -6.296875 C 8.515625 -6.484375 8.671875 -6.578125 8.96875 -6.59375 Z M 9.34375 -6.625 "
           id="path5036" />
      </symbol>
      <symbol
         overflow="visible"
         id="symbol5539">
        <path
           style="stroke:none;"
           d=""
           id="path663" />
      </symbol>
      <symbol
         overflow="visible"
         id="symbol2239">
        <path
           style="stroke:none;"
           d="M 2.1875 -3.015625 C 2.1875 -3.265625 1.921875 -3.453125 1.671875 -3.453125 C 1.40625 -3.453125 1.28125 -3.1875 1.203125 -2.96875 L 0.4375 -0.734375 C 0.421875 -0.6875 0.375 -0.546875 0.375 -0.484375 C 0.375 -0.421875 0.40625 -0.328125 0.484375 -0.328125 C 0.59375 -0.328125 0.71875 -0.484375 0.78125 -0.5625 L 1.96875 -2.46875 C 2.0625 -2.625 2.1875 -2.828125 2.1875 -3.015625 Z M 2.1875 -3.015625 "
           id="path9495" />
      </symbol>
    </g>
    <g
       id="g1562">
      <symbol
         overflow="visible"
         id="symbol1445">
        <path
           style="stroke:none;"
           d=""
           id="path8051" />
      </symbol>
      <symbol
         overflow="visible"
         id="symbol98">
        <path
           style="stroke:none;"
           d="M 1.03125 -6.625 L 1.5 -6.59375 C 1.734375 -6.59375 1.84375 -6.515625 1.84375 -6.34375 C 1.84375 -6.265625 1.78125 -5.734375 1.75 -5.578125 L 1.03125 -1.25 C 0.890625 -0.359375 0.859375 -0.3125 0.453125 -0.28125 L 0.09375 -0.25 L 0.0625 0.03125 L 0.390625 0.03125 L 1.328125 0 L 2.265625 0.03125 L 2.578125 0.03125 L 2.609375 -0.25 L 2.09375 -0.28125 C 1.828125 -0.296875 1.734375 -0.375 1.734375 -0.5625 C 1.734375 -0.625 1.75 -0.734375 1.75 -0.78125 L 2.640625 -6.109375 C 2.71875 -6.5 2.765625 -6.546875 3.15625 -6.59375 L 3.5 -6.625 L 3.53125 -6.890625 L 3.4375 -6.890625 L 2.46875 -6.875 C 2.296875 -6.875 2.125 -6.875 1.6875 -6.875 L 1.0625 -6.890625 Z M 1.03125 -6.625 "
           id="path1990" />
      </symbol>
    </g>
    <g
       id="g7695">
      <symbol
         overflow="visible"
         id="symbol4776">
        <path
           style="stroke:none;"
           d=""
           id="path922" />
      </symbol>
      <symbol
         overflow="visible"
         id="symbol8593">
        <path
           style="stroke:none;"
           d="M 5.53125 -4.109375 C 5.453125 -4.265625 5.390625 -4.421875 5.296875 -4.578125 L 5.1875 -4.578125 C 5.046875 -3.890625 4.59375 -3.140625 4.234375 -2.5625 L 4.171875 -2.59375 C 4.1875 -3.359375 4.390625 -4.71875 3.265625 -4.71875 C 1.59375 -4.71875 0.265625 -2.421875 0.265625 -0.921875 C 0.265625 -0.328125 0.46875 0.15625 1.140625 0.15625 C 2.0625 0.15625 2.96875 -0.640625 3.546875 -1.3125 L 3.578125 -1.28125 C 3.59375 -0.953125 3.515625 0.15625 4.03125 0.15625 C 4.5 0.15625 5.15625 -0.53125 5.453125 -0.84375 L 5.453125 -0.921875 L 5.390625 -0.96875 L 5.328125 -0.96875 C 5.140625 -0.78125 4.921875 -0.546875 4.640625 -0.546875 C 4.203125 -0.546875 4.234375 -1.828125 4.234375 -2.15625 C 4.71875 -2.765625 5.15625 -3.421875 5.53125 -4.109375 Z M 3.5625 -1.640625 C 3.15625 -1.125 2.359375 -0.28125 1.640625 -0.28125 C 1.125 -0.28125 1 -0.703125 1 -1.140625 C 1 -2.015625 1.703125 -4.359375 2.796875 -4.359375 C 3.65625 -4.359375 3.5625 -2.515625 3.5625 -1.90625 Z M 3.5625 -1.640625 "
           id="path519" />
      </symbol>
    </g>
    <g
       id="g3741">
      <symbol
         overflow="visible"
         id="symbol2116">
        <path
           style="stroke:none;"
           d=""
           id="path883" />
      </symbol>
      <symbol
         overflow="visible"
         id="symbol1996">
        <path
           style="stroke:none;"
           d="M 6.734375 -5.46875 C 6.734375 -6.46875 5.59375 -7.015625 4.71875 -7.015625 C 2.359375 -7.015625 0.0625 -4.859375 0.0625 -2.46875 C 0.0625 -0.84375 1 0.515625 2.734375 0.515625 C 3.703125 0.515625 5.71875 -0.078125 5.71875 -1.28125 C 5.71875 -1.578125 5.546875 -1.96875 5.203125 -2 C 5.328125 -0.875 4.25 -0.109375 3.203125 -0.109375 C 1.84375 -0.109375 1.1875 -1.34375 1.1875 -2.5625 C 1.1875 -4.515625 2.4375 -6.625 4.578125 -6.625 C 5.265625 -6.625 5.78125 -5.9375 5.78125 -5.296875 C 5.78125 -4.96875 5.71875 -4.609375 5.4375 -4.390625 C 5.921875 -4.4375 6.734375 -4.9375 6.734375 -5.46875 Z M 6.734375 -5.46875 "
           id="path4223" />
      </symbol>
    </g>
    <g
       id="g5745">
      <symbol
         overflow="visible"
         id="symbol3118">
        <path
           style="stroke:none;"
           d=""
           id="path9859" />
      </symbol>
      <symbol
         overflow="visible"
         id="symbol3602">
        <path
           style="stroke:none;"
           d="M 1.03125 -6.625 L 1.5 -6.59375 C 1.734375 -6.59375 1.84375 -6.515625 1.84375 -6.34375 C 1.84375 -6.265625 1.78125 -5.734375 1.75 -5.578125 L 1.03125 -1.25 C 0.890625 -0.359375 0.859375 -0.3125 0.453125 -0.28125 L 0.09375 -0.25 L 0.0625 0.03125 L 0.390625 0.03125 L 1.328125 0 L 2.265625 0.03125 L 2.578125 0.03125 L 2.609375 -0.25 L 2.09375 -0.28125 C 1.828125 -0.296875 1.734375 -0.375 1.734375 -0.5625 C 1.734375 -0.625 1.75 -0.734375 1.75 -0.78125 L 2.640625 -6.109375 C 2.71875 -6.5 2.765625 -6.546875 3.15625 -6.59375 L 3.5 -6.625 L 3.53125 -6.890625 L 3.4375 -6.890625 L 2.46875 -6.875 C 2.296875 -6.875 2.125 -6.875 1.6875 -6.875 L 1.0625 -6.890625 Z M 1.03125 -6.625 "
           id="path5777" />
      </symbol>
      <symbol
         overflow="visible"
         id="symbol3255">
        <path
           style="stroke:none;"
           d=""
           id="path8690" />
      </symbol>
      <symbol
         overflow="visible"
         id="symbol6944">
        <path
           style="stroke:none;"
           d="M 0.46875 -3.875 L 0.53125 -3.875 L 1.4375 -4.265625 C 1.4375 -4.28125 1.453125 -4.28125 1.453125 -4.28125 C 1.5 -4.28125 1.515625 -4.21875 1.515625 -4.046875 L 1.515625 -0.671875 C 1.515625 -0.3125 1.4375 -0.234375 1.0625 -0.203125 L 0.671875 -0.1875 L 0.671875 0.015625 C 1.734375 0 1.734375 0 1.8125 0 C 1.90625 0 2.0625 0 2.296875 0 C 2.390625 0.015625 2.625 0.015625 2.90625 0.015625 L 2.90625 -0.1875 L 2.546875 -0.203125 C 2.171875 -0.234375 2.09375 -0.3125 2.09375 -0.671875 L 2.09375 -4.796875 L 2 -4.84375 C 1.546875 -4.59375 1.046875 -4.390625 0.421875 -4.171875 Z M 0.46875 -3.875 "
           id="path9522" />
      </symbol>
    </g>
    <g
       id="g1170">
      <symbol
         overflow="visible"
         id="symbol474">
        <path
           style="stroke:none;"
           d=""
           id="path7543" />
      </symbol>
      <symbol
         overflow="visible"
         id="symbol5907">
        <path
           style="stroke:none;"
           d="M 1.03125 -6.625 L 1.5 -6.59375 C 1.734375 -6.59375 1.84375 -6.515625 1.84375 -6.34375 C 1.84375 -6.265625 1.78125 -5.734375 1.75 -5.578125 L 1.03125 -1.25 C 0.890625 -0.359375 0.859375 -0.3125 0.453125 -0.28125 L 0.09375 -0.25 L 0.0625 0.03125 L 0.390625 0.03125 L 1.328125 0 L 2.265625 0.03125 L 2.578125 0.03125 L 2.609375 -0.25 L 2.09375 -0.28125 C 1.828125 -0.296875 1.734375 -0.375 1.734375 -0.5625 C 1.734375 -0.625 1.75 -0.734375 1.75 -0.78125 L 2.640625 -6.109375 C 2.71875 -6.5 2.765625 -6.546875 3.15625 -6.59375 L 3.5 -6.625 L 3.53125 -6.890625 L 3.4375 -6.890625 L 2.46875 -6.875 C 2.296875 -6.875 2.125 -6.875 1.6875 -6.875 L 1.0625 -6.890625 Z M 1.03125 -6.625 "
           id="path8549" />
      </symbol>
      <symbol
         overflow="visible"
         id="symbol3919">
        <path
           style="stroke:none;"
           d=""
           id="path7016" />
      </symbol>
      <symbol
         overflow="visible"
         id="symbol8383">
        <path
           style="stroke:none;"
           d="M 0.109375 -0.15625 L 0.109375 0.015625 C 1.421875 0 1.421875 0 1.671875 0 C 1.921875 0 1.921875 0 3.265625 0.015625 C 3.25 -0.125 3.25 -0.1875 3.25 -0.296875 C 3.25 -0.390625 3.25 -0.453125 3.265625 -0.609375 C 2.453125 -0.578125 2.140625 -0.5625 0.84375 -0.53125 L 2.125 -1.875 C 2.796875 -2.59375 3 -2.984375 3 -3.5 C 3 -4.3125 2.453125 -4.796875 1.578125 -4.796875 C 1.078125 -4.796875 0.734375 -4.65625 0.390625 -4.3125 L 0.265625 -3.359375 L 0.46875 -3.359375 L 0.5625 -3.6875 C 0.671875 -4.09375 0.921875 -4.265625 1.390625 -4.265625 C 2 -4.265625 2.375 -3.890625 2.375 -3.296875 C 2.375 -2.78125 2.078125 -2.265625 1.296875 -1.421875 Z M 0.109375 -0.15625 "
           id="path9254" />
      </symbol>
    </g>
  </defs>
  <sodipodi:namedview
     id="base"
     pagecolor="#ffffff"
     bordercolor="#666666"
     borderopacity="1.0"
     inkscape:pageopacity="0.0"
     inkscape:pageshadow="2"
     inkscape:zoom="2.8"
     inkscape:cx="130.75038"
     inkscape:cy="139.13442"
     inkscape:document-units="mm"
     inkscape:current-layer="layer1"
     inkscape:document-rotation="0"
     showgrid="false"
     inkscape:window-width="1853"
     inkscape:window-height="1025"
     inkscape:window-x="1987"
     inkscape:window-y="27"
     inkscape:window-maximized="1">
    <inkscape:grid
       type="xygrid"
       id="grid4396" />
  </sodipodi:namedview>
  <metadata
     id="metadata3830">
    <rdf:RDF>
      <cc:Work
         rdf:about="">
        <dc:format>image/svg+xml</dc:format>
        <dc:type
           rdf:resource="http://purl.org/dc/dcmitype/StillImage" />
        <dc:title />
      </cc:Work>
    </rdf:RDF>
  </metadata>
  <g
     inkscape:label="Calque 1"
     inkscape:groupmode="layer"
     id="layer1">
    <path
       style="fill:none;fill-opacity:0.364272;stroke:#000000;stroke-width:0.265;stroke-miterlimit:4;stroke-dasharray:none;stroke-dashoffset:0;stroke-opacity:1"
       id="path3524-3-5"
       sodipodi:type="arc"
       sodipodi:cx="37.365238"
       sodipodi:cy="-33.545521"
       sodipodi:rx="30.427084"
       sodipodi:ry="7.9375"
       sodipodi:start="0"
       sodipodi:end="3.1525631"
       sodipodi:open="true"
       sodipodi:arc-type="arc"
       d="m 67.792322,-33.545521 a 30.427084,7.9375 0 0 1 -15.310003,6.888544 30.427084,7.9375 0 0 1 -30.522933,-0.04368 30.427084,7.9375 0 0 1 -15.0194008,-6.931943"
       transform="scale(1,-1)" />
    <g
       inkscape:label=""
       transform="matrix(0.46094687,0,0,0.46094687,-34.548211,-10.55567)"
       id="g2217"
       style="fill:#000000;fill-opacity:1">
      <g
         id="g7837"
         style="fill:#000000;fill-opacity:1">
        <g
           style="fill:#000000;fill-opacity:1"
           id="g5904">
          <use
             xlink:href="#symbol1996"
             x="91.925003"
             y="81.962997"
             id="use3351"
             width="100%"
             height="100%"
             style="fill:#000000;fill-opacity:1" />
        </g>
      </g>
    </g>
    <path
       style="fill:none;stroke:#008a00;stroke-width:0.264583px;stroke-linecap:butt;stroke-linejoin:miter;stroke-opacity:1"
       d="m 44.911857,31.818556 1.322916,-1.322915 1.322917,1.322915"
       id="path20725-3-6" />
    <path
       style="fill:none;fill-opacity:0.364272;stroke:#008a00;stroke-width:0.32116401;stroke-dasharray:none;stroke-opacity:1;stroke-miterlimit:4"
       id="path2889-5"
       sodipodi:type="arc"
       sodipodi:cx="-53.917099"
       sodipodi:cy="30.985395"
       sodipodi:rx="7.6578355"
       sodipodi:ry="20.958193"
       sodipodi:start="5.1396008"
       sodipodi:end="1.5464837"
       sodipodi:arc-type="arc"
       d="m -50.744191,11.91083 a 7.6578355,20.958193 0 0 1 4.330067,23.268087 7.6578355,20.958193 0 0 1 -7.316811,16.758477"
       sodipodi:open="true"
       transform="scale(-1,1)" />
    <path
       style="fill:none;fill-opacity:0.364272;stroke:#d20000;stroke-width:0.321;stroke-dasharray:none;stroke-opacity:1;stroke-miterlimit:4;stroke-dashoffset:0"
       id="path2889"
       sodipodi:type="arc"
       sodipodi:cx="17.906435"
       sodipodi:cy="30.093678"
       sodipodi:rx="7.6578355"
       sodipodi:ry="20.958193"
       sodipodi:start="5.1396008"
       sodipodi:end="1.5464837"
       sodipodi:arc-type="arc"
       d="M 21.079343,11.019112 A 7.6578355,20.958193 0 0 1 25.40941,34.287199 7.6578355,20.958193 0 0 1 18.092599,51.045676"
       sodipodi:open="true" />
    <path
       style="fill:none;fill-opacity:0.364272;stroke:#000000;stroke-width:0.265;stroke-miterlimit:4;stroke-dasharray:none;stroke-dashoffset:0;stroke-opacity:1"
       id="path3524-3"
       sodipodi:type="arc"
       sodipodi:cx="37.365238"
       sodipodi:cy="33.719673"
       sodipodi:rx="30.427084"
       sodipodi:ry="7.9375"
       sodipodi:start="0"
       sodipodi:end="3.1525631"
       sodipodi:open="true"
       sodipodi:arc-type="arc"
       d="M 67.792322,33.719673 A 30.427084,7.9375 0 0 1 52.482319,40.608217 30.427084,7.9375 0 0 1 21.959386,40.56454 30.427084,7.9375 0 0 1 6.9399852,33.632597" />
    <path
       style="fill:none;stroke:#d20000;stroke-width:0.264583px;stroke-linecap:butt;stroke-linejoin:miter;stroke-opacity:1"
       d="m 24.220743,31.408822 1.322916,1.322916 1.322917,-1.322916"
       id="path20725" />
    <path
       style="fill:none;stroke:#000000;stroke-width:0.264583px;stroke-linecap:butt;stroke-linejoin:miter;stroke-opacity:1"
       d="m 36.674018,24.328297 -1.322915,1.322916 1.322915,1.322917"
       id="path20725-3-6-6" />
    <path
       style="fill:none;stroke:#000000;stroke-width:0.264583px;stroke-linecap:butt;stroke-linejoin:miter;stroke-opacity:1"
       d="m 35.257559,40.393552 1.322915,1.322917 -1.322915,1.322917"
       id="path20725-3-6-6-2" />
    <g
       inkscape:label=""
       transform="matrix(0.50051159,0,0,0.50051159,3.6805429,-20.643721)"
       id="g3197"
       style="fill:#008a00;fill-opacity:1">
      <g
         id="g4621"
         style="fill:#008a00;fill-opacity:1">
        <g
           style="fill:#008a00;fill-opacity:1"
           id="g5423">
          <use
             xlink:href="#symbol3602"
             x="91.925003"
             y="81.962997"
             id="use8613"
             width="100%"
             height="100%"
             style="fill:#008a00;fill-opacity:1" />
        </g>
        <g
           style="fill:#008a00;fill-opacity:1"
           id="g5162">
          <use
             xlink:href="#symbol6944"
             x="95.242996"
             y="83.457001"
             id="use2084"
             width="100%"
             height="100%"
             style="fill:#008a00;fill-opacity:1" />
        </g>
      </g>
    </g>
    <g
       inkscape:label=""
       transform="matrix(0.50906822,0,0,0.50906822,-28.679752,-21.322027)"
       id="g3463"
       style="fill:#d20000;fill-opacity:1">
      <g
         id="g9797"
         style="fill:#d20000;fill-opacity:1">
        <g
           style="fill:#d20000;fill-opacity:1"
           id="g7849">
          <use
             xlink:href="#symbol5907"
             x="91.925003"
             y="81.962997"
             id="use964"
             width="100%"
             height="100%"
             style="fill:#d20000;fill-opacity:1" />
        </g>
        <g
           style="fill:#d20000;fill-opacity:1"
           id="g5765">
          <use
             xlink:href="#symbol8383"
             x="95.242996"
             y="83.457001"
             id="use262"
             width="100%"
             height="100%"
             style="fill:#d20000;fill-opacity:1" />
        </g>
      </g>
    </g>
  </g>
</svg>
