<?xml version="1.0" encoding="UTF-8" standalone="no"?>
<svg
   xmlns:dc="http://purl.org/dc/elements/1.1/"
   xmlns:cc="http://creativecommons.org/ns#"
   xmlns:rdf="http://www.w3.org/1999/02/22-rdf-syntax-ns#"
   xmlns:svg="http://www.w3.org/2000/svg"
   xmlns="http://www.w3.org/2000/svg"
   xmlns:xlink="http://www.w3.org/1999/xlink"
   xmlns:sodipodi="http://sodipodi.sourceforge.net/DTD/sodipodi-0.dtd"
   xmlns:inkscape="http://www.inkscape.org/namespaces/inkscape"
   width="100mm"
   height="100mm"
   viewBox="0 0 100 100"
   version="1.1"
   id="svg5835"
   sodipodi:docname="cyclotron.svg"
   inkscape:version="1.0.1 (1.0.1+r75)">
  <defs
     id="defs5829">
    <marker
       style="overflow:visible;"
       id="marker11289"
       refX="0.0"
       refY="0.0"
       orient="auto"
       inkscape:stockid="Arrow1Mend"
       inkscape:isstock="true">
      <path
         transform="scale(0.4) rotate(180) translate(10,0)"
         style="fill-rule:evenodd;stroke:#d70000;stroke-width:1pt;stroke-opacity:1;fill:#d70000;fill-opacity:1"
         d="M 0.0,0.0 L 5.0,-5.0 L -12.5,0.0 L 5.0,5.0 L 0.0,0.0 z "
         id="path11287" />
    </marker>
    <marker
       style="overflow:visible;"
       id="Arrow1Mend"
       refX="0.0"
       refY="0.0"
       orient="auto"
       inkscape:stockid="Arrow1Mend"
       inkscape:isstock="true">
      <path
         transform="scale(0.4) rotate(180) translate(10,0)"
         style="fill-rule:evenodd;stroke:#000000;stroke-width:1pt;stroke-opacity:0.5;fill:#000000;fill-opacity:0.5"
         d="M 0.0,0.0 L 5.0,-5.0 L -12.5,0.0 L 5.0,5.0 L 0.0,0.0 z "
         id="path5714" />
    </marker>
    <marker
       style="overflow:visible"
       id="Arrow1Mstart"
       refX="0.0"
       refY="0.0"
       orient="auto"
       inkscape:stockid="Arrow1Mstart"
       inkscape:isstock="true">
      <path
         transform="scale(0.4) translate(10,0)"
         style="fill-rule:evenodd;stroke:#000000;stroke-width:1pt;stroke-opacity:0.5;fill:#000000;fill-opacity:0.5"
         d="M 0.0,0.0 L 5.0,-5.0 L -12.5,0.0 L 5.0,5.0 L 0.0,0.0 z "
         id="path5711" />
    </marker>
    <rect
       x="108.02338"
       y="-3.7960095"
       width="46.687764"
       height="37.103308"
       id="rect17128" />
    <marker
       style="overflow:visible"
       id="marker15914"
       refX="0.0"
       refY="0.0"
       orient="auto"
       inkscape:stockid="Arrow1Sstart"
       inkscape:isstock="true">
      <path
         transform="scale(0.2) translate(6,0)"
         style="fill-rule:evenodd;stroke:#008800;stroke-width:1pt;stroke-opacity:1;fill:#008800;fill-opacity:1"
         d="M 0.0,0.0 L 5.0,-5.0 L -12.5,0.0 L 5.0,5.0 L 0.0,0.0 z "
         id="path15912" />
    </marker>
    <marker
       style="overflow:visible;"
       id="marker7982"
       refX="0.0"
       refY="0.0"
       orient="auto"
       inkscape:stockid="Arrow2Mend"
       inkscape:isstock="true">
      <path
         transform="scale(0.6) rotate(180) translate(0,0)"
         d="M 8.7185878,4.0337352 L -2.2072895,0.016013256 L 8.7185884,-4.0017078 C 6.9730900,-1.6296469 6.9831476,1.6157441 8.7185878,4.0337352 z "
         style="fill-rule:evenodd;stroke-width:0.625;stroke-linejoin:round;stroke:#0000ce;stroke-opacity:1;fill:#0000ce;fill-opacity:1"
         id="path7980" />
    </marker>
    <rect
       x="118.56179"
       y="50.743315"
       width="45.206589"
       height="18.242081"
       id="rect6940" />
    <marker
       style="overflow:visible;"
       id="Arrow2Mend"
       refX="0.0"
       refY="0.0"
       orient="auto"
       inkscape:stockid="Arrow2Mend"
       inkscape:isstock="true"
       inkscape:collect="always">
      <path
         transform="scale(0.6) rotate(180) translate(0,0)"
         d="M 8.7185878,4.0337352 L -2.2072895,0.016013256 L 8.7185884,-4.0017078 C 6.9730900,-1.6296469 6.9831476,1.6157441 8.7185878,4.0337352 z "
         style="fill-rule:evenodd;stroke-width:0.625;stroke-linejoin:round;stroke:#000000;stroke-opacity:1;fill:#000000;fill-opacity:1"
         id="path6458" />
    </marker>
    <marker
       style="overflow:visible"
       id="Arrow2Mstart"
       refX="0.0"
       refY="0.0"
       orient="auto"
       inkscape:stockid="Arrow2Mstart"
       inkscape:isstock="true">
      <path
         transform="scale(0.6) translate(0,0)"
         d="M 8.7185878,4.0337352 L -2.2072895,0.016013256 L 8.7185884,-4.0017078 C 6.9730900,-1.6296469 6.9831476,1.6157441 8.7185878,4.0337352 z "
         style="fill-rule:evenodd;stroke-width:0.625;stroke-linejoin:round;stroke:#000000;stroke-opacity:1;fill:#000000;fill-opacity:1"
         id="path6455" />
    </marker>
    <marker
       style="overflow:visible;"
       id="Arrow1Send"
       refX="0.0"
       refY="0.0"
       orient="auto"
       inkscape:stockid="Arrow1Send"
       inkscape:isstock="true">
      <path
         transform="scale(0.2) rotate(180) translate(6,0)"
         style="fill-rule:evenodd;stroke:#008800;stroke-width:1pt;stroke-opacity:1;fill:#008800;fill-opacity:1"
         d="M 0.0,0.0 L 5.0,-5.0 L -12.5,0.0 L 5.0,5.0 L 0.0,0.0 z "
         id="path6446" />
    </marker>
    <marker
       style="overflow:visible"
       id="Arrow1Sstart"
       refX="0.0"
       refY="0.0"
       orient="auto"
       inkscape:stockid="Arrow1Sstart"
       inkscape:isstock="true"
       inkscape:collect="always">
      <path
         transform="scale(0.2) translate(6,0)"
         style="fill-rule:evenodd;stroke:#008800;stroke-width:1pt;stroke-opacity:1;fill:#008800;fill-opacity:1"
         d="M 0.0,0.0 L 5.0,-5.0 L -12.5,0.0 L 5.0,5.0 L 0.0,0.0 z "
         id="path6443" />
    </marker>
    <g
       id="g3922">
      <symbol
         overflow="visible"
         id="symbol8463">
        <path
           style="stroke:none;"
           d=""
           id="path1794" />
      </symbol>
      <symbol
         overflow="visible"
         id="symbol8941">
        <path
           style="stroke:none;"
           d="M 3.671875 -3.640625 C 3.703125 -4.015625 3.75 -4.34375 3.828125 -4.75 C 3.71875 -4.796875 3.671875 -4.8125 3.625 -4.8125 C 3.3125 -4.8125 3.015625 -4.5625 2.65625 -4.0625 L 2.375 -3.671875 C 2 -3.109375 1.875 -2.90625 1.71875 -2.546875 L 1.796875 -2.953125 C 1.828125 -3.1875 1.90625 -3.59375 1.96875 -3.8125 L 2.03125 -4.0625 C 2.078125 -4.234375 2.09375 -4.359375 2.09375 -4.484375 C 2.09375 -4.6875 2.015625 -4.8125 1.859375 -4.8125 C 1.65625 -4.8125 1.28125 -4.59375 0.53125 -4.0625 L 0.265625 -3.875 L 0.328125 -3.671875 L 0.640625 -3.875 C 0.921875 -4.0625 1.03125 -4.109375 1.125 -4.109375 C 1.21875 -4.109375 1.296875 -4.015625 1.296875 -3.890625 C 1.296875 -3.3125 0.875 -1.25 0.46875 0.015625 L 0.5625 0.09375 C 0.71875 0.046875 0.875 0.015625 1.109375 -0.046875 L 1.234375 -0.0625 L 1.5 -1.25 C 1.671875 -2.078125 1.90625 -2.609375 2.34375 -3.1875 C 2.6875 -3.625 2.953125 -3.828125 3.171875 -3.828125 C 3.3125 -3.828125 3.421875 -3.78125 3.53125 -3.640625 Z M 3.671875 -3.640625 "
           id="path2454" />
      </symbol>
    </g>
    <g
       id="g8195">
      <symbol
         overflow="visible"
         id="symbol2472">
        <path
           style="stroke:none;"
           d=""
           id="path7585" />
      </symbol>
      <symbol
         overflow="visible"
         id="symbol3087">
        <path
           style="stroke:none;"
           d="M 7.28125 -1.03125 L 7.015625 -0.859375 C 6.734375 -0.671875 6.515625 -0.5625 6.40625 -0.5625 C 6.34375 -0.5625 6.28125 -0.640625 6.28125 -0.75 C 6.28125 -0.859375 6.296875 -0.953125 6.34375 -1.15625 L 7.09375 -4.109375 C 7.140625 -4.28125 7.171875 -4.453125 7.171875 -4.53125 C 7.171875 -4.6875 7.0625 -4.8125 6.90625 -4.8125 C 6.625 -4.8125 6.234375 -4.625 5.625 -4.203125 C 5 -3.75 4.65625 -3.40625 4.171875 -2.71875 L 4.46875 -4.078125 C 4.5 -4.28125 4.53125 -4.421875 4.53125 -4.5 C 4.53125 -4.6875 4.4375 -4.8125 4.28125 -4.8125 C 3.984375 -4.8125 3.515625 -4.578125 2.96875 -4.171875 C 2.53125 -3.828125 2.328125 -3.625 1.6875 -2.734375 L 2.015625 -4.0625 C 2.046875 -4.234375 2.078125 -4.375 2.078125 -4.5 C 2.078125 -4.6875 1.984375 -4.8125 1.84375 -4.8125 C 1.640625 -4.8125 1.25 -4.59375 0.515625 -4.0625 L 0.234375 -3.875 L 0.3125 -3.671875 L 0.625 -3.875 C 1 -4.109375 1.03125 -4.125 1.09375 -4.125 C 1.203125 -4.125 1.28125 -4.03125 1.28125 -3.875 C 1.28125 -3.375 0.875 -1.453125 0.453125 -0.015625 L 0.484375 0.09375 L 1.171875 -0.0625 L 1.390625 -1.078125 C 1.625 -2.1875 1.890625 -2.765625 2.4375 -3.375 C 2.859375 -3.828125 3.3125 -4.125 3.59375 -4.125 C 3.65625 -4.125 3.703125 -4.046875 3.703125 -3.921875 C 3.703125 -3.5625 3.484375 -2.4375 3.078125 -0.6875 L 2.90625 -0.015625 L 2.953125 0.09375 L 3.65625 -0.0625 L 3.859375 -1.125 C 4.015625 -1.9375 4.359375 -2.6875 4.796875 -3.171875 C 5.34375 -3.78125 5.84375 -4.125 6.15625 -4.125 C 6.234375 -4.125 6.296875 -4.03125 6.296875 -3.875 C 6.296875 -3.640625 6.265625 -3.5 6.046875 -2.625 C 5.875 -2 5.71875 -1.40625 5.609375 -1.0625 C 5.515625 -0.78125 5.484375 -0.53125 5.484375 -0.3125 C 5.484375 -0.0625 5.59375 0.09375 5.78125 0.09375 C 6.046875 0.09375 6.40625 -0.125 7.375 -0.84375 Z M 7.28125 -1.03125 "
           id="path5218" />
      </symbol>
      <symbol
         overflow="visible"
         id="symbol3546">
        <path
           style="stroke:none;"
           d="M 3.84375 -4.5625 C 3.40625 -4.734375 3.125 -4.8125 2.828125 -4.8125 C 2.5625 -4.8125 2.328125 -4.71875 2.046875 -4.5625 C 1.6875 -4.34375 1.25 -3.984375 1.03125 -3.734375 C 0.625 -3.265625 0.234375 -1.796875 0.234375 -0.78125 C 0.234375 -0.1875 0.359375 0.109375 0.59375 0.109375 C 0.8125 0.109375 1 0.03125 1.328125 -0.1875 L 1.40625 -0.25 C 2.046875 -0.703125 2.703125 -1.421875 3.078125 -2.078125 L 2.3125 2.046875 C 2.265625 2.28125 2.15625 2.484375 2.046875 2.609375 L 2.140625 2.75 C 2.4375 2.671875 2.75 2.609375 2.984375 2.578125 C 3.03125 2.046875 3.09375 1.5 3.1875 1 L 4.03125 -3.546875 C 4.140625 -4.15625 4.203125 -4.421875 4.3125 -4.71875 L 4.171875 -4.78125 Z M 3.296875 -3.09375 C 3.1875 -2.59375 2.953125 -2.15625 2.59375 -1.6875 C 2.078125 -1.0625 1.46875 -0.59375 1.171875 -0.59375 C 1.03125 -0.59375 0.953125 -0.796875 0.953125 -1.125 C 0.953125 -2.078125 1.390625 -3.578125 1.796875 -4.078125 C 1.921875 -4.234375 2.21875 -4.3125 2.53125 -4.3125 C 2.8125 -4.3125 3.015625 -4.25 3.5 -4.046875 Z M 3.296875 -3.09375 "
           id="path6514" />
      </symbol>
      <symbol
         overflow="visible"
         id="symbol708">
        <path
           style="stroke:none;"
           d=""
           id="path2694" />
      </symbol>
      <symbol
         overflow="visible"
         id="symbol4297">
        <path
           style="stroke:none;"
           d="M 0.796875 -0.015625 L 0.859375 0 C 1.046875 0.0625 1.15625 0.078125 1.21875 0.078125 C 1.609375 0.078125 2.421875 -0.4375 2.71875 -0.875 C 3 -1.296875 3.234375 -2.0625 3.234375 -2.578125 C 3.234375 -3.046875 3.078125 -3.359375 2.828125 -3.359375 C 2.53125 -3.359375 2.171875 -3.171875 1.8125 -2.84375 C 1.515625 -2.609375 1.375 -2.421875 1.125 -2.015625 L 1.296875 -2.84375 C 1.3125 -2.96875 1.328125 -3.0625 1.328125 -3.15625 C 1.328125 -3.28125 1.28125 -3.359375 1.171875 -3.359375 C 1.03125 -3.359375 0.765625 -3.21875 0.25 -2.84375 L 0.0625 -2.703125 L 0.109375 -2.5625 L 0.328125 -2.703125 C 0.515625 -2.84375 0.59375 -2.875 0.65625 -2.875 C 0.734375 -2.875 0.78125 -2.8125 0.78125 -2.703125 C 0.78125 -2.65625 0.765625 -2.515625 0.75 -2.453125 L 0.34375 -0.0625 C 0.28125 0.359375 0.140625 1 0 1.625 L -0.046875 1.875 L 0 1.921875 C 0.140625 1.875 0.28125 1.84375 0.515625 1.8125 Z M 1 -1.15625 C 1.15625 -2.046875 1.890625 -2.953125 2.46875 -2.953125 C 2.65625 -2.953125 2.734375 -2.796875 2.734375 -2.484375 C 2.734375 -1.921875 2.453125 -1.09375 2.09375 -0.5625 C 1.953125 -0.359375 1.734375 -0.25 1.4375 -0.25 C 1.21875 -0.25 1.046875 -0.296875 0.875 -0.40625 Z M 1 -1.15625 "
           id="path868" />
      </symbol>
      <symbol
         overflow="visible"
         id="symbol7711">
        <path
           style="stroke:none;"
           d=""
           id="path9464" />
      </symbol>
      <symbol
         overflow="visible"
         id="symbol2113">
        <path
           style="stroke:none;"
           d="M 2.171875 -1.09375 L 2.03125 -1.21875 C 1.703125 -1.109375 1.390625 -1 1.0625 -0.921875 C 0.984375 -0.0625 0.59375 0.71875 0.15625 1.4375 L 0.296875 1.546875 L 0.703125 1.359375 C 1.28125 0.609375 1.859375 -0.1875 2.171875 -1.09375 Z M 2.171875 -1.09375 "
           id="path8888" />
      </symbol>
    </g>
    <g
       id="g1850">
      <symbol
         overflow="visible"
         id="symbol163">
        <path
           style="stroke:none;"
           d=""
           id="path3444" />
      </symbol>
      <symbol
         overflow="visible"
         id="symbol7864">
        <path
           style="stroke:none;"
           d="M 7.28125 -1.03125 L 7.015625 -0.859375 C 6.734375 -0.671875 6.515625 -0.5625 6.40625 -0.5625 C 6.34375 -0.5625 6.28125 -0.640625 6.28125 -0.75 C 6.28125 -0.859375 6.296875 -0.953125 6.34375 -1.15625 L 7.09375 -4.109375 C 7.140625 -4.28125 7.171875 -4.453125 7.171875 -4.53125 C 7.171875 -4.6875 7.0625 -4.8125 6.90625 -4.8125 C 6.625 -4.8125 6.234375 -4.625 5.625 -4.203125 C 5 -3.75 4.65625 -3.40625 4.171875 -2.71875 L 4.46875 -4.078125 C 4.5 -4.28125 4.53125 -4.421875 4.53125 -4.5 C 4.53125 -4.6875 4.4375 -4.8125 4.28125 -4.8125 C 3.984375 -4.8125 3.515625 -4.578125 2.96875 -4.171875 C 2.53125 -3.828125 2.328125 -3.625 1.6875 -2.734375 L 2.015625 -4.0625 C 2.046875 -4.234375 2.078125 -4.375 2.078125 -4.5 C 2.078125 -4.6875 1.984375 -4.8125 1.84375 -4.8125 C 1.640625 -4.8125 1.25 -4.59375 0.515625 -4.0625 L 0.234375 -3.875 L 0.3125 -3.671875 L 0.625 -3.875 C 1 -4.109375 1.03125 -4.125 1.09375 -4.125 C 1.203125 -4.125 1.28125 -4.03125 1.28125 -3.875 C 1.28125 -3.375 0.875 -1.453125 0.453125 -0.015625 L 0.484375 0.09375 L 1.171875 -0.0625 L 1.390625 -1.078125 C 1.625 -2.1875 1.890625 -2.765625 2.4375 -3.375 C 2.859375 -3.828125 3.3125 -4.125 3.59375 -4.125 C 3.65625 -4.125 3.703125 -4.046875 3.703125 -3.921875 C 3.703125 -3.5625 3.484375 -2.4375 3.078125 -0.6875 L 2.90625 -0.015625 L 2.953125 0.09375 L 3.65625 -0.0625 L 3.859375 -1.125 C 4.015625 -1.9375 4.359375 -2.6875 4.796875 -3.171875 C 5.34375 -3.78125 5.84375 -4.125 6.15625 -4.125 C 6.234375 -4.125 6.296875 -4.03125 6.296875 -3.875 C 6.296875 -3.640625 6.265625 -3.5 6.046875 -2.625 C 5.875 -2 5.71875 -1.40625 5.609375 -1.0625 C 5.515625 -0.78125 5.484375 -0.53125 5.484375 -0.3125 C 5.484375 -0.0625 5.59375 0.09375 5.78125 0.09375 C 6.046875 0.09375 6.40625 -0.125 7.375 -0.84375 Z M 7.28125 -1.03125 "
           id="path7067" />
      </symbol>
      <symbol
         overflow="visible"
         id="symbol8788">
        <path
           style="stroke:none;"
           d="M 3.84375 -4.5625 C 3.40625 -4.734375 3.125 -4.8125 2.828125 -4.8125 C 2.5625 -4.8125 2.328125 -4.71875 2.046875 -4.5625 C 1.6875 -4.34375 1.25 -3.984375 1.03125 -3.734375 C 0.625 -3.265625 0.234375 -1.796875 0.234375 -0.78125 C 0.234375 -0.1875 0.359375 0.109375 0.59375 0.109375 C 0.8125 0.109375 1 0.03125 1.328125 -0.1875 L 1.40625 -0.25 C 2.046875 -0.703125 2.703125 -1.421875 3.078125 -2.078125 L 2.3125 2.046875 C 2.265625 2.28125 2.15625 2.484375 2.046875 2.609375 L 2.140625 2.75 C 2.4375 2.671875 2.75 2.609375 2.984375 2.578125 C 3.03125 2.046875 3.09375 1.5 3.1875 1 L 4.03125 -3.546875 C 4.140625 -4.15625 4.203125 -4.421875 4.3125 -4.71875 L 4.171875 -4.78125 Z M 3.296875 -3.09375 C 3.1875 -2.59375 2.953125 -2.15625 2.59375 -1.6875 C 2.078125 -1.0625 1.46875 -0.59375 1.171875 -0.59375 C 1.03125 -0.59375 0.953125 -0.796875 0.953125 -1.125 C 0.953125 -2.078125 1.390625 -3.578125 1.796875 -4.078125 C 1.921875 -4.234375 2.21875 -4.3125 2.53125 -4.3125 C 2.8125 -4.3125 3.015625 -4.25 3.5 -4.046875 Z M 3.296875 -3.09375 "
           id="path8145" />
      </symbol>
      <symbol
         overflow="visible"
         id="symbol7268">
        <path
           style="stroke:none;"
           d=""
           id="path9932" />
      </symbol>
      <symbol
         overflow="visible"
         id="symbol2156">
        <path
           style="stroke:none;"
           d="M 0.796875 -0.015625 L 0.859375 0 C 1.046875 0.0625 1.15625 0.078125 1.21875 0.078125 C 1.609375 0.078125 2.421875 -0.4375 2.71875 -0.875 C 3 -1.296875 3.234375 -2.0625 3.234375 -2.578125 C 3.234375 -3.046875 3.078125 -3.359375 2.828125 -3.359375 C 2.53125 -3.359375 2.171875 -3.171875 1.8125 -2.84375 C 1.515625 -2.609375 1.375 -2.421875 1.125 -2.015625 L 1.296875 -2.84375 C 1.3125 -2.96875 1.328125 -3.0625 1.328125 -3.15625 C 1.328125 -3.28125 1.28125 -3.359375 1.171875 -3.359375 C 1.03125 -3.359375 0.765625 -3.21875 0.25 -2.84375 L 0.0625 -2.703125 L 0.109375 -2.5625 L 0.328125 -2.703125 C 0.515625 -2.84375 0.59375 -2.875 0.65625 -2.875 C 0.734375 -2.875 0.78125 -2.8125 0.78125 -2.703125 C 0.78125 -2.65625 0.765625 -2.515625 0.75 -2.453125 L 0.34375 -0.0625 C 0.28125 0.359375 0.140625 1 0 1.625 L -0.046875 1.875 L 0 1.921875 C 0.140625 1.875 0.28125 1.84375 0.515625 1.8125 Z M 1 -1.15625 C 1.15625 -2.046875 1.890625 -2.953125 2.46875 -2.953125 C 2.65625 -2.953125 2.734375 -2.796875 2.734375 -2.484375 C 2.734375 -1.921875 2.453125 -1.09375 2.09375 -0.5625 C 1.953125 -0.359375 1.734375 -0.25 1.4375 -0.25 C 1.21875 -0.25 1.046875 -0.296875 0.875 -0.40625 Z M 1 -1.15625 "
           id="path4051" />
      </symbol>
      <symbol
         overflow="visible"
         id="symbol5938">
        <path
           style="stroke:none;"
           d=""
           id="path2368" />
      </symbol>
      <symbol
         overflow="visible"
         id="symbol111">
        <path
           style="stroke:none;"
           d="M 2.171875 -1.09375 L 2.03125 -1.21875 C 1.703125 -1.109375 1.390625 -1 1.0625 -0.921875 C 0.984375 -0.0625 0.59375 0.71875 0.15625 1.4375 L 0.296875 1.546875 L 0.703125 1.359375 C 1.28125 0.609375 1.859375 -0.1875 2.171875 -1.09375 Z M 2.171875 -1.09375 "
           id="path4128" />
      </symbol>
    </g>
    <g
       id="g9687">
      <symbol
         overflow="visible"
         id="symbol236">
        <path
           style="stroke:none;"
           d=""
           id="path1692" />
      </symbol>
      <symbol
         overflow="visible"
         id="symbol3416">
        <path
           style="stroke:none;"
           d="M 7.28125 -1.03125 L 7.015625 -0.859375 C 6.734375 -0.671875 6.515625 -0.5625 6.40625 -0.5625 C 6.34375 -0.5625 6.28125 -0.640625 6.28125 -0.75 C 6.28125 -0.859375 6.296875 -0.953125 6.34375 -1.15625 L 7.09375 -4.109375 C 7.140625 -4.28125 7.171875 -4.453125 7.171875 -4.53125 C 7.171875 -4.6875 7.0625 -4.8125 6.90625 -4.8125 C 6.625 -4.8125 6.234375 -4.625 5.625 -4.203125 C 5 -3.75 4.65625 -3.40625 4.171875 -2.71875 L 4.46875 -4.078125 C 4.5 -4.28125 4.53125 -4.421875 4.53125 -4.5 C 4.53125 -4.6875 4.4375 -4.8125 4.28125 -4.8125 C 3.984375 -4.8125 3.515625 -4.578125 2.96875 -4.171875 C 2.53125 -3.828125 2.328125 -3.625 1.6875 -2.734375 L 2.015625 -4.0625 C 2.046875 -4.234375 2.078125 -4.375 2.078125 -4.5 C 2.078125 -4.6875 1.984375 -4.8125 1.84375 -4.8125 C 1.640625 -4.8125 1.25 -4.59375 0.515625 -4.0625 L 0.234375 -3.875 L 0.3125 -3.671875 L 0.625 -3.875 C 1 -4.109375 1.03125 -4.125 1.09375 -4.125 C 1.203125 -4.125 1.28125 -4.03125 1.28125 -3.875 C 1.28125 -3.375 0.875 -1.453125 0.453125 -0.015625 L 0.484375 0.09375 L 1.171875 -0.0625 L 1.390625 -1.078125 C 1.625 -2.1875 1.890625 -2.765625 2.4375 -3.375 C 2.859375 -3.828125 3.3125 -4.125 3.59375 -4.125 C 3.65625 -4.125 3.703125 -4.046875 3.703125 -3.921875 C 3.703125 -3.5625 3.484375 -2.4375 3.078125 -0.6875 L 2.90625 -0.015625 L 2.953125 0.09375 L 3.65625 -0.0625 L 3.859375 -1.125 C 4.015625 -1.9375 4.359375 -2.6875 4.796875 -3.171875 C 5.34375 -3.78125 5.84375 -4.125 6.15625 -4.125 C 6.234375 -4.125 6.296875 -4.03125 6.296875 -3.875 C 6.296875 -3.640625 6.265625 -3.5 6.046875 -2.625 C 5.875 -2 5.71875 -1.40625 5.609375 -1.0625 C 5.515625 -0.78125 5.484375 -0.53125 5.484375 -0.3125 C 5.484375 -0.0625 5.59375 0.09375 5.78125 0.09375 C 6.046875 0.09375 6.40625 -0.125 7.375 -0.84375 Z M 7.28125 -1.03125 "
           id="path6517" />
      </symbol>
      <symbol
         overflow="visible"
         id="symbol9988">
        <path
           style="stroke:none;"
           d="M 3.84375 -4.5625 C 3.40625 -4.734375 3.125 -4.8125 2.828125 -4.8125 C 2.5625 -4.8125 2.328125 -4.71875 2.046875 -4.5625 C 1.6875 -4.34375 1.25 -3.984375 1.03125 -3.734375 C 0.625 -3.265625 0.234375 -1.796875 0.234375 -0.78125 C 0.234375 -0.1875 0.359375 0.109375 0.59375 0.109375 C 0.8125 0.109375 1 0.03125 1.328125 -0.1875 L 1.40625 -0.25 C 2.046875 -0.703125 2.703125 -1.421875 3.078125 -2.078125 L 2.3125 2.046875 C 2.265625 2.28125 2.15625 2.484375 2.046875 2.609375 L 2.140625 2.75 C 2.4375 2.671875 2.75 2.609375 2.984375 2.578125 C 3.03125 2.046875 3.09375 1.5 3.1875 1 L 4.03125 -3.546875 C 4.140625 -4.15625 4.203125 -4.421875 4.3125 -4.71875 L 4.171875 -4.78125 Z M 3.296875 -3.09375 C 3.1875 -2.59375 2.953125 -2.15625 2.59375 -1.6875 C 2.078125 -1.0625 1.46875 -0.59375 1.171875 -0.59375 C 1.03125 -0.59375 0.953125 -0.796875 0.953125 -1.125 C 0.953125 -2.078125 1.390625 -3.578125 1.796875 -4.078125 C 1.921875 -4.234375 2.21875 -4.3125 2.53125 -4.3125 C 2.8125 -4.3125 3.015625 -4.25 3.5 -4.046875 Z M 3.296875 -3.09375 "
           id="path3104" />
      </symbol>
      <symbol
         overflow="visible"
         id="symbol6330">
        <path
           style="stroke:none;"
           d=""
           id="path9022" />
      </symbol>
      <symbol
         overflow="visible"
         id="symbol4076">
        <path
           style="stroke:none;"
           d="M 2.28125 -0.78125 L 2.125 -0.65625 C 1.75 -0.390625 1.421875 -0.25 1.15625 -0.25 C 0.84375 -0.25 0.640625 -0.515625 0.640625 -0.921875 C 0.640625 -1.09375 0.65625 -1.296875 0.6875 -1.484375 L 1.265625 -1.625 C 1.375 -1.65625 1.5625 -1.734375 1.734375 -1.8125 C 2.328125 -2.0625 2.609375 -2.390625 2.609375 -2.8125 C 2.609375 -3.140625 2.375 -3.359375 2.015625 -3.359375 C 1.5625 -3.359375 0.796875 -2.875 0.515625 -2.4375 C 0.3125 -2.078125 0.109375 -1.25 0.109375 -0.78125 C 0.109375 -0.25 0.40625 0.078125 0.90625 0.078125 C 1.3125 0.078125 1.703125 -0.125 2.34375 -0.640625 Z M 0.78125 -1.90625 C 0.90625 -2.390625 1.046875 -2.6875 1.25 -2.875 C 1.375 -2.984375 1.59375 -3.0625 1.75 -3.0625 C 1.953125 -3.0625 2.09375 -2.921875 2.09375 -2.703125 C 2.09375 -2.390625 1.84375 -2.0625 1.484375 -1.890625 C 1.296875 -1.796875 1.03125 -1.71875 0.71875 -1.65625 Z M 0.78125 -1.90625 "
           id="path8809" />
      </symbol>
      <symbol
         overflow="visible"
         id="symbol2589">
        <path
           style="stroke:none;"
           d=""
           id="path5389" />
      </symbol>
      <symbol
         overflow="visible"
         id="symbol9410">
        <path
           style="stroke:none;"
           d="M 2.171875 -1.09375 L 2.03125 -1.21875 C 1.703125 -1.109375 1.390625 -1 1.0625 -0.921875 C 0.984375 -0.0625 0.59375 0.71875 0.15625 1.4375 L 0.296875 1.546875 L 0.703125 1.359375 C 1.28125 0.609375 1.859375 -0.1875 2.171875 -1.09375 Z M 2.171875 -1.09375 "
           id="path4341" />
      </symbol>
    </g>
    <g
       id="g727">
      <symbol
         overflow="visible"
         id="symbol4290">
        <path
           style="stroke:none;"
           d=""
           id="path3252" />
      </symbol>
      <symbol
         overflow="visible"
         id="symbol2660">
        <path
           style="stroke:none;"
           d="M 2.53125 -6.1875 C 3.015625 -6.203125 3.34375 -6.203125 3.6875 -6.203125 C 4.359375 -6.203125 4.78125 -6.140625 4.796875 -6.015625 L 4.875 -5.28125 L 5.234375 -5.28125 L 5.375 -6.6875 L 5.3125 -6.765625 C 4.9375 -6.78125 4.75 -6.796875 4.359375 -6.796875 C 4.140625 -6.796875 3.765625 -6.78125 2.953125 -6.765625 C 2.5 -6.765625 2.25 -6.765625 2.046875 -6.765625 C 1.765625 -6.765625 1.765625 -6.765625 0.28125 -6.78125 L 0.28125 -6.421875 L 0.640625 -6.390625 C 1.09375 -6.34375 1.125 -6.296875 1.125 -5.40625 L 1.125 -1.34375 C 1.125 -0.453125 1.109375 -0.4375 0.640625 -0.40625 L 0.28125 -0.375 L 0.28125 0.03125 C 1.484375 0 1.484375 0 1.828125 0 C 2.140625 0 2.140625 0 3.484375 0.03125 L 3.484375 -0.375 L 3.015625 -0.40625 C 2.546875 -0.421875 2.53125 -0.46875 2.53125 -1.34375 L 2.53125 -3.203125 C 2.8125 -3.234375 2.984375 -3.234375 3.203125 -3.234375 L 3.703125 -3.234375 C 4.09375 -3.234375 4.25 -3.125 4.28125 -2.875 L 4.34375 -2.375 L 4.734375 -2.375 L 4.703125 -3.453125 C 4.703125 -3.5625 4.703125 -3.703125 4.734375 -4.46875 L 4.34375 -4.46875 L 4.28125 -3.953125 C 4.25 -3.78125 4.125 -3.734375 3.703125 -3.734375 L 3.203125 -3.734375 C 2.875 -3.734375 2.734375 -3.734375 2.53125 -3.765625 Z M 2.53125 -6.1875 "
           id="path1730" />
      </symbol>
      <symbol
         overflow="visible"
         id="symbol2609">
        <path
           style="stroke:none;"
           d=""
           id="path487" />
      </symbol>
      <symbol
         overflow="visible"
         id="symbol8687">
        <path
           style="stroke:none;"
           d="M 2.28125 -0.78125 L 2.125 -0.65625 C 1.75 -0.390625 1.421875 -0.25 1.15625 -0.25 C 0.84375 -0.25 0.640625 -0.515625 0.640625 -0.921875 C 0.640625 -1.09375 0.65625 -1.296875 0.6875 -1.484375 L 1.265625 -1.625 C 1.375 -1.65625 1.5625 -1.734375 1.734375 -1.8125 C 2.328125 -2.0625 2.609375 -2.390625 2.609375 -2.8125 C 2.609375 -3.140625 2.375 -3.359375 2.015625 -3.359375 C 1.5625 -3.359375 0.796875 -2.875 0.515625 -2.4375 C 0.3125 -2.078125 0.109375 -1.25 0.109375 -0.78125 C 0.109375 -0.25 0.40625 0.078125 0.90625 0.078125 C 1.3125 0.078125 1.703125 -0.125 2.34375 -0.640625 Z M 0.78125 -1.90625 C 0.90625 -2.390625 1.046875 -2.6875 1.25 -2.875 C 1.375 -2.984375 1.59375 -3.0625 1.75 -3.0625 C 1.953125 -3.0625 2.09375 -2.921875 2.09375 -2.703125 C 2.09375 -2.390625 1.84375 -2.0625 1.484375 -1.890625 C 1.296875 -1.796875 1.03125 -1.71875 0.71875 -1.65625 Z M 0.78125 -1.90625 "
           id="path7008" />
      </symbol>
      <symbol
         overflow="visible"
         id="symbol472">
        <path
           style="stroke:none;"
           d="M 0.796875 -0.015625 L 0.859375 0 C 1.046875 0.0625 1.15625 0.078125 1.21875 0.078125 C 1.609375 0.078125 2.421875 -0.4375 2.71875 -0.875 C 3 -1.296875 3.234375 -2.0625 3.234375 -2.578125 C 3.234375 -3.046875 3.078125 -3.359375 2.828125 -3.359375 C 2.53125 -3.359375 2.171875 -3.171875 1.8125 -2.84375 C 1.515625 -2.609375 1.375 -2.421875 1.125 -2.015625 L 1.296875 -2.84375 C 1.3125 -2.96875 1.328125 -3.0625 1.328125 -3.15625 C 1.328125 -3.28125 1.28125 -3.359375 1.171875 -3.359375 C 1.03125 -3.359375 0.765625 -3.21875 0.25 -2.84375 L 0.0625 -2.703125 L 0.109375 -2.5625 L 0.328125 -2.703125 C 0.515625 -2.84375 0.59375 -2.875 0.65625 -2.875 C 0.734375 -2.875 0.78125 -2.8125 0.78125 -2.703125 C 0.78125 -2.65625 0.765625 -2.515625 0.75 -2.453125 L 0.34375 -0.0625 C 0.28125 0.359375 0.140625 1 0 1.625 L -0.046875 1.875 L 0 1.921875 C 0.140625 1.875 0.28125 1.84375 0.515625 1.8125 Z M 1 -1.15625 C 1.15625 -2.046875 1.890625 -2.953125 2.46875 -2.953125 C 2.65625 -2.953125 2.734375 -2.796875 2.734375 -2.484375 C 2.734375 -1.921875 2.453125 -1.09375 2.09375 -0.5625 C 1.953125 -0.359375 1.734375 -0.25 1.4375 -0.25 C 1.21875 -0.25 1.046875 -0.296875 0.875 -0.40625 Z M 1 -1.15625 "
           id="path3663" />
      </symbol>
      <symbol
         overflow="visible"
         id="symbol8968">
        <path
           style="stroke:none;"
           d=""
           id="path4126" />
      </symbol>
      <symbol
         overflow="visible"
         id="symbol1615">
        <path
           style="stroke:none;"
           d="M 6.609375 -1.890625 L 5.171875 -3.390625 L 4.953125 -3.15625 L 5.828125 -2.09375 L 0.453125 -2.09375 L 0.453125 -1.671875 L 5.828125 -1.671875 L 4.953125 -0.625 L 5.171875 -0.390625 Z M 6.609375 -1.890625 "
           id="path4358" />
      </symbol>
    </g>
    <g
       id="g6948">
      <symbol
         overflow="visible"
         id="symbol2134">
        <path
           style="stroke:none;"
           d=""
           id="path1725" />
      </symbol>
      <symbol
         overflow="visible"
         id="symbol5531">
        <path
           style="stroke:none;"
           d="M 3.90625 -0.796875 L 3.859375 0.03125 C 4.6875 0 4.6875 0 4.796875 0 C 4.890625 0 5.0625 0 5.34375 0.015625 C 5.40625 0.015625 5.609375 0.015625 5.8125 0.03125 L 5.8125 -0.34375 L 5.484375 -0.359375 C 5.171875 -0.375 5.125 -0.453125 5.125 -1 L 5.125 -4.640625 L 5.03125 -4.6875 L 4.328125 -4.46875 C 4 -4.375 3.8125 -4.34375 3.203125 -4.265625 L 3.203125 -3.90625 L 3.65625 -3.875 C 3.875 -3.859375 3.90625 -3.765625 3.90625 -3.1875 L 3.90625 -1.625 C 3.90625 -1.140625 3.484375 -0.734375 2.953125 -0.734375 C 2.375 -0.734375 2.171875 -1.078125 2.171875 -2.03125 L 2.171875 -4.640625 L 2.078125 -4.6875 L 1.375 -4.46875 C 1.046875 -4.375 0.875 -4.34375 0.25 -4.265625 L 0.25 -3.90625 L 0.703125 -3.875 C 0.921875 -3.859375 0.953125 -3.765625 0.953125 -3.1875 L 0.953125 -1.390625 C 0.953125 -0.390625 1.5 0.171875 2.453125 0.171875 C 2.734375 0.171875 3 0.09375 3.15625 -0.0625 Z M 3.90625 -0.796875 "
           id="path2345" />
      </symbol>
      <symbol
         overflow="visible"
         id="symbol4053">
        <path
           style="stroke:none;"
           d=""
           id="path8550" />
      </symbol>
      <symbol
         overflow="visible"
         id="symbol6823">
        <path
           style="stroke:none;"
           d="M 4 -3.515625 C 4 -4.3125 3.765625 -4.890625 2.875 -4.890625 C 1.0625 -4.890625 0.5 -2.875 0.5 -1.390625 C 0.5 -0.5625 0.75 0.109375 1.6875 0.109375 C 3.34375 0.109375 4 -2.203125 4 -3.515625 Z M 3.484375 -3.609375 C 3.484375 -3.296875 3.421875 -2.96875 3.375 -2.65625 L 1.171875 -2.65625 C 1.34375 -3.375 1.84375 -4.703125 2.75 -4.703125 C 3.359375 -4.703125 3.484375 -4.078125 3.484375 -3.609375 Z M 3.34375 -2.4375 C 3.171875 -1.65625 2.796875 -0.09375 1.796875 -0.09375 C 1.09375 -0.09375 1.03125 -0.875 1.03125 -1.421875 C 1.03125 -1.75 1.09375 -2.09375 1.140625 -2.4375 Z M 3.34375 -2.4375 "
           id="path2136" />
      </symbol>
    </g>
    <g
       id="g1701">
      <symbol
         overflow="visible"
         id="symbol9451">
        <path
           style="stroke:none;"
           d=""
           id="path8992" />
      </symbol>
      <symbol
         overflow="visible"
         id="symbol8171">
        <path
           style="stroke:none;"
           d="M 4.59375 -2.9375 C 4.59375 -4 3.84375 -4.6875 2.71875 -4.6875 C 2.359375 -4.6875 2.109375 -4.625 1.828125 -4.46875 L 1.359375 -4.1875 C 0.703125 -3.796875 0.421875 -3.203125 0.421875 -2.25 C 0.421875 -0.671875 1.21875 0.171875 2.703125 0.171875 C 3.265625 0.171875 3.640625 0.0625 4.28125 -0.265625 L 4.5 -0.734375 L 4.375 -0.890625 C 3.90625 -0.625 3.609375 -0.53125 3.203125 -0.53125 C 2.6875 -0.53125 2.203125 -0.8125 1.953125 -1.25 C 1.796875 -1.53125 1.734375 -1.75 1.71875 -2.21875 L 3.015625 -2.21875 C 3.59375 -2.21875 4.03125 -2.28125 4.59375 -2.421875 Z M 2.5 -2.71875 L 2.453125 -2.71875 C 2.390625 -2.71875 2.125 -2.734375 1.96875 -2.734375 L 1.65625 -2.75 C 1.6875 -3.734375 1.921875 -4.140625 2.5 -4.140625 C 3.078125 -4.140625 3.3125 -3.734375 3.328125 -2.75 Z M 2.5 -2.71875 "
           id="path5518" />
      </symbol>
      <symbol
         overflow="visible"
         id="symbol971">
        <path
           style="stroke:none;"
           d=""
           id="path2139" />
      </symbol>
      <symbol
         overflow="visible"
         id="symbol7450">
        <path
           style="stroke:none;"
           d="M 2.5625 -2.546875 C 2.578125 -2.8125 2.625 -3.03125 2.671875 -3.3125 C 2.59375 -3.359375 2.578125 -3.359375 2.53125 -3.359375 C 2.328125 -3.359375 2.109375 -3.1875 1.859375 -2.84375 L 1.671875 -2.5625 C 1.390625 -2.171875 1.3125 -2.03125 1.203125 -1.78125 L 1.25 -2.0625 C 1.28125 -2.234375 1.34375 -2.515625 1.375 -2.65625 L 1.421875 -2.84375 C 1.453125 -2.96875 1.46875 -3.046875 1.46875 -3.140625 C 1.46875 -3.28125 1.40625 -3.359375 1.296875 -3.359375 C 1.15625 -3.359375 0.890625 -3.21875 0.375 -2.84375 L 0.1875 -2.703125 L 0.234375 -2.5625 L 0.453125 -2.703125 C 0.640625 -2.84375 0.71875 -2.875 0.78125 -2.875 C 0.859375 -2.875 0.90625 -2.8125 0.90625 -2.71875 C 0.90625 -2.3125 0.609375 -0.875 0.328125 0.015625 L 0.390625 0.0625 C 0.5 0.03125 0.609375 0 0.78125 -0.03125 L 0.859375 -0.046875 L 1.046875 -0.875 C 1.171875 -1.453125 1.328125 -1.828125 1.640625 -2.21875 C 1.875 -2.53125 2.0625 -2.671875 2.21875 -2.671875 C 2.328125 -2.671875 2.390625 -2.640625 2.46875 -2.546875 Z M 2.5625 -2.546875 "
           id="path4761" />
      </symbol>
    </g>
    <g
       id="g3012">
      <symbol
         overflow="visible"
         id="symbol1690">
        <path
           style="stroke:none;"
           d=""
           id="path351" />
      </symbol>
      <symbol
         overflow="visible"
         id="symbol8588">
        <path
           style="stroke:none;"
           d="M 4.59375 -2.9375 C 4.59375 -4 3.84375 -4.6875 2.71875 -4.6875 C 2.359375 -4.6875 2.109375 -4.625 1.828125 -4.46875 L 1.359375 -4.1875 C 0.703125 -3.796875 0.421875 -3.203125 0.421875 -2.25 C 0.421875 -0.671875 1.21875 0.171875 2.703125 0.171875 C 3.265625 0.171875 3.640625 0.0625 4.28125 -0.265625 L 4.5 -0.734375 L 4.375 -0.890625 C 3.90625 -0.625 3.609375 -0.53125 3.203125 -0.53125 C 2.6875 -0.53125 2.203125 -0.8125 1.953125 -1.25 C 1.796875 -1.53125 1.734375 -1.75 1.71875 -2.21875 L 3.015625 -2.21875 C 3.59375 -2.21875 4.03125 -2.28125 4.59375 -2.421875 Z M 2.5 -2.71875 L 2.453125 -2.71875 C 2.390625 -2.71875 2.125 -2.734375 1.96875 -2.734375 L 1.65625 -2.75 C 1.6875 -3.734375 1.921875 -4.140625 2.5 -4.140625 C 3.078125 -4.140625 3.3125 -3.734375 3.328125 -2.75 Z M 2.5 -2.71875 "
           id="path7411" />
      </symbol>
      <symbol
         overflow="visible"
         id="symbol7168">
        <path
           style="stroke:none;"
           d=""
           id="path8435" />
      </symbol>
      <symbol
         overflow="visible"
         id="symbol1182">
        <path
           style="stroke:none;"
           d="M 4 -3.515625 C 4 -4.3125 3.765625 -4.890625 2.875 -4.890625 C 1.0625 -4.890625 0.5 -2.875 0.5 -1.390625 C 0.5 -0.5625 0.75 0.109375 1.6875 0.109375 C 3.34375 0.109375 4 -2.203125 4 -3.515625 Z M 3.484375 -3.609375 C 3.484375 -3.296875 3.421875 -2.96875 3.375 -2.65625 L 1.171875 -2.65625 C 1.34375 -3.375 1.84375 -4.703125 2.75 -4.703125 C 3.359375 -4.703125 3.484375 -4.078125 3.484375 -3.609375 Z M 3.34375 -2.4375 C 3.171875 -1.65625 2.796875 -0.09375 1.796875 -0.09375 C 1.09375 -0.09375 1.03125 -0.875 1.03125 -1.421875 C 1.03125 -1.75 1.09375 -2.09375 1.140625 -2.4375 Z M 3.34375 -2.4375 "
           id="path8891" />
      </symbol>
    </g>
    <g
       id="g9264">
      <symbol
         overflow="visible"
         id="symbol1075">
        <path
           style="stroke:none;"
           d=""
           id="path2837" />
      </symbol>
      <symbol
         overflow="visible"
         id="symbol890">
        <path
           style="stroke:none;"
           d="M 5.71875 -5.03125 C 5.71875 -6.15625 5.390625 -7 4.109375 -7 C 1.53125 -7 0.703125 -4.109375 0.703125 -1.984375 C 0.703125 -0.796875 1.0625 0.15625 2.421875 0.15625 C 4.78125 0.15625 5.71875 -3.15625 5.71875 -5.03125 Z M 4.96875 -5.15625 C 4.96875 -4.703125 4.90625 -4.25 4.828125 -3.796875 L 1.671875 -3.796875 C 1.90625 -4.828125 2.640625 -6.734375 3.9375 -6.734375 C 4.796875 -6.734375 4.96875 -5.828125 4.96875 -5.15625 Z M 4.78125 -3.484375 C 4.546875 -2.359375 4 -0.125 2.578125 -0.125 C 1.5625 -0.125 1.46875 -1.25 1.46875 -2.03125 C 1.46875 -2.515625 1.5625 -3 1.625 -3.484375 Z M 4.78125 -3.484375 "
           id="path1356" />
      </symbol>
    </g>
    <g
       id="g8578">
      <symbol
         overflow="visible"
         id="symbol867">
        <path
           style="stroke:none;"
           d=""
           id="path4428" />
      </symbol>
      <symbol
         overflow="visible"
         id="symbol5071">
        <path
           style="stroke:none;"
           d="M 4.625 -7.03125 C 2.265625 -7.03125 0.53125 -5.21875 0.53125 -2.71875 C 0.53125 -0.828125 1.46875 0.171875 3.21875 0.171875 C 4.0625 0.171875 4.78125 -0.015625 5.421875 -0.421875 C 6.671875 -1.203125 7.453125 -2.65625 7.453125 -4.234375 C 7.453125 -6.015625 6.421875 -7.03125 4.625 -7.03125 Z M 4.3125 -6.625 C 4.796875 -6.625 5.28125 -6.5 5.609375 -6.296875 C 6.265625 -5.921875 6.578125 -5.171875 6.578125 -4.078125 C 6.578125 -2.828125 6.1875 -1.6875 5.5 -1 C 5.015625 -0.5 4.359375 -0.234375 3.59375 -0.234375 C 2.15625 -0.234375 1.40625 -1.09375 1.40625 -2.765625 C 1.40625 -4.0625 1.796875 -5.21875 2.5 -5.90625 C 2.953125 -6.390625 3.5625 -6.625 4.3125 -6.625 Z M 4.3125 -6.625 "
           id="path1718" />
      </symbol>
    </g>
    <g
       id="g6855">
      <symbol
         overflow="visible"
         id="symbol6322">
        <path
           style="stroke:none;"
           d=""
           id="path8211" />
      </symbol>
      <symbol
         overflow="visible"
         id="symbol1521">
        <path
           style="stroke:none;"
           d="M 1.046875 -6.625 L 1.59375 -6.59375 C 1.828125 -6.59375 1.9375 -6.515625 1.9375 -6.328125 C 1.9375 -6.1875 1.90625 -5.875 1.859375 -5.578125 L 1.109375 -1.25 C 0.953125 -0.34375 0.9375 -0.3125 0.53125 -0.28125 L 0.125 -0.25 L 0.09375 0.03125 L 0.515625 0.015625 C 0.921875 0.015625 1.21875 0 1.40625 0 C 1.578125 0 1.859375 0.015625 2.265625 0.015625 L 2.796875 0.03125 L 2.828125 -0.25 L 2.171875 -0.28125 C 1.90625 -0.296875 1.8125 -0.375 1.8125 -0.578125 C 1.8125 -0.671875 1.828125 -0.734375 1.859375 -0.921875 L 2.671875 -5.78125 C 2.671875 -5.796875 2.71875 -5.984375 2.765625 -6.1875 C 2.765625 -6.234375 2.796875 -6.328125 2.828125 -6.453125 C 3.1875 -6.515625 3.34375 -6.546875 3.53125 -6.546875 C 4.5625 -6.546875 5.046875 -6.09375 5.046875 -5.171875 C 5.046875 -4.09375 4.328125 -3.21875 3.453125 -3.21875 C 3.234375 -3.21875 3.03125 -3.265625 2.65625 -3.40625 L 2.6875 -3.09375 C 3.046875 -2.921875 3.25 -2.875 3.53125 -2.875 C 4.828125 -2.875 5.921875 -4.03125 5.921875 -5.390625 C 5.921875 -6.40625 5.296875 -6.921875 4.109375 -6.890625 L 2.734375 -6.875 L 1.609375 -6.890625 L 1.078125 -6.890625 Z M 1.046875 -6.625 "
           id="path8257" />
      </symbol>
    </g>
    <g
       id="g7952">
      <symbol
         overflow="visible"
         id="symbol3266">
        <path
           style="stroke:none;"
           d=""
           id="path7188" />
      </symbol>
      <symbol
         overflow="visible"
         id="symbol6068">
        <path
           style="stroke:none;"
           d="M 1.046875 -6.625 L 1.59375 -6.59375 C 1.828125 -6.59375 1.9375 -6.515625 1.9375 -6.328125 C 1.9375 -6.1875 1.90625 -5.875 1.859375 -5.578125 L 1.109375 -1.25 C 0.953125 -0.34375 0.9375 -0.3125 0.53125 -0.28125 L 0.125 -0.25 L 0.09375 0.03125 L 0.515625 0.015625 C 0.921875 0.015625 1.21875 0 1.40625 0 C 1.578125 0 1.859375 0.015625 2.265625 0.015625 L 2.796875 0.03125 L 2.828125 -0.25 L 2.171875 -0.28125 C 1.90625 -0.296875 1.8125 -0.375 1.8125 -0.578125 C 1.8125 -0.671875 1.828125 -0.734375 1.859375 -0.921875 L 2.671875 -5.78125 C 2.671875 -5.796875 2.71875 -5.984375 2.765625 -6.1875 C 2.765625 -6.234375 2.796875 -6.328125 2.828125 -6.453125 C 3.1875 -6.515625 3.34375 -6.546875 3.53125 -6.546875 C 4.5625 -6.546875 5.046875 -6.09375 5.046875 -5.171875 C 5.046875 -4.09375 4.328125 -3.21875 3.453125 -3.21875 C 3.234375 -3.21875 3.03125 -3.265625 2.65625 -3.40625 L 2.6875 -3.09375 C 3.046875 -2.921875 3.25 -2.875 3.53125 -2.875 C 4.828125 -2.875 5.921875 -4.03125 5.921875 -5.390625 C 5.921875 -6.40625 5.296875 -6.921875 4.109375 -6.890625 L 2.734375 -6.875 L 1.609375 -6.890625 L 1.078125 -6.890625 Z M 1.046875 -6.625 "
           id="path8117" />
      </symbol>
      <symbol
         overflow="visible"
         id="symbol8423">
        <path
           style="stroke:none;"
           d="M 3.671875 -3.640625 C 3.703125 -4.015625 3.75 -4.34375 3.828125 -4.75 C 3.71875 -4.796875 3.671875 -4.8125 3.625 -4.8125 C 3.3125 -4.8125 3.015625 -4.5625 2.65625 -4.0625 L 2.375 -3.671875 C 2 -3.109375 1.875 -2.90625 1.71875 -2.546875 L 1.796875 -2.953125 C 1.828125 -3.1875 1.90625 -3.59375 1.96875 -3.8125 L 2.03125 -4.0625 C 2.078125 -4.234375 2.09375 -4.359375 2.09375 -4.484375 C 2.09375 -4.6875 2.015625 -4.8125 1.859375 -4.8125 C 1.65625 -4.8125 1.28125 -4.59375 0.53125 -4.0625 L 0.265625 -3.875 L 0.328125 -3.671875 L 0.640625 -3.875 C 0.921875 -4.0625 1.03125 -4.109375 1.125 -4.109375 C 1.21875 -4.109375 1.296875 -4.015625 1.296875 -3.890625 C 1.296875 -3.3125 0.875 -1.25 0.46875 0.015625 L 0.5625 0.09375 C 0.71875 0.046875 0.875 0.015625 1.109375 -0.046875 L 1.234375 -0.0625 L 1.5 -1.25 C 1.671875 -2.078125 1.90625 -2.609375 2.34375 -3.1875 C 2.6875 -3.625 2.953125 -3.828125 3.171875 -3.828125 C 3.3125 -3.828125 3.421875 -3.78125 3.53125 -3.640625 Z M 3.671875 -3.640625 "
           id="path140" />
      </symbol>
      <symbol
         overflow="visible"
         id="symbol4742">
        <path
           style="stroke:none;"
           d=""
           id="path6047" />
      </symbol>
      <symbol
         overflow="visible"
         id="symbol9379">
        <path
           style="stroke:none;"
           d="M 3 1.9375 C 2.28125 1.046875 2.03125 0.5625 1.765625 -0.328125 C 1.5625 -1.046875 1.453125 -1.796875 1.453125 -2.65625 C 1.453125 -3.484375 1.5625 -4.1875 1.75 -4.828125 C 2 -5.65625 2.265625 -6.125 3 -6.984375 L 2.8125 -7.234375 C 1.78125 -6.3125 1.359375 -5.765625 0.984375 -4.78125 C 0.734375 -4.109375 0.59375 -3.40625 0.59375 -2.65625 C 0.59375 -1.578125 0.84375 -0.578125 1.328125 0.3125 C 1.671875 0.984375 2 1.375 2.8125 2.140625 Z M 3 1.9375 "
           id="path482" />
      </symbol>
      <symbol
         overflow="visible"
         id="symbol4875">
        <path
           style="stroke:none;"
           d="M 0.515625 2.140625 C 1.203125 1.5 1.484375 1.171875 1.796875 0.671875 C 2.40625 -0.296875 2.71875 -1.453125 2.71875 -2.640625 C 2.71875 -3.40625 2.59375 -4.109375 2.328125 -4.78125 C 1.953125 -5.75 1.546875 -6.296875 0.515625 -7.234375 L 0.3125 -6.984375 C 1.046875 -6.125 1.3125 -5.65625 1.5625 -4.828125 C 1.765625 -4.1875 1.859375 -3.484375 1.859375 -2.65625 C 1.859375 -1.796875 1.765625 -1.046875 1.5625 -0.328125 C 1.296875 0.5625 1.03125 1.046875 0.3125 1.9375 Z M 0.515625 2.140625 "
           id="path4334" />
      </symbol>
      <symbol
         overflow="visible"
         id="symbol3988">
        <path
           style="stroke:none;"
           d=""
           id="path3779" />
      </symbol>
      <symbol
         overflow="visible"
         id="symbol7188">
        <path
           style="stroke:none;"
           d="M 0.796875 -0.015625 L 0.859375 0 C 1.046875 0.0625 1.15625 0.078125 1.21875 0.078125 C 1.609375 0.078125 2.421875 -0.4375 2.71875 -0.875 C 3 -1.296875 3.234375 -2.0625 3.234375 -2.578125 C 3.234375 -3.046875 3.078125 -3.359375 2.828125 -3.359375 C 2.53125 -3.359375 2.171875 -3.171875 1.8125 -2.84375 C 1.515625 -2.609375 1.375 -2.421875 1.125 -2.015625 L 1.296875 -2.84375 C 1.3125 -2.96875 1.328125 -3.0625 1.328125 -3.15625 C 1.328125 -3.28125 1.28125 -3.359375 1.171875 -3.359375 C 1.03125 -3.359375 0.765625 -3.21875 0.25 -2.84375 L 0.0625 -2.703125 L 0.109375 -2.5625 L 0.328125 -2.703125 C 0.515625 -2.84375 0.59375 -2.875 0.65625 -2.875 C 0.734375 -2.875 0.78125 -2.8125 0.78125 -2.703125 C 0.78125 -2.65625 0.765625 -2.515625 0.75 -2.453125 L 0.34375 -0.0625 C 0.28125 0.359375 0.140625 1 0 1.625 L -0.046875 1.875 L 0 1.921875 C 0.140625 1.875 0.28125 1.84375 0.515625 1.8125 Z M 1 -1.15625 C 1.15625 -2.046875 1.890625 -2.953125 2.46875 -2.953125 C 2.65625 -2.953125 2.734375 -2.796875 2.734375 -2.484375 C 2.734375 -1.921875 2.453125 -1.09375 2.09375 -0.5625 C 1.953125 -0.359375 1.734375 -0.25 1.4375 -0.25 C 1.21875 -0.25 1.046875 -0.296875 0.875 -0.40625 Z M 1 -1.15625 "
           id="path2848" />
      </symbol>
      <symbol
         overflow="visible"
         id="symbol8001">
        <path
           style="stroke:none;"
           d=""
           id="path6752" />
      </symbol>
      <symbol
         overflow="visible"
         id="symbol2992">
        <path
           style="stroke:none;"
           d="M 2.171875 -1.09375 L 2.03125 -1.21875 C 1.703125 -1.109375 1.390625 -1 1.0625 -0.921875 C 0.984375 -0.0625 0.59375 0.71875 0.15625 1.4375 L 0.296875 1.546875 L 0.703125 1.359375 C 1.28125 0.609375 1.859375 -0.1875 2.171875 -1.09375 Z M 2.171875 -1.09375 "
           id="path832" />
      </symbol>
      <symbol
         overflow="visible"
         id="symbol3757">
        <path
           style="stroke:none;"
           d="M 5.71875 -5.03125 C 5.71875 -6.15625 5.390625 -7 4.109375 -7 C 1.53125 -7 0.703125 -4.109375 0.703125 -1.984375 C 0.703125 -0.796875 1.0625 0.15625 2.421875 0.15625 C 4.78125 0.15625 5.71875 -3.15625 5.71875 -5.03125 Z M 4.96875 -5.15625 C 4.96875 -4.703125 4.90625 -4.25 4.828125 -3.796875 L 1.671875 -3.796875 C 1.90625 -4.828125 2.640625 -6.734375 3.9375 -6.734375 C 4.796875 -6.734375 4.96875 -5.828125 4.96875 -5.15625 Z M 4.78125 -3.484375 C 4.546875 -2.359375 4 -0.125 2.578125 -0.125 C 1.5625 -0.125 1.46875 -1.25 1.46875 -2.03125 C 1.46875 -2.515625 1.5625 -3 1.625 -3.484375 Z M 4.78125 -3.484375 "
           id="path9977" />
      </symbol>
    </g>
    <g
       id="g7537">
      <symbol
         overflow="visible"
         id="symbol3073">
        <path
           style="stroke:none;"
           d=""
           id="path9411" />
      </symbol>
      <symbol
         overflow="visible"
         id="symbol9362">
        <path
           style="stroke:none;"
           d="M 9.34375 -6.625 L 9.375 -6.890625 L 9.09375 -6.890625 C 8.8125 -6.875 8.65625 -6.875 8.53125 -6.875 L 8.296875 -6.875 L 7.703125 -6.890625 L 7.546875 -6.59375 C 7.28125 -6.078125 7.09375 -5.734375 6.859375 -5.34375 L 4.40625 -1.140625 L 2.90625 -6.890625 L 2.625 -6.890625 C 2.359375 -6.875 2.203125 -6.875 2.078125 -6.875 L 1.828125 -6.875 L 1.25 -6.890625 L 1.21875 -6.625 L 1.46875 -6.59375 C 2 -6.5625 2.171875 -6.453125 2.171875 -6.203125 C 2.171875 -6.140625 2.15625 -6.078125 2.140625 -6 L 0.703125 -0.921875 C 0.53125 -0.40625 0.390625 -0.28125 -0.15625 -0.234375 L -0.1875 0.03125 L 0.203125 0.015625 C 0.53125 0.015625 0.78125 0 0.921875 0 C 1.0625 0 1.328125 0.015625 1.671875 0.015625 L 2.03125 0.03125 L 2.046875 -0.25 L 1.671875 -0.28125 C 1.359375 -0.296875 1.1875 -0.40625 1.1875 -0.546875 C 1.1875 -0.640625 1.203125 -0.78125 1.25 -0.953125 L 2.5 -5.578125 L 3.984375 0.171875 L 4.203125 0.171875 L 4.78125 -0.859375 C 5.546875 -2.265625 6.484375 -3.875 7.15625 -4.984375 L 7.671875 -5.859375 L 7.3125 -0.671875 C 7.265625 -0.390625 7.140625 -0.3125 6.640625 -0.28125 L 6.328125 -0.25 L 6.296875 0.03125 L 6.765625 0.015625 C 7.1875 0.015625 7.484375 0 7.640625 0 C 7.796875 0 8.09375 0.015625 8.5 0.015625 L 8.96875 0.03125 L 8.984375 -0.25 L 8.625 -0.28125 C 8.265625 -0.3125 8.078125 -0.421875 8.078125 -0.625 L 8.09375 -1 L 8.5 -6.296875 C 8.515625 -6.484375 8.671875 -6.578125 8.96875 -6.59375 Z M 9.34375 -6.625 "
           id="path5967" />
      </symbol>
    </g>
    <g
       id="g3626">
      <symbol
         overflow="visible"
         id="symbol5230">
        <path
           style="stroke:none;"
           d=""
           id="path5092" />
      </symbol>
      <symbol
         overflow="visible"
         id="symbol5867">
        <path
           style="stroke:none;"
           d="M 1.046875 -6.625 L 1.609375 -6.59375 C 1.84375 -6.59375 1.953125 -6.515625 1.953125 -6.328125 C 1.953125 -6.1875 1.90625 -5.875 1.859375 -5.578125 L 1.109375 -1.25 C 0.953125 -0.34375 0.9375 -0.3125 0.53125 -0.28125 L 0.125 -0.25 L 0.09375 0.03125 L 0.515625 0.015625 C 0.984375 0 1.171875 0 1.40625 0 L 2.375 0.03125 L 2.625 0.03125 L 2.65625 -0.25 L 2.171875 -0.28125 C 1.90625 -0.296875 1.8125 -0.375 1.8125 -0.578125 C 1.8125 -0.671875 1.828125 -0.75 1.859375 -0.921875 L 2.703125 -5.78125 C 2.703125 -5.796875 2.75 -6 2.796875 -6.1875 C 2.8125 -6.265625 2.828125 -6.328125 2.859375 -6.453125 C 3.15625 -6.515625 3.34375 -6.546875 3.625 -6.546875 C 4.484375 -6.546875 4.9375 -6.15625 4.9375 -5.40625 C 4.9375 -4.46875 4.171875 -3.765625 3.125 -3.765625 L 2.6875 -3.765625 L 2.65625 -3.65625 C 4 -1.71875 4.3125 -1.234375 5.046875 0.03125 L 5.71875 0 L 5.90625 0 C 5.90625 0 6.046875 0.015625 6.234375 0.03125 L 6.375 0.03125 L 6.375 -0.234375 C 5.96875 -0.296875 5.859375 -0.375 5.578125 -0.78125 L 3.734375 -3.53125 C 4.28125 -3.625 4.578125 -3.75 4.9375 -4 C 5.515625 -4.421875 5.828125 -4.96875 5.828125 -5.578125 C 5.828125 -6.4375 5.1875 -6.921875 4.078125 -6.890625 L 2.578125 -6.875 C 2.4375 -6.875 2.25 -6.875 1.078125 -6.890625 Z M 1.046875 -6.625 "
           id="path1292" />
      </symbol>
    </g>
    <g
       id="g1136">
      <symbol
         overflow="visible"
         id="symbol4750">
        <path
           style="stroke:none;"
           d=""
           id="path6601" />
      </symbol>
      <symbol
         overflow="visible"
         id="symbol5461">
        <path
           style="stroke:none;"
           d="M 0.203125 -0.875 C 0.203125 -0.671875 0.1875 -0.546875 0.125 -0.234375 C 0.109375 -0.109375 0.09375 -0.078125 0.09375 -0.015625 C 0.234375 0.0625 0.40625 0.109375 0.515625 0.109375 C 0.84375 0.109375 1.234375 -0.171875 1.546875 -0.640625 L 2.296875 -1.8125 L 2.40625 -1.125 C 2.546875 -0.28125 2.765625 0.109375 3.125 0.109375 C 3.34375 0.109375 3.671875 -0.0625 3.984375 -0.34375 L 4.46875 -0.78125 L 4.390625 -0.984375 C 4.03125 -0.671875 3.78125 -0.53125 3.625 -0.53125 C 3.46875 -0.53125 3.34375 -0.625 3.234375 -0.828125 C 3.15625 -1.015625 3.046875 -1.390625 2.984375 -1.671875 L 2.8125 -2.6875 L 3.15625 -3.171875 C 3.625 -3.8125 3.890625 -4.046875 4.203125 -4.046875 C 4.359375 -4.046875 4.484375 -3.96875 4.53125 -3.8125 L 4.671875 -3.859375 L 4.828125 -4.703125 C 4.703125 -4.78125 4.609375 -4.8125 4.53125 -4.8125 C 4.125 -4.8125 3.734375 -4.453125 3.109375 -3.53125 L 2.734375 -2.984375 L 2.6875 -3.453125 C 2.5625 -4.453125 2.296875 -4.8125 1.703125 -4.8125 C 1.453125 -4.8125 1.21875 -4.71875 1.140625 -4.59375 L 0.5625 -3.765625 L 0.734375 -3.671875 C 1.03125 -4 1.21875 -4.140625 1.421875 -4.140625 C 1.75 -4.140625 1.96875 -3.734375 2.140625 -2.765625 L 2.25 -2.140625 L 1.84375 -1.53125 C 1.421875 -0.859375 1.078125 -0.53125 0.796875 -0.53125 C 0.640625 -0.53125 0.53125 -0.578125 0.515625 -0.625 L 0.40625 -0.90625 Z M 0.203125 -0.875 "
           id="path5686" />
      </symbol>
    </g>
    <g
       id="g3516">
      <symbol
         overflow="visible"
         id="symbol2321">
        <path
           style="stroke:none;"
           d=""
           id="path8015" />
      </symbol>
      <symbol
         overflow="visible"
         id="symbol1945">
        <path
           style="stroke:none;"
           d="M -0.0625 1.796875 C -0.078125 1.859375 -0.078125 1.921875 -0.078125 1.96875 C -0.078125 2.40625 0.296875 2.75 0.734375 2.75 C 1.796875 2.75 2.890625 1.515625 3.484375 -0.328125 L 4.890625 -4.71875 L 4.78125 -4.8125 C 4.484375 -4.6875 4.25 -4.640625 4.03125 -4.609375 L 3.6875 -3.296875 C 3.5625 -2.828125 3.21875 -2.109375 2.890625 -1.609375 C 2.546875 -1.109375 2.046875 -0.671875 1.828125 -0.671875 C 1.71875 -0.671875 1.625 -0.890625 1.640625 -1.140625 L 1.640625 -1.28125 L 1.796875 -3.203125 C 1.8125 -3.515625 1.828125 -3.890625 1.828125 -4.171875 C 1.828125 -4.625 1.765625 -4.8125 1.59375 -4.8125 C 1.46875 -4.8125 1.328125 -4.734375 0.84375 -4.40625 L 0.03125 -3.84375 L 0.140625 -3.671875 L 0.640625 -3.96875 L 0.671875 -4 C 0.78125 -4.0625 0.84375 -4.09375 0.890625 -4.09375 C 1.03125 -4.09375 1.109375 -3.890625 1.109375 -3.5625 C 1.109375 -3.5625 1.109375 -3.5 1.09375 -3.421875 L 0.921875 -1 L 0.921875 -0.59375 C 0.921875 -0.171875 1.09375 0.109375 1.34375 0.109375 C 1.71875 0.109375 2.546875 -0.734375 3.296875 -1.859375 L 2.8125 -0.15625 C 2.296875 1.609375 1.796875 2.328125 1.109375 2.328125 C 0.75 2.328125 0.484375 2.0625 0.484375 1.71875 C 0.484375 1.671875 0.5 1.578125 0.515625 1.5 L 0.40625 1.453125 Z M -0.0625 1.796875 "
           id="path1061" />
      </symbol>
    </g>
    <g
       id="g4365">
      <symbol
         overflow="visible"
         id="symbol6728">
        <path
           style="stroke:none;"
           d=""
           id="path4933" />
      </symbol>
      <symbol
         overflow="visible"
         id="symbol4870">
        <path
           style="stroke:none;"
           d="M 3.3125 -4.21875 L 3.421875 -4.03125 C 3.515625 -4.09375 3.59375 -4.109375 3.6875 -4.109375 C 3.953125 -4.109375 4.109375 -3.890625 4.109375 -3.484375 C 4.109375 -2.015625 3.15625 -0.390625 2.265625 -0.390625 C 1.78125 -0.390625 1.46875 -0.8125 1.46875 -1.453125 C 1.46875 -2.5 1.859375 -3.40625 2.84375 -4.625 L 2.734375 -4.8125 C 2.546875 -4.71875 2.40625 -4.6875 2.140625 -4.6875 C 1.859375 -4.6875 1.4375 -4.703125 1.140625 -4.734375 L 1.03125 -4.75 C 0.96875 -4.75 0.921875 -4.75 0.90625 -4.75 C 0.78125 -4.75 0.703125 -4.734375 0.59375 -4.6875 C 0.453125 -4.421875 0.34375 -4.0625 0.203125 -3.515625 L 0.421875 -3.515625 L 0.59375 -3.921875 C 0.671875 -4.09375 0.875 -4.203125 1.109375 -4.203125 C 1.15625 -4.203125 1.25 -4.203125 1.375 -4.203125 C 1.453125 -4.1875 1.53125 -4.1875 1.65625 -4.1875 C 1.859375 -4.1875 2.03125 -4.203125 2.28125 -4.234375 C 1.171875 -3.03125 0.75 -2.203125 0.75 -1.203125 C 0.75 -0.4375 1.21875 0.109375 1.859375 0.109375 C 2.265625 0.109375 2.65625 -0.0625 3.109375 -0.484375 C 3.578125 -0.90625 4.0625 -1.578125 4.359375 -2.265625 C 4.578125 -2.765625 4.75 -3.421875 4.75 -3.828125 C 4.75 -4.390625 4.5 -4.8125 4.140625 -4.8125 C 4 -4.8125 3.890625 -4.765625 3.8125 -4.6875 Z M 3.3125 -4.21875 "
           id="path6567" />
      </symbol>
      <symbol
         overflow="visible"
         id="symbol383">
        <path
           style="stroke:none;"
           d=""
           id="path3792" />
      </symbol>
      <symbol
         overflow="visible"
         id="symbol7313">
        <path
           style="stroke:none;"
           d="M 1.828125 -4.796875 C 0.75 -4.796875 0.203125 -3.9375 0.203125 -2.265625 C 0.203125 -1.4375 0.34375 -0.734375 0.59375 -0.390625 C 0.84375 -0.0625 1.21875 0.140625 1.65625 0.140625 C 2.703125 0.140625 3.234375 -0.765625 3.234375 -2.546875 C 3.234375 -4.078125 2.78125 -4.796875 1.828125 -4.796875 Z M 1.703125 -4.5625 C 2.390625 -4.5625 2.65625 -3.875 2.65625 -2.203125 C 2.65625 -0.71875 2.390625 -0.109375 1.75 -0.109375 C 1.078125 -0.109375 0.78125 -0.8125 0.78125 -2.515625 C 0.78125 -3.984375 1.046875 -4.5625 1.703125 -4.5625 Z M 1.703125 -4.5625 "
           id="path3099" />
      </symbol>
    </g>
    <g
       id="g7912">
      <symbol
         overflow="visible"
         id="symbol7907">
        <path
           style="stroke:none;"
           d=""
           id="path1284" />
      </symbol>
      <symbol
         overflow="visible"
         id="symbol5164">
        <path
           style="stroke:none;"
           d="M 3.15625 -6.78125 C 2.90625 -6.765625 2.21875 -6.765625 2.0625 -6.765625 C 1.921875 -6.765625 1.640625 -6.765625 1.171875 -6.765625 L 0.390625 -6.78125 L 0.390625 -6.421875 L 0.75 -6.390625 C 1.203125 -6.34375 1.234375 -6.296875 1.234375 -5.40625 L 1.234375 -0.953125 C 1.234375 -0.609375 1.1875 -0.453125 1.03125 -0.375 L 0.71875 -0.203125 L 0.71875 0.03125 C 1.4375 0.015625 1.6875 0 1.96875 0 C 2.125 0 2.328125 0 2.578125 0.015625 C 3.09375 0.015625 3.359375 0.03125 3.390625 0.03125 C 4.984375 0.03125 6.09375 -0.875 6.09375 -2.15625 C 6.09375 -2.6875 5.890625 -3.125 5.546875 -3.375 C 5.1875 -3.625 4.84375 -3.703125 4.046875 -3.765625 C 4.890625 -4.0625 5.171875 -4.203125 5.484375 -4.484375 C 5.71875 -4.703125 5.859375 -5.0625 5.859375 -5.4375 C 5.859375 -6.34375 5.25 -6.78125 3.984375 -6.78125 Z M 2.640625 -3.46875 L 2.9375 -3.46875 C 4.09375 -3.46875 4.59375 -3.03125 4.59375 -2.015625 C 4.59375 -0.984375 4.125 -0.515625 3.078125 -0.515625 C 2.921875 -0.515625 2.8125 -0.53125 2.640625 -0.5625 Z M 2.640625 -6.25 C 2.875 -6.28125 3.03125 -6.296875 3.21875 -6.296875 C 4.03125 -6.296875 4.390625 -5.96875 4.390625 -5.21875 C 4.390625 -4.359375 3.953125 -3.984375 2.9375 -3.984375 L 2.640625 -3.984375 Z M 2.640625 -6.25 "
           id="path4912" />
      </symbol>
    </g>
    <g
       id="g8560">
      <symbol
         overflow="visible"
         id="symbol2129">
        <path
           style="stroke:none;"
           d=""
           id="path362" />
      </symbol>
      <symbol
         overflow="visible"
         id="symbol9162">
        <path
           style="stroke:none;"
           d="M 2.53125 -6.1875 C 3.015625 -6.203125 3.34375 -6.203125 3.6875 -6.203125 C 4.359375 -6.203125 4.78125 -6.140625 4.796875 -6.015625 L 4.875 -5.28125 L 5.234375 -5.28125 L 5.375 -6.6875 L 5.3125 -6.765625 C 4.9375 -6.78125 4.75 -6.796875 4.359375 -6.796875 C 4.140625 -6.796875 3.765625 -6.78125 2.953125 -6.765625 C 2.5 -6.765625 2.25 -6.765625 2.046875 -6.765625 C 1.765625 -6.765625 1.765625 -6.765625 0.28125 -6.78125 L 0.28125 -6.421875 L 0.640625 -6.390625 C 1.09375 -6.34375 1.125 -6.296875 1.125 -5.40625 L 1.125 -1.34375 C 1.125 -0.453125 1.109375 -0.4375 0.640625 -0.40625 L 0.28125 -0.375 L 0.28125 0.03125 C 1.484375 0 1.484375 0 1.828125 0 C 2.140625 0 2.140625 0 3.484375 0.03125 L 3.484375 -0.375 L 3.015625 -0.40625 C 2.546875 -0.421875 2.53125 -0.46875 2.53125 -1.34375 L 2.53125 -3.203125 C 2.8125 -3.234375 2.984375 -3.234375 3.203125 -3.234375 L 3.703125 -3.234375 C 4.09375 -3.234375 4.25 -3.125 4.28125 -2.875 L 4.34375 -2.375 L 4.734375 -2.375 L 4.703125 -3.453125 C 4.703125 -3.5625 4.703125 -3.703125 4.734375 -4.46875 L 4.34375 -4.46875 L 4.28125 -3.953125 C 4.25 -3.78125 4.125 -3.734375 3.703125 -3.734375 L 3.203125 -3.734375 C 2.875 -3.734375 2.734375 -3.734375 2.53125 -3.765625 Z M 2.53125 -6.1875 "
           id="path1429" />
      </symbol>
    </g>
    <g
       id="g1343">
      <symbol
         overflow="visible"
         id="symbol88">
        <path
           style="stroke:none;"
           d=""
           id="path8725" />
      </symbol>
      <symbol
         overflow="visible"
         id="symbol5946">
        <path
           style="stroke:none;"
           d="M -0.015625 -0.203125 L 0.078125 0.0625 C 0.375 -0.171875 0.640625 -0.265625 0.984375 -0.265625 C 1.234375 -0.265625 1.515625 -0.203125 2.03125 -0.09375 C 2.625 0.0625 2.9375 0.109375 3.203125 0.109375 C 3.328125 0.109375 3.421875 0.09375 3.703125 0.015625 C 3.8125 -0.609375 3.890625 -0.953125 4 -1.421875 L 3.78125 -1.421875 L 3.5625 -0.8125 C 3.515625 -0.640625 3.390625 -0.5625 3.1875 -0.5625 C 3.0625 -0.5625 2.90625 -0.59375 2.6875 -0.640625 L 2.515625 -0.671875 C 2.1875 -0.75 1.84375 -0.796875 1.65625 -0.796875 C 1.328125 -0.796875 1.0625 -0.734375 0.703125 -0.59375 L 4.09375 -4.390625 L 4.140625 -4.71875 L 4.0625 -4.8125 L 3.828125 -4.578125 C 3.734375 -4.46875 3.625 -4.4375 3.484375 -4.4375 C 3.15625 -4.4375 2.625 -4.515625 2.15625 -4.640625 L 1.96875 -4.6875 C 1.6875 -4.765625 1.5 -4.8125 1.359375 -4.8125 C 1.1875 -4.8125 0.984375 -4.78125 0.75 -4.703125 L 0.421875 -3.484375 L 0.640625 -3.484375 L 0.9375 -4.0625 C 1.109375 -4.109375 1.203125 -4.109375 1.328125 -4.109375 C 1.46875 -4.109375 1.578125 -4.109375 1.78125 -4.0625 C 2.109375 -4 2.375 -3.96875 2.578125 -3.96875 C 2.9375 -3.96875 3.1875 -4.03125 3.515625 -4.203125 Z M -0.015625 -0.203125 "
           id="path1829" />
      </symbol>
    </g>
    <g
       id="g9244">
      <symbol
         overflow="visible"
         id="symbol6884">
        <path
           style="stroke:none;"
           d=""
           id="path3108" />
      </symbol>
      <symbol
         overflow="visible"
         id="symbol676">
        <path
           style="stroke:none;"
           d="M 3.671875 -3.640625 C 3.703125 -4.015625 3.75 -4.34375 3.828125 -4.75 C 3.71875 -4.796875 3.671875 -4.8125 3.625 -4.8125 C 3.3125 -4.8125 3.015625 -4.5625 2.65625 -4.0625 L 2.375 -3.671875 C 2 -3.109375 1.875 -2.90625 1.71875 -2.546875 L 1.796875 -2.953125 C 1.828125 -3.1875 1.90625 -3.59375 1.96875 -3.8125 L 2.03125 -4.0625 C 2.078125 -4.234375 2.09375 -4.359375 2.09375 -4.484375 C 2.09375 -4.6875 2.015625 -4.8125 1.859375 -4.8125 C 1.65625 -4.8125 1.28125 -4.59375 0.53125 -4.0625 L 0.265625 -3.875 L 0.328125 -3.671875 L 0.640625 -3.875 C 0.921875 -4.0625 1.03125 -4.109375 1.125 -4.109375 C 1.21875 -4.109375 1.296875 -4.015625 1.296875 -3.890625 C 1.296875 -3.3125 0.875 -1.25 0.46875 0.015625 L 0.5625 0.09375 C 0.71875 0.046875 0.875 0.015625 1.109375 -0.046875 L 1.234375 -0.0625 L 1.5 -1.25 C 1.671875 -2.078125 1.90625 -2.609375 2.34375 -3.1875 C 2.6875 -3.625 2.953125 -3.828125 3.171875 -3.828125 C 3.3125 -3.828125 3.421875 -3.78125 3.53125 -3.640625 Z M 3.671875 -3.640625 "
           id="path1971" />
      </symbol>
    </g>
  </defs>
  <sodipodi:namedview
     id="base"
     pagecolor="#ffffff"
     bordercolor="#666666"
     borderopacity="1.0"
     inkscape:pageopacity="0.0"
     inkscape:pageshadow="2"
     inkscape:zoom="3.959798"
     inkscape:cx="208.44272"
     inkscape:cy="153.96737"
     inkscape:document-units="mm"
     inkscape:current-layer="layer1"
     inkscape:document-rotation="0"
     showgrid="false"
     inkscape:window-width="1853"
     inkscape:window-height="1025"
     inkscape:window-x="67"
     inkscape:window-y="27"
     inkscape:window-maximized="1">
    <inkscape:grid
       type="xygrid"
       id="grid6398" />
  </sodipodi:namedview>
  <metadata
     id="metadata5832">
    <rdf:RDF>
      <cc:Work
         rdf:about="">
        <dc:format>image/svg+xml</dc:format>
        <dc:type
           rdf:resource="http://purl.org/dc/dcmitype/StillImage" />
        <dc:title></dc:title>
      </cc:Work>
    </rdf:RDF>
  </metadata>
  <g
     inkscape:label="Calque 1"
     inkscape:groupmode="layer"
     id="layer1">
    <path
       style="fill:none;stroke:#d70000;stroke-width:0.265;stroke-linecap:butt;stroke-linejoin:miter;stroke-opacity:1;stroke-miterlimit:4;stroke-dasharray:none;marker-end:url(#marker11289)"
       d="M 78.466785,27.239579 70.906525,14.483647"
       id="path11285" />
    <path
       style="fill:none;fill-opacity:1;stroke:#008800;stroke-width:0.246913;stroke-miterlimit:4;stroke-dasharray:0.493826, 0.246913;stroke-dashoffset:0;stroke-opacity:1;marker-start:url(#marker15914)"
       id="path15910"
       sodipodi:type="arc"
       sodipodi:cx="49.719086"
       sodipodi:cy="44.985699"
       sodipodi:rx="9.7689867"
       sodipodi:ry="8.4809599"
       sodipodi:start="5.7343257"
       sodipodi:end="0.005068913"
       sodipodi:arc-type="arc"
       d="m 58.053204,40.561057 a 9.7689867,8.4809599 0 0 1 1.434743,4.467631"
       sodipodi:open="true" />
    <path
       style="fill:none;stroke:#008800;stroke-width:0.26499999;stroke-linecap:butt;stroke-linejoin:miter;stroke-opacity:1;stroke-miterlimit:4;stroke-dasharray:0.52999997,0.26499999;stroke-dashoffset:0"
       d="M 49.719086,44.979166 78.466785,27.239579"
       id="path15499" />
    <path
       style="fill:none;stroke:#000000;stroke-width:0.264583px;stroke-linecap:butt;stroke-linejoin:miter;stroke-opacity:1"
       d="m 48.947916,43.656249 v 2.645834"
       id="path6400" />
    <path
       style="fill:none;stroke:#000000;stroke-width:0.264583px;stroke-linecap:butt;stroke-linejoin:miter;stroke-opacity:1"
       d="m 47.624999,44.979166 h 2.645834"
       id="path6402" />
    <circle
       style="fill:none;stroke:#d70000;stroke-width:0.35277778;stroke-miterlimit:4;stroke-dasharray:none;stroke-opacity:1"
       id="path6406-9"
       cx="78.422089"
       cy="27.170403"
       r="1.1197593" />
    <g
       inkscape:label=""
       transform="matrix(0.47530257,0,0,0.47530257,37.176278,-9.2103422)"
       id="g7904"
       style="fill:#d70000;fill-opacity:1">
      <g
         id="g9249"
         style="fill:#d70000;fill-opacity:1">
        <g
           style="fill:#d70000;fill-opacity:1"
           id="g2268">
          <use
             xlink:href="#symbol3416"
             x="91.925003"
             y="81.962997"
             id="use6074"
             width="100%"
             height="100%"
             style="fill:#d70000;fill-opacity:1" />
        </g>
        <g
           style="fill:#d70000;fill-opacity:1"
           id="g4821">
          <use
             xlink:href="#symbol4076"
             x="99.676003"
             y="83.457001"
             id="use8281"
             width="100%"
             height="100%"
             style="fill:#d70000;fill-opacity:1" />
        </g>
        <g
           style="fill:#d70000;fill-opacity:1"
           id="g1696">
          <use
             xlink:href="#symbol9410"
             x="102.887"
             y="81.962997"
             id="use454"
             width="100%"
             height="100%"
             style="fill:#d70000;fill-opacity:1" />
        </g>
        <g
           style="fill:#d70000;fill-opacity:1"
           id="g8191">
          <use
             xlink:href="#symbol9988"
             x="107.038"
             y="81.962997"
             id="use1882"
             width="100%"
             height="100%"
             style="fill:#d70000;fill-opacity:1" />
        </g>
        <g
           style="fill:#d70000;fill-opacity:1"
           id="g9304">
          <use
             xlink:href="#symbol4076"
             x="111.651"
             y="83.457001"
             id="use4155"
             width="100%"
             height="100%"
             style="fill:#d70000;fill-opacity:1" />
        </g>
      </g>
    </g>
    <g
       inkscape:label=""
       transform="matrix(0.51230294,0,0,0.51230294,21.358121,-4.7770988)"
       id="g8186"
       style="fill:#0000ce;fill-opacity:1" />
    <path
       style="fill:none;stroke:#008800;stroke-width:0.265;stroke-linecap:butt;stroke-linejoin:miter;stroke-miterlimit:4;stroke-dasharray:none;stroke-opacity:1;marker-start:url(#Arrow1Sstart);marker-end:url(#Arrow1Send)"
       d="m 74.404346,20.420452 4.062439,6.819127 6.819127,-4.062439"
       id="path14906" />
    <g
       inkscape:label=""
       transform="matrix(0.47743613,0,0,0.47743613,42.139951,-16.325551)"
       id="g15293"
       style="fill:#008800;fill-opacity:1">
      <g
         id="g6688"
         style="fill:#008800;fill-opacity:1">
        <g
           style="fill:#008800;fill-opacity:1"
           id="g8358">
          <use
             xlink:href="#symbol8171"
             x="91.925003"
             y="81.962997"
             id="use2750"
             width="100%"
             height="100%"
             style="fill:#008800;fill-opacity:1" />
        </g>
        <g
           style="fill:#008800;fill-opacity:1"
           id="g3556">
          <use
             xlink:href="#symbol7450"
             x="96.906998"
             y="83.457001"
             id="use8471"
             width="100%"
             height="100%"
             style="fill:#008800;fill-opacity:1" />
        </g>
      </g>
    </g>
    <g
       inkscape:label=""
       transform="matrix(0.46068722,0,0,0.46068722,33.09793,-16.252448)"
       id="g15479"
       style="fill:#008800;fill-opacity:1">
      <g
         id="g2479"
         style="fill:#008800;fill-opacity:1">
        <g
           style="fill:#008800;fill-opacity:1"
           id="g6447">
          <use
             xlink:href="#symbol8588"
             x="91.925003"
             y="81.962997"
             id="use5312"
             width="100%"
             height="100%"
             style="fill:#008800;fill-opacity:1" />
        </g>
        <g
           style="fill:#008800;fill-opacity:1"
           id="g5421">
          <use
             xlink:href="#symbol1182"
             x="96.906998"
             y="83.457001"
             id="use1890"
             width="100%"
             height="100%"
             style="fill:#008800;fill-opacity:1" />
        </g>
      </g>
    </g>
    <path
       style="fill:none;stroke:#0000ce;stroke-width:0.264583;stroke-linecap:butt;stroke-linejoin:miter;stroke-miterlimit:4;stroke-dasharray:none;stroke-opacity:1;marker-end:url(#marker7982)"
       d="M 78.466785,27.239579 64.870493,35.726423"
       id="path7938" />
    <g
       inkscape:label=""
       transform="matrix(0.31664362,0,0,0.31664362,30.698236,17.151748)"
       id="g15695"
       style="fill:#008800;fill-opacity:1">
      <g
         id="g3991"
         style="fill:#008800;fill-opacity:1">
        <g
           style="fill:#008800;fill-opacity:1"
           id="g383">
          <use
             xlink:href="#symbol890"
             x="91.925003"
             y="81.962997"
             id="use6418"
             width="100%"
             height="100%"
             style="fill:#008800;fill-opacity:1" />
        </g>
      </g>
    </g>
    <g
       inkscape:label=""
       transform="matrix(0.3203995,0,0,0.3203995,15.062512,16.207481)"
       id="g15894">
      <g
         id="g1293">
        <g
           style="fill:#000000;fill-opacity:1"
           id="g1881">
          <use
             xlink:href="#symbol5071"
             x="91.925003"
             y="81.962997"
             id="use4935"
             width="100%"
             height="100%" />
        </g>
      </g>
    </g>
    <text
       xml:space="preserve"
       id="text17126"
       style="line-height:1.25;font-family:'Liberation Serif';font-size:4.23333333px;-inkscape-font-specification:'Liberation Serif';white-space:pre;shape-inside:url(#rect17128);" />
    <circle
       style="fill:none;stroke:#000000;stroke-width:0.35277778;stroke-opacity:1;stroke-miterlimit:4;stroke-dasharray:0.35277778,0.70555556;stroke-dashoffset:0"
       id="path6404"
       cx="48.947918"
       cy="44.979168"
       r="34.395832" />
    <g
       inkscape:label=""
       transform="matrix(0.30890968,0,0,0.30890968,44.816178,2.031692)"
       id="g17379">
      <g
         id="g4796">
        <g
           style="fill:#000000;fill-opacity:1"
           id="g5543">
          <use
             xlink:href="#symbol9362"
             x="91.925003"
             y="81.962997"
             id="use3991"
             width="100%"
             height="100%" />
        </g>
      </g>
    </g>
    <path
       style="fill:none;stroke:#000000;stroke-width:0.265;stroke-linecap:butt;stroke-linejoin:miter;stroke-opacity:0.5;stroke-miterlimit:4;stroke-dasharray:none;marker-start:url(#Arrow1Mstart);marker-end:url(#Arrow1Mend)"
       d="M 48.947916,3.96875 V 44.979166 L 95.25,44.979167"
       id="path10684" />
    <g
       inkscape:label=""
       transform="matrix(0.44543572,0,0,0.44543572,54.121794,12.275126)"
       id="g11026"
       style="fill:#000000;fill-opacity:0.60392159">
      <g
         id="g613"
         style="fill:#000000;fill-opacity:0.60392159">
        <g
           style="fill:#000000;fill-opacity:0.60392159"
           id="g250">
          <use
             xlink:href="#symbol5461"
             x="91.925003"
             y="81.962997"
             id="use6884"
             width="100%"
             height="100%"
             style="fill:#000000;fill-opacity:0.60392159" />
        </g>
      </g>
    </g>
    <g
       inkscape:label=""
       transform="matrix(0.43599763,0,0,0.43599763,10.403937,-32.092479)"
       id="g11271"
       style="fill:#000000;fill-opacity:0.60392159">
      <g
         id="g1842"
         style="fill:#000000;fill-opacity:0.60392159">
        <g
           style="fill:#000000;fill-opacity:0.60392159"
           id="g7071">
          <use
             xlink:href="#symbol1945"
             x="92.422997"
             y="81.962997"
             id="use4968"
             width="100%"
             height="100%"
             style="fill:#000000;fill-opacity:0.60392159" />
        </g>
      </g>
    </g>
    <g
       inkscape:label=""
       transform="matrix(0.49407315,0,0,0.49407315,26.244591,-26.405467)"
       id="g11600"
       style="fill:#d70000;fill-opacity:1">
      <g
         id="g9852"
         style="fill:#d70000;fill-opacity:1">
        <g
           style="fill:#d70000;fill-opacity:1"
           id="g8495">
          <use
             xlink:href="#symbol4870"
             x="91.925003"
             y="81.962997"
             id="use4950"
             width="100%"
             height="100%"
             style="fill:#d70000;fill-opacity:1" />
        </g>
        <g
           style="fill:#d70000;fill-opacity:1"
           id="g6411">
          <use
             xlink:href="#symbol7313"
             x="96.906998"
             y="83.457001"
             id="use4553"
             width="100%"
             height="100%"
             style="fill:#d70000;fill-opacity:1" />
        </g>
      </g>
    </g>
    <g
       inkscape:label=""
       transform="matrix(0.42476955,0,0,0.42476955,-15.044787,20.538035)"
       id="g11878"
       style="fill:#0000ce;fill-opacity:1">
      <g
         id="g5403"
         style="fill:#0000ce;fill-opacity:1">
        <g
           style="fill:#0000ce;fill-opacity:1"
           id="g1860">
          <use
             xlink:href="#symbol5164"
             x="91.925003"
             y="81.962997"
             id="use4293"
             width="100%"
             height="100%"
             style="fill:#0000ce;fill-opacity:1" />
        </g>
      </g>
    </g>
    <g
       inkscape:label=""
       transform="matrix(0.36965831,0,0,0.36965831,38.613458,3.6988586)"
       id="g12159"
       style="fill:#0000ce;fill-opacity:1">
      <g
         id="g9876"
         style="fill:#0000ce;fill-opacity:1">
        <g
           style="fill:#0000ce;fill-opacity:1"
           id="g2357">
          <use
             xlink:href="#symbol9162"
             x="91.925003"
             y="81.962997"
             id="use9775"
             width="100%"
             height="100%"
             style="fill:#0000ce;fill-opacity:1" />
        </g>
      </g>
    </g>
    <path
       style="fill:none;fill-opacity:1;stroke:#0000ce;stroke-width:0.197614;stroke-miterlimit:4;stroke-dasharray:none;stroke-opacity:1"
       id="path12175"
       sodipodi:type="arc"
       sodipodi:cx="27.888426"
       sodipodi:cy="57.054119"
       sodipodi:rx="1.0840217"
       sodipodi:ry="1.0840217"
       sodipodi:start="0"
       sodipodi:end="6.2706713"
       sodipodi:open="true"
       sodipodi:arc-type="arc"
       d="m 28.972448,57.054119 a 1.0840217,1.0840217 0 0 1 -1.080631,1.084016 1.0840217,1.0840217 0 0 1 -1.087392,-1.077233 1.0840217,1.0840217 0 0 1 1.073827,-1.090757 1.0840217,1.0840217 0 0 1 1.094111,1.070409" />
    <path
       style="fill:#0000ce;fill-opacity:1;stroke:#0000ce;stroke-width:0.0871684;stroke-miterlimit:4;stroke-dasharray:none;stroke-opacity:1"
       id="path12175-5"
       sodipodi:type="arc"
       sodipodi:cx="27.888426"
       sodipodi:cy="57.054119"
       sodipodi:rx="0.47816643"
       sodipodi:ry="0.47816643"
       sodipodi:start="0"
       sodipodi:end="6.2706713"
       sodipodi:open="true"
       sodipodi:arc-type="arc"
       d="m 28.366592,57.054119 a 0.47816643,0.47816643 0 0 1 -0.47667,0.478164 0.47816643,0.47816643 0 0 1 -0.479653,-0.475172 0.47816643,0.47816643 0 0 1 0.473669,-0.481137 0.47816643,0.47816643 0 0 1 0.482617,0.472161" />
    <path
       style="fill:none;fill-opacity:1;stroke:#000000;stroke-width:0.197614;stroke-miterlimit:4;stroke-dasharray:none;stroke-opacity:0.50196081"
       id="path12175-3"
       sodipodi:type="arc"
       sodipodi:cx="48.956074"
       sodipodi:cy="45.036636"
       sodipodi:rx="1.0840217"
       sodipodi:ry="1.0840217"
       sodipodi:start="0"
       sodipodi:end="6.2706713"
       sodipodi:open="true"
       sodipodi:arc-type="arc"
       d="m 50.040095,45.036636 a 1.0840217,1.0840217 0 0 1 -1.08063,1.084017 1.0840217,1.0840217 0 0 1 -1.087392,-1.077234 1.0840217,1.0840217 0 0 1 1.073827,-1.090757 1.0840217,1.0840217 0 0 1 1.094111,1.070409" />
    <path
       style="fill:#000000;fill-opacity:0.50196081;stroke:#0000ce;stroke-width:0.0871683;stroke-miterlimit:4;stroke-dasharray:none;stroke-opacity:1"
       id="path12175-5-5"
       sodipodi:type="arc"
       sodipodi:cx="48.956074"
       sodipodi:cy="45.036636"
       sodipodi:rx="0.47816643"
       sodipodi:ry="0.47816643"
       sodipodi:start="0"
       sodipodi:end="6.2706713"
       sodipodi:open="true"
       sodipodi:arc-type="arc"
       d="m 49.43424,45.036636 a 0.47816643,0.47816643 0 0 1 -0.47667,0.478164 0.47816643,0.47816643 0 0 1 -0.479653,-0.475172 0.47816643,0.47816643 0 0 1 0.473669,-0.481137 0.47816643,0.47816643 0 0 1 0.482617,0.472162" />
    <path
       style="fill:none;stroke:#000000;stroke-width:0.259015;stroke-linecap:butt;stroke-linejoin:miter;stroke-miterlimit:4;stroke-dasharray:none;stroke-opacity:1;marker-start:url(#Arrow2Mstart);marker-end:url(#Arrow2Mend)"
       d="M 49.719088,44.979166 H 82.696644"
       id="path6429" />
    <g
       inkscape:label=""
       transform="matrix(0.4923916,0,0,0.4923916,-0.5001667,8.0338828)"
       id="g12502"
       style="fill:#000000;fill-opacity:0.501961">
      <g
         id="g50"
         style="fill:#000000;fill-opacity:0.501961">
        <g
           style="fill:#000000;fill-opacity:0.501961"
           id="g9845">
          <use
             xlink:href="#symbol5946"
             x="91.925003"
             y="81.962997"
             id="use9127"
             width="100%"
             height="100%"
             style="fill:#000000;fill-opacity:0.501961" />
        </g>
      </g>
    </g>
    <g
       inkscape:label=""
       transform="matrix(0.49972747,0,0,0.49972747,17.341995,7.2643703)"
       id="g2593">
      <g
         id="g8886">
        <g
           style="fill:#000000;fill-opacity:1"
           id="g4012">
          <use
             xlink:href="#symbol676"
             x="91.925003"
             y="81.962997"
             id="use9472"
             width="100%"
             height="100%" />
        </g>
      </g>
    </g>
  </g>
</svg>
