<?xml version="1.0" encoding="UTF-8" standalone="no"?>
<svg
   xmlns:dc="http://purl.org/dc/elements/1.1/"
   xmlns:cc="http://creativecommons.org/ns#"
   xmlns:rdf="http://www.w3.org/1999/02/22-rdf-syntax-ns#"
   xmlns:svg="http://www.w3.org/2000/svg"
   xmlns="http://www.w3.org/2000/svg"
   xmlns:xlink="http://www.w3.org/1999/xlink"
   xmlns:sodipodi="http://sodipodi.sourceforge.net/DTD/sodipodi-0.dtd"
   xmlns:inkscape="http://www.inkscape.org/namespaces/inkscape"
   width="80mm"
   height="70mm"
   viewBox="0 0 80 70"
   version="1.1"
   id="svg3833"
   sodipodi:docname="tube.svg"
   inkscape:version="1.0.1 (1.0.1+r75)">
  <defs
     id="defs3827">
    <marker
       style="overflow:visible"
       id="marker6265"
       refX="0"
       refY="0"
       orient="auto"
       inkscape:stockid="Arrow1Mend"
       inkscape:isstock="true">
      <path
         transform="matrix(-0.4,0,0,-0.4,-4,0)"
         style="fill:#000000;fill-opacity:1;fill-rule:evenodd;stroke:#000000;stroke-width:1pt;stroke-opacity:1"
         d="M 0,0 5,-5 -12.5,0 5,5 Z"
         id="path6263" />
    </marker>
    <rect
       x="-70.379166"
       y="13.229167"
       width="34.395832"
       height="21.166668"
       id="rect6257" />
    <marker
       style="overflow:visible"
       id="marker5636"
       refX="0"
       refY="0"
       orient="auto"
       inkscape:stockid="Arrow1Mstart"
       inkscape:isstock="true">
      <path
         transform="matrix(0.4,0,0,0.4,4,0)"
         style="fill:#000000;fill-opacity:1;fill-rule:evenodd;stroke:#000000;stroke-width:1pt;stroke-opacity:1"
         d="M 0,0 5,-5 -12.5,0 5,5 Z"
         id="path3196" />
    </marker>
    <marker
       style="overflow:visible"
       id="marker5501"
       refX="0"
       refY="0"
       orient="auto"
       inkscape:stockid="Arrow1Mend"
       inkscape:isstock="true"
       inkscape:collect="always">
      <path
         transform="matrix(-0.4,0,0,-0.4,-4,0)"
         style="fill:#000000;fill-opacity:1;fill-rule:evenodd;stroke:#000000;stroke-width:1pt;stroke-opacity:1"
         d="M 0,0 5,-5 -12.5,0 5,5 Z"
         id="path5499" />
    </marker>
    <marker
       style="overflow:visible"
       id="marker5046"
       refX="0"
       refY="0"
       orient="auto"
       inkscape:stockid="Arrow1Mend"
       inkscape:isstock="true">
      <path
         transform="matrix(-0.4,0,0,-0.4,-4,0)"
         style="fill:#0c673b;fill-opacity:0.921569;fill-rule:evenodd;stroke:#0c673b;stroke-width:1pt;stroke-opacity:0.921569"
         d="M 0,0 5,-5 -12.5,0 5,5 Z"
         id="path5044" />
    </marker>
    <marker
       style="overflow:visible"
       id="marker5030"
       refX="0"
       refY="0"
       orient="auto"
       inkscape:stockid="Arrow1Mend"
       inkscape:isstock="true"
       inkscape:collect="always">
      <path
         transform="matrix(-0.4,0,0,-0.4,-4,0)"
         style="fill:#0c673b;fill-opacity:0.921569;fill-rule:evenodd;stroke:#0c673b;stroke-width:1pt;stroke-opacity:0.921569"
         d="M 0,0 5,-5 -12.5,0 5,5 Z"
         id="path5028" />
    </marker>
    <marker
       style="overflow:visible"
       id="marker5020"
       refX="0"
       refY="0"
       orient="auto"
       inkscape:stockid="Arrow1Mend"
       inkscape:isstock="true">
      <path
         transform="matrix(-0.4,0,0,-0.4,-4,0)"
         style="fill:#0c673b;fill-opacity:0.921569;fill-rule:evenodd;stroke:#0c673b;stroke-width:1pt;stroke-opacity:0.921569"
         d="M 0,0 5,-5 -12.5,0 5,5 Z"
         id="path5018" />
    </marker>
    <marker
       style="overflow:visible"
       id="marker2674"
       refX="0"
       refY="0"
       orient="auto"
       inkscape:stockid="Arrow1Sstart"
       inkscape:isstock="true">
      <path
         transform="matrix(0.2,0,0,0.2,1.2,0)"
         style="fill:#0c673b;fill-opacity:0.921569;fill-rule:evenodd;stroke:#0c673b;stroke-width:1pt;stroke-opacity:0.921569"
         d="M 0,0 5,-5 -12.5,0 5,5 Z"
         id="path2672" />
    </marker>
    <marker
       style="overflow:visible"
       id="marker2664"
       refX="0"
       refY="0"
       orient="auto"
       inkscape:stockid="Arrow1Sstart"
       inkscape:isstock="true">
      <path
         transform="matrix(0.2,0,0,0.2,1.2,0)"
         style="fill:#0c673b;fill-opacity:0.921569;fill-rule:evenodd;stroke:#0c673b;stroke-width:1pt;stroke-opacity:0.921569"
         d="M 0,0 5,-5 -12.5,0 5,5 Z"
         id="path2662" />
    </marker>
    <marker
       style="overflow:visible"
       id="marker2654"
       refX="0"
       refY="0"
       orient="auto"
       inkscape:stockid="Arrow1Sstart"
       inkscape:isstock="true">
      <path
         transform="matrix(0.2,0,0,0.2,1.2,0)"
         style="fill:#0c673b;fill-opacity:0.921569;fill-rule:evenodd;stroke:#0c673b;stroke-width:1pt;stroke-opacity:0.921569"
         d="M 0,0 5,-5 -12.5,0 5,5 Z"
         id="path2652" />
    </marker>
    <marker
       style="overflow:visible"
       id="marker2644"
       refX="0"
       refY="0"
       orient="auto"
       inkscape:stockid="Arrow1Sstart"
       inkscape:isstock="true">
      <path
         transform="matrix(0.2,0,0,0.2,1.2,0)"
         style="fill:#0c673b;fill-opacity:0.921569;fill-rule:evenodd;stroke:#0c673b;stroke-width:1pt;stroke-opacity:0.921569"
         d="M 0,0 5,-5 -12.5,0 5,5 Z"
         id="path2642" />
    </marker>
    <marker
       style="overflow:visible"
       id="marker2634"
       refX="0"
       refY="0"
       orient="auto"
       inkscape:stockid="Arrow1Sstart"
       inkscape:isstock="true">
      <path
         transform="matrix(0.2,0,0,0.2,1.2,0)"
         style="fill:#0c673b;fill-opacity:0.921569;fill-rule:evenodd;stroke:#0c673b;stroke-width:1pt;stroke-opacity:0.921569"
         d="M 0,0 5,-5 -12.5,0 5,5 Z"
         id="path2632" />
    </marker>
    <marker
       style="overflow:visible"
       id="marker2624"
       refX="0"
       refY="0"
       orient="auto"
       inkscape:stockid="Arrow1Sstart"
       inkscape:isstock="true">
      <path
         transform="matrix(0.2,0,0,0.2,1.2,0)"
         style="fill:#0c673b;fill-opacity:0.921569;fill-rule:evenodd;stroke:#0c673b;stroke-width:1pt;stroke-opacity:0.921569"
         d="M 0,0 5,-5 -12.5,0 5,5 Z"
         id="path2622" />
    </marker>
    <marker
       style="overflow:visible"
       id="marker2614"
       refX="0"
       refY="0"
       orient="auto"
       inkscape:stockid="Arrow1Sstart"
       inkscape:isstock="true">
      <path
         transform="matrix(0.2,0,0,0.2,1.2,0)"
         style="fill:#0c673b;fill-opacity:0.921569;fill-rule:evenodd;stroke:#0c673b;stroke-width:1pt;stroke-opacity:0.921569"
         d="M 0,0 5,-5 -12.5,0 5,5 Z"
         id="path2612" />
    </marker>
    <marker
       style="overflow:visible"
       id="Arrow2Send"
       refX="0"
       refY="0"
       orient="auto"
       inkscape:stockid="Arrow2Send"
       inkscape:isstock="true">
      <path
         transform="matrix(-0.3,0,0,-0.3,0.69,0)"
         d="M 8.7185878,4.0337352 -2.2072895,0.01601326 8.7185884,-4.0017078 c -1.7454984,2.3720609 -1.7354408,5.6174519 -6e-7,8.035443 z"
         style="fill:#d20000;fill-opacity:1;fill-rule:evenodd;stroke:#d20000;stroke-width:0.625;stroke-linejoin:round;stroke-opacity:1"
         id="path6011" />
    </marker>
    <marker
       style="overflow:visible"
       id="marker8130"
       refX="0"
       refY="0"
       orient="auto"
       inkscape:stockid="Arrow1Send"
       inkscape:isstock="true">
      <path
         transform="matrix(-0.2,0,0,-0.2,-1.2,0)"
         style="fill:#008800;fill-opacity:1;fill-rule:evenodd;stroke:#008800;stroke-width:1pt;stroke-opacity:1"
         d="M 0,0 5,-5 -12.5,0 5,5 Z"
         id="path8128" />
    </marker>
    <marker
       style="overflow:visible"
       id="Arrow1Sstart"
       refX="0"
       refY="0"
       orient="auto"
       inkscape:stockid="Arrow1Sstart"
       inkscape:isstock="true">
      <path
         transform="matrix(0.2,0,0,0.2,1.2,0)"
         style="fill:#008800;fill-opacity:1;fill-rule:evenodd;stroke:#008800;stroke-width:1pt;stroke-opacity:1"
         d="M 0,0 5,-5 -12.5,0 5,5 Z"
         id="path4453" />
    </marker>
    <rect
       x="46.157078"
       y="20.21114"
       width="16.587317"
       height="10.917552"
       id="rect7504" />
    <marker
       style="overflow:visible"
       id="marker7404"
       refX="0"
       refY="0"
       orient="auto"
       inkscape:stockid="Arrow1Mend"
       inkscape:isstock="true">
      <path
         transform="matrix(-0.4,0,0,-0.4,-4,0)"
         style="fill:#d70000;fill-opacity:0.996078;fill-rule:evenodd;stroke:#d70000;stroke-width:1pt;stroke-opacity:0.996078"
         d="M 0,0 5,-5 -12.5,0 5,5 Z"
         id="path7402" />
    </marker>
    <marker
       style="overflow:visible"
       id="marker4862"
       refX="0"
       refY="0"
       orient="auto"
       inkscape:stockid="Arrow1Mend"
       inkscape:isstock="true">
      <path
         transform="matrix(-0.4,0,0,-0.4,-4,0)"
         style="fill:#008800;fill-opacity:1;fill-rule:evenodd;stroke:#008800;stroke-width:1pt;stroke-opacity:1"
         d="M 0,0 5,-5 -12.5,0 5,5 Z"
         id="path4860" />
    </marker>
    <marker
       style="overflow:visible"
       id="marker4739"
       refX="0"
       refY="0"
       orient="auto"
       inkscape:stockid="Arrow1Mend"
       inkscape:isstock="true">
      <path
         transform="matrix(-0.4,0,0,-0.4,-4,0)"
         style="fill:#000000;fill-opacity:0.4;fill-rule:evenodd;stroke:#000000;stroke-width:1pt;stroke-opacity:0.4"
         d="M 0,0 5,-5 -12.5,0 5,5 Z"
         id="path4737" />
    </marker>
    <marker
       style="overflow:visible"
       id="Arrow1Mstart"
       refX="0"
       refY="0"
       orient="auto"
       inkscape:stockid="Arrow1Mstart"
       inkscape:isstock="true">
      <path
         transform="matrix(0.4,0,0,0.4,4,0)"
         style="fill:#000000;fill-opacity:0.4;fill-rule:evenodd;stroke:#000000;stroke-width:1pt;stroke-opacity:0.4"
         d="M 0,0 5,-5 -12.5,0 5,5 Z"
         id="path4447" />
    </marker>
    <g
       id="g7391">
      <symbol
         overflow="visible"
         id="symbol9776">
        <path
           style="stroke:none"
           d=""
           id="path8265" />
      </symbol>
      <symbol
         overflow="visible"
         id="symbol93">
        <path
           style="stroke:none"
           d="m 6.359375,-3.3125 c 0,-0.796875 -0.359375,-1.40625 -1.21875,-1.40625 -0.46875,0 -0.90625,0.1875 -1.28125,0.453125 C 3.453125,-4 3.125,-3.65625 2.921875,-3.203125 2.625,-2.609375 2.4375,-0.859375 2.359375,-0.171875 1.40625,-0.40625 1.09375,-1.15625 1.09375,-2.046875 c 0,-1.375 0.75,-2.265625 2.046875,-2.625 L 3.1875,-4.734375 3.125,-4.828125 C 1.65625,-4.609375 0.265625,-3.625 0.265625,-2 c 0,1.265625 0.875,1.890625 2.0625,2.0625 -0.109375,0.875 -0.296875,1.75 -0.46875,2.625 L 1.96875,2.765625 C 2.1875,2.65625 2.40625,2.578125 2.625,2.5 L 2.921875,0.046875 C 4.75,0 6.359375,-1.421875 6.359375,-3.3125 Z M 5.65625,-3.15625 c 0,1.59375 -1.140625,2.84375 -2.71875,3 l 0.265625,-1.625 c 0.140625,-0.875 0.375,-2.609375 1.578125,-2.609375 0.6875,0 0.875,0.65625 0.875,1.234375 z m 0,0"
           id="path8799" />
      </symbol>
    </g>
    <g
       id="g7377">
      <symbol
         overflow="visible"
         id="symbol1034">
        <path
           style="stroke:none"
           d=""
           id="path7150" />
      </symbol>
      <symbol
         overflow="visible"
         id="symbol2907">
        <path
           style="stroke:none"
           d="M 5.71875,-5.03125 C 5.71875,-6.15625 5.390625,-7 4.109375,-7 c -2.578125,0 -3.40625,2.890625 -3.40625,5.015625 0,1.1875 0.359375,2.140625 1.71875,2.140625 2.359375,0 3.296875,-3.3125 3.296875,-5.1875 z m -0.75,-0.125 c 0,0.453125 -0.0625,0.90625 -0.140625,1.359375 h -3.15625 c 0.234375,-1.03125 0.96875,-2.9375 2.265625,-2.9375 0.859375,0 1.03125,0.90625 1.03125,1.578125 z m -0.1875,1.671875 C 4.546875,-2.359375 4,-0.125 2.578125,-0.125 1.5625,-0.125 1.46875,-1.25 1.46875,-2.03125 1.46875,-2.515625 1.5625,-3 1.625,-3.484375 Z m 0,0"
           id="path5206" />
      </symbol>
    </g>
    <g
       id="g2264">
      <symbol
         overflow="visible"
         id="symbol2960">
        <path
           style="stroke:none"
           d=""
           id="path1139" />
      </symbol>
      <symbol
         overflow="visible"
         id="symbol731">
        <path
           style="stroke:none"
           d="M 3.671875,-3.640625 C 3.703125,-4.015625 3.75,-4.34375 3.828125,-4.75 3.71875,-4.796875 3.671875,-4.8125 3.625,-4.8125 c -0.3125,0 -0.609375,0.25 -0.96875,0.75 L 2.375,-3.671875 c -0.375,0.5625 -0.5,0.765625 -0.65625,1.125 l 0.078125,-0.40625 C 1.828125,-3.1875 1.90625,-3.59375 1.96875,-3.8125 l 0.0625,-0.25 c 0.046875,-0.171875 0.0625,-0.296875 0.0625,-0.421875 0,-0.203125 -0.078125,-0.328125 -0.234375,-0.328125 -0.203125,0 -0.578125,0.21875 -1.328125,0.75 l -0.265625,0.1875 0.0625,0.203125 0.3125,-0.203125 C 0.921875,-4.0625 1.03125,-4.109375 1.125,-4.109375 c 0.09375,0 0.171875,0.09375 0.171875,0.21875 C 1.296875,-3.3125 0.875,-1.25 0.46875,0.015625 L 0.5625,0.09375 C 0.71875,0.046875 0.875,0.015625 1.109375,-0.046875 L 1.234375,-0.0625 1.5,-1.25 c 0.171875,-0.828125 0.40625,-1.359375 0.84375,-1.9375 0.34375,-0.4375 0.609375,-0.640625 0.828125,-0.640625 0.140625,0 0.25,0.046875 0.359375,0.1875 z m 0,0"
           id="path2792" />
      </symbol>
    </g>
    <marker
       style="overflow:visible"
       id="marker4739-1"
       refX="0"
       refY="0"
       orient="auto"
       inkscape:stockid="Arrow1Mend"
       inkscape:isstock="true">
      <path
         transform="matrix(-0.4,0,0,-0.4,-4,0)"
         style="fill:#000000;fill-opacity:0.4;fill-rule:evenodd;stroke:#000000;stroke-width:1pt;stroke-opacity:0.4"
         d="M 0,0 5,-5 -12.5,0 5,5 Z"
         id="path4737-7" />
    </marker>
    <marker
       style="overflow:visible"
       id="Arrow1Mstart-1"
       refX="0"
       refY="0"
       orient="auto"
       inkscape:stockid="Arrow1Mstart"
       inkscape:isstock="true">
      <path
         transform="matrix(0.4,0,0,0.4,4,0)"
         style="fill:#000000;fill-opacity:0.4;fill-rule:evenodd;stroke:#000000;stroke-width:1pt;stroke-opacity:0.4"
         d="M 0,0 5,-5 -12.5,0 5,5 Z"
         id="path4447-5" />
    </marker>
    <g
       id="g7240">
      <symbol
         overflow="visible"
         id="symbol8811">
        <path
           style="stroke:none"
           d=""
           id="path5545" />
      </symbol>
      <symbol
         overflow="visible"
         id="symbol8872">
        <path
           style="stroke:none"
           d="m 4.59375,-2.9375 c 0,-1.0625 -0.75,-1.75 -1.875,-1.75 -0.359375,0 -0.609375,0.0625 -0.890625,0.21875 l -0.46875,0.28125 c -0.65625,0.390625 -0.9375,0.984375 -0.9375,1.9375 0,1.578125 0.796875,2.421875 2.28125,2.421875 0.5625,0 0.9375,-0.109375 1.578125,-0.4375 L 4.5,-0.734375 4.375,-0.890625 C 3.90625,-0.625 3.609375,-0.53125 3.203125,-0.53125 c -0.515625,0 -1,-0.28125 -1.25,-0.71875 -0.15625,-0.28125 -0.21875,-0.5 -0.234375,-0.96875 h 1.296875 c 0.578125,0 1.015625,-0.0625 1.578125,-0.203125 z M 2.5,-2.71875 H 2.453125 c -0.0625,0 -0.328125,-0.015625 -0.484375,-0.015625 L 1.65625,-2.75 C 1.6875,-3.734375 1.921875,-4.140625 2.5,-4.140625 c 0.578125,0 0.8125,0.40625 0.828125,1.390625 z m 0,0"
           id="path7693" />
      </symbol>
      <symbol
         overflow="visible"
         id="symbol1969">
        <path
           style="stroke:none"
           d=""
           id="path3517" />
      </symbol>
      <symbol
         overflow="visible"
         id="symbol908">
        <path
           style="stroke:none"
           d="M 2.5625,-2.546875 C 2.578125,-2.8125 2.625,-3.03125 2.671875,-3.3125 2.59375,-3.359375 2.578125,-3.359375 2.53125,-3.359375 c -0.203125,0 -0.421875,0.171875 -0.671875,0.515625 l -0.1875,0.28125 C 1.390625,-2.171875 1.3125,-2.03125 1.203125,-1.78125 L 1.25,-2.0625 c 0.03125,-0.171875 0.09375,-0.453125 0.125,-0.59375 l 0.046875,-0.1875 c 0.03125,-0.125 0.046875,-0.203125 0.046875,-0.296875 0,-0.140625 -0.0625,-0.21875 -0.171875,-0.21875 -0.140625,0 -0.40625,0.140625 -0.921875,0.515625 L 0.1875,-2.703125 0.234375,-2.5625 0.453125,-2.703125 C 0.640625,-2.84375 0.71875,-2.875 0.78125,-2.875 c 0.078125,0 0.125,0.0625 0.125,0.15625 0,0.40625 -0.296875,1.84375 -0.578125,2.734375 L 0.390625,0.0625 C 0.5,0.03125 0.609375,0 0.78125,-0.03125 L 0.859375,-0.046875 1.046875,-0.875 c 0.125,-0.578125 0.28125,-0.953125 0.59375,-1.34375 C 1.875,-2.53125 2.0625,-2.671875 2.21875,-2.671875 c 0.109375,0 0.171875,0.03125 0.25,0.125 z m 0,0"
           id="path6549" />
      </symbol>
    </g>
    <g
       id="g1013">
      <symbol
         overflow="visible"
         id="symbol1288">
        <path
           style="stroke:none"
           d=""
           id="path8739" />
      </symbol>
      <symbol
         overflow="visible"
         id="symbol1259">
        <path
           style="stroke:none"
           d="m 4.59375,-2.9375 c 0,-1.0625 -0.75,-1.75 -1.875,-1.75 -0.359375,0 -0.609375,0.0625 -0.890625,0.21875 l -0.46875,0.28125 c -0.65625,0.390625 -0.9375,0.984375 -0.9375,1.9375 0,1.578125 0.796875,2.421875 2.28125,2.421875 0.5625,0 0.9375,-0.109375 1.578125,-0.4375 L 4.5,-0.734375 4.375,-0.890625 C 3.90625,-0.625 3.609375,-0.53125 3.203125,-0.53125 c -0.515625,0 -1,-0.28125 -1.25,-0.71875 -0.15625,-0.28125 -0.21875,-0.5 -0.234375,-0.96875 h 1.296875 c 0.578125,0 1.015625,-0.0625 1.578125,-0.203125 z M 2.5,-2.71875 H 2.453125 c -0.0625,0 -0.328125,-0.015625 -0.484375,-0.015625 L 1.65625,-2.75 C 1.6875,-3.734375 1.921875,-4.140625 2.5,-4.140625 c 0.578125,0 0.8125,0.40625 0.828125,1.390625 z m 0,0"
           id="path8682" />
      </symbol>
      <symbol
         overflow="visible"
         id="symbol4300">
        <path
           style="stroke:none"
           d=""
           id="path7825" />
      </symbol>
      <symbol
         overflow="visible"
         id="symbol4632">
        <path
           style="stroke:none"
           d="m 4,-3.515625 c 0,-0.796875 -0.234375,-1.375 -1.125,-1.375 -1.8125,0 -2.375,2.015625 -2.375,3.5 0,0.828125 0.25,1.5 1.1875,1.5 1.65625,0 2.3125,-2.3125 2.3125,-3.625 z m -0.515625,-0.09375 c 0,0.3125 -0.0625,0.640625 -0.109375,0.953125 H 1.171875 C 1.34375,-3.375 1.84375,-4.703125 2.75,-4.703125 c 0.609375,0 0.734375,0.625 0.734375,1.09375 z M 3.34375,-2.4375 C 3.171875,-1.65625 2.796875,-0.09375 1.796875,-0.09375 1.09375,-0.09375 1.03125,-0.875 1.03125,-1.421875 1.03125,-1.75 1.09375,-2.09375 1.140625,-2.4375 Z m 0,0"
           id="path7776" />
      </symbol>
    </g>
    <g
       id="g377">
      <symbol
         overflow="visible"
         id="symbol27">
        <path
           style="stroke:none"
           d=""
           id="path6311" />
      </symbol>
      <symbol
         overflow="visible"
         id="symbol7434">
        <path
           style="stroke:none"
           d="m 4.59375,-2.9375 c 0,-1.0625 -0.75,-1.75 -1.875,-1.75 -0.359375,0 -0.609375,0.0625 -0.890625,0.21875 l -0.46875,0.28125 c -0.65625,0.390625 -0.9375,0.984375 -0.9375,1.9375 0,1.578125 0.796875,2.421875 2.28125,2.421875 0.5625,0 0.9375,-0.109375 1.578125,-0.4375 L 4.5,-0.734375 4.375,-0.890625 C 3.90625,-0.625 3.609375,-0.53125 3.203125,-0.53125 c -0.515625,0 -1,-0.28125 -1.25,-0.71875 -0.15625,-0.28125 -0.21875,-0.5 -0.234375,-0.96875 h 1.296875 c 0.578125,0 1.015625,-0.0625 1.578125,-0.203125 z M 2.5,-2.71875 H 2.453125 c -0.0625,0 -0.328125,-0.015625 -0.484375,-0.015625 L 1.65625,-2.75 C 1.6875,-3.734375 1.921875,-4.140625 2.5,-4.140625 c 0.578125,0 0.8125,0.40625 0.828125,1.390625 z m 0,0"
           id="path1167" />
      </symbol>
      <symbol
         overflow="visible"
         id="symbol8320">
        <path
           style="stroke:none"
           d=""
           id="path5017" />
      </symbol>
      <symbol
         overflow="visible"
         id="symbol4010">
        <path
           style="stroke:none"
           d="m 4.453125,-2.3125 c 0,-0.5625 -0.265625,-0.984375 -0.859375,-0.984375 -0.328125,0 -0.625,0.140625 -0.890625,0.3125 -0.28125,0.1875 -0.515625,0.4375 -0.65625,0.734375 -0.203125,0.4375 -0.34375,1.65625 -0.40625,2.125 -0.65625,-0.15625 -0.875,-0.6875 -0.875,-1.3125 0,-0.953125 0.53125,-1.578125 1.421875,-1.828125 L 2.234375,-3.3125 2.1875,-3.375 c -1.03125,0.15625 -2,0.84375 -2,1.96875 0,0.890625 0.609375,1.328125 1.4375,1.453125 C 1.546875,0.65625 1.421875,1.265625 1.296875,1.875 L 1.375,1.9375 C 1.53125,1.859375 1.6875,1.796875 1.84375,1.75 L 2.046875,0.03125 C 3.328125,0 4.453125,-0.984375 4.453125,-2.3125 Z m -0.5,0.109375 c 0,1.109375 -0.796875,1.984375 -1.90625,2.09375 l 0.1875,-1.125 C 2.34375,-1.859375 2.5,-3.0625 3.34375,-3.0625 c 0.484375,0 0.609375,0.453125 0.609375,0.859375 z m 0,0"
           id="path750" />
      </symbol>
    </g>
    <g
       id="g9679">
      <symbol
         overflow="visible"
         id="symbol6763">
        <path
           style="stroke:none"
           d=""
           id="path734" />
      </symbol>
      <symbol
         overflow="visible"
         id="symbol4216">
        <path
           style="stroke:none"
           d="m 0.203125,-0.875 c 0,0.203125 -0.015625,0.328125 -0.078125,0.640625 -0.015625,0.125 -0.03125,0.15625 -0.03125,0.21875 0.140625,0.078125 0.3125,0.125 0.421875,0.125 0.328125,0 0.71875,-0.28125 1.03125,-0.75 l 0.75,-1.171875 0.109375,0.6875 c 0.140625,0.84375 0.359375,1.234375 0.71875,1.234375 0.21875,0 0.546875,-0.171875 0.859375,-0.453125 L 4.46875,-0.78125 4.390625,-0.984375 C 4.03125,-0.671875 3.78125,-0.53125 3.625,-0.53125 c -0.15625,0 -0.28125,-0.09375 -0.390625,-0.296875 -0.078125,-0.1875 -0.1875,-0.5625 -0.25,-0.84375 L 2.8125,-2.6875 3.15625,-3.171875 c 0.46875,-0.640625 0.734375,-0.875 1.046875,-0.875 0.15625,0 0.28125,0.078125 0.328125,0.234375 l 0.140625,-0.046875 0.15625,-0.84375 C 4.703125,-4.78125 4.609375,-4.8125 4.53125,-4.8125 c -0.40625,0 -0.796875,0.359375 -1.421875,1.28125 l -0.375,0.546875 -0.046875,-0.46875 c -0.125,-1 -0.390625,-1.359375 -0.984375,-1.359375 -0.25,0 -0.484375,0.09375 -0.5625,0.21875 L 0.5625,-3.765625 0.734375,-3.671875 C 1.03125,-4 1.21875,-4.140625 1.421875,-4.140625 c 0.328125,0 0.546875,0.40625 0.71875,1.375 L 2.25,-2.140625 1.84375,-1.53125 c -0.421875,0.671875 -0.765625,1 -1.046875,1 -0.15625,0 -0.265625,-0.046875 -0.28125,-0.09375 L 0.40625,-0.90625 Z m 0,0"
           id="path3297" />
      </symbol>
    </g>
    <g
       id="g4162">
      <symbol
         overflow="visible"
         id="symbol9575">
        <path
           style="stroke:none"
           d=""
           id="path6329" />
      </symbol>
      <symbol
         overflow="visible"
         id="symbol6237">
        <path
           style="stroke:none"
           d="m -0.0625,1.796875 c -0.015625,0.0625 -0.015625,0.125 -0.015625,0.171875 0,0.4375 0.375,0.78125 0.8125,0.78125 1.0625,0 2.15625,-1.234375 2.75,-3.078125 L 4.890625,-4.71875 4.78125,-4.8125 c -0.296875,0.125 -0.53125,0.171875 -0.75,0.203125 l -0.34375,1.3125 c -0.125,0.46875 -0.46875,1.1875 -0.796875,1.6875 -0.34375,0.5 -0.84375,0.9375 -1.0625,0.9375 -0.109375,0 -0.203125,-0.21875 -0.1875,-0.46875 V -1.28125 l 0.15625,-1.921875 c 0.015625,-0.3125 0.03125,-0.6875 0.03125,-0.96875 0,-0.453125 -0.0625,-0.640625 -0.234375,-0.640625 -0.125,0 -0.265625,0.078125 -0.75,0.40625 l -0.8125,0.5625 0.109375,0.171875 0.5,-0.296875 L 0.671875,-4 c 0.109375,-0.0625 0.171875,-0.09375 0.21875,-0.09375 0.140625,0 0.21875,0.203125 0.21875,0.53125 0,0 0,0.0625 -0.015625,0.140625 L 0.921875,-1 v 0.40625 c 0,0.421875 0.171875,0.703125 0.421875,0.703125 0.375,0 1.203125,-0.84375 1.953125,-1.96875 L 2.8125,-0.15625 C 2.296875,1.609375 1.796875,2.328125 1.109375,2.328125 0.75,2.328125 0.484375,2.0625 0.484375,1.71875 0.484375,1.671875 0.5,1.578125 0.515625,1.5 L 0.40625,1.453125 Z m 0,0"
           id="path8353" />
      </symbol>
    </g>
    <g
       id="g8798">
      <symbol
         overflow="visible"
         id="symbol4244">
        <path
           style="stroke:none"
           d=""
           id="path278" />
      </symbol>
      <symbol
         overflow="visible"
         id="symbol5088">
        <path
           style="stroke:none"
           d="M -0.015625,-0.203125 0.078125,0.0625 c 0.296875,-0.234375 0.5625,-0.328125 0.90625,-0.328125 0.25,0 0.53125,0.0625 1.046875,0.171875 0.59375,0.15625 0.90625,0.203125 1.171875,0.203125 0.125,0 0.21875,-0.015625 0.5,-0.09375 0.109375,-0.625 0.1875,-0.96875 0.296875,-1.4375 H 3.78125 L 3.5625,-0.8125 c -0.046875,0.171875 -0.171875,0.25 -0.375,0.25 -0.125,0 -0.28125,-0.03125 -0.5,-0.078125 L 2.515625,-0.671875 C 2.1875,-0.75 1.84375,-0.796875 1.65625,-0.796875 c -0.328125,0 -0.59375,0.0625 -0.953125,0.203125 L 4.09375,-4.390625 4.140625,-4.71875 4.0625,-4.8125 3.828125,-4.578125 C 3.734375,-4.46875 3.625,-4.4375 3.484375,-4.4375 3.15625,-4.4375 2.625,-4.515625 2.15625,-4.640625 L 1.96875,-4.6875 C 1.6875,-4.765625 1.5,-4.8125 1.359375,-4.8125 c -0.171875,0 -0.375,0.03125 -0.609375,0.109375 l -0.328125,1.21875 h 0.21875 L 0.9375,-4.0625 c 0.171875,-0.046875 0.265625,-0.046875 0.390625,-0.046875 0.140625,0 0.25,0 0.453125,0.046875 0.328125,0.0625 0.59375,0.09375 0.796875,0.09375 0.359375,0 0.609375,-0.0625 0.9375,-0.234375 z m 0,0"
           id="path4316" />
      </symbol>
    </g>
    <g
       id="g30">
      <symbol
         overflow="visible"
         id="symbol6070">
        <path
           style="stroke:none"
           d=""
           id="path5971" />
      </symbol>
      <symbol
         overflow="visible"
         id="symbol5270">
        <path
           style="stroke:none"
           d="m 2.625,-6.875 c -1.546875,0 -2.328125,1.234375 -2.328125,3.640625 C 0.296875,-2.0625 0.5,-1.0625 0.84375,-0.5625 1.203125,-0.078125 1.75,0.203125 2.375,0.203125 c 1.5,0 2.265625,-1.296875 2.265625,-3.859375 0,-2.171875 -0.65625,-3.21875 -2.015625,-3.21875 z m -0.1875,0.359375 c 0.96875,0 1.359375,0.96875 1.359375,3.359375 0,2.125 -0.375,3 -1.296875,3 -0.96875,0 -1.375,-1 -1.375,-3.4375 0,-2.09375 0.375,-2.921875 1.3125,-2.921875 z m 0,0"
           id="path9949" />
      </symbol>
    </g>
    <g
       id="g920">
      <symbol
         overflow="visible"
         id="symbol5553">
        <path
           style="stroke:none"
           d=""
           id="path766" />
      </symbol>
      <symbol
         overflow="visible"
         id="symbol4875">
        <path
           style="stroke:none"
           d="m 4,-7.0625 c -2.265625,0 -3.78125,1.46875 -3.78125,3.65625 0,2.09375 1.453125,3.609375 3.46875,3.609375 2.234375,0 3.921875,-1.671875 3.921875,-3.859375 C 7.609375,-5.75 6.21875,-7.0625 4,-7.0625 Z m -0.15625,0.40625 c 1.703125,0 2.703125,1.21875 2.703125,3.296875 0,1.96875 -0.921875,3.140625 -2.453125,3.140625 -1.6875,0 -2.8125,-1.421875 -2.8125,-3.546875 0,-1.84375 0.921875,-2.890625 2.5625,-2.890625 z m 0,0"
           id="path9379" />
      </symbol>
    </g>
    <g
       id="g1997">
      <symbol
         overflow="visible"
         id="symbol6393">
        <path
           style="stroke:none"
           d=""
           id="path2276" />
      </symbol>
      <symbol
         overflow="visible"
         id="symbol1421">
        <path
           style="stroke:none"
           d="m 7.296875,-1.203125 c 0,0.796875 -0.046875,0.859375 -0.515625,0.90625 l -0.328125,0.03125 V 0.03125 C 6.90625,0.015625 7.203125,0 7.71875,0 8.28125,0 8.640625,0.015625 9.234375,0.03125 V -0.265625 L 8.75,-0.296875 c -0.453125,-0.03125 -0.5,-0.109375 -0.5,-0.90625 v -4.46875 c 0,-0.78125 0.046875,-0.875 0.5,-0.890625 L 9.171875,-6.59375 V -6.890625 C 8.40625,-6.875 8.40625,-6.875 8.25,-6.875 c -0.15625,0 -0.15625,0 -0.953125,-0.015625 L 4.6875,-1.359375 2.046875,-6.890625 C 1.25,-6.875 1.25,-6.875 1.109375,-6.875 c -0.15625,0 -0.15625,0 -0.953125,-0.015625 v 0.296875 l 0.4375,0.03125 c 0.46875,0.015625 0.515625,0.109375 0.515625,0.890625 v 4.46875 c 0,0.78125 -0.046875,0.875 -0.515625,0.90625 l -0.4375,0.03125 V 0.03125 C 1.140625,0 1.140625,0 1.3125,0 1.46875,0 1.46875,0 2.515625,0.03125 v -0.296875 l -0.4375,-0.03125 C 1.609375,-0.328125 1.5625,-0.421875 1.5625,-1.203125 v -4.5625 L 4.34375,0.125 h 0.203125 c 0.0625,-0.140625 0.125,-0.296875 0.1875,-0.453125 C 4.890625,-0.71875 5.015625,-1 5.078125,-1.140625 L 6.859375,-4.90625 C 7,-5.1875 7.125,-5.421875 7.296875,-5.765625 Z m 0,0"
           id="path702" />
      </symbol>
    </g>
    <g
       id="g87">
      <symbol
         overflow="visible"
         id="symbol6426">
        <path
           style="stroke:none"
           d=""
           id="path2879" />
      </symbol>
      <symbol
         overflow="visible"
         id="symbol2930">
        <path
           style="stroke:none"
           d="m 1.5,1.71875 c 0,-0.765625 0.25,-1.125 0.765625,-1.125 0.296875,0 0.578125,0.078125 0.96875,0.28125 l 1.4375,0.765625 C 5.28125,1.9375 5.453125,2 5.859375,2 6.59375,2 6.953125,1.578125 7.0625,0.609375 h -0.25 C 6.75,1.140625 6.53125,1.390625 6.125,1.390625 5.96875,1.390625 5.765625,1.34375 5.515625,1.25 L 3.15625,0.296875 C 2.90625,0.1875 2.734375,0.15625 2.5,0.15625 c -0.734375,0 -1.25,0.5 -1.25,1.265625 0,0.015625 0,0.078125 0.015625,0.15625 z m 3.125,-8.75 c -2.359375,0 -4.09375,1.8125 -4.09375,4.3125 0,1.890625 0.9375,2.890625 2.6875,2.890625 0.84375,0 1.5625,-0.1875 2.203125,-0.59375 1.25,-0.78125 2.03125,-2.234375 2.03125,-3.8125 0,-1.78125 -1.03125,-2.796875 -2.828125,-2.796875 z M 4.3125,-6.625 c 0.484375,0 0.96875,0.125 1.296875,0.328125 0.65625,0.375 0.96875,1.125 0.96875,2.21875 0,1.25 -0.390625,2.390625 -1.078125,3.078125 -0.484375,0.5 -1.140625,0.765625 -1.90625,0.765625 -1.4375,0 -2.1875,-0.859375 -2.1875,-2.53125 C 1.40625,-4.0625 1.796875,-5.21875 2.5,-5.90625 2.953125,-6.390625 3.5625,-6.625 4.3125,-6.625 Z m 0,0"
           id="path9829" />
      </symbol>
    </g>
    <g
       id="g4981">
      <symbol
         overflow="visible"
         id="symbol23">
        <path
           style="stroke:none"
           d=""
           id="path4134" />
      </symbol>
      <symbol
         overflow="visible"
         id="symbol5004">
        <path
           style="stroke:none"
           d="m 2.640625,-6.1875 c 0.5625,-0.015625 0.890625,-0.03125 1.453125,-0.03125 0.53125,0 0.953125,0.09375 0.96875,0.203125 L 5.140625,-5.28125 H 5.5 l 0.140625,-1.40625 -0.0625,-0.078125 c -0.359375,-0.015625 -0.546875,-0.03125 -0.9375,-0.03125 -0.234375,0 -0.53125,0.015625 -1.078125,0.015625 -0.734375,0.015625 -1.015625,0.015625 -1.296875,0.015625 -0.359375,0 -0.78125,0 -1.875,-0.015625 v 0.359375 L 0.75,-6.390625 c 0.453125,0.046875 0.484375,0.09375 0.484375,0.984375 v 4.453125 c 0,0.34375 -0.046875,0.5 -0.203125,0.578125 l -0.3125,0.171875 V 0.03125 C 1.703125,0 1.703125,0 1.9375,0 H 2.265625 C 3.28125,0.03125 3.671875,0.046875 4.1875,0.046875 4.703125,0.046875 5.015625,0.03125 5.59375,0 L 5.640625,-0.078125 5.75,-1.65625 H 5.359375 l -0.21875,0.9375 c 0,0.015625 -0.015625,0.015625 -0.03125,0.03125 -0.3125,0.09375 -0.609375,0.140625 -1.15625,0.140625 -0.421875,0 -0.796875,-0.015625 -1.3125,-0.03125 v -2.65625 c 0.28125,-0.03125 0.453125,-0.03125 0.671875,-0.03125 h 0.65625 c 0.375,0 0.53125,0.109375 0.5625,0.359375 l 0.0625,0.5 H 5 L 4.96875,-3.484375 c 0,-0.109375 0,-0.109375 0.03125,-1.0625 H 4.59375 l -0.0625,0.5625 c -0.015625,0.171875 -0.140625,0.21875 -0.5625,0.21875 H 3.3125 c -0.328125,0 -0.46875,0 -0.671875,-0.015625 z m 0,0"
           id="path3518" />
      </symbol>
      <symbol
         overflow="visible"
         id="symbol5222">
        <path
           style="stroke:none"
           d=""
           id="path4701" />
      </symbol>
      <symbol
         overflow="visible"
         id="symbol8179">
        <path
           style="stroke:none"
           d="M 3,1.9375 C 2.28125,1.046875 2.03125,0.5625 1.765625,-0.328125 1.5625,-1.046875 1.453125,-1.796875 1.453125,-2.65625 1.453125,-3.484375 1.5625,-4.1875 1.75,-4.828125 2,-5.65625 2.265625,-6.125 3,-6.984375 l -0.1875,-0.25 c -1.03125,0.921875 -1.453125,1.46875 -1.828125,2.453125 -0.25,0.671875 -0.390625,1.375 -0.390625,2.125 0,1.078125 0.25,2.078125 0.734375,2.96875 C 1.671875,0.984375 2,1.375 2.8125,2.140625 Z m 0,0"
           id="path9030" />
      </symbol>
      <symbol
         overflow="visible"
         id="symbol8675">
        <path
           style="stroke:none"
           d="m 0.515625,2.140625 c 0.6875,-0.640625 0.96875,-0.96875 1.28125,-1.46875 0.609375,-0.96875 0.921875,-2.125 0.921875,-3.3125 0,-0.765625 -0.125,-1.46875 -0.390625,-2.140625 -0.375,-0.96875 -0.78125,-1.515625 -1.8125,-2.453125 l -0.203125,0.25 c 0.734375,0.859375 1,1.328125 1.25,2.15625 0.203125,0.640625 0.296875,1.34375 0.296875,2.171875 0,0.859375 -0.09375,1.609375 -0.296875,2.328125 -0.265625,0.890625 -0.53125,1.375 -1.25,2.265625 z m 0,0"
           id="path8556" />
      </symbol>
      <symbol
         overflow="visible"
         id="symbol4176">
        <path
           style="stroke:none"
           d=""
           id="path9996" />
      </symbol>
      <symbol
         overflow="visible"
         id="symbol6871">
        <path
           style="stroke:none"
           d="M 9.34375,-6.625 9.375,-6.890625 H 9.09375 C 8.8125,-6.875 8.65625,-6.875 8.53125,-6.875 H 8.296875 l -0.59375,-0.015625 -0.15625,0.296875 c -0.265625,0.515625 -0.453125,0.859375 -0.6875,1.25 l -2.453125,4.203125 -1.5,-5.75 H 2.625 C 2.359375,-6.875 2.203125,-6.875 2.078125,-6.875 h -0.25 L 1.25,-6.890625 1.21875,-6.625 l 0.25,0.03125 C 2,-6.5625 2.171875,-6.453125 2.171875,-6.203125 c 0,0.0625 -0.015625,0.125 -0.03125,0.203125 l -1.4375,5.078125 c -0.171875,0.515625 -0.3125,0.640625 -0.859375,0.6875 L -0.1875,0.03125 0.203125,0.015625 C 0.53125,0.015625 0.78125,0 0.921875,0 c 0.140625,0 0.40625,0.015625 0.75,0.015625 L 2.03125,0.03125 2.046875,-0.25 1.671875,-0.28125 C 1.359375,-0.296875 1.1875,-0.40625 1.1875,-0.546875 c 0,-0.09375 0.015625,-0.234375 0.0625,-0.40625 l 1.25,-4.625 1.484375,5.75 h 0.21875 l 0.578125,-1.03125 c 0.765625,-1.40625 1.703125,-3.015625 2.375,-4.125 l 0.515625,-0.875 -0.359375,5.1875 C 7.265625,-0.390625 7.140625,-0.3125 6.640625,-0.28125 L 6.328125,-0.25 6.296875,0.03125 6.765625,0.015625 C 7.1875,0.015625 7.484375,0 7.640625,0 7.796875,0 8.09375,0.015625 8.5,0.015625 L 8.96875,0.03125 8.984375,-0.25 8.625,-0.28125 C 8.265625,-0.3125 8.078125,-0.421875 8.078125,-0.625 L 8.09375,-1 8.5,-6.296875 c 0.015625,-0.1875 0.171875,-0.28125 0.46875,-0.296875 z m 0,0"
           id="path7867" />
      </symbol>
    </g>
    <g
       id="g1677">
      <symbol
         overflow="visible"
         id="symbol9955">
        <path
           style="stroke:none"
           d=""
           id="path2461" />
      </symbol>
      <symbol
         overflow="visible"
         id="symbol7159">
        <path
           style="stroke:none"
           d="M 9.34375,-6.625 9.375,-6.890625 H 9.09375 C 8.8125,-6.875 8.65625,-6.875 8.53125,-6.875 H 8.296875 l -0.59375,-0.015625 -0.15625,0.296875 c -0.265625,0.515625 -0.453125,0.859375 -0.6875,1.25 l -2.453125,4.203125 -1.5,-5.75 H 2.625 C 2.359375,-6.875 2.203125,-6.875 2.078125,-6.875 h -0.25 L 1.25,-6.890625 1.21875,-6.625 l 0.25,0.03125 C 2,-6.5625 2.171875,-6.453125 2.171875,-6.203125 c 0,0.0625 -0.015625,0.125 -0.03125,0.203125 l -1.4375,5.078125 c -0.171875,0.515625 -0.3125,0.640625 -0.859375,0.6875 L -0.1875,0.03125 0.203125,0.015625 C 0.53125,0.015625 0.78125,0 0.921875,0 c 0.140625,0 0.40625,0.015625 0.75,0.015625 L 2.03125,0.03125 2.046875,-0.25 1.671875,-0.28125 C 1.359375,-0.296875 1.1875,-0.40625 1.1875,-0.546875 c 0,-0.09375 0.015625,-0.234375 0.0625,-0.40625 l 1.25,-4.625 1.484375,5.75 h 0.21875 l 0.578125,-1.03125 c 0.765625,-1.40625 1.703125,-3.015625 2.375,-4.125 l 0.515625,-0.875 -0.359375,5.1875 C 7.265625,-0.390625 7.140625,-0.3125 6.640625,-0.28125 L 6.328125,-0.25 6.296875,0.03125 6.765625,0.015625 C 7.1875,0.015625 7.484375,0 7.640625,0 7.796875,0 8.09375,0.015625 8.5,0.015625 L 8.96875,0.03125 8.984375,-0.25 8.625,-0.28125 C 8.265625,-0.3125 8.078125,-0.421875 8.078125,-0.625 L 8.09375,-1 8.5,-6.296875 c 0.015625,-0.1875 0.171875,-0.28125 0.46875,-0.296875 z m 0,0"
           id="path4238" />
      </symbol>
    </g>
    <g
       id="g1359">
      <symbol
         overflow="visible"
         id="symbol3480">
        <path
           style="stroke:none"
           d=""
           id="path3245" />
      </symbol>
      <symbol
         overflow="visible"
         id="symbol2927">
        <path
           style="stroke:none"
           d="m 4.625,-7.03125 c -2.359375,0 -4.09375,1.8125 -4.09375,4.3125 0,1.890625 0.9375,2.890625 2.6875,2.890625 0.84375,0 1.5625,-0.1875 2.203125,-0.59375 1.25,-0.78125 2.03125,-2.234375 2.03125,-3.8125 0,-1.78125 -1.03125,-2.796875 -2.828125,-2.796875 z M 4.3125,-6.625 c 0.484375,0 0.96875,0.125 1.296875,0.328125 0.65625,0.375 0.96875,1.125 0.96875,2.21875 0,1.25 -0.390625,2.390625 -1.078125,3.078125 -0.484375,0.5 -1.140625,0.765625 -1.90625,0.765625 -1.4375,0 -2.1875,-0.859375 -2.1875,-2.53125 C 1.40625,-4.0625 1.796875,-5.21875 2.5,-5.90625 2.953125,-6.390625 3.5625,-6.625 4.3125,-6.625 Z m 0,0"
           id="path9603" />
      </symbol>
    </g>
    <g
       id="g4850">
      <symbol
         overflow="visible"
         id="symbol4314">
        <path
           style="stroke:none"
           d=""
           id="path482" />
      </symbol>
      <symbol
         overflow="visible"
         id="symbol1313">
        <path
           style="stroke:none"
           d="m 4.625,-7.03125 c -2.359375,0 -4.09375,1.8125 -4.09375,4.3125 0,1.890625 0.9375,2.890625 2.6875,2.890625 0.84375,0 1.5625,-0.1875 2.203125,-0.59375 1.25,-0.78125 2.03125,-2.234375 2.03125,-3.8125 0,-1.78125 -1.03125,-2.796875 -2.828125,-2.796875 z M 4.3125,-6.625 c 0.484375,0 0.96875,0.125 1.296875,0.328125 0.65625,0.375 0.96875,1.125 0.96875,2.21875 0,1.25 -0.390625,2.390625 -1.078125,3.078125 -0.484375,0.5 -1.140625,0.765625 -1.90625,0.765625 -1.4375,0 -2.1875,-0.859375 -2.1875,-2.53125 C 1.40625,-4.0625 1.796875,-5.21875 2.5,-5.90625 2.953125,-6.390625 3.5625,-6.625 4.3125,-6.625 Z m 0,0"
           id="path4776" />
      </symbol>
      <symbol
         overflow="visible"
         id="symbol5255">
        <path
           style="stroke:none"
           d=""
           id="path955" />
      </symbol>
      <symbol
         overflow="visible"
         id="symbol8526">
        <path
           style="stroke:none"
           d="m 0.46875,-3.875 h 0.0625 L 1.4375,-4.265625 c 0,-0.015625 0.015625,-0.015625 0.015625,-0.015625 0.046875,0 0.0625,0.0625 0.0625,0.234375 v 3.375 c 0,0.359375 -0.078125,0.4375 -0.453125,0.46875 L 0.671875,-0.1875 V 0.015625 C 1.734375,0 1.734375,0 1.8125,0 1.90625,0 2.0625,0 2.296875,0 2.390625,0.015625 2.625,0.015625 2.90625,0.015625 V -0.1875 L 2.546875,-0.203125 C 2.171875,-0.234375 2.09375,-0.3125 2.09375,-0.671875 v -4.125 L 2,-4.84375 c -0.453125,0.25 -0.953125,0.453125 -1.578125,0.671875 z m 0,0"
           id="path9429" />
      </symbol>
    </g>
    <g
       id="g6262">
      <symbol
         overflow="visible"
         id="symbol705">
        <path
           style="stroke:none"
           d=""
           id="path9657" />
      </symbol>
      <symbol
         overflow="visible"
         id="symbol6256">
        <path
           style="stroke:none"
           d="m 1.046875,-6.625 0.5625,0.03125 c 0.234375,0 0.34375,0.078125 0.34375,0.265625 0,0.140625 -0.046875,0.453125 -0.09375,0.75 L 1.109375,-1.25 C 0.953125,-0.34375 0.9375,-0.3125 0.53125,-0.28125 L 0.125,-0.25 0.09375,0.03125 0.515625,0.015625 C 0.984375,0 1.171875,0 1.40625,0 L 2.375,0.03125 h 0.25 L 2.65625,-0.25 2.171875,-0.28125 C 1.90625,-0.296875 1.8125,-0.375 1.8125,-0.578125 c 0,-0.09375 0.015625,-0.171875 0.046875,-0.34375 L 2.703125,-5.78125 C 2.703125,-5.796875 2.75,-6 2.796875,-6.1875 c 0.015625,-0.078125 0.03125,-0.140625 0.0625,-0.265625 0.296875,-0.0625 0.484375,-0.09375 0.765625,-0.09375 0.859375,0 1.3125,0.390625 1.3125,1.140625 0,0.9375 -0.765625,1.640625 -1.8125,1.640625 H 2.6875 L 2.65625,-3.65625 C 4,-1.71875 4.3125,-1.234375 5.046875,0.03125 L 5.71875,0 h 0.1875 c 0,0 0.140625,0.015625 0.328125,0.03125 H 6.375 V -0.234375 C 5.96875,-0.296875 5.859375,-0.375 5.578125,-0.78125 l -1.84375,-2.75 C 4.28125,-3.625 4.578125,-3.75 4.9375,-4 c 0.578125,-0.421875 0.890625,-0.96875 0.890625,-1.578125 0,-0.859375 -0.640625,-1.34375 -1.75,-1.3125 l -1.5,0.015625 c -0.140625,0 -0.328125,0 -1.5,-0.015625 z m 0,0"
           id="path1989" />
      </symbol>
      <symbol
         overflow="visible"
         id="symbol6896">
        <path
           style="stroke:none"
           d=""
           id="path9514" />
      </symbol>
      <symbol
         overflow="visible"
         id="symbol5474">
        <path
           style="stroke:none"
           d="m 0.46875,-3.875 h 0.0625 L 1.4375,-4.265625 c 0,-0.015625 0.015625,-0.015625 0.015625,-0.015625 0.046875,0 0.0625,0.0625 0.0625,0.234375 v 3.375 c 0,0.359375 -0.078125,0.4375 -0.453125,0.46875 L 0.671875,-0.1875 V 0.015625 C 1.734375,0 1.734375,0 1.8125,0 1.90625,0 2.0625,0 2.296875,0 2.390625,0.015625 2.625,0.015625 2.90625,0.015625 V -0.1875 L 2.546875,-0.203125 C 2.171875,-0.234375 2.09375,-0.3125 2.09375,-0.671875 v -4.125 L 2,-4.84375 c -0.453125,0.25 -0.953125,0.453125 -1.578125,0.671875 z m 0,0"
           id="path2717" />
      </symbol>
    </g>
    <g
       id="g4241">
      <symbol
         overflow="visible"
         id="symbol7158">
        <path
           style="stroke:none"
           d=""
           id="path9184" />
      </symbol>
      <symbol
         overflow="visible"
         id="symbol9998">
        <path
           style="stroke:none"
           d="m 7.046875,-6.203125 c 0,-0.828125 -1.46875,-1.15625 -2.109375,-1.15625 -1.203125,0 -2.75,0.59375 -2.75,2.03125 0,1.921875 3.234375,1.96875 3.234375,3.734375 0,1.078125 -1.484375,1.3125 -2.296875,1.3125 -0.890625,0 -2.0625,-0.609375 -2.0625,-1.609375 0,-0.234375 0.046875,-0.46875 0.171875,-0.65625 L 1.15625,-2.578125 c -0.375,0.171875 -1.09375,0.84375 -1.09375,1.296875 0,1.1875 1.859375,1.578125 2.78125,1.578125 1.015625,0 2.046875,-0.359375 2.78125,-1.078125 0.328125,-0.3125 0.9375,-1.046875 0.9375,-1.53125 0,-1.671875 -3.390625,-2.03125 -3.390625,-3.65625 0,-0.703125 0.859375,-0.984375 1.4375,-0.984375 0.828125,0 1.5625,0.5 1.5625,1.390625 0,0.1875 -0.078125,0.375 -0.203125,0.5 0.578125,-0.015625 1.078125,-0.5625 1.078125,-1.140625 z m 0,0"
           id="path8512" />
      </symbol>
    </g>
    <g
       id="g1748">
      <symbol
         overflow="visible"
         id="symbol483">
        <path
           style="stroke:none"
           d=""
           id="path9376" />
      </symbol>
      <symbol
         overflow="visible"
         id="symbol3173">
        <path
           style="stroke:none"
           d="m 0.71875,-2.015625 c 0,0.75 -0.046875,1.15625 -0.15625,1.71875 0.734375,0.34375 1.328125,0.46875 2.078125,0.46875 1.78125,0 2.9375,-0.921875 2.9375,-2.359375 0,-0.890625 -0.53125,-1.5 -1.515625,-1.765625 L 2.9375,-4.25 c -0.75,-0.1875 -1.0625,-0.5 -1.0625,-1 0,-0.6875 0.546875,-1.171875 1.328125,-1.171875 0.53125,0 0.984375,0.1875 1.359375,0.546875 l 0.0625,0.828125 h 0.40625 c 0,-0.65625 0.046875,-1.140625 0.140625,-1.421875 L 5.125,-6.59375 C 4.453125,-6.828125 3.9375,-6.921875 3.28125,-6.921875 c -1.65625,0 -2.640625,0.796875 -2.640625,2.125 0,0.859375 0.515625,1.484375 1.453125,1.765625 l 1.390625,0.421875 C 4.046875,-2.4375 4.3125,-2.140625 4.3125,-1.65625 4.3125,-0.921875 3.671875,-0.375 2.828125,-0.375 2.140625,-0.375 1.5,-0.671875 1.1875,-1.140625 l -0.078125,-0.875 z m 0,0"
           id="path1259" />
      </symbol>
      <symbol
         overflow="visible"
         id="symbol2646">
        <path
           style="stroke:none"
           d=""
           id="path2897" />
      </symbol>
      <symbol
         overflow="visible"
         id="symbol3416">
        <path
           style="stroke:none"
           d="M 0.21875,-1.03125 C 0.1875,-0.671875 0.140625,-0.4375 0.0625,-0.109375 c 0.265625,0.125 0.5,0.1875 0.75,0.1875 0.34375,0 0.65625,-0.125 1.015625,-0.40625 0.359375,-0.28125 0.5,-0.53125 0.5,-0.890625 0,-0.375 -0.21875,-0.578125 -0.734375,-0.671875 L 1.296875,-1.9375 c -0.421875,-0.078125 -0.5625,-0.203125 -0.5625,-0.484375 0,-0.375 0.3125,-0.65625 0.71875,-0.65625 0.28125,0 0.546875,0.125 0.65625,0.3125 v 0.375 h 0.15625 c 0.03125,-0.234375 0.0625,-0.421875 0.140625,-0.78125 -0.28125,-0.125 -0.46875,-0.1875 -0.703125,-0.1875 -0.359375,0 -0.78125,0.203125 -1.125,0.546875 -0.171875,0.1875 -0.25,0.359375 -0.25,0.609375 C 0.328125,-1.8125 0.546875,-1.59375 1,-1.5 l 0.4375,0.078125 c 0.3125,0.0625 0.421875,0.1875 0.421875,0.453125 0,0.453125 -0.3125,0.765625 -0.8125,0.765625 -0.25,0 -0.46875,-0.078125 -0.65625,-0.25 V -1.03125 Z m 0,0"
           id="path7984" />
      </symbol>
    </g>
    <g
       id="g9361">
      <symbol
         overflow="visible"
         id="symbol7527">
        <path
           style="stroke:none"
           d=""
           id="path8276" />
      </symbol>
      <symbol
         overflow="visible"
         id="symbol9323">
        <path
           style="stroke:none"
           d="m 0.71875,-2.015625 c 0,0.75 -0.046875,1.15625 -0.15625,1.71875 0.734375,0.34375 1.328125,0.46875 2.078125,0.46875 1.78125,0 2.9375,-0.921875 2.9375,-2.359375 0,-0.890625 -0.53125,-1.5 -1.515625,-1.765625 L 2.9375,-4.25 c -0.75,-0.1875 -1.0625,-0.5 -1.0625,-1 0,-0.6875 0.546875,-1.171875 1.328125,-1.171875 0.53125,0 0.984375,0.1875 1.359375,0.546875 l 0.0625,0.828125 h 0.40625 c 0,-0.65625 0.046875,-1.140625 0.140625,-1.421875 L 5.125,-6.59375 C 4.453125,-6.828125 3.9375,-6.921875 3.28125,-6.921875 c -1.65625,0 -2.640625,0.796875 -2.640625,2.125 0,0.859375 0.515625,1.484375 1.453125,1.765625 l 1.390625,0.421875 C 4.046875,-2.4375 4.3125,-2.140625 4.3125,-1.65625 4.3125,-0.921875 3.671875,-0.375 2.828125,-0.375 2.140625,-0.375 1.5,-0.671875 1.1875,-1.140625 l -0.078125,-0.875 z m 0,0"
           id="path731" />
      </symbol>
      <symbol
         overflow="visible"
         id="symbol2661">
        <path
           style="stroke:none"
           d=""
           id="path9541" />
      </symbol>
      <symbol
         overflow="visible"
         id="symbol5581">
        <path
           style="stroke:none"
           d="M 2.28125,-0.78125 2.125,-0.65625 C 1.75,-0.390625 1.421875,-0.25 1.15625,-0.25 c -0.3125,0 -0.515625,-0.265625 -0.515625,-0.671875 0,-0.171875 0.015625,-0.375 0.046875,-0.5625 L 1.265625,-1.625 C 1.375,-1.65625 1.5625,-1.734375 1.734375,-1.8125 c 0.59375,-0.25 0.875,-0.578125 0.875,-1 0,-0.328125 -0.234375,-0.546875 -0.59375,-0.546875 -0.453125,0 -1.21875,0.484375 -1.5,0.921875 -0.203125,0.359375 -0.40625,1.1875 -0.40625,1.65625 0,0.53125 0.296875,0.859375 0.796875,0.859375 0.40625,0 0.796875,-0.203125 1.4375,-0.71875 z m -1.5,-1.125 C 0.90625,-2.390625 1.046875,-2.6875 1.25,-2.875 c 0.125,-0.109375 0.34375,-0.1875 0.5,-0.1875 0.203125,0 0.34375,0.140625 0.34375,0.359375 0,0.3125 -0.25,0.640625 -0.609375,0.8125 -0.1875,0.09375 -0.453125,0.171875 -0.765625,0.234375 z m 0,0"
           id="path2310" />
      </symbol>
    </g>
    <g
       id="g8896">
      <symbol
         overflow="visible"
         id="symbol5676">
        <path
           style="stroke:none"
           d=""
           id="path456" />
      </symbol>
      <symbol
         overflow="visible"
         id="symbol6603">
        <path
           style="stroke:none"
           d="m 0.71875,-2.015625 c 0,0.75 -0.046875,1.15625 -0.15625,1.71875 0.734375,0.34375 1.328125,0.46875 2.078125,0.46875 1.78125,0 2.9375,-0.921875 2.9375,-2.359375 0,-0.890625 -0.53125,-1.5 -1.515625,-1.765625 L 2.9375,-4.25 c -0.75,-0.1875 -1.0625,-0.5 -1.0625,-1 0,-0.6875 0.546875,-1.171875 1.328125,-1.171875 0.53125,0 0.984375,0.1875 1.359375,0.546875 l 0.0625,0.828125 h 0.40625 c 0,-0.65625 0.046875,-1.140625 0.140625,-1.421875 L 5.125,-6.59375 C 4.453125,-6.828125 3.9375,-6.921875 3.28125,-6.921875 c -1.65625,0 -2.640625,0.796875 -2.640625,2.125 0,0.859375 0.515625,1.484375 1.453125,1.765625 l 1.390625,0.421875 C 4.046875,-2.4375 4.3125,-2.140625 4.3125,-1.65625 4.3125,-0.921875 3.671875,-0.375 2.828125,-0.375 2.140625,-0.375 1.5,-0.671875 1.1875,-1.140625 l -0.078125,-0.875 z m 0,0"
           id="path6920" />
      </symbol>
      <symbol
         overflow="visible"
         id="symbol8906">
        <path
           style="stroke:none"
           d=""
           id="path1815" />
      </symbol>
      <symbol
         overflow="visible"
         id="symbol9442">
        <path
           style="stroke:none"
           d="M 1.75,-5.03125 1.671875,-5.109375 c -0.375,0.1875 -0.625,0.25 -1.125,0.296875 l -0.03125,0.140625 h 0.34375 c 0.171875,0 0.234375,0.046875 0.234375,0.15625 0,0.015625 0,0.0625 -0.015625,0.1875 L 1.046875,-4.1875 c -0.03125,0.390625 -0.46875,2.5625 -0.5625,2.90625 l -0.09375,0.359375 C 0.296875,-0.578125 0.25,-0.359375 0.25,-0.21875 c 0,0.171875 0.078125,0.28125 0.203125,0.28125 0.1875,0 0.4375,-0.140625 1.125,-0.65625 L 1.5,-0.71875 1.328125,-0.59375 C 1.125,-0.46875 0.96875,-0.390625 0.90625,-0.390625 c -0.0625,0 -0.09375,-0.0625 -0.09375,-0.140625 0,-0.046875 0,-0.09375 0.03125,-0.1875 v -0.0625 z m 0,0"
           id="path9627" />
      </symbol>
    </g>
    <g
       id="g8058">
      <symbol
         overflow="visible"
         id="symbol7517">
        <path
           style="stroke:none"
           d=""
           id="path5973" />
      </symbol>
      <symbol
         overflow="visible"
         id="symbol4198">
        <path
           style="stroke:none"
           d="m 0.71875,-2.015625 c 0,0.75 -0.046875,1.15625 -0.15625,1.71875 0.734375,0.34375 1.328125,0.46875 2.078125,0.46875 1.78125,0 2.9375,-0.921875 2.9375,-2.359375 0,-0.890625 -0.53125,-1.5 -1.515625,-1.765625 L 2.9375,-4.25 c -0.75,-0.1875 -1.0625,-0.5 -1.0625,-1 0,-0.6875 0.546875,-1.171875 1.328125,-1.171875 0.53125,0 0.984375,0.1875 1.359375,0.546875 l 0.0625,0.828125 h 0.40625 c 0,-0.65625 0.046875,-1.140625 0.140625,-1.421875 L 5.125,-6.59375 C 4.453125,-6.828125 3.9375,-6.921875 3.28125,-6.921875 c -1.65625,0 -2.640625,0.796875 -2.640625,2.125 0,0.859375 0.515625,1.484375 1.453125,1.765625 l 1.390625,0.421875 C 4.046875,-2.4375 4.3125,-2.140625 4.3125,-1.65625 4.3125,-0.921875 3.671875,-0.375 2.828125,-0.375 2.140625,-0.375 1.5,-0.671875 1.1875,-1.140625 l -0.078125,-0.875 z m 0,0"
           id="path2741" />
      </symbol>
      <symbol
         overflow="visible"
         id="symbol9217">
        <path
           style="stroke:none"
           d=""
           id="path3828" />
      </symbol>
      <symbol
         overflow="visible"
         id="symbol6192">
        <path
           style="stroke:none"
           d="M 1.75,-5.03125 1.671875,-5.109375 c -0.375,0.1875 -0.625,0.25 -1.125,0.296875 l -0.03125,0.140625 h 0.34375 c 0.171875,0 0.234375,0.046875 0.234375,0.15625 0,0.015625 0,0.0625 -0.015625,0.1875 L 1.046875,-4.1875 c -0.03125,0.390625 -0.46875,2.5625 -0.5625,2.90625 l -0.09375,0.359375 C 0.296875,-0.578125 0.25,-0.359375 0.25,-0.21875 c 0,0.171875 0.078125,0.28125 0.203125,0.28125 0.1875,0 0.4375,-0.140625 1.125,-0.65625 L 1.5,-0.71875 1.328125,-0.59375 C 1.125,-0.46875 0.96875,-0.390625 0.90625,-0.390625 c -0.0625,0 -0.09375,-0.0625 -0.09375,-0.140625 0,-0.046875 0,-0.09375 0.03125,-0.1875 v -0.0625 z m 0,0"
           id="path3036" />
      </symbol>
    </g>
  </defs>
  <sodipodi:namedview
     id="base"
     pagecolor="#ffffff"
     bordercolor="#666666"
     borderopacity="1.0"
     inkscape:pageopacity="0.0"
     inkscape:pageshadow="2"
     inkscape:zoom="2.8"
     inkscape:cx="191.92652"
     inkscape:cy="136.94016"
     inkscape:document-units="mm"
     inkscape:current-layer="g5234"
     inkscape:document-rotation="0"
     showgrid="false"
     inkscape:window-width="1853"
     inkscape:window-height="1025"
     inkscape:window-x="67"
     inkscape:window-y="27"
     inkscape:window-maximized="1">
    <inkscape:grid
       type="xygrid"
       id="grid4396" />
  </sodipodi:namedview>
  <metadata
     id="metadata3830">
    <rdf:RDF>
      <cc:Work
         rdf:about="">
        <dc:format>image/svg+xml</dc:format>
        <dc:type
           rdf:resource="http://purl.org/dc/dcmitype/StillImage" />
        <dc:title></dc:title>
      </cc:Work>
    </rdf:RDF>
  </metadata>
  <g
     inkscape:label="Calque 1"
     inkscape:groupmode="layer"
     id="layer1"
     style="display:inline">
    <g
       inkscape:groupmode="layer"
       id="layer2"
       inkscape:label="gauss"
       style="display:inline" />
    <g
       id="g2608"
       transform="translate(4.2333335)">
      <path
         style="fill:none;stroke:#000000;stroke-width:0.264583px;stroke-linecap:butt;stroke-linejoin:miter;stroke-opacity:1;marker-end:url(#marker6265)"
         d="M 37.306253,21.166666 39.952086,9.2604166"
         id="path6261" />
      <path
         style="fill:#0c673b;fill-opacity:0.30000001;stroke:#000000;stroke-width:0.246944;stroke-opacity:0.427451"
         id="path2527"
         sodipodi:type="arc"
         sodipodi:cx="14.176648"
         sodipodi:cy="34.879864"
         sodipodi:rx="4.6129193"
         sodipodi:ry="18.451677"
         sodipodi:start="0"
         sodipodi:end="6.2818065"
         sodipodi:open="true"
         sodipodi:arc-type="arc"
         d="M 18.789567,34.879864 A 4.6129193,18.451677 0 0 1 14.178238,53.33154 4.6129193,18.451677 0 0 1 9.5637299,34.892584 4.6129193,18.451677 0 0 1 14.171878,16.428196 4.6129193,18.451677 0 0 1 18.789563,34.854422" />
      <g
         id="g5234"
         transform="translate(5.8208336)">
        <path
           style="fill:none;stroke:#0c673b;stroke-width:0.176389;stroke-linecap:butt;stroke-linejoin:miter;stroke-miterlimit:4;stroke-dasharray:none;stroke-opacity:0.921569;marker-mid:url(#marker2674)"
           d="M 8.2438131,16.384506 55.817918,26.229835"
           id="path2533" />
        <path
           style="fill:#0c673b;fill-opacity:0.30000001;stroke:#0c673b;stroke-width:0.246944;stroke-opacity:0.921569"
           id="path2529"
           sodipodi:type="arc"
           sodipodi:cx="55.963928"
           sodipodi:cy="34.879864"
           sodipodi:rx="1.4731796"
           sodipodi:ry="8.8390779"
           sodipodi:start="0"
           sodipodi:end="6.2818065"
           sodipodi:open="true"
           sodipodi:arc-type="arc"
           d="m 57.437108,34.879864 a 1.4731796,8.8390779 0 0 1 -1.472672,8.839077 1.4731796,8.8390779 0 0 1 -1.473687,-8.832984 1.4731796,8.8390779 0 0 1 1.471656,-8.845166 1.4731796,8.8390779 0 0 1 1.474701,8.826885" />
        <path
           style="fill:none;stroke:#0c673b;stroke-width:0.16801;stroke-linecap:butt;stroke-linejoin:miter;stroke-miterlimit:4;stroke-dasharray:none;stroke-opacity:0.921569;marker-mid:url(#marker2664)"
           d="M 5.7000025,20.018062 55.04527,28.43594"
           id="path2535" />
        <path
           style="fill:none;stroke:#0c673b;stroke-width:0.164967;stroke-linecap:butt;stroke-linejoin:miter;stroke-miterlimit:4;stroke-dasharray:none;stroke-opacity:0.921569;marker-mid:url(#marker2654)"
           d="M 4.6485779,24.371068 54.438644,32.082551"
           id="path2537" />
        <path
           style="fill:none;stroke:#0c673b;stroke-width:0.176389;stroke-linecap:butt;stroke-linejoin:miter;stroke-miterlimit:4;stroke-dasharray:none;stroke-opacity:0.921569;marker-mid:url(#marker5020)"
           d="M 8.4173117,53.361039 55.813033,43.594402"
           id="path2541" />
        <path
           style="fill:none;stroke:#0c673b;stroke-width:0.171794;stroke-linecap:butt;stroke-linejoin:miter;stroke-miterlimit:4;stroke-dasharray:none;stroke-opacity:0.921569;marker-mid:url(#marker5030)"
           d="M 5.4488766,48.897524 54.862086,40.285508"
           id="path2543" />
        <path
           style="fill:none;stroke:#0c673b;stroke-width:0.175878;stroke-linecap:butt;stroke-linejoin:miter;stroke-miterlimit:4;stroke-dasharray:none;stroke-opacity:0.921569;marker-mid:url(#marker2644)"
           d="M 3.8390831,34.047486 54.50549,34.685243"
           id="path2545" />
        <path
           style="fill:none;stroke:#0c673b;stroke-width:0.16645;stroke-linecap:butt;stroke-linejoin:miter;stroke-miterlimit:4;stroke-dasharray:none;stroke-opacity:0.921569;marker-mid:url(#marker5046)"
           d="M 4.2547032,42.761158 54.429454,37.657728"
           id="path2547" />
        <path
           style="display:inline;fill:none;fill-opacity:0.427451;stroke:#000000;stroke-width:0.0969994;stroke-miterlimit:4;stroke-dasharray:0.0969994, 0.0969994;stroke-dashoffset:0;stroke-opacity:0.5"
           id="path2529-3"
           sodipodi:type="arc"
           sodipodi:cx="33.949471"
           sodipodi:cy="34.876049"
           sodipodi:rx="2.1870742"
           sodipodi:ry="13.122445"
           sodipodi:start="0"
           sodipodi:end="6.2818065"
           sodipodi:open="true"
           sodipodi:arc-type="arc"
           d="M 36.136545,34.876049 A 2.1870742,13.122445 0 0 1 33.950224,47.998493 2.1870742,13.122445 0 0 1 31.762397,34.885096 2.1870742,13.122445 0 0 1 33.947209,21.753611 2.1870742,13.122445 0 0 1 36.136543,34.857956" />
        <path
           style="display:inline;fill:none;fill-opacity:0.427451;stroke:#000000;stroke-width:0.116149;stroke-miterlimit:4;stroke-dasharray:0.116149, 0.116149;stroke-dashoffset:0;stroke-opacity:0.5"
           id="path2529-3-6"
           sodipodi:type="arc"
           sodipodi:cx="20.872097"
           sodipodi:cy="34.892509"
           sodipodi:rx="2.5988264"
           sodipodi:ry="15.834021"
           sodipodi:start="0"
           sodipodi:end="6.2818065"
           sodipodi:open="true"
           sodipodi:arc-type="arc"
           d="m 23.470923,34.892509 a 2.5988264,15.834021 0 0 1 -2.59793,15.83402 2.5988264,15.834021 0 0 1 -2.599722,-15.823104 2.5988264,15.834021 0 0 1 2.596139,-15.844928 2.5988264,15.834021 0 0 1 2.601511,15.81218" />
        <path
           style="display:inline;fill:none;fill-opacity:0.427451;stroke:#000000;stroke-width:0.078033;stroke-miterlimit:4;stroke-dasharray:0.078033, 0.078033;stroke-dashoffset:0;stroke-opacity:0.5"
           id="path2529-3-7"
           sodipodi:type="arc"
           sodipodi:cx="46.369434"
           sodipodi:cy="34.782986"
           sodipodi:rx="1.759432"
           sodipodi:ry="10.556592"
           sodipodi:start="0"
           sodipodi:end="6.2818065"
           sodipodi:open="true"
           sodipodi:arc-type="arc"
           d="M 48.128866,34.782986 A 1.759432,10.556592 0 0 1 46.370041,45.339577 1.759432,10.556592 0 0 1 44.610003,34.790263 1.759432,10.556592 0 0 1 46.367615,24.226399 1.759432,10.556592 0 0 1 48.128865,34.76843" />
        <path
           style="fill:none;stroke:#0c673b;stroke-width:0.127876px;stroke-linecap:butt;stroke-linejoin:miter;stroke-opacity:0.921569"
           d="m 38.765622,46.415582 0.749034,0.506526 -0.506526,0.749032"
           id="path4908"
           inkscape:transform-center-x="0.33287756"
           inkscape:transform-center-y="0.02423387" />
        <path
           style="display:inline;fill:none;stroke:#0c673b;stroke-width:0.127876px;stroke-linecap:butt;stroke-linejoin:miter;stroke-opacity:0.921569"
           d="m 38.852459,42.417485 0.731878,0.531013 -0.531012,0.731876"
           id="path4908-5"
           inkscape:transform-center-x="0.14091925"
           inkscape:transform-center-y="0.14351375" />
        <path
           style="display:inline;fill:none;stroke:#0c673b;stroke-width:0.127876px;stroke-linecap:butt;stroke-linejoin:miter;stroke-opacity:0.921569"
           d="m 38.782981,26.304162 0.731878,-0.531013 -0.531012,-0.731876"
           id="path4908-5-3"
           inkscape:transform-center-x="0.14091845"
           inkscape:transform-center-y="-0.14351309" />
        <path
           style="display:inline;fill:none;stroke:#0c673b;stroke-width:0.127876px;stroke-linecap:butt;stroke-linejoin:miter;stroke-opacity:0.921569"
           d="m 38.749568,23.359301 0.749034,-0.506526 -0.506526,-0.749032"
           id="path4908-56"
           inkscape:transform-center-x="0.33287756"
           inkscape:transform-center-y="-0.024234104" />
        <path
           style="display:inline;fill:none;stroke:#0c673b;stroke-width:0.127876px;stroke-linecap:butt;stroke-linejoin:miter;stroke-opacity:0.921569"
           d="m 39.067858,28.988669 0.465506,0.775194 -0.775193,0.465504"
           id="path4908-2"
           inkscape:transform-center-x="0.30892106"
           inkscape:transform-center-y="-0.22524913" />
        <path
           style="display:inline;fill:none;stroke:#0c673b;stroke-width:0.127876px;stroke-linecap:butt;stroke-linejoin:miter;stroke-opacity:0.921569"
           d="m 39.0854,39.948367 0.465506,-0.775194 -0.775193,-0.465504"
           id="path4908-2-9"
           inkscape:transform-center-x="0.30892106"
           inkscape:transform-center-y="0.22524887" />
        <path
           style="display:inline;fill:none;stroke:#0c673b;stroke-width:0.127876px;stroke-linecap:butt;stroke-linejoin:miter;stroke-opacity:0.921569"
           d="m 38.838047,35.090492 0.658759,-0.619401 -0.619401,-0.658757"
           id="path4908-2-9-1"
           inkscape:transform-center-x="0.27281306"
           inkscape:transform-center-y="0.06946687" />
      </g>
      <path
         style="fill:none;stroke:#000000;stroke-width:0.234462;stroke-linecap:butt;stroke-linejoin:miter;stroke-miterlimit:4;stroke-dasharray:none;stroke-opacity:1;marker-end:url(#marker5501)"
         d="M 62.44167,34.879864 H 73.833103"
         id="path5434" />
      <path
         style="display:inline;fill:none;stroke:#000000;stroke-width:0.241036px;stroke-linecap:butt;stroke-linejoin:miter;stroke-opacity:1;marker-start:url(#marker5636)"
         d="M -2.6379236,34.879864 H 9.4392437"
         id="path5434-7" />
      <g
         inkscape:label=""
         transform="matrix(0.43315828,0,0,0.43315828,31.726686,3.9561555)"
         id="g5986">
        <g
           id="g1923">
          <g
             style="fill:#000000;fill-opacity:1"
             id="g2985">
            <use
               xlink:href="#symbol3173"
               x="91.925003"
               y="81.962997"
               id="use2338"
               width="100%"
               height="100%" />
          </g>
          <g
             style="fill:#000000;fill-opacity:1"
             id="g5958">
            <use
               xlink:href="#symbol3416"
               x="98.012001"
               y="83.457001"
               id="use4402"
               width="100%"
               height="100%" />
          </g>
        </g>
      </g>
      <g
         inkscape:label=""
         transform="matrix(0.48505594,0,0,0.48505594,-47.253515,0.25783406)"
         id="g6233">
        <g
           id="g7548">
          <g
             style="fill:#000000;fill-opacity:1"
             id="g9906">
            <use
               xlink:href="#symbol9323"
               x="91.925003"
               y="81.962997"
               id="use320"
               width="100%"
               height="100%" />
          </g>
          <g
             style="fill:#000000;fill-opacity:1"
             id="g1435">
            <use
               xlink:href="#symbol5581"
               x="98.012001"
               y="83.457001"
               id="use851"
               width="100%"
               height="100%" />
          </g>
        </g>
      </g>
      <g
         inkscape:label=""
         transform="matrix(0.42263508,0,0,0.42263508,2.2889733,-22.797932)"
         id="g6954">
        <g
           id="g1424">
          <g
             style="fill:#000000;fill-opacity:1"
             id="g1655">
            <use
               xlink:href="#symbol4198"
               x="91.925003"
               y="81.962997"
               id="use1160"
               width="100%"
               height="100%" />
          </g>
          <g
             style="fill:#000000;fill-opacity:1"
             id="g7057">
            <use
               xlink:href="#symbol6192"
               x="98.012001"
               y="83.559998"
               id="use3464"
               width="100%"
               height="100%" />
          </g>
        </g>
      </g>
    </g>
  </g>
  <g
     inkscape:groupmode="layer"
     id="layer3"
     inkscape:label="gauss 1"
     style="display:inline" />
</svg>
