<?xml version="1.0" encoding="UTF-8" standalone="no"?>
<svg
   xmlns:dc="http://purl.org/dc/elements/1.1/"
   xmlns:cc="http://creativecommons.org/ns#"
   xmlns:rdf="http://www.w3.org/1999/02/22-rdf-syntax-ns#"
   xmlns:svg="http://www.w3.org/2000/svg"
   xmlns="http://www.w3.org/2000/svg"
   xmlns:sodipodi="http://sodipodi.sourceforge.net/DTD/sodipodi-0.dtd"
   xmlns:inkscape="http://www.inkscape.org/namespaces/inkscape"
   width="200mm"
   height="200mm"
   viewBox="0 0 200 200"
   version="1.1"
   id="svg8"
   sodipodi:docname="QCM_ligne2.svg"
   inkscape:version="1.0.1 (1.0.1+r75)">
  <sodipodi:namedview
     pagecolor="#ffffff"
     bordercolor="#666666"
     borderopacity="1"
     objecttolerance="10"
     gridtolerance="10"
     guidetolerance="10"
     inkscape:pageopacity="0"
     inkscape:pageshadow="2"
     inkscape:window-width="1920"
     inkscape:window-height="1052"
     id="namedview17093"
     showgrid="false"
     inkscape:zoom="0.82131926"
     inkscape:cx="94.488189"
     inkscape:cy="255.20523"
     inkscape:window-x="0"
     inkscape:window-y="0"
     inkscape:window-maximized="1"
     inkscape:current-layer="svg8" />
  <defs
     id="defs2">
    <marker
       style="overflow:visible"
       id="marker3849"
       refX="0"
       refY="0"
       orient="auto">
      <path
         transform="matrix(-0.2,0,0,-0.2,-1.2,0)"
         style="fill:#000000;fill-opacity:1;fill-rule:evenodd;stroke:#000000;stroke-width:1pt;stroke-opacity:1"
         d="M 0,0 5,-5 -12.5,0 5,5 Z"
         id="path3847" />
    </marker>
    <marker
       style="overflow:visible"
       id="marker3839"
       refX="0"
       refY="0"
       orient="auto">
      <path
         transform="matrix(-0.2,0,0,-0.2,-1.2,0)"
         style="fill:#000000;fill-opacity:1;fill-rule:evenodd;stroke:#000000;stroke-width:1pt;stroke-opacity:1"
         d="M 0,0 5,-5 -12.5,0 5,5 Z"
         id="path3837" />
    </marker>
    <marker
       style="overflow:visible"
       id="marker3829"
       refX="0"
       refY="0"
       orient="auto">
      <path
         transform="matrix(-0.2,0,0,-0.2,-1.2,0)"
         style="fill:#000000;fill-opacity:1;fill-rule:evenodd;stroke:#000000;stroke-width:1pt;stroke-opacity:1"
         d="M 0,0 5,-5 -12.5,0 5,5 Z"
         id="path3827" />
    </marker>
    <marker
       style="overflow:visible"
       id="marker3819"
       refX="0"
       refY="0"
       orient="auto">
      <path
         transform="matrix(-0.2,0,0,-0.2,-1.2,0)"
         style="fill:#000000;fill-opacity:1;fill-rule:evenodd;stroke:#000000;stroke-width:1pt;stroke-opacity:1"
         d="M 0,0 5,-5 -12.5,0 5,5 Z"
         id="path3817" />
    </marker>
    <marker
       style="overflow:visible"
       id="Arrow1Send"
       refX="0"
       refY="0"
       orient="auto">
      <path
         transform="matrix(-0.2,0,0,-0.2,-1.2,0)"
         style="fill:#000000;fill-opacity:1;fill-rule:evenodd;stroke:#000000;stroke-width:1pt;stroke-opacity:1"
         d="M 0,0 5,-5 -12.5,0 5,5 Z"
         id="path995" />
    </marker>
    <marker
       style="overflow:visible"
       id="marker1832"
       refX="0"
       refY="0"
       orient="auto">
      <path
         transform="matrix(-0.4,0,0,-0.4,-4,0)"
         style="fill:#000000;fill-opacity:1;fill-rule:evenodd;stroke:#000000;stroke-width:1pt;stroke-opacity:1"
         d="M 0,0 5,-5 -12.5,0 5,5 Z"
         id="path1830" />
    </marker>
    <marker
       style="overflow:visible"
       id="marker1724"
       refX="0"
       refY="0"
       orient="auto">
      <path
         transform="matrix(-0.4,0,0,-0.4,-4,0)"
         style="fill:#000000;fill-opacity:1;fill-rule:evenodd;stroke:#000000;stroke-width:1pt;stroke-opacity:1"
         d="M 0,0 5,-5 -12.5,0 5,5 Z"
         id="path1722" />
    </marker>
    <marker
       style="overflow:visible"
       id="marker1684"
       refX="0"
       refY="0"
       orient="auto">
      <path
         transform="matrix(-0.4,0,0,-0.4,-4,0)"
         style="fill:#000000;fill-opacity:1;fill-rule:evenodd;stroke:#000000;stroke-width:1pt;stroke-opacity:1"
         d="M 0,0 5,-5 -12.5,0 5,5 Z"
         id="path1682" />
    </marker>
    <rect
       x="18.271324"
       y="-12.837685"
       width="27.558987"
       height="12.320396"
       id="rect1645" />
    <rect
       x="12.036403"
       y="17.501204"
       width="6.6960154"
       height="3.5568137"
       id="rect969" />
    <rect
       x="5.0640655"
       y="3.3172786"
       width="16.374601"
       height="10.399507"
       id="rect989" />
    <rect
       x="10.655779"
       y="16.554337"
       width="5.5449176"
       height="2.0583928"
       id="rect1321" />
    <marker
       style="overflow:visible"
       id="Arrow1Mend"
       refX="0"
       refY="0"
       orient="auto">
      <path
         transform="matrix(-0.4,0,0,-0.4,-4,0)"
         style="fill:#007600;fill-opacity:1;fill-rule:evenodd;stroke:#007600;stroke-width:1pt;stroke-opacity:1"
         d="M 0,0 5,-5 -12.5,0 5,5 Z"
         id="path1034" />
    </marker>
    <rect
       x="8.4206839"
       y="12.286384"
       width="8.3540096"
       height="4.7584"
       id="rect980" />
    <rect
       x="17.553389"
       y="22.477051"
       width="9.6399002"
       height="5.3038745"
       id="rect909" />
    <rect
       x="17.553389"
       y="22.477051"
       width="9.6399002"
       height="5.3038745"
       id="rect909-6" />
    <rect
       x="17.553389"
       y="22.477051"
       width="9.6399002"
       height="5.3038745"
       id="rect925" />
    <rect
       x="8.4206839"
       y="12.286384"
       width="8.3540096"
       height="4.7584"
       id="rect980-9" />
    <rect
       x="8.4206839"
       y="12.286384"
       width="8.3540096"
       height="4.7584"
       id="rect996" />
    <rect
       x="8.4206839"
       y="12.286384"
       width="8.3540096"
       height="4.7584"
       id="rect980-3" />
    <rect
       x="8.4206839"
       y="12.286384"
       width="8.3540096"
       height="4.7584"
       id="rect1290" />
    <rect
       x="8.4206839"
       y="12.286384"
       width="8.3540096"
       height="4.7584"
       id="rect980-9-6" />
    <rect
       x="8.4206839"
       y="12.286384"
       width="8.3540096"
       height="4.7584"
       id="rect1293" />
    <rect
       x="17.553389"
       y="22.477051"
       width="9.6399002"
       height="5.3038745"
       id="rect909-3" />
    <rect
       x="17.553389"
       y="22.477051"
       width="9.6399002"
       height="5.3038745"
       id="rect1298" />
    <rect
       x="17.553389"
       y="22.477051"
       width="9.6399002"
       height="5.3038745"
       id="rect909-6-5" />
    <rect
       x="17.553389"
       y="22.477051"
       width="9.6399002"
       height="5.3038745"
       id="rect1301" />
    <rect
       x="18.271324"
       y="-12.837685"
       width="27.558987"
       height="12.320396"
       id="rect1645-8" />
    <rect
       x="18.271324"
       y="-12.837685"
       width="27.558987"
       height="12.320396"
       id="rect1658" />
    <rect
       x="8.4206839"
       y="12.286384"
       width="8.3540096"
       height="4.7584"
       id="rect980-92" />
    <rect
       x="8.4206839"
       y="12.286384"
       width="8.3540096"
       height="4.7584"
       id="rect2083" />
    <rect
       x="8.4206839"
       y="12.286384"
       width="8.3540096"
       height="4.7584"
       id="rect980-9-0" />
    <rect
       x="8.4206839"
       y="12.286384"
       width="8.3540096"
       height="4.7584"
       id="rect2086" />
    <marker
       style="overflow:visible"
       id="marker1946-2"
       refX="0"
       refY="0"
       orient="auto">
      <path
         transform="matrix(-0.2,0,0,-0.2,-1.2,0)"
         style="fill:#000000;fill-opacity:1;fill-rule:evenodd;stroke:#000000;stroke-width:1pt;stroke-opacity:1"
         d="M 0,0 5,-5 -12.5,0 5,5 Z"
         id="path1944-3" />
    </marker>
    <rect
       x="17.553389"
       y="22.477051"
       width="9.6399002"
       height="5.3038745"
       id="rect909-7" />
    <rect
       x="17.553389"
       y="22.477051"
       width="9.6399002"
       height="5.3038745"
       id="rect2091" />
    <rect
       x="17.553389"
       y="22.477051"
       width="9.6399002"
       height="5.3038745"
       id="rect909-6-59" />
    <rect
       x="17.553389"
       y="22.477051"
       width="9.6399002"
       height="5.3038745"
       id="rect2094" />
    <rect
       x="18.271324"
       y="-12.837685"
       width="27.558987"
       height="12.320396"
       id="rect1645-2" />
    <rect
       x="18.271324"
       y="-12.837685"
       width="27.558987"
       height="12.320396"
       id="rect2097" />
    <marker
       style="overflow:visible"
       id="Arrow1Send-2"
       refX="0"
       refY="0"
       orient="auto">
      <path
         transform="matrix(-0.2,0,0,-0.2,-1.2,0)"
         style="fill:#0000ce;fill-opacity:1;fill-rule:evenodd;stroke:#0000ce;stroke-width:1pt;stroke-opacity:1"
         d="M 0,0 5,-5 -12.5,0 5,5 Z"
         id="path995-8" />
    </marker>
    <g
       id="g8148">
      <symbol
         overflow="visible"
         id="symbol8787">
        <path
           style="stroke:none"
           d=""
           id="path2003" />
      </symbol>
      <symbol
         overflow="visible"
         id="symbol4407">
        <path
           style="stroke:none"
           d="m 3.84375,-4.5625 c -0.4375,-0.171875 -0.71875,-0.25 -1.015625,-0.25 -0.265625,0 -0.5,0.09375 -0.78125,0.25 C 1.6875,-4.34375 1.25,-3.984375 1.03125,-3.734375 c -0.40625,0.46875 -0.796875,1.9375 -0.796875,2.953125 0,0.59375 0.125,0.890625 0.359375,0.890625 C 0.8125,0.109375 1,0.03125 1.328125,-0.1875 L 1.40625,-0.25 C 2.046875,-0.703125 2.703125,-1.421875 3.078125,-2.078125 L 2.3125,2.046875 C 2.265625,2.28125 2.15625,2.484375 2.046875,2.609375 L 2.140625,2.75 C 2.4375,2.671875 2.75,2.609375 2.984375,2.578125 3.03125,2.046875 3.09375,1.5 3.1875,1 l 0.84375,-4.546875 c 0.109375,-0.609375 0.171875,-0.875 0.28125,-1.171875 l -0.140625,-0.0625 z m -0.546875,1.46875 c -0.109375,0.5 -0.34375,0.9375 -0.703125,1.40625 -0.515625,0.625 -1.125,1.09375 -1.421875,1.09375 -0.140625,0 -0.21875,-0.203125 -0.21875,-0.53125 0,-0.953125 0.4375,-2.453125 0.84375,-2.953125 0.125,-0.15625 0.421875,-0.234375 0.734375,-0.234375 0.28125,0 0.484375,0.0625 0.96875,0.265625 z m 0,0"
           id="path6541" />
      </symbol>
      <symbol
         overflow="visible"
         id="symbol6996">
        <path
           style="stroke:none"
           d=""
           id="path6512" />
      </symbol>
      <symbol
         overflow="visible"
         id="symbol8593">
        <path
           style="stroke:none"
           d="m 0.46875,-3.875 h 0.0625 L 1.4375,-4.265625 c 0,-0.015625 0.015625,-0.015625 0.015625,-0.015625 0.046875,0 0.0625,0.0625 0.0625,0.234375 v 3.375 c 0,0.359375 -0.078125,0.4375 -0.453125,0.46875 L 0.671875,-0.1875 V 0.015625 C 1.734375,0 1.734375,0 1.8125,0 1.90625,0 2.0625,0 2.296875,0 2.390625,0.015625 2.625,0.015625 2.90625,0.015625 V -0.1875 L 2.546875,-0.203125 C 2.171875,-0.234375 2.09375,-0.3125 2.09375,-0.671875 v -4.125 L 2,-4.84375 c -0.453125,0.25 -0.953125,0.453125 -1.578125,0.671875 z m 0,0"
           id="path8548" />
      </symbol>
    </g>
    <g
       id="g1892">
      <symbol
         overflow="visible"
         id="symbol5565">
        <path
           style="stroke:none"
           d=""
           id="path8208" />
      </symbol>
      <symbol
         overflow="visible"
         id="symbol2268">
        <path
           style="stroke:none"
           d="m 3.84375,-4.5625 c -0.4375,-0.171875 -0.71875,-0.25 -1.015625,-0.25 -0.265625,0 -0.5,0.09375 -0.78125,0.25 C 1.6875,-4.34375 1.25,-3.984375 1.03125,-3.734375 c -0.40625,0.46875 -0.796875,1.9375 -0.796875,2.953125 0,0.59375 0.125,0.890625 0.359375,0.890625 C 0.8125,0.109375 1,0.03125 1.328125,-0.1875 L 1.40625,-0.25 C 2.046875,-0.703125 2.703125,-1.421875 3.078125,-2.078125 L 2.3125,2.046875 C 2.265625,2.28125 2.15625,2.484375 2.046875,2.609375 L 2.140625,2.75 C 2.4375,2.671875 2.75,2.609375 2.984375,2.578125 3.03125,2.046875 3.09375,1.5 3.1875,1 l 0.84375,-4.546875 c 0.109375,-0.609375 0.171875,-0.875 0.28125,-1.171875 l -0.140625,-0.0625 z m -0.546875,1.46875 c -0.109375,0.5 -0.34375,0.9375 -0.703125,1.40625 -0.515625,0.625 -1.125,1.09375 -1.421875,1.09375 -0.140625,0 -0.21875,-0.203125 -0.21875,-0.53125 0,-0.953125 0.4375,-2.453125 0.84375,-2.953125 0.125,-0.15625 0.421875,-0.234375 0.734375,-0.234375 0.28125,0 0.484375,0.0625 0.96875,0.265625 z m 0,0"
           id="path6397" />
      </symbol>
      <symbol
         overflow="visible"
         id="symbol2132">
        <path
           style="stroke:none"
           d=""
           id="path7554" />
      </symbol>
      <symbol
         overflow="visible"
         id="symbol8420">
        <path
           style="stroke:none"
           d="m 0.46875,-3.875 h 0.0625 L 1.4375,-4.265625 c 0,-0.015625 0.015625,-0.015625 0.015625,-0.015625 0.046875,0 0.0625,0.0625 0.0625,0.234375 v 3.375 c 0,0.359375 -0.078125,0.4375 -0.453125,0.46875 L 0.671875,-0.1875 V 0.015625 C 1.734375,0 1.734375,0 1.8125,0 1.90625,0 2.0625,0 2.296875,0 2.390625,0.015625 2.625,0.015625 2.90625,0.015625 V -0.1875 L 2.546875,-0.203125 C 2.171875,-0.234375 2.09375,-0.3125 2.09375,-0.671875 v -4.125 L 2,-4.84375 c -0.453125,0.25 -0.953125,0.453125 -1.578125,0.671875 z m 0,0"
           id="path8702" />
      </symbol>
    </g>
    <g
       id="g9788">
      <symbol
         overflow="visible"
         id="symbol2983">
        <path
           style="stroke:none"
           d=""
           id="path7287" />
      </symbol>
      <symbol
         overflow="visible"
         id="symbol7632">
        <path
           style="stroke:none"
           d="m 3.84375,-4.5625 c -0.4375,-0.171875 -0.71875,-0.25 -1.015625,-0.25 -0.265625,0 -0.5,0.09375 -0.78125,0.25 C 1.6875,-4.34375 1.25,-3.984375 1.03125,-3.734375 c -0.40625,0.46875 -0.796875,1.9375 -0.796875,2.953125 0,0.59375 0.125,0.890625 0.359375,0.890625 C 0.8125,0.109375 1,0.03125 1.328125,-0.1875 L 1.40625,-0.25 C 2.046875,-0.703125 2.703125,-1.421875 3.078125,-2.078125 L 2.3125,2.046875 C 2.265625,2.28125 2.15625,2.484375 2.046875,2.609375 L 2.140625,2.75 C 2.4375,2.671875 2.75,2.609375 2.984375,2.578125 3.03125,2.046875 3.09375,1.5 3.1875,1 l 0.84375,-4.546875 c 0.109375,-0.609375 0.171875,-0.875 0.28125,-1.171875 l -0.140625,-0.0625 z m -0.546875,1.46875 c -0.109375,0.5 -0.34375,0.9375 -0.703125,1.40625 -0.515625,0.625 -1.125,1.09375 -1.421875,1.09375 -0.140625,0 -0.21875,-0.203125 -0.21875,-0.53125 0,-0.953125 0.4375,-2.453125 0.84375,-2.953125 0.125,-0.15625 0.421875,-0.234375 0.734375,-0.234375 0.28125,0 0.484375,0.0625 0.96875,0.265625 z m 0,0"
           id="path2942" />
      </symbol>
      <symbol
         overflow="visible"
         id="symbol8274">
        <path
           style="stroke:none"
           d=""
           id="path6414" />
      </symbol>
      <symbol
         overflow="visible"
         id="symbol8475">
        <path
           style="stroke:none"
           d="m 0.46875,-3.875 h 0.0625 L 1.4375,-4.265625 c 0,-0.015625 0.015625,-0.015625 0.015625,-0.015625 0.046875,0 0.0625,0.0625 0.0625,0.234375 v 3.375 c 0,0.359375 -0.078125,0.4375 -0.453125,0.46875 L 0.671875,-0.1875 V 0.015625 C 1.734375,0 1.734375,0 1.8125,0 1.90625,0 2.0625,0 2.296875,0 2.390625,0.015625 2.625,0.015625 2.90625,0.015625 V -0.1875 L 2.546875,-0.203125 C 2.171875,-0.234375 2.09375,-0.3125 2.09375,-0.671875 v -4.125 L 2,-4.84375 c -0.453125,0.25 -0.953125,0.453125 -1.578125,0.671875 z m 0,0"
           id="path665" />
      </symbol>
    </g>
    <g
       id="g3869">
      <symbol
         overflow="visible"
         id="symbol7197">
        <path
           style="stroke:none"
           d=""
           id="path651" />
      </symbol>
      <symbol
         overflow="visible"
         id="symbol1663">
        <path
           style="stroke:none"
           d="m 3.84375,-4.5625 c -0.4375,-0.171875 -0.71875,-0.25 -1.015625,-0.25 -0.265625,0 -0.5,0.09375 -0.78125,0.25 C 1.6875,-4.34375 1.25,-3.984375 1.03125,-3.734375 c -0.40625,0.46875 -0.796875,1.9375 -0.796875,2.953125 0,0.59375 0.125,0.890625 0.359375,0.890625 C 0.8125,0.109375 1,0.03125 1.328125,-0.1875 L 1.40625,-0.25 C 2.046875,-0.703125 2.703125,-1.421875 3.078125,-2.078125 L 2.3125,2.046875 C 2.265625,2.28125 2.15625,2.484375 2.046875,2.609375 L 2.140625,2.75 C 2.4375,2.671875 2.75,2.609375 2.984375,2.578125 3.03125,2.046875 3.09375,1.5 3.1875,1 l 0.84375,-4.546875 c 0.109375,-0.609375 0.171875,-0.875 0.28125,-1.171875 l -0.140625,-0.0625 z m -0.546875,1.46875 c -0.109375,0.5 -0.34375,0.9375 -0.703125,1.40625 -0.515625,0.625 -1.125,1.09375 -1.421875,1.09375 -0.140625,0 -0.21875,-0.203125 -0.21875,-0.53125 0,-0.953125 0.4375,-2.453125 0.84375,-2.953125 0.125,-0.15625 0.421875,-0.234375 0.734375,-0.234375 0.28125,0 0.484375,0.0625 0.96875,0.265625 z m 0,0"
           id="path7926" />
      </symbol>
      <symbol
         overflow="visible"
         id="symbol2208">
        <path
           style="stroke:none"
           d=""
           id="path4908" />
      </symbol>
      <symbol
         overflow="visible"
         id="symbol1237">
        <path
           style="stroke:none"
           d="m 0.46875,-3.875 h 0.0625 L 1.4375,-4.265625 c 0,-0.015625 0.015625,-0.015625 0.015625,-0.015625 0.046875,0 0.0625,0.0625 0.0625,0.234375 v 3.375 c 0,0.359375 -0.078125,0.4375 -0.453125,0.46875 L 0.671875,-0.1875 V 0.015625 C 1.734375,0 1.734375,0 1.8125,0 1.90625,0 2.0625,0 2.296875,0 2.390625,0.015625 2.625,0.015625 2.90625,0.015625 V -0.1875 L 2.546875,-0.203125 C 2.171875,-0.234375 2.09375,-0.3125 2.09375,-0.671875 v -4.125 L 2,-4.84375 c -0.453125,0.25 -0.953125,0.453125 -1.578125,0.671875 z m 0,0"
           id="path5338" />
      </symbol>
    </g>
    <g
       id="g7111">
      <symbol
         overflow="visible"
         id="symbol4214">
        <path
           style="stroke:none"
           d=""
           id="path5723" />
      </symbol>
      <symbol
         overflow="visible"
         id="symbol2108">
        <path
           style="stroke:none"
           d="m 3.84375,-4.5625 c -0.4375,-0.171875 -0.71875,-0.25 -1.015625,-0.25 -0.265625,0 -0.5,0.09375 -0.78125,0.25 C 1.6875,-4.34375 1.25,-3.984375 1.03125,-3.734375 c -0.40625,0.46875 -0.796875,1.9375 -0.796875,2.953125 0,0.59375 0.125,0.890625 0.359375,0.890625 C 0.8125,0.109375 1,0.03125 1.328125,-0.1875 L 1.40625,-0.25 C 2.046875,-0.703125 2.703125,-1.421875 3.078125,-2.078125 L 2.3125,2.046875 C 2.265625,2.28125 2.15625,2.484375 2.046875,2.609375 L 2.140625,2.75 C 2.4375,2.671875 2.75,2.609375 2.984375,2.578125 3.03125,2.046875 3.09375,1.5 3.1875,1 l 0.84375,-4.546875 c 0.109375,-0.609375 0.171875,-0.875 0.28125,-1.171875 l -0.140625,-0.0625 z m -0.546875,1.46875 c -0.109375,0.5 -0.34375,0.9375 -0.703125,1.40625 -0.515625,0.625 -1.125,1.09375 -1.421875,1.09375 -0.140625,0 -0.21875,-0.203125 -0.21875,-0.53125 0,-0.953125 0.4375,-2.453125 0.84375,-2.953125 0.125,-0.15625 0.421875,-0.234375 0.734375,-0.234375 0.28125,0 0.484375,0.0625 0.96875,0.265625 z m 0,0"
           id="path9918" />
      </symbol>
      <symbol
         overflow="visible"
         id="symbol2066">
        <path
           style="stroke:none"
           d=""
           id="path7223" />
      </symbol>
      <symbol
         overflow="visible"
         id="symbol9845">
        <path
           style="stroke:none"
           d="m 0.46875,-3.875 h 0.0625 L 1.4375,-4.265625 c 0,-0.015625 0.015625,-0.015625 0.015625,-0.015625 0.046875,0 0.0625,0.0625 0.0625,0.234375 v 3.375 c 0,0.359375 -0.078125,0.4375 -0.453125,0.46875 L 0.671875,-0.1875 V 0.015625 C 1.734375,0 1.734375,0 1.8125,0 1.90625,0 2.0625,0 2.296875,0 2.390625,0.015625 2.625,0.015625 2.90625,0.015625 V -0.1875 L 2.546875,-0.203125 C 2.171875,-0.234375 2.09375,-0.3125 2.09375,-0.671875 v -4.125 L 2,-4.84375 c -0.453125,0.25 -0.953125,0.453125 -1.578125,0.671875 z m 0,0"
           id="path3141" />
      </symbol>
    </g>
    <g
       id="g4135">
      <symbol
         overflow="visible"
         id="symbol6405">
        <path
           style="stroke:none"
           d=""
           id="path3448" />
      </symbol>
      <symbol
         overflow="visible"
         id="symbol2451">
        <path
           style="stroke:none"
           d="m 4,-4.703125 -0.09375,-0.09375 -0.328125,0.1875 C 3.171875,-4.765625 3,-4.8125 2.734375,-4.8125 c -0.28125,0 -0.484375,0.0625 -0.75,0.1875 -0.625,0.3125 -0.953125,0.609375 -1.203125,1.09375 -0.4375,0.890625 -0.734375,2.078125 -0.734375,2.859375 0,0.4375 0.140625,0.78125 0.328125,0.78125 0.21875,0 0.609375,-0.21875 0.984375,-0.5625 0.421875,-0.375 0.796875,-0.828125 1.34375,-1.578125 L 2.40625,-0.765625 c -0.03125,0.171875 -0.046875,0.34375 -0.046875,0.5 0,0.21875 0.078125,0.359375 0.234375,0.359375 0.234375,0 0.640625,-0.265625 1.453125,-0.9375 L 3.984375,-1.0625 C 3.921875,-1 3.890625,-0.984375 3.84375,-0.953125 3.53125,-0.671875 3.375,-0.59375 3.234375,-0.59375 c -0.09375,0 -0.15625,-0.078125 -0.15625,-0.21875 0,-0.0625 0,-0.078125 0.015625,-0.109375 z M 3.1875,-4.125 c -0.234375,1.078125 -0.421875,1.609375 -0.75,2.125 -0.578125,0.828125 -1.1875,1.40625 -1.5,1.40625 -0.125,0 -0.1875,-0.125 -0.1875,-0.390625 0,-0.640625 0.28125,-1.8125 0.640625,-2.609375 0.234375,-0.546875 0.46875,-0.71875 0.9375,-0.71875 0.234375,0 0.40625,0.03125 0.859375,0.1875 z m 0,0"
           id="path7128" />
      </symbol>
    </g>
    <g
       id="g1295">
      <symbol
         overflow="visible"
         id="symbol3928">
        <path
           style="stroke:none"
           d=""
           id="path2753" />
      </symbol>
      <symbol
         overflow="visible"
         id="symbol9208">
        <path
           style="stroke:none"
           d="m 3.84375,-4.5625 c -0.4375,-0.171875 -0.71875,-0.25 -1.015625,-0.25 -0.265625,0 -0.5,0.09375 -0.78125,0.25 C 1.6875,-4.34375 1.25,-3.984375 1.03125,-3.734375 c -0.40625,0.46875 -0.796875,1.9375 -0.796875,2.953125 0,0.59375 0.125,0.890625 0.359375,0.890625 C 0.8125,0.109375 1,0.03125 1.328125,-0.1875 L 1.40625,-0.25 C 2.046875,-0.703125 2.703125,-1.421875 3.078125,-2.078125 L 2.3125,2.046875 C 2.265625,2.28125 2.15625,2.484375 2.046875,2.609375 L 2.140625,2.75 C 2.4375,2.671875 2.75,2.609375 2.984375,2.578125 3.03125,2.046875 3.09375,1.5 3.1875,1 l 0.84375,-4.546875 c 0.109375,-0.609375 0.171875,-0.875 0.28125,-1.171875 l -0.140625,-0.0625 z m -0.546875,1.46875 c -0.109375,0.5 -0.34375,0.9375 -0.703125,1.40625 -0.515625,0.625 -1.125,1.09375 -1.421875,1.09375 -0.140625,0 -0.21875,-0.203125 -0.21875,-0.53125 0,-0.953125 0.4375,-2.453125 0.84375,-2.953125 0.125,-0.15625 0.421875,-0.234375 0.734375,-0.234375 0.28125,0 0.484375,0.0625 0.96875,0.265625 z m 0,0"
           id="path5474" />
      </symbol>
      <symbol
         overflow="visible"
         id="symbol5293">
        <path
           style="stroke:none"
           d=""
           id="path3009" />
      </symbol>
      <symbol
         overflow="visible"
         id="symbol5279">
        <path
           style="stroke:none"
           d="m 0.46875,-3.875 h 0.0625 L 1.4375,-4.265625 c 0,-0.015625 0.015625,-0.015625 0.015625,-0.015625 0.046875,0 0.0625,0.0625 0.0625,0.234375 v 3.375 c 0,0.359375 -0.078125,0.4375 -0.453125,0.46875 L 0.671875,-0.1875 V 0.015625 C 1.734375,0 1.734375,0 1.8125,0 1.90625,0 2.0625,0 2.296875,0 2.390625,0.015625 2.625,0.015625 2.90625,0.015625 V -0.1875 L 2.546875,-0.203125 C 2.171875,-0.234375 2.09375,-0.3125 2.09375,-0.671875 v -4.125 L 2,-4.84375 c -0.453125,0.25 -0.953125,0.453125 -1.578125,0.671875 z m 0,0"
           id="path7075" />
      </symbol>
    </g>
    <g
       id="g4351">
      <symbol
         overflow="visible"
         id="symbol5765">
        <path
           style="stroke:none"
           d=""
           id="path940" />
      </symbol>
      <symbol
         overflow="visible"
         id="symbol8701">
        <path
           style="stroke:none"
           d="m 3.84375,-4.5625 c -0.4375,-0.171875 -0.71875,-0.25 -1.015625,-0.25 -0.265625,0 -0.5,0.09375 -0.78125,0.25 C 1.6875,-4.34375 1.25,-3.984375 1.03125,-3.734375 c -0.40625,0.46875 -0.796875,1.9375 -0.796875,2.953125 0,0.59375 0.125,0.890625 0.359375,0.890625 C 0.8125,0.109375 1,0.03125 1.328125,-0.1875 L 1.40625,-0.25 C 2.046875,-0.703125 2.703125,-1.421875 3.078125,-2.078125 L 2.3125,2.046875 C 2.265625,2.28125 2.15625,2.484375 2.046875,2.609375 L 2.140625,2.75 C 2.4375,2.671875 2.75,2.609375 2.984375,2.578125 3.03125,2.046875 3.09375,1.5 3.1875,1 l 0.84375,-4.546875 c 0.109375,-0.609375 0.171875,-0.875 0.28125,-1.171875 l -0.140625,-0.0625 z m -0.546875,1.46875 c -0.109375,0.5 -0.34375,0.9375 -0.703125,1.40625 -0.515625,0.625 -1.125,1.09375 -1.421875,1.09375 -0.140625,0 -0.21875,-0.203125 -0.21875,-0.53125 0,-0.953125 0.4375,-2.453125 0.84375,-2.953125 0.125,-0.15625 0.421875,-0.234375 0.734375,-0.234375 0.28125,0 0.484375,0.0625 0.96875,0.265625 z m 0,0"
           id="path5821" />
      </symbol>
      <symbol
         overflow="visible"
         id="symbol9381">
        <path
           style="stroke:none"
           d=""
           id="path1190" />
      </symbol>
      <symbol
         overflow="visible"
         id="symbol9361">
        <path
           style="stroke:none"
           d="M 0.109375,-0.15625 V 0.015625 C 1.421875,0 1.421875,0 1.671875,0 c 0.25,0 0.25,0 1.59375,0.015625 C 3.25,-0.125 3.25,-0.1875 3.25,-0.296875 c 0,-0.09375 0,-0.15625 0.015625,-0.3125 -0.8125,0.03125 -1.125,0.046875 -2.421875,0.078125 L 2.125,-1.875 C 2.796875,-2.59375 3,-2.984375 3,-3.5 3,-4.3125 2.453125,-4.796875 1.578125,-4.796875 c -0.5,0 -0.84375,0.140625 -1.1875,0.484375 l -0.125,0.953125 H 0.46875 L 0.5625,-3.6875 c 0.109375,-0.40625 0.359375,-0.578125 0.828125,-0.578125 0.609375,0 0.984375,0.375 0.984375,0.96875 0,0.515625 -0.296875,1.03125 -1.078125,1.875 z m 0,0"
           id="path7644" />
      </symbol>
    </g>
    <g
       id="g3629">
      <symbol
         overflow="visible"
         id="symbol8497">
        <path
           style="stroke:none"
           d=""
           id="path6359" />
      </symbol>
      <symbol
         overflow="visible"
         id="symbol328">
        <path
           style="stroke:none"
           d="M 9.34375,-6.625 9.375,-6.890625 H 9.09375 C 8.8125,-6.875 8.65625,-6.875 8.53125,-6.875 H 8.296875 l -0.59375,-0.015625 -0.15625,0.296875 c -0.265625,0.515625 -0.453125,0.859375 -0.6875,1.25 l -2.453125,4.203125 -1.5,-5.75 H 2.625 C 2.359375,-6.875 2.203125,-6.875 2.078125,-6.875 h -0.25 L 1.25,-6.890625 1.21875,-6.625 l 0.25,0.03125 C 2,-6.5625 2.171875,-6.453125 2.171875,-6.203125 c 0,0.0625 -0.015625,0.125 -0.03125,0.203125 l -1.4375,5.078125 c -0.171875,0.515625 -0.3125,0.640625 -0.859375,0.6875 L -0.1875,0.03125 0.203125,0.015625 C 0.53125,0.015625 0.78125,0 0.921875,0 c 0.140625,0 0.40625,0.015625 0.75,0.015625 L 2.03125,0.03125 2.046875,-0.25 1.671875,-0.28125 C 1.359375,-0.296875 1.1875,-0.40625 1.1875,-0.546875 c 0,-0.09375 0.015625,-0.234375 0.0625,-0.40625 l 1.25,-4.625 1.484375,5.75 h 0.21875 l 0.578125,-1.03125 c 0.765625,-1.40625 1.703125,-3.015625 2.375,-4.125 l 0.515625,-0.875 -0.359375,5.1875 C 7.265625,-0.390625 7.140625,-0.3125 6.640625,-0.28125 L 6.328125,-0.25 6.296875,0.03125 6.765625,0.015625 C 7.1875,0.015625 7.484375,0 7.640625,0 7.796875,0 8.09375,0.015625 8.5,0.015625 L 8.96875,0.03125 8.984375,-0.25 8.625,-0.28125 C 8.265625,-0.3125 8.078125,-0.421875 8.078125,-0.625 L 8.09375,-1 8.5,-6.296875 c 0.015625,-0.1875 0.171875,-0.28125 0.46875,-0.296875 z m 0,0"
           id="path490" />
      </symbol>
      <symbol
         overflow="visible"
         id="symbol2844">
        <path
           style="stroke:none"
           d=""
           id="path9886" />
      </symbol>
      <symbol
         overflow="visible"
         id="symbol9556">
        <path
           style="stroke:none"
           d="M 0.109375,-0.15625 V 0.015625 C 1.421875,0 1.421875,0 1.671875,0 c 0.25,0 0.25,0 1.59375,0.015625 C 3.25,-0.125 3.25,-0.1875 3.25,-0.296875 c 0,-0.09375 0,-0.15625 0.015625,-0.3125 -0.8125,0.03125 -1.125,0.046875 -2.421875,0.078125 L 2.125,-1.875 C 2.796875,-2.59375 3,-2.984375 3,-3.5 3,-4.3125 2.453125,-4.796875 1.578125,-4.796875 c -0.5,0 -0.84375,0.140625 -1.1875,0.484375 l -0.125,0.953125 H 0.46875 L 0.5625,-3.6875 c 0.109375,-0.40625 0.359375,-0.578125 0.828125,-0.578125 0.609375,0 0.984375,0.375 0.984375,0.96875 0,0.515625 -0.296875,1.03125 -1.078125,1.875 z m 0,0"
           id="path969" />
      </symbol>
    </g>
    <g
       id="g8895">
      <symbol
         overflow="visible"
         id="symbol3431">
        <path
           style="stroke:none"
           d=""
           id="path4216" />
      </symbol>
      <symbol
         overflow="visible"
         id="symbol2010">
        <path
           style="stroke:none"
           d="M 9.34375,-6.625 9.375,-6.890625 H 9.09375 C 8.8125,-6.875 8.65625,-6.875 8.53125,-6.875 H 8.296875 l -0.59375,-0.015625 -0.15625,0.296875 c -0.265625,0.515625 -0.453125,0.859375 -0.6875,1.25 l -2.453125,4.203125 -1.5,-5.75 H 2.625 C 2.359375,-6.875 2.203125,-6.875 2.078125,-6.875 h -0.25 L 1.25,-6.890625 1.21875,-6.625 l 0.25,0.03125 C 2,-6.5625 2.171875,-6.453125 2.171875,-6.203125 c 0,0.0625 -0.015625,0.125 -0.03125,0.203125 l -1.4375,5.078125 c -0.171875,0.515625 -0.3125,0.640625 -0.859375,0.6875 L -0.1875,0.03125 0.203125,0.015625 C 0.53125,0.015625 0.78125,0 0.921875,0 c 0.140625,0 0.40625,0.015625 0.75,0.015625 L 2.03125,0.03125 2.046875,-0.25 1.671875,-0.28125 C 1.359375,-0.296875 1.1875,-0.40625 1.1875,-0.546875 c 0,-0.09375 0.015625,-0.234375 0.0625,-0.40625 l 1.25,-4.625 1.484375,5.75 h 0.21875 l 0.578125,-1.03125 c 0.765625,-1.40625 1.703125,-3.015625 2.375,-4.125 l 0.515625,-0.875 -0.359375,5.1875 C 7.265625,-0.390625 7.140625,-0.3125 6.640625,-0.28125 L 6.328125,-0.25 6.296875,0.03125 6.765625,0.015625 C 7.1875,0.015625 7.484375,0 7.640625,0 7.796875,0 8.09375,0.015625 8.5,0.015625 L 8.96875,0.03125 8.984375,-0.25 8.625,-0.28125 C 8.265625,-0.3125 8.078125,-0.421875 8.078125,-0.625 L 8.09375,-1 8.5,-6.296875 c 0.015625,-0.1875 0.171875,-0.28125 0.46875,-0.296875 z m 0,0"
           id="path7922" />
      </symbol>
      <symbol
         overflow="visible"
         id="symbol5710">
        <path
           style="stroke:none"
           d=""
           id="path1150" />
      </symbol>
      <symbol
         overflow="visible"
         id="symbol4760">
        <path
           style="stroke:none"
           d="m 0.46875,-3.875 h 0.0625 L 1.4375,-4.265625 c 0,-0.015625 0.015625,-0.015625 0.015625,-0.015625 0.046875,0 0.0625,0.0625 0.0625,0.234375 v 3.375 c 0,0.359375 -0.078125,0.4375 -0.453125,0.46875 L 0.671875,-0.1875 V 0.015625 C 1.734375,0 1.734375,0 1.8125,0 1.90625,0 2.0625,0 2.296875,0 2.390625,0.015625 2.625,0.015625 2.90625,0.015625 V -0.1875 L 2.546875,-0.203125 C 2.171875,-0.234375 2.09375,-0.3125 2.09375,-0.671875 v -4.125 L 2,-4.84375 c -0.453125,0.25 -0.953125,0.453125 -1.578125,0.671875 z m 0,0"
           id="path5903" />
      </symbol>
    </g>
    <g
       id="g6031">
      <symbol
         overflow="visible"
         id="symbol7459">
        <path
           style="stroke:none"
           d=""
           id="path6757" />
      </symbol>
      <symbol
         overflow="visible"
         id="symbol8672">
        <path
           style="stroke:none"
           d="M 9.34375,-6.625 9.375,-6.890625 H 9.09375 C 8.8125,-6.875 8.65625,-6.875 8.53125,-6.875 H 8.296875 l -0.59375,-0.015625 -0.15625,0.296875 c -0.265625,0.515625 -0.453125,0.859375 -0.6875,1.25 l -2.453125,4.203125 -1.5,-5.75 H 2.625 C 2.359375,-6.875 2.203125,-6.875 2.078125,-6.875 h -0.25 L 1.25,-6.890625 1.21875,-6.625 l 0.25,0.03125 C 2,-6.5625 2.171875,-6.453125 2.171875,-6.203125 c 0,0.0625 -0.015625,0.125 -0.03125,0.203125 l -1.4375,5.078125 c -0.171875,0.515625 -0.3125,0.640625 -0.859375,0.6875 L -0.1875,0.03125 0.203125,0.015625 C 0.53125,0.015625 0.78125,0 0.921875,0 c 0.140625,0 0.40625,0.015625 0.75,0.015625 L 2.03125,0.03125 2.046875,-0.25 1.671875,-0.28125 C 1.359375,-0.296875 1.1875,-0.40625 1.1875,-0.546875 c 0,-0.09375 0.015625,-0.234375 0.0625,-0.40625 l 1.25,-4.625 1.484375,5.75 h 0.21875 l 0.578125,-1.03125 c 0.765625,-1.40625 1.703125,-3.015625 2.375,-4.125 l 0.515625,-0.875 -0.359375,5.1875 C 7.265625,-0.390625 7.140625,-0.3125 6.640625,-0.28125 L 6.328125,-0.25 6.296875,0.03125 6.765625,0.015625 C 7.1875,0.015625 7.484375,0 7.640625,0 7.796875,0 8.09375,0.015625 8.5,0.015625 L 8.96875,0.03125 8.984375,-0.25 8.625,-0.28125 C 8.265625,-0.3125 8.078125,-0.421875 8.078125,-0.625 L 8.09375,-1 8.5,-6.296875 c 0.015625,-0.1875 0.171875,-0.28125 0.46875,-0.296875 z m 0,0"
           id="path5236" />
      </symbol>
      <symbol
         overflow="visible"
         id="symbol5423">
        <path
           style="stroke:none"
           d=""
           id="path8178" />
      </symbol>
      <symbol
         overflow="visible"
         id="symbol3244">
        <path
           style="stroke:none"
           d="m 0.46875,-3.875 h 0.0625 L 1.4375,-4.265625 c 0,-0.015625 0.015625,-0.015625 0.015625,-0.015625 0.046875,0 0.0625,0.0625 0.0625,0.234375 v 3.375 c 0,0.359375 -0.078125,0.4375 -0.453125,0.46875 L 0.671875,-0.1875 V 0.015625 C 1.734375,0 1.734375,0 1.8125,0 1.90625,0 2.0625,0 2.296875,0 2.390625,0.015625 2.625,0.015625 2.90625,0.015625 V -0.1875 L 2.546875,-0.203125 C 2.171875,-0.234375 2.09375,-0.3125 2.09375,-0.671875 v -4.125 L 2,-4.84375 c -0.453125,0.25 -0.953125,0.453125 -1.578125,0.671875 z m 0,0"
           id="path6458" />
      </symbol>
    </g>
    <g
       id="g2827">
      <symbol
         overflow="visible"
         id="symbol8285">
        <path
           style="stroke:none"
           d=""
           id="path6088" />
      </symbol>
      <symbol
         overflow="visible"
         id="symbol2005">
        <path
           style="stroke:none"
           d="m 2.84375,-6.4375 1.0625,-0.046875 c 0.625,0 1.015625,0.09375 1.03125,0.25 l 0.078125,0.875 H 5.25 c 0.03125,-0.625 0.109375,-1.125 0.21875,-1.515625 C 5.25,-6.890625 4.96875,-6.890625 4.796875,-6.890625 H 4.390625 L 2.734375,-6.875 h -0.28125 c -0.25,0 -0.65625,0 -1.03125,-0.015625 H 0.9375 L 0.90625,-6.625 l 0.5625,0.03125 c 0.234375,0 0.34375,0.09375 0.34375,0.265625 0,0.140625 -0.03125,0.453125 -0.09375,0.75 L 0.984375,-1.25 C 0.8125,-0.328125 0.8125,-0.3125 0.40625,-0.28125 L 0.046875,-0.25 0,0.03125 0.34375,0.015625 C 0.734375,0.015625 1.0625,0 1.265625,0 1.453125,0 1.734375,0.015625 2.125,0.015625 L 2.640625,0.03125 2.671875,-0.25 2.03125,-0.28125 C 1.765625,-0.296875 1.671875,-0.375 1.671875,-0.5625 1.671875,-0.625 1.6875,-0.734375 1.6875,-0.78125 L 2.046875,-3 H 3.21875 c 0.265625,0 0.578125,0.015625 1.0625,0.03125 l 0.25,0.015625 L 4.71875,-3.40625 4.6875,-3.484375 C 3.875,-3.4375 3.28125,-3.421875 2.5,-3.421875 H 2.140625 L 2.59375,-6.125 C 2.625,-6.28125 2.625,-6.328125 2.6875,-6.4375 Z m 0,0"
           id="path9089" />
      </symbol>
      <symbol
         overflow="visible"
         id="symbol4576">
        <path
           style="stroke:none"
           d=""
           id="path1815" />
      </symbol>
      <symbol
         overflow="visible"
         id="symbol5844">
        <path
           style="stroke:none"
           d="m 0.46875,-3.875 h 0.0625 L 1.4375,-4.265625 c 0,-0.015625 0.015625,-0.015625 0.015625,-0.015625 0.046875,0 0.0625,0.0625 0.0625,0.234375 v 3.375 c 0,0.359375 -0.078125,0.4375 -0.453125,0.46875 L 0.671875,-0.1875 V 0.015625 C 1.734375,0 1.734375,0 1.8125,0 1.90625,0 2.0625,0 2.296875,0 2.390625,0.015625 2.625,0.015625 2.90625,0.015625 V -0.1875 L 2.546875,-0.203125 C 2.171875,-0.234375 2.09375,-0.3125 2.09375,-0.671875 v -4.125 L 2,-4.84375 c -0.453125,0.25 -0.953125,0.453125 -1.578125,0.671875 z m 0,0"
           id="path8846" />
      </symbol>
      <symbol
         overflow="visible"
         id="symbol479">
        <path
           style="stroke:none"
           d="M 0.109375,-0.15625 V 0.015625 C 1.421875,0 1.421875,0 1.671875,0 c 0.25,0 0.25,0 1.59375,0.015625 C 3.25,-0.125 3.25,-0.1875 3.25,-0.296875 c 0,-0.09375 0,-0.15625 0.015625,-0.3125 -0.8125,0.03125 -1.125,0.046875 -2.421875,0.078125 L 2.125,-1.875 C 2.796875,-2.59375 3,-2.984375 3,-3.5 3,-4.3125 2.453125,-4.796875 1.578125,-4.796875 c -0.5,0 -0.84375,0.140625 -1.1875,0.484375 l -0.125,0.953125 H 0.46875 L 0.5625,-3.6875 c 0.109375,-0.40625 0.359375,-0.578125 0.828125,-0.578125 0.609375,0 0.984375,0.375 0.984375,0.96875 0,0.515625 -0.296875,1.03125 -1.078125,1.875 z m 0,0"
           id="path4488" />
      </symbol>
      <symbol
         overflow="visible"
         id="symbol9194">
        <path
           style="stroke:none"
           d=""
           id="path4899" />
      </symbol>
      <symbol
         overflow="visible"
         id="symbol837">
        <path
           style="stroke:none"
           d="m 6.609375,-1.890625 -1.4375,-1.5 -0.21875,0.234375 0.875,1.0625 h -5.375 v 0.421875 h 5.375 l -0.875,1.046875 0.21875,0.234375 z m 0,0"
           id="path7486" />
      </symbol>
    </g>
    <g
       id="g5019">
      <symbol
         overflow="visible"
         id="symbol2646">
        <path
           style="stroke:none"
           d=""
           id="path4818" />
      </symbol>
      <symbol
         overflow="visible"
         id="symbol5184">
        <path
           style="stroke:none"
           d="m 2.53125,-6.1875 c 0.484375,-0.015625 0.8125,-0.015625 1.15625,-0.015625 0.671875,0 1.09375,0.0625 1.109375,0.1875 L 4.875,-5.28125 H 5.234375 L 5.375,-6.6875 5.3125,-6.765625 C 4.9375,-6.78125 4.75,-6.796875 4.359375,-6.796875 c -0.21875,0 -0.59375,0.015625 -1.40625,0.03125 -0.453125,0 -0.703125,0 -0.90625,0 -0.28125,0 -0.28125,0 -1.765625,-0.015625 v 0.359375 l 0.359375,0.03125 C 1.09375,-6.34375 1.125,-6.296875 1.125,-5.40625 v 4.0625 c 0,0.890625 -0.015625,0.90625 -0.484375,0.9375 L 0.28125,-0.375 V 0.03125 C 1.484375,0 1.484375,0 1.828125,0 c 0.3125,0 0.3125,0 1.65625,0.03125 V -0.375 L 3.015625,-0.40625 C 2.546875,-0.421875 2.53125,-0.46875 2.53125,-1.34375 v -1.859375 c 0.28125,-0.03125 0.453125,-0.03125 0.671875,-0.03125 h 0.5 C 4.09375,-3.234375 4.25,-3.125 4.28125,-2.875 l 0.0625,0.5 h 0.390625 l -0.03125,-1.078125 c 0,-0.109375 0,-0.25 0.03125,-1.015625 H 4.34375 l -0.0625,0.515625 C 4.25,-3.78125 4.125,-3.734375 3.703125,-3.734375 h -0.5 c -0.328125,0 -0.46875,0 -0.671875,-0.03125 z m 0,0"
           id="path5158" />
      </symbol>
      <symbol
         overflow="visible"
         id="symbol4126">
        <path
           style="stroke:none"
           d=""
           id="path3207" />
      </symbol>
      <symbol
         overflow="visible"
         id="symbol3196">
        <path
           style="stroke:none"
           d="m 0.46875,-3.875 h 0.0625 L 1.4375,-4.265625 c 0,-0.015625 0.015625,-0.015625 0.015625,-0.015625 0.046875,0 0.0625,0.0625 0.0625,0.234375 v 3.375 c 0,0.359375 -0.078125,0.4375 -0.453125,0.46875 L 0.671875,-0.1875 V 0.015625 C 1.734375,0 1.734375,0 1.8125,0 1.90625,0 2.0625,0 2.296875,0 2.390625,0.015625 2.625,0.015625 2.90625,0.015625 V -0.1875 L 2.546875,-0.203125 C 2.171875,-0.234375 2.09375,-0.3125 2.09375,-0.671875 v -4.125 L 2,-4.84375 c -0.453125,0.25 -0.953125,0.453125 -1.578125,0.671875 z m 0,0"
           id="path4851" />
      </symbol>
      <symbol
         overflow="visible"
         id="symbol5580">
        <path
           style="stroke:none"
           d="M 0.109375,-0.15625 V 0.015625 C 1.421875,0 1.421875,0 1.671875,0 c 0.25,0 0.25,0 1.59375,0.015625 C 3.25,-0.125 3.25,-0.1875 3.25,-0.296875 c 0,-0.09375 0,-0.15625 0.015625,-0.3125 -0.8125,0.03125 -1.125,0.046875 -2.421875,0.078125 L 2.125,-1.875 C 2.796875,-2.59375 3,-2.984375 3,-3.5 3,-4.3125 2.453125,-4.796875 1.578125,-4.796875 c -0.5,0 -0.84375,0.140625 -1.1875,0.484375 l -0.125,0.953125 H 0.46875 L 0.5625,-3.6875 c 0.109375,-0.40625 0.359375,-0.578125 0.828125,-0.578125 0.609375,0 0.984375,0.375 0.984375,0.96875 0,0.515625 -0.296875,1.03125 -1.078125,1.875 z m 0,0"
           id="path2577" />
      </symbol>
      <symbol
         overflow="visible"
         id="symbol6841">
        <path
           style="stroke:none"
           d=""
           id="path5056" />
      </symbol>
      <symbol
         overflow="visible"
         id="symbol5368">
        <path
           style="stroke:none"
           d="m 6.609375,-1.890625 -1.4375,-1.5 -0.21875,0.234375 0.875,1.0625 h -5.375 v 0.421875 h 5.375 l -0.875,1.046875 0.21875,0.234375 z m 0,0"
           id="path4805" />
      </symbol>
    </g>
    <marker
       style="overflow:visible"
       id="marker1946-8"
       refX="0"
       refY="0"
       orient="auto">
      <path
         transform="matrix(-0.2,0,0,-0.2,-1.2,0)"
         style="fill:#000000;fill-opacity:1;fill-rule:evenodd;stroke:#000000;stroke-width:1pt;stroke-opacity:1"
         d="M 0,0 5,-5 -12.5,0 5,5 Z"
         id="path1944-5" />
    </marker>
    <marker
       style="overflow:visible"
       id="Arrow1Send-9"
       refX="0"
       refY="0"
       orient="auto">
      <path
         transform="matrix(-0.2,0,0,-0.2,-1.2,0)"
         style="fill:#0000ce;fill-opacity:1;fill-rule:evenodd;stroke:#0000ce;stroke-width:1pt;stroke-opacity:1"
         d="M 0,0 5,-5 -12.5,0 5,5 Z"
         id="path995-2" />
    </marker>
    <g
       id="g9719">
      <symbol
         overflow="visible"
         id="symbol6626">
        <path
           style="stroke:none"
           d=""
           id="path5423" />
      </symbol>
      <symbol
         overflow="visible"
         id="symbol1968">
        <path
           style="stroke:none"
           d="m 4.59375,-2.9375 c 0,-1.0625 -0.75,-1.75 -1.875,-1.75 -0.359375,0 -0.609375,0.0625 -0.890625,0.21875 l -0.46875,0.28125 c -0.65625,0.390625 -0.9375,0.984375 -0.9375,1.9375 0,1.578125 0.796875,2.421875 2.28125,2.421875 0.5625,0 0.9375,-0.109375 1.578125,-0.4375 L 4.5,-0.734375 4.375,-0.890625 C 3.90625,-0.625 3.609375,-0.53125 3.203125,-0.53125 c -0.515625,0 -1,-0.28125 -1.25,-0.71875 -0.15625,-0.28125 -0.21875,-0.5 -0.234375,-0.96875 h 1.296875 c 0.578125,0 1.015625,-0.0625 1.578125,-0.203125 z M 2.5,-2.71875 H 2.453125 c -0.0625,0 -0.328125,-0.015625 -0.484375,-0.015625 L 1.65625,-2.75 C 1.6875,-3.734375 1.921875,-4.140625 2.5,-4.140625 c 0.578125,0 0.8125,0.40625 0.828125,1.390625 z m 0,0"
           id="path2931" />
      </symbol>
      <symbol
         overflow="visible"
         id="symbol4092">
        <path
           style="stroke:none"
           d=""
           id="path7681" />
      </symbol>
      <symbol
         overflow="visible"
         id="symbol8453">
        <path
           style="stroke:none"
           d="M 6.53125,-4.625 6.546875,-4.828125 6.359375,-4.8125 C 6.15625,-4.796875 6.0625,-4.796875 5.96875,-4.796875 H 5.796875 l -0.40625,-0.03125 -0.109375,0.21875 c -0.1875,0.359375 -0.328125,0.59375 -0.484375,0.875 l -1.71875,2.9375 L 2.03125,-4.828125 1.84375,-4.8125 C 1.640625,-4.796875 1.546875,-4.796875 1.453125,-4.796875 H 1.28125 L 0.875,-4.828125 0.84375,-4.625 l 0.1875,0.015625 c 0.359375,0.03125 0.484375,0.09375 0.484375,0.28125 0,0.03125 0,0.078125 -0.015625,0.140625 L 0.484375,-0.640625 C 0.375,-0.28125 0.265625,-0.1875 -0.109375,-0.15625 L -0.125,0.015625 H 0.140625 C 0.375,0 0.546875,0 0.640625,0 0.75,0 0.921875,0 1.171875,0.015625 h 0.25 L 1.4375,-0.171875 1.171875,-0.1875 c -0.21875,-0.015625 -0.34375,-0.09375 -0.34375,-0.203125 0,-0.0625 0.015625,-0.15625 0.046875,-0.28125 L 1.734375,-3.90625 2.78125,0.125 H 2.9375 L 3.34375,-0.59375 C 3.875,-1.578125 4.53125,-2.703125 5,-3.484375 l 0.359375,-0.609375 -0.25,3.625 C 5.078125,-0.265625 5,-0.21875 4.640625,-0.1875 l -0.21875,0.015625 -0.015625,0.1875 H 4.734375 C 5.03125,0 5.234375,0 5.34375,0 5.453125,0 5.65625,0 5.9375,0.015625 h 0.328125 l 0.015625,-0.1875 -0.25,-0.015625 c -0.25,-0.03125 -0.375,-0.109375 -0.375,-0.25 v -0.265625 l 0.28125,-3.6875 c 0.015625,-0.140625 0.125,-0.203125 0.328125,-0.21875 z m 0,0"
           id="path7806" />
      </symbol>
      <symbol
         overflow="visible"
         id="symbol3725">
        <path
           style="stroke:none"
           d=""
           id="path2749" />
      </symbol>
      <symbol
         overflow="visible"
         id="symbol4169">
        <path
           style="stroke:none"
           d="m 0.328125,-2.765625 h 0.0625 L 1.03125,-3.0625 c 0,0 0,0 0.015625,0 0.03125,0 0.03125,0.046875 0.03125,0.171875 v 2.40625 c 0,0.265625 -0.046875,0.3125 -0.328125,0.328125 l -0.265625,0.015625 v 0.15625 C 1.25,0 1.25,0 1.296875,0 c 0.0625,0 0.171875,0 0.34375,0 0.0625,0.015625 0.234375,0.015625 0.4375,0.015625 v -0.15625 l -0.25,-0.015625 C 1.546875,-0.171875 1.5,-0.21875 1.5,-0.484375 V -3.4375 L 1.4375,-3.453125 c -0.328125,0.15625 -0.6875,0.3125 -1.140625,0.46875 z m 0,0"
           id="path1317" />
      </symbol>
      <symbol
         overflow="visible"
         id="symbol7185">
        <path
           style="stroke:none"
           d="m 0.078125,-0.109375 v 0.125 C 1.015625,0 1.015625,0 1.1875,0 1.375,0 1.375,0 2.328125,0.015625 c 0,-0.109375 0,-0.15625 0,-0.21875 0,-0.078125 0,-0.125 0,-0.234375 -0.5625,0.03125 -0.796875,0.03125 -1.71875,0.046875 L 1.515625,-1.34375 C 2,-1.859375 2.140625,-2.140625 2.140625,-2.5 c 0,-0.578125 -0.375,-0.9375 -1.015625,-0.9375 -0.359375,0 -0.609375,0.109375 -0.84375,0.359375 L 0.1875,-2.40625 h 0.15625 l 0.0625,-0.234375 c 0.078125,-0.28125 0.25,-0.40625 0.59375,-0.40625 0.421875,0 0.703125,0.265625 0.703125,0.6875 0,0.375 -0.21875,0.75 -0.78125,1.34375 z m 0,0"
           id="path7860" />
      </symbol>
    </g>
    <marker
       style="overflow:visible"
       id="Arrow1Send-3"
       refX="0"
       refY="0"
       orient="auto">
      <path
         transform="matrix(-0.2,0,0,-0.2,-1.2,0)"
         style="fill:#000000;fill-opacity:1;fill-rule:evenodd;stroke:#000000;stroke-width:1pt;stroke-opacity:1"
         d="M 0,0 5,-5 -12.5,0 5,5 Z"
         id="path995-6" />
    </marker>
    <marker
       style="overflow:visible"
       id="marker1946-7"
       refX="0"
       refY="0"
       orient="auto">
      <path
         transform="matrix(-0.2,0,0,-0.2,-1.2,0)"
         style="fill:#000000;fill-opacity:1;fill-rule:evenodd;stroke:#000000;stroke-width:1pt;stroke-opacity:1"
         d="M 0,0 5,-5 -12.5,0 5,5 Z"
         id="path1944-53" />
    </marker>
    <marker
       style="overflow:visible"
       id="marker1946-2-5"
       refX="0"
       refY="0"
       orient="auto">
      <path
         transform="matrix(-0.2,0,0,-0.2,-1.2,0)"
         style="fill:#000000;fill-opacity:1;fill-rule:evenodd;stroke:#000000;stroke-width:1pt;stroke-opacity:1"
         d="M 0,0 5,-5 -12.5,0 5,5 Z"
         id="path1944-3-6" />
    </marker>
    <marker
       style="overflow:visible"
       id="Arrow1Send-27"
       refX="0"
       refY="0"
       orient="auto">
      <path
         transform="matrix(-0.2,0,0,-0.2,-1.2,0)"
         style="fill:#000000;fill-opacity:1;fill-rule:evenodd;stroke:#000000;stroke-width:1pt;stroke-opacity:1"
         d="M 0,0 5,-5 -12.5,0 5,5 Z"
         id="path995-0" />
    </marker>
    <marker
       style="overflow:visible"
       id="marker1946-9"
       refX="0"
       refY="0"
       orient="auto">
      <path
         transform="matrix(-0.2,0,0,-0.2,-1.2,0)"
         style="fill:#000000;fill-opacity:1;fill-rule:evenodd;stroke:#000000;stroke-width:1pt;stroke-opacity:1"
         d="M 0,0 5,-5 -12.5,0 5,5 Z"
         id="path1944-36" />
    </marker>
    <marker
       style="overflow:visible"
       id="marker1946-2-0"
       refX="0"
       refY="0"
       orient="auto">
      <path
         transform="matrix(-0.2,0,0,-0.2,-1.2,0)"
         style="fill:#000000;fill-opacity:1;fill-rule:evenodd;stroke:#000000;stroke-width:1pt;stroke-opacity:1"
         d="M 0,0 5,-5 -12.5,0 5,5 Z"
         id="path1944-3-62" />
    </marker>
    <marker
       style="overflow:visible"
       id="Arrow1Send-27-7"
       refX="0"
       refY="0"
       orient="auto">
      <path
         transform="matrix(-0.2,0,0,-0.2,-1.2,0)"
         style="fill:#000000;fill-opacity:1;fill-rule:evenodd;stroke:#000000;stroke-width:1pt;stroke-opacity:1"
         d="M 0,0 5,-5 -12.5,0 5,5 Z"
         id="path995-0-9" />
    </marker>
    <marker
       style="overflow:visible"
       id="marker1946-9-2"
       refX="0"
       refY="0"
       orient="auto">
      <path
         transform="matrix(-0.2,0,0,-0.2,-1.2,0)"
         style="fill:#000000;fill-opacity:1;fill-rule:evenodd;stroke:#000000;stroke-width:1pt;stroke-opacity:1"
         d="M 0,0 5,-5 -12.5,0 5,5 Z"
         id="path1944-36-0" />
    </marker>
    <marker
       style="overflow:visible"
       id="marker1946-2-0-2"
       refX="0"
       refY="0"
       orient="auto">
      <path
         transform="matrix(-0.2,0,0,-0.2,-1.2,0)"
         style="fill:#000000;fill-opacity:1;fill-rule:evenodd;stroke:#000000;stroke-width:1pt;stroke-opacity:1"
         d="M 0,0 5,-5 -12.5,0 5,5 Z"
         id="path1944-3-62-3" />
    </marker>
    <marker
       style="overflow:visible"
       id="Arrow1Send-27-2"
       refX="0"
       refY="0"
       orient="auto">
      <path
         transform="matrix(-0.2,0,0,-0.2,-1.2,0)"
         style="fill:#000000;fill-opacity:1;fill-rule:evenodd;stroke:#000000;stroke-width:1pt;stroke-opacity:1"
         d="M 0,0 5,-5 -12.5,0 5,5 Z"
         id="path995-0-2" />
    </marker>
    <marker
       style="overflow:visible"
       id="marker1946-9-8"
       refX="0"
       refY="0"
       orient="auto">
      <path
         transform="matrix(-0.2,0,0,-0.2,-1.2,0)"
         style="fill:#000000;fill-opacity:1;fill-rule:evenodd;stroke:#000000;stroke-width:1pt;stroke-opacity:1"
         d="M 0,0 5,-5 -12.5,0 5,5 Z"
         id="path1944-36-9" />
    </marker>
    <marker
       style="overflow:visible"
       id="marker1946-2-0-7"
       refX="0"
       refY="0"
       orient="auto">
      <path
         transform="matrix(-0.2,0,0,-0.2,-1.2,0)"
         style="fill:#000000;fill-opacity:1;fill-rule:evenodd;stroke:#000000;stroke-width:1pt;stroke-opacity:1"
         d="M 0,0 5,-5 -12.5,0 5,5 Z"
         id="path1944-3-62-36" />
    </marker>
    <marker
       style="overflow:visible"
       id="Arrow1Send-27-2-1"
       refX="0"
       refY="0"
       orient="auto">
      <path
         transform="matrix(-0.2,0,0,-0.2,-1.2,0)"
         style="fill:#000000;fill-opacity:1;fill-rule:evenodd;stroke:#000000;stroke-width:1pt;stroke-opacity:1"
         d="M 0,0 5,-5 -12.5,0 5,5 Z"
         id="path995-0-2-9" />
    </marker>
    <marker
       style="overflow:visible"
       id="marker1946-9-8-4"
       refX="0"
       refY="0"
       orient="auto">
      <path
         transform="matrix(-0.2,0,0,-0.2,-1.2,0)"
         style="fill:#000000;fill-opacity:1;fill-rule:evenodd;stroke:#000000;stroke-width:1pt;stroke-opacity:1"
         d="M 0,0 5,-5 -12.5,0 5,5 Z"
         id="path1944-36-9-7" />
    </marker>
    <marker
       style="overflow:visible"
       id="marker1946-2-0-7-8"
       refX="0"
       refY="0"
       orient="auto">
      <path
         transform="matrix(-0.2,0,0,-0.2,-1.2,0)"
         style="fill:#000000;fill-opacity:1;fill-rule:evenodd;stroke:#000000;stroke-width:1pt;stroke-opacity:1"
         d="M 0,0 5,-5 -12.5,0 5,5 Z"
         id="path1944-3-62-36-4" />
    </marker>
    <marker
       style="overflow:visible"
       id="Arrow1Send-27-2-10"
       refX="0"
       refY="0"
       orient="auto">
      <path
         transform="matrix(-0.2,0,0,-0.2,-1.2,0)"
         style="fill:#000000;fill-opacity:1;fill-rule:evenodd;stroke:#000000;stroke-width:1pt;stroke-opacity:1"
         d="M 0,0 5,-5 -12.5,0 5,5 Z"
         id="path995-0-2-6" />
    </marker>
    <marker
       style="overflow:visible"
       id="marker1946-9-8-3"
       refX="0"
       refY="0"
       orient="auto">
      <path
         transform="matrix(-0.2,0,0,-0.2,-1.2,0)"
         style="fill:#000000;fill-opacity:1;fill-rule:evenodd;stroke:#000000;stroke-width:1pt;stroke-opacity:1"
         d="M 0,0 5,-5 -12.5,0 5,5 Z"
         id="path1944-36-9-2" />
    </marker>
    <marker
       style="overflow:visible"
       id="marker1946-2-0-7-0"
       refX="0"
       refY="0"
       orient="auto">
      <path
         transform="matrix(-0.2,0,0,-0.2,-1.2,0)"
         style="fill:#000000;fill-opacity:1;fill-rule:evenodd;stroke:#000000;stroke-width:1pt;stroke-opacity:1"
         d="M 0,0 5,-5 -12.5,0 5,5 Z"
         id="path1944-3-62-36-6" />
    </marker>
    <marker
       style="overflow:visible"
       id="Arrow1Send-27-2-10-7"
       refX="0"
       refY="0"
       orient="auto">
      <path
         transform="matrix(-0.2,0,0,-0.2,-1.2,0)"
         style="fill:#000000;fill-opacity:1;fill-rule:evenodd;stroke:#000000;stroke-width:1pt;stroke-opacity:1"
         d="M 0,0 5,-5 -12.5,0 5,5 Z"
         id="path995-0-2-6-6" />
    </marker>
    <marker
       style="overflow:visible"
       id="marker1946-9-8-3-5"
       refX="0"
       refY="0"
       orient="auto">
      <path
         transform="matrix(-0.2,0,0,-0.2,-1.2,0)"
         style="fill:#000000;fill-opacity:1;fill-rule:evenodd;stroke:#000000;stroke-width:1pt;stroke-opacity:1"
         d="M 0,0 5,-5 -12.5,0 5,5 Z"
         id="path1944-36-9-2-6" />
    </marker>
    <marker
       style="overflow:visible"
       id="marker1946-2-0-7-0-9"
       refX="0"
       refY="0"
       orient="auto">
      <path
         transform="matrix(-0.2,0,0,-0.2,-1.2,0)"
         style="fill:#000000;fill-opacity:1;fill-rule:evenodd;stroke:#000000;stroke-width:1pt;stroke-opacity:1"
         d="M 0,0 5,-5 -12.5,0 5,5 Z"
         id="path1944-3-62-36-6-3" />
    </marker>
    <marker
       style="overflow:visible"
       id="marker3819-5"
       refX="0"
       refY="0"
       orient="auto">
      <path
         transform="matrix(-0.2,0,0,-0.2,-1.2,0)"
         style="fill:#000000;fill-opacity:1;fill-rule:evenodd;stroke:#000000;stroke-width:1pt;stroke-opacity:1"
         d="M 0,0 5,-5 -12.5,0 5,5 Z"
         id="path3817-4" />
    </marker>
    <marker
       style="overflow:visible"
       id="marker3829-7"
       refX="0"
       refY="0"
       orient="auto">
      <path
         transform="matrix(-0.2,0,0,-0.2,-1.2,0)"
         style="fill:#000000;fill-opacity:1;fill-rule:evenodd;stroke:#000000;stroke-width:1pt;stroke-opacity:1"
         d="M 0,0 5,-5 -12.5,0 5,5 Z"
         id="path3827-4" />
    </marker>
    <marker
       style="overflow:visible"
       id="marker3839-4"
       refX="0"
       refY="0"
       orient="auto">
      <path
         transform="matrix(-0.2,0,0,-0.2,-1.2,0)"
         style="fill:#000000;fill-opacity:1;fill-rule:evenodd;stroke:#000000;stroke-width:1pt;stroke-opacity:1"
         d="M 0,0 5,-5 -12.5,0 5,5 Z"
         id="path3837-3" />
    </marker>
    <marker
       style="overflow:visible"
       id="marker3849-0"
       refX="0"
       refY="0"
       orient="auto">
      <path
         transform="matrix(-0.2,0,0,-0.2,-1.2,0)"
         style="fill:#000000;fill-opacity:1;fill-rule:evenodd;stroke:#000000;stroke-width:1pt;stroke-opacity:1"
         d="M 0,0 5,-5 -12.5,0 5,5 Z"
         id="path3847-7" />
    </marker>
    <marker
       style="overflow:visible"
       id="marker3819-4"
       refX="0"
       refY="0"
       orient="auto">
      <path
         transform="matrix(-0.2,0,0,-0.2,-1.2,0)"
         style="fill:#000000;fill-opacity:1;fill-rule:evenodd;stroke:#000000;stroke-width:1pt;stroke-opacity:1"
         d="M 0,0 5,-5 -12.5,0 5,5 Z"
         id="path3817-3" />
    </marker>
    <marker
       style="overflow:visible"
       id="marker3829-1"
       refX="0"
       refY="0"
       orient="auto">
      <path
         transform="matrix(-0.2,0,0,-0.2,-1.2,0)"
         style="fill:#000000;fill-opacity:1;fill-rule:evenodd;stroke:#000000;stroke-width:1pt;stroke-opacity:1"
         d="M 0,0 5,-5 -12.5,0 5,5 Z"
         id="path3827-49" />
    </marker>
    <marker
       style="overflow:visible"
       id="marker3839-2"
       refX="0"
       refY="0"
       orient="auto">
      <path
         transform="matrix(-0.2,0,0,-0.2,-1.2,0)"
         style="fill:#000000;fill-opacity:1;fill-rule:evenodd;stroke:#000000;stroke-width:1pt;stroke-opacity:1"
         d="M 0,0 5,-5 -12.5,0 5,5 Z"
         id="path3837-0" />
    </marker>
    <marker
       style="overflow:visible"
       id="marker3849-6"
       refX="0"
       refY="0"
       orient="auto">
      <path
         transform="matrix(-0.2,0,0,-0.2,-1.2,0)"
         style="fill:#000000;fill-opacity:1;fill-rule:evenodd;stroke:#000000;stroke-width:1pt;stroke-opacity:1"
         d="M 0,0 5,-5 -12.5,0 5,5 Z"
         id="path3847-8" />
    </marker>
    <marker
       style="overflow:visible"
       id="marker3819-5-9"
       refX="0"
       refY="0"
       orient="auto">
      <path
         transform="matrix(-0.2,0,0,-0.2,-1.2,0)"
         style="fill:#000000;fill-opacity:1;fill-rule:evenodd;stroke:#000000;stroke-width:1pt;stroke-opacity:1"
         d="M 0,0 5,-5 -12.5,0 5,5 Z"
         id="path3817-4-2" />
    </marker>
    <marker
       style="overflow:visible"
       id="marker3829-7-6"
       refX="0"
       refY="0"
       orient="auto">
      <path
         transform="matrix(-0.2,0,0,-0.2,-1.2,0)"
         style="fill:#000000;fill-opacity:1;fill-rule:evenodd;stroke:#000000;stroke-width:1pt;stroke-opacity:1"
         d="M 0,0 5,-5 -12.5,0 5,5 Z"
         id="path3827-4-6" />
    </marker>
    <marker
       style="overflow:visible"
       id="marker3839-4-4"
       refX="0"
       refY="0"
       orient="auto">
      <path
         transform="matrix(-0.2,0,0,-0.2,-1.2,0)"
         style="fill:#000000;fill-opacity:1;fill-rule:evenodd;stroke:#000000;stroke-width:1pt;stroke-opacity:1"
         d="M 0,0 5,-5 -12.5,0 5,5 Z"
         id="path3837-3-9" />
    </marker>
    <marker
       style="overflow:visible"
       id="marker3849-0-5"
       refX="0"
       refY="0"
       orient="auto">
      <path
         transform="matrix(-0.2,0,0,-0.2,-1.2,0)"
         style="fill:#000000;fill-opacity:1;fill-rule:evenodd;stroke:#000000;stroke-width:1pt;stroke-opacity:1"
         d="M 0,0 5,-5 -12.5,0 5,5 Z"
         id="path3847-7-0" />
    </marker>
    <marker
       style="overflow:visible"
       id="marker3819-2"
       refX="0"
       refY="0"
       orient="auto">
      <path
         transform="matrix(-0.2,0,0,-0.2,-1.2,0)"
         style="fill:#000000;fill-opacity:1;fill-rule:evenodd;stroke:#000000;stroke-width:1pt;stroke-opacity:1"
         d="M 0,0 5,-5 -12.5,0 5,5 Z"
         id="path3817-6" />
    </marker>
    <marker
       style="overflow:visible"
       id="marker3829-10"
       refX="0"
       refY="0"
       orient="auto">
      <path
         transform="matrix(-0.2,0,0,-0.2,-1.2,0)"
         style="fill:#000000;fill-opacity:1;fill-rule:evenodd;stroke:#000000;stroke-width:1pt;stroke-opacity:1"
         d="M 0,0 5,-5 -12.5,0 5,5 Z"
         id="path3827-6" />
    </marker>
    <marker
       style="overflow:visible"
       id="marker3839-1"
       refX="0"
       refY="0"
       orient="auto">
      <path
         transform="matrix(-0.2,0,0,-0.2,-1.2,0)"
         style="fill:#000000;fill-opacity:1;fill-rule:evenodd;stroke:#000000;stroke-width:1pt;stroke-opacity:1"
         d="M 0,0 5,-5 -12.5,0 5,5 Z"
         id="path3837-5" />
    </marker>
    <marker
       style="overflow:visible"
       id="marker3849-9"
       refX="0"
       refY="0"
       orient="auto">
      <path
         transform="matrix(-0.2,0,0,-0.2,-1.2,0)"
         style="fill:#000000;fill-opacity:1;fill-rule:evenodd;stroke:#000000;stroke-width:1pt;stroke-opacity:1"
         d="M 0,0 5,-5 -12.5,0 5,5 Z"
         id="path3847-4" />
    </marker>
    <marker
       style="overflow:visible"
       id="marker3819-5-90"
       refX="0"
       refY="0"
       orient="auto">
      <path
         transform="matrix(-0.2,0,0,-0.2,-1.2,0)"
         style="fill:#000000;fill-opacity:1;fill-rule:evenodd;stroke:#000000;stroke-width:1pt;stroke-opacity:1"
         d="M 0,0 5,-5 -12.5,0 5,5 Z"
         id="path3817-4-9" />
    </marker>
    <marker
       style="overflow:visible"
       id="marker3829-7-1"
       refX="0"
       refY="0"
       orient="auto">
      <path
         transform="matrix(-0.2,0,0,-0.2,-1.2,0)"
         style="fill:#000000;fill-opacity:1;fill-rule:evenodd;stroke:#000000;stroke-width:1pt;stroke-opacity:1"
         d="M 0,0 5,-5 -12.5,0 5,5 Z"
         id="path3827-4-7" />
    </marker>
    <marker
       style="overflow:visible"
       id="marker3839-4-7"
       refX="0"
       refY="0"
       orient="auto">
      <path
         transform="matrix(-0.2,0,0,-0.2,-1.2,0)"
         style="fill:#000000;fill-opacity:1;fill-rule:evenodd;stroke:#000000;stroke-width:1pt;stroke-opacity:1"
         d="M 0,0 5,-5 -12.5,0 5,5 Z"
         id="path3837-3-1" />
    </marker>
    <marker
       style="overflow:visible"
       id="marker3849-0-1"
       refX="0"
       refY="0"
       orient="auto">
      <path
         transform="matrix(-0.2,0,0,-0.2,-1.2,0)"
         style="fill:#000000;fill-opacity:1;fill-rule:evenodd;stroke:#000000;stroke-width:1pt;stroke-opacity:1"
         d="M 0,0 5,-5 -12.5,0 5,5 Z"
         id="path3847-7-5" />
    </marker>
    <marker
       style="overflow:visible"
       id="marker3819-4-9"
       refX="0"
       refY="0"
       orient="auto">
      <path
         transform="matrix(-0.2,0,0,-0.2,-1.2,0)"
         style="fill:#000000;fill-opacity:1;fill-rule:evenodd;stroke:#000000;stroke-width:1pt;stroke-opacity:1"
         d="M 0,0 5,-5 -12.5,0 5,5 Z"
         id="path3817-3-7" />
    </marker>
    <marker
       style="overflow:visible"
       id="marker3829-1-7"
       refX="0"
       refY="0"
       orient="auto">
      <path
         transform="matrix(-0.2,0,0,-0.2,-1.2,0)"
         style="fill:#000000;fill-opacity:1;fill-rule:evenodd;stroke:#000000;stroke-width:1pt;stroke-opacity:1"
         d="M 0,0 5,-5 -12.5,0 5,5 Z"
         id="path3827-49-6" />
    </marker>
    <marker
       style="overflow:visible"
       id="marker3839-2-7"
       refX="0"
       refY="0"
       orient="auto">
      <path
         transform="matrix(-0.2,0,0,-0.2,-1.2,0)"
         style="fill:#000000;fill-opacity:1;fill-rule:evenodd;stroke:#000000;stroke-width:1pt;stroke-opacity:1"
         d="M 0,0 5,-5 -12.5,0 5,5 Z"
         id="path3837-0-3" />
    </marker>
    <marker
       style="overflow:visible"
       id="marker3849-6-6"
       refX="0"
       refY="0"
       orient="auto">
      <path
         transform="matrix(-0.2,0,0,-0.2,-1.2,0)"
         style="fill:#000000;fill-opacity:1;fill-rule:evenodd;stroke:#000000;stroke-width:1pt;stroke-opacity:1"
         d="M 0,0 5,-5 -12.5,0 5,5 Z"
         id="path3847-8-5" />
    </marker>
    <marker
       style="overflow:visible"
       id="marker3819-5-9-6"
       refX="0"
       refY="0"
       orient="auto">
      <path
         transform="matrix(-0.2,0,0,-0.2,-1.2,0)"
         style="fill:#000000;fill-opacity:1;fill-rule:evenodd;stroke:#000000;stroke-width:1pt;stroke-opacity:1"
         d="M 0,0 5,-5 -12.5,0 5,5 Z"
         id="path3817-4-2-3" />
    </marker>
    <marker
       style="overflow:visible"
       id="marker3829-7-6-9"
       refX="0"
       refY="0"
       orient="auto">
      <path
         transform="matrix(-0.2,0,0,-0.2,-1.2,0)"
         style="fill:#000000;fill-opacity:1;fill-rule:evenodd;stroke:#000000;stroke-width:1pt;stroke-opacity:1"
         d="M 0,0 5,-5 -12.5,0 5,5 Z"
         id="path3827-4-6-4" />
    </marker>
    <marker
       style="overflow:visible"
       id="marker3839-4-4-8"
       refX="0"
       refY="0"
       orient="auto">
      <path
         transform="matrix(-0.2,0,0,-0.2,-1.2,0)"
         style="fill:#000000;fill-opacity:1;fill-rule:evenodd;stroke:#000000;stroke-width:1pt;stroke-opacity:1"
         d="M 0,0 5,-5 -12.5,0 5,5 Z"
         id="path3837-3-9-1" />
    </marker>
    <marker
       style="overflow:visible"
       id="marker3849-0-5-2"
       refX="0"
       refY="0"
       orient="auto">
      <path
         transform="matrix(-0.2,0,0,-0.2,-1.2,0)"
         style="fill:#000000;fill-opacity:1;fill-rule:evenodd;stroke:#000000;stroke-width:1pt;stroke-opacity:1"
         d="M 0,0 5,-5 -12.5,0 5,5 Z"
         id="path3847-7-0-9" />
    </marker>
  </defs>
  <metadata
     id="metadata5">
    <rdf:RDF>
      <cc:Work
         rdf:about="">
        <dc:format>image/svg+xml</dc:format>
        <dc:type
           rdf:resource="http://purl.org/dc/dcmitype/StillImage" />
        <dc:title></dc:title>
      </cc:Work>
    </rdf:RDF>
  </metadata>
  <g
     id="layer1"
     transform="matrix(4.9143683,0,0,4.9143683,-23.922394,-7.2523912)">
    <path
       style="fill:none;stroke:#000000;stroke-width:0.264583px;stroke-linecap:butt;stroke-linejoin:miter;stroke-opacity:1;marker-end:url(#marker3819)"
       d="M 5.0270831,7.6729155 H 12.964582"
       id="path3809" />
    <path
       style="fill:none;stroke:#000000;stroke-width:0.264583px;stroke-linecap:butt;stroke-linejoin:miter;stroke-opacity:1;marker-end:url(#marker3829)"
       d="m 15.610415,7.6729155 h 7.9375"
       id="path3811" />
    <path
       style="fill:none;stroke:#000000;stroke-width:0.264583px;stroke-linecap:butt;stroke-linejoin:miter;stroke-opacity:1;marker-end:url(#marker3839)"
       d="m 26.193749,7.6729155 h 7.9375"
       id="path3813" />
    <path
       style="fill:none;stroke:#000000;stroke-width:0.264583px;stroke-linecap:butt;stroke-linejoin:miter;stroke-opacity:1;marker-end:url(#marker3849)"
       d="m 36.777082,7.6729155 h 7.9375"
       id="path3815" />
    <path
       style="fill:none;stroke:#000000;stroke-width:0.264583px;stroke-linecap:butt;stroke-linejoin:miter;stroke-opacity:1;marker-end:url(#marker3819-5)"
       d="M 5.0270834,11.641664 H 12.964583"
       id="path3809-8" />
    <path
       style="fill:none;stroke:#000000;stroke-width:0.264583px;stroke-linecap:butt;stroke-linejoin:miter;stroke-opacity:1;marker-end:url(#marker3829-7)"
       d="m 15.610416,11.641664 h 7.9375"
       id="path3811-6" />
    <path
       style="fill:none;stroke:#000000;stroke-width:0.264583px;stroke-linecap:butt;stroke-linejoin:miter;stroke-opacity:1;marker-end:url(#marker3839-4)"
       d="m 26.19375,11.641664 h 7.937499"
       id="path3813-8" />
    <path
       style="fill:none;stroke:#000000;stroke-width:0.264583px;stroke-linecap:butt;stroke-linejoin:miter;stroke-opacity:1;marker-end:url(#marker3849-0)"
       d="m 36.777083,11.641664 h 7.9375"
       id="path3815-8" />
    <path
       style="fill:none;stroke:#000000;stroke-width:0.264583px;stroke-linecap:butt;stroke-linejoin:miter;stroke-opacity:1;marker-end:url(#marker3819-4)"
       d="M 5.0270834,15.610414 H 12.964582"
       id="path3809-4" />
    <path
       style="fill:none;stroke:#000000;stroke-width:0.264583px;stroke-linecap:butt;stroke-linejoin:miter;stroke-opacity:1;marker-end:url(#marker3829-1)"
       d="m 15.610416,15.610414 h 7.9375"
       id="path3811-8" />
    <path
       style="fill:none;stroke:#000000;stroke-width:0.264583px;stroke-linecap:butt;stroke-linejoin:miter;stroke-opacity:1;marker-end:url(#marker3839-2)"
       d="m 26.19375,15.610414 h 7.937499"
       id="path3813-7" />
    <path
       style="fill:none;stroke:#000000;stroke-width:0.264583px;stroke-linecap:butt;stroke-linejoin:miter;stroke-opacity:1;marker-end:url(#marker3849-6)"
       d="m 36.777083,15.610414 h 7.9375"
       id="path3815-1" />
    <path
       style="fill:none;stroke:#000000;stroke-width:0.264583px;stroke-linecap:butt;stroke-linejoin:miter;stroke-opacity:1;marker-end:url(#marker3819-5-9)"
       d="M 5.0270834,19.579164 H 12.964583"
       id="path3809-8-7" />
    <path
       style="fill:none;stroke:#000000;stroke-width:0.264583px;stroke-linecap:butt;stroke-linejoin:miter;stroke-opacity:1;marker-end:url(#marker3829-7-6)"
       d="m 15.610417,19.579164 h 7.9375"
       id="path3811-6-2" />
    <path
       style="fill:none;stroke:#000000;stroke-width:0.264583px;stroke-linecap:butt;stroke-linejoin:miter;stroke-opacity:1;marker-end:url(#marker3839-4-4)"
       d="m 26.193751,19.579164 h 7.937498"
       id="path3813-8-7" />
    <path
       style="fill:none;stroke:#000000;stroke-width:0.264583px;stroke-linecap:butt;stroke-linejoin:miter;stroke-opacity:1;marker-end:url(#marker3849-0-5)"
       d="m 36.777083,19.579164 h 7.9375"
       id="path3815-8-2" />
    <path
       style="fill:none;stroke:#000000;stroke-width:0.264583px;stroke-linecap:butt;stroke-linejoin:miter;stroke-opacity:1;marker-end:url(#marker3819-2)"
       d="M 5.0270824,23.547914 H 12.964582"
       id="path3809-3" />
    <path
       style="fill:none;stroke:#000000;stroke-width:0.264583px;stroke-linecap:butt;stroke-linejoin:miter;stroke-opacity:1;marker-end:url(#marker3829-10)"
       d="m 15.610415,23.547914 h 7.9375"
       id="path3811-9" />
    <path
       style="fill:none;stroke:#000000;stroke-width:0.264583px;stroke-linecap:butt;stroke-linejoin:miter;stroke-opacity:1;marker-end:url(#marker3839-1)"
       d="m 26.193749,23.547914 h 7.937499"
       id="path3813-0" />
    <path
       style="fill:none;stroke:#000000;stroke-width:0.264583px;stroke-linecap:butt;stroke-linejoin:miter;stroke-opacity:1;marker-end:url(#marker3849-9)"
       d="m 36.777082,23.547914 h 7.9375"
       id="path3815-88" />
    <path
       style="fill:none;stroke:#000000;stroke-width:0.264583px;stroke-linecap:butt;stroke-linejoin:miter;stroke-opacity:1;marker-end:url(#marker3819-5-90)"
       d="M 5.0270824,27.516664 H 12.964583"
       id="path3809-8-5" />
    <path
       style="fill:none;stroke:#000000;stroke-width:0.264583px;stroke-linecap:butt;stroke-linejoin:miter;stroke-opacity:1;marker-end:url(#marker3829-7-1)"
       d="m 15.610416,27.516664 h 7.9375"
       id="path3811-6-0" />
    <path
       style="fill:none;stroke:#000000;stroke-width:0.264583px;stroke-linecap:butt;stroke-linejoin:miter;stroke-opacity:1;marker-end:url(#marker3839-4-7)"
       d="m 26.19375,27.516664 h 7.937498"
       id="path3813-8-9" />
    <path
       style="fill:none;stroke:#000000;stroke-width:0.264583px;stroke-linecap:butt;stroke-linejoin:miter;stroke-opacity:1;marker-end:url(#marker3849-0-1)"
       d="m 36.777082,27.516664 h 7.9375"
       id="path3815-8-6" />
    <path
       style="fill:none;stroke:#000000;stroke-width:0.264583px;stroke-linecap:butt;stroke-linejoin:miter;stroke-opacity:1;marker-end:url(#marker3819-4-9)"
       d="M 5.0270824,31.485414 H 12.964582"
       id="path3809-4-3" />
    <path
       style="fill:none;stroke:#000000;stroke-width:0.264583px;stroke-linecap:butt;stroke-linejoin:miter;stroke-opacity:1;marker-end:url(#marker3829-1-7)"
       d="m 15.610416,31.485414 h 7.9375"
       id="path3811-8-8" />
    <path
       style="fill:none;stroke:#000000;stroke-width:0.264583px;stroke-linecap:butt;stroke-linejoin:miter;stroke-opacity:1;marker-end:url(#marker3839-2-7)"
       d="m 26.19375,31.485414 h 7.937498"
       id="path3813-7-5" />
    <path
       style="fill:none;stroke:#000000;stroke-width:0.264583px;stroke-linecap:butt;stroke-linejoin:miter;stroke-opacity:1;marker-end:url(#marker3849-6-6)"
       d="m 36.777082,31.485414 h 7.9375"
       id="path3815-1-6" />
    <path
       style="fill:none;stroke:#000000;stroke-width:0.264583px;stroke-linecap:butt;stroke-linejoin:miter;stroke-opacity:1;marker-end:url(#marker3819-5-9-6)"
       d="M 5.0270824,35.454164 H 12.964583"
       id="path3809-8-7-1" />
    <path
       style="fill:none;stroke:#000000;stroke-width:0.264583px;stroke-linecap:butt;stroke-linejoin:miter;stroke-opacity:1;marker-end:url(#marker3829-7-6-9)"
       d="m 15.610417,35.454164 h 7.9375"
       id="path3811-6-2-1" />
    <path
       style="fill:none;stroke:#000000;stroke-width:0.264583px;stroke-linecap:butt;stroke-linejoin:miter;stroke-opacity:1;marker-end:url(#marker3839-4-4-8)"
       d="m 26.193751,35.454164 h 7.937497"
       id="path3813-8-7-5" />
    <path
       style="fill:none;stroke:#000000;stroke-width:0.264583px;stroke-linecap:butt;stroke-linejoin:miter;stroke-opacity:1;marker-end:url(#marker3849-0-5-2)"
       d="m 36.777082,35.454164 h 7.9375"
       id="path3815-8-2-9" />
  </g>
</svg>
