<?xml version="1.0" encoding="UTF-8" standalone="no"?>
<svg
   xmlns:dc="http://purl.org/dc/elements/1.1/"
   xmlns:cc="http://creativecommons.org/ns#"
   xmlns:rdf="http://www.w3.org/1999/02/22-rdf-syntax-ns#"
   xmlns:svg="http://www.w3.org/2000/svg"
   xmlns="http://www.w3.org/2000/svg"
   xmlns:xlink="http://www.w3.org/1999/xlink"
   xmlns:sodipodi="http://sodipodi.sourceforge.net/DTD/sodipodi-0.dtd"
   xmlns:inkscape="http://www.inkscape.org/namespaces/inkscape"
   width="150mm"
   height="50mm"
   viewBox="0 0 150 50"
   version="1.1"
   id="svg8"
   sodipodi:docname="e_libre.svg"
   inkscape:version="1.0.1 (1.0.1+r75)">
  <sodipodi:namedview
     pagecolor="#ffffff"
     bordercolor="#666666"
     borderopacity="1"
     objecttolerance="10"
     gridtolerance="10"
     guidetolerance="10"
     inkscape:pageopacity="0"
     inkscape:pageshadow="2"
     inkscape:window-width="1920"
     inkscape:window-height="1052"
     id="namedview979"
     showgrid="false"
     inkscape:zoom="1.5902537"
     inkscape:cx="310.49403"
     inkscape:cy="110.29652"
     inkscape:window-x="0"
     inkscape:window-y="0"
     inkscape:window-maximized="1"
     inkscape:current-layer="layer1"
     inkscape:document-rotation="0">
    <inkscape:grid
       type="xygrid"
       id="grid1874" />
  </sodipodi:namedview>
  <defs
     id="defs2">
    <marker
       style="overflow:visible"
       id="marker3179"
       refX="0"
       refY="0"
       orient="auto"
       inkscape:stockid="Arrow1Send"
       inkscape:isstock="true">
      <path
         transform="matrix(-0.2,0,0,-0.2,-1.2,0)"
         style="fill:#000000;fill-opacity:1;fill-rule:evenodd;stroke:#000000;stroke-width:1pt;stroke-opacity:1"
         d="M 0,0 5,-5 -12.5,0 5,5 Z"
         id="path3177" />
    </marker>
    <marker
       style="overflow:visible"
       id="marker3169"
       refX="0"
       refY="0"
       orient="auto"
       inkscape:stockid="Arrow1Send"
       inkscape:isstock="true">
      <path
         transform="matrix(-0.2,0,0,-0.2,-1.2,0)"
         style="fill:#000000;fill-opacity:1;fill-rule:evenodd;stroke:#000000;stroke-width:1pt;stroke-opacity:1"
         d="M 0,0 5,-5 -12.5,0 5,5 Z"
         id="path3167" />
    </marker>
    <marker
       style="overflow:visible"
       id="marker3159"
       refX="0"
       refY="0"
       orient="auto"
       inkscape:stockid="Arrow1Send"
       inkscape:isstock="true">
      <path
         transform="matrix(-0.2,0,0,-0.2,-1.2,0)"
         style="fill:#000000;fill-opacity:1;fill-rule:evenodd;stroke:#000000;stroke-width:1pt;stroke-opacity:1"
         d="M 0,0 5,-5 -12.5,0 5,5 Z"
         id="path3157" />
    </marker>
    <marker
       style="overflow:visible"
       id="marker3149"
       refX="0"
       refY="0"
       orient="auto"
       inkscape:stockid="Arrow1Send"
       inkscape:isstock="true">
      <path
         transform="matrix(-0.2,0,0,-0.2,-1.2,0)"
         style="fill:#000000;fill-opacity:1;fill-rule:evenodd;stroke:#000000;stroke-width:1pt;stroke-opacity:1"
         d="M 0,0 5,-5 -12.5,0 5,5 Z"
         id="path3147" />
    </marker>
    <marker
       style="overflow:visible"
       id="marker3139"
       refX="0"
       refY="0"
       orient="auto"
       inkscape:stockid="Arrow1Send"
       inkscape:isstock="true">
      <path
         transform="matrix(-0.2,0,0,-0.2,-1.2,0)"
         style="fill:#000000;fill-opacity:1;fill-rule:evenodd;stroke:#000000;stroke-width:1pt;stroke-opacity:1"
         d="M 0,0 5,-5 -12.5,0 5,5 Z"
         id="path3137" />
    </marker>
    <marker
       style="overflow:visible"
       id="marker2241"
       refX="0"
       refY="0"
       orient="auto"
       inkscape:stockid="Arrow1Send"
       inkscape:isstock="true"
       inkscape:collect="always">
      <path
         transform="matrix(-0.2,0,0,-0.2,-1.2,0)"
         style="fill:#000000;fill-opacity:1;fill-rule:evenodd;stroke:#000000;stroke-width:1pt;stroke-opacity:1"
         d="M 0,0 5,-5 -12.5,0 5,5 Z"
         id="path2239" />
    </marker>
    <marker
       style="overflow:visible"
       id="marker2145"
       refX="0"
       refY="0"
       orient="auto"
       inkscape:stockid="Arrow1Send"
       inkscape:isstock="true"
       inkscape:collect="always">
      <path
         transform="matrix(-0.2,0,0,-0.2,-1.2,0)"
         style="fill:#000000;fill-opacity:1;fill-rule:evenodd;stroke:#000000;stroke-width:1pt;stroke-opacity:1"
         d="M 0,0 5,-5 -12.5,0 5,5 Z"
         id="path2143" />
    </marker>
    <marker
       style="overflow:visible"
       id="marker2055"
       refX="0"
       refY="0"
       orient="auto"
       inkscape:stockid="Arrow1Send"
       inkscape:isstock="true"
       inkscape:collect="always">
      <path
         transform="matrix(-0.2,0,0,-0.2,-1.2,0)"
         style="fill:#000000;fill-opacity:1;fill-rule:evenodd;stroke:#000000;stroke-width:1pt;stroke-opacity:1"
         d="M 0,0 5,-5 -12.5,0 5,5 Z"
         id="path2053" />
    </marker>
    <marker
       style="overflow:visible"
       id="marker1963"
       refX="0"
       refY="0"
       orient="auto"
       inkscape:stockid="Arrow1Send"
       inkscape:isstock="true"
       inkscape:collect="always">
      <path
         transform="matrix(-0.2,0,0,-0.2,-1.2,0)"
         style="fill:#000000;fill-opacity:1;fill-rule:evenodd;stroke:#000000;stroke-width:1pt;stroke-opacity:1"
         d="M 0,0 5,-5 -12.5,0 5,5 Z"
         id="path1961" />
    </marker>
    <marker
       style="overflow:visible"
       id="marker1946"
       refX="0"
       refY="0"
       orient="auto"
       inkscape:stockid="Arrow1Send"
       inkscape:isstock="true"
       inkscape:collect="always">
      <path
         transform="matrix(-0.2,0,0,-0.2,-1.2,0)"
         style="fill:#000000;fill-opacity:1;fill-rule:evenodd;stroke:#000000;stroke-width:1pt;stroke-opacity:1"
         d="M 0,0 5,-5 -12.5,0 5,5 Z"
         id="path1944" />
    </marker>
    <marker
       style="overflow:visible"
       id="Arrow1Send"
       refX="0"
       refY="0"
       orient="auto"
       inkscape:stockid="Arrow1Send"
       inkscape:isstock="true">
      <path
         transform="matrix(-0.2,0,0,-0.2,-1.2,0)"
         style="fill:#0000ce;fill-opacity:1;fill-rule:evenodd;stroke:#0000ce;stroke-width:1pt;stroke-opacity:1"
         d="M 0,0 5,-5 -12.5,0 5,5 Z"
         id="path995" />
    </marker>
    <marker
       style="overflow:visible"
       id="marker1832"
       refX="0"
       refY="0"
       orient="auto"
       inkscape:stockid="Arrow1Mend"
       inkscape:isstock="true">
      <path
         transform="matrix(-0.4,0,0,-0.4,-4,0)"
         style="fill:#d20000;fill-opacity:1;fill-rule:evenodd;stroke:#d20000;stroke-width:1pt;stroke-opacity:1"
         d="M 0,0 5,-5 -12.5,0 5,5 Z"
         id="path1830" />
    </marker>
    <marker
       style="overflow:visible"
       id="marker1724"
       refX="0"
       refY="0"
       orient="auto"
       inkscape:stockid="Arrow1Mend"
       inkscape:isstock="true">
      <path
         transform="matrix(-0.4,0,0,-0.4,-4,0)"
         style="fill:#000000;fill-opacity:1;fill-rule:evenodd;stroke:#000000;stroke-width:1pt;stroke-opacity:1"
         d="M 0,0 5,-5 -12.5,0 5,5 Z"
         id="path1722" />
    </marker>
    <marker
       style="overflow:visible"
       id="marker1684"
       refX="0"
       refY="0"
       orient="auto"
       inkscape:stockid="Arrow1Mend"
       inkscape:isstock="true">
      <path
         transform="matrix(-0.4,0,0,-0.4,-4,0)"
         style="fill:#000000;fill-opacity:1;fill-rule:evenodd;stroke:#000000;stroke-width:1pt;stroke-opacity:1"
         d="M 0,0 5,-5 -12.5,0 5,5 Z"
         id="path1682" />
    </marker>
    <rect
       x="18.271324"
       y="-12.837685"
       width="27.558987"
       height="12.320396"
       id="rect1645" />
    <rect
       x="12.036403"
       y="17.501204"
       width="6.6960154"
       height="3.5568137"
       id="rect969" />
    <rect
       x="5.0640655"
       y="3.3172786"
       width="16.374601"
       height="10.399507"
       id="rect989" />
    <rect
       x="10.655779"
       y="16.554337"
       width="5.5449176"
       height="2.0583928"
       id="rect1321" />
    <marker
       style="overflow:visible"
       id="Arrow1Mend"
       refX="0"
       refY="0"
       orient="auto">
      <path
         transform="matrix(-0.4,0,0,-0.4,-4,0)"
         style="fill:#007600;fill-opacity:1;fill-rule:evenodd;stroke:#007600;stroke-width:1pt;stroke-opacity:1"
         d="M 0,0 5,-5 -12.5,0 5,5 Z"
         id="path1034" />
    </marker>
    <rect
       x="8.4206839"
       y="12.286384"
       width="8.3540096"
       height="4.7584"
       id="rect980" />
    <rect
       x="17.553389"
       y="22.477051"
       width="9.6399002"
       height="5.3038745"
       id="rect909" />
    <rect
       x="17.553389"
       y="22.477051"
       width="9.6399002"
       height="5.3038745"
       id="rect909-6" />
    <rect
       x="17.553389"
       y="22.477051"
       width="9.6399002"
       height="5.3038745"
       id="rect925" />
    <rect
       x="8.4206839"
       y="12.286384"
       width="8.3540096"
       height="4.7584"
       id="rect980-9" />
    <rect
       x="8.4206839"
       y="12.286384"
       width="8.3540096"
       height="4.7584"
       id="rect996" />
    <rect
       x="8.4206839"
       y="12.286384"
       width="8.3540096"
       height="4.7584"
       id="rect980-3" />
    <rect
       x="8.4206839"
       y="12.286384"
       width="8.3540096"
       height="4.7584"
       id="rect1290" />
    <rect
       x="8.4206839"
       y="12.286384"
       width="8.3540096"
       height="4.7584"
       id="rect980-9-6" />
    <rect
       x="8.4206839"
       y="12.286384"
       width="8.3540096"
       height="4.7584"
       id="rect1293" />
    <rect
       x="17.553389"
       y="22.477051"
       width="9.6399002"
       height="5.3038745"
       id="rect909-3" />
    <rect
       x="17.553389"
       y="22.477051"
       width="9.6399002"
       height="5.3038745"
       id="rect1298" />
    <rect
       x="17.553389"
       y="22.477051"
       width="9.6399002"
       height="5.3038745"
       id="rect909-6-5" />
    <rect
       x="17.553389"
       y="22.477051"
       width="9.6399002"
       height="5.3038745"
       id="rect1301" />
    <rect
       x="18.271324"
       y="-12.837685"
       width="27.558987"
       height="12.320396"
       id="rect1645-8" />
    <rect
       x="18.271324"
       y="-12.837685"
       width="27.558987"
       height="12.320396"
       id="rect1658" />
    <rect
       x="8.4206839"
       y="12.286384"
       width="8.3540096"
       height="4.7584"
       id="rect980-92" />
    <rect
       x="8.4206839"
       y="12.286384"
       width="8.3540096"
       height="4.7584"
       id="rect2083" />
    <rect
       x="8.4206839"
       y="12.286384"
       width="8.3540096"
       height="4.7584"
       id="rect980-9-0" />
    <rect
       x="8.4206839"
       y="12.286384"
       width="8.3540096"
       height="4.7584"
       id="rect2086" />
    <marker
       style="overflow:visible"
       id="marker1946-2"
       refX="0"
       refY="0"
       orient="auto"
       inkscape:stockid="Arrow1Send"
       inkscape:isstock="true">
      <path
         transform="matrix(-0.2,0,0,-0.2,-1.2,0)"
         style="fill:#000000;fill-opacity:1;fill-rule:evenodd;stroke:#000000;stroke-width:1pt;stroke-opacity:1"
         d="M 0,0 5,-5 -12.5,0 5,5 Z"
         id="path1944-3" />
    </marker>
    <rect
       x="17.553389"
       y="22.477051"
       width="9.6399002"
       height="5.3038745"
       id="rect909-7" />
    <rect
       x="17.553389"
       y="22.477051"
       width="9.6399002"
       height="5.3038745"
       id="rect2091" />
    <rect
       x="17.553389"
       y="22.477051"
       width="9.6399002"
       height="5.3038745"
       id="rect909-6-59" />
    <rect
       x="17.553389"
       y="22.477051"
       width="9.6399002"
       height="5.3038745"
       id="rect2094" />
    <rect
       x="18.271324"
       y="-12.837685"
       width="27.558987"
       height="12.320396"
       id="rect1645-2" />
    <rect
       x="18.271324"
       y="-12.837685"
       width="27.558987"
       height="12.320396"
       id="rect2097" />
    <marker
       style="overflow:visible"
       id="Arrow1Send-2"
       refX="0"
       refY="0"
       orient="auto"
       inkscape:stockid="Arrow1Send"
       inkscape:isstock="true">
      <path
         transform="matrix(-0.2,0,0,-0.2,-1.2,0)"
         style="fill:#0000ce;fill-opacity:1;fill-rule:evenodd;stroke:#0000ce;stroke-width:1pt;stroke-opacity:1"
         d="M 0,0 5,-5 -12.5,0 5,5 Z"
         id="path995-8" />
    </marker>
    <g
       id="g8148">
      <symbol
         overflow="visible"
         id="symbol8787">
        <path
           style="stroke:none"
           d=""
           id="path2003" />
      </symbol>
      <symbol
         overflow="visible"
         id="symbol4407">
        <path
           style="stroke:none"
           d="m 3.84375,-4.5625 c -0.4375,-0.171875 -0.71875,-0.25 -1.015625,-0.25 -0.265625,0 -0.5,0.09375 -0.78125,0.25 C 1.6875,-4.34375 1.25,-3.984375 1.03125,-3.734375 c -0.40625,0.46875 -0.796875,1.9375 -0.796875,2.953125 0,0.59375 0.125,0.890625 0.359375,0.890625 C 0.8125,0.109375 1,0.03125 1.328125,-0.1875 L 1.40625,-0.25 C 2.046875,-0.703125 2.703125,-1.421875 3.078125,-2.078125 L 2.3125,2.046875 C 2.265625,2.28125 2.15625,2.484375 2.046875,2.609375 L 2.140625,2.75 C 2.4375,2.671875 2.75,2.609375 2.984375,2.578125 3.03125,2.046875 3.09375,1.5 3.1875,1 l 0.84375,-4.546875 c 0.109375,-0.609375 0.171875,-0.875 0.28125,-1.171875 l -0.140625,-0.0625 z m -0.546875,1.46875 c -0.109375,0.5 -0.34375,0.9375 -0.703125,1.40625 -0.515625,0.625 -1.125,1.09375 -1.421875,1.09375 -0.140625,0 -0.21875,-0.203125 -0.21875,-0.53125 0,-0.953125 0.4375,-2.453125 0.84375,-2.953125 0.125,-0.15625 0.421875,-0.234375 0.734375,-0.234375 0.28125,0 0.484375,0.0625 0.96875,0.265625 z m 0,0"
           id="path6541" />
      </symbol>
      <symbol
         overflow="visible"
         id="symbol6996">
        <path
           style="stroke:none"
           d=""
           id="path6512" />
      </symbol>
      <symbol
         overflow="visible"
         id="symbol8593">
        <path
           style="stroke:none"
           d="m 0.46875,-3.875 h 0.0625 L 1.4375,-4.265625 c 0,-0.015625 0.015625,-0.015625 0.015625,-0.015625 0.046875,0 0.0625,0.0625 0.0625,0.234375 v 3.375 c 0,0.359375 -0.078125,0.4375 -0.453125,0.46875 L 0.671875,-0.1875 V 0.015625 C 1.734375,0 1.734375,0 1.8125,0 1.90625,0 2.0625,0 2.296875,0 2.390625,0.015625 2.625,0.015625 2.90625,0.015625 V -0.1875 L 2.546875,-0.203125 C 2.171875,-0.234375 2.09375,-0.3125 2.09375,-0.671875 v -4.125 L 2,-4.84375 c -0.453125,0.25 -0.953125,0.453125 -1.578125,0.671875 z m 0,0"
           id="path8548" />
      </symbol>
    </g>
    <g
       id="g1892">
      <symbol
         overflow="visible"
         id="symbol5565">
        <path
           style="stroke:none"
           d=""
           id="path8208" />
      </symbol>
      <symbol
         overflow="visible"
         id="symbol2268">
        <path
           style="stroke:none"
           d="m 3.84375,-4.5625 c -0.4375,-0.171875 -0.71875,-0.25 -1.015625,-0.25 -0.265625,0 -0.5,0.09375 -0.78125,0.25 C 1.6875,-4.34375 1.25,-3.984375 1.03125,-3.734375 c -0.40625,0.46875 -0.796875,1.9375 -0.796875,2.953125 0,0.59375 0.125,0.890625 0.359375,0.890625 C 0.8125,0.109375 1,0.03125 1.328125,-0.1875 L 1.40625,-0.25 C 2.046875,-0.703125 2.703125,-1.421875 3.078125,-2.078125 L 2.3125,2.046875 C 2.265625,2.28125 2.15625,2.484375 2.046875,2.609375 L 2.140625,2.75 C 2.4375,2.671875 2.75,2.609375 2.984375,2.578125 3.03125,2.046875 3.09375,1.5 3.1875,1 l 0.84375,-4.546875 c 0.109375,-0.609375 0.171875,-0.875 0.28125,-1.171875 l -0.140625,-0.0625 z m -0.546875,1.46875 c -0.109375,0.5 -0.34375,0.9375 -0.703125,1.40625 -0.515625,0.625 -1.125,1.09375 -1.421875,1.09375 -0.140625,0 -0.21875,-0.203125 -0.21875,-0.53125 0,-0.953125 0.4375,-2.453125 0.84375,-2.953125 0.125,-0.15625 0.421875,-0.234375 0.734375,-0.234375 0.28125,0 0.484375,0.0625 0.96875,0.265625 z m 0,0"
           id="path6397" />
      </symbol>
      <symbol
         overflow="visible"
         id="symbol2132">
        <path
           style="stroke:none"
           d=""
           id="path7554" />
      </symbol>
      <symbol
         overflow="visible"
         id="symbol8420">
        <path
           style="stroke:none"
           d="m 0.46875,-3.875 h 0.0625 L 1.4375,-4.265625 c 0,-0.015625 0.015625,-0.015625 0.015625,-0.015625 0.046875,0 0.0625,0.0625 0.0625,0.234375 v 3.375 c 0,0.359375 -0.078125,0.4375 -0.453125,0.46875 L 0.671875,-0.1875 V 0.015625 C 1.734375,0 1.734375,0 1.8125,0 1.90625,0 2.0625,0 2.296875,0 2.390625,0.015625 2.625,0.015625 2.90625,0.015625 V -0.1875 L 2.546875,-0.203125 C 2.171875,-0.234375 2.09375,-0.3125 2.09375,-0.671875 v -4.125 L 2,-4.84375 c -0.453125,0.25 -0.953125,0.453125 -1.578125,0.671875 z m 0,0"
           id="path8702" />
      </symbol>
    </g>
    <g
       id="g9788">
      <symbol
         overflow="visible"
         id="symbol2983">
        <path
           style="stroke:none"
           d=""
           id="path7287" />
      </symbol>
      <symbol
         overflow="visible"
         id="symbol7632">
        <path
           style="stroke:none"
           d="m 3.84375,-4.5625 c -0.4375,-0.171875 -0.71875,-0.25 -1.015625,-0.25 -0.265625,0 -0.5,0.09375 -0.78125,0.25 C 1.6875,-4.34375 1.25,-3.984375 1.03125,-3.734375 c -0.40625,0.46875 -0.796875,1.9375 -0.796875,2.953125 0,0.59375 0.125,0.890625 0.359375,0.890625 C 0.8125,0.109375 1,0.03125 1.328125,-0.1875 L 1.40625,-0.25 C 2.046875,-0.703125 2.703125,-1.421875 3.078125,-2.078125 L 2.3125,2.046875 C 2.265625,2.28125 2.15625,2.484375 2.046875,2.609375 L 2.140625,2.75 C 2.4375,2.671875 2.75,2.609375 2.984375,2.578125 3.03125,2.046875 3.09375,1.5 3.1875,1 l 0.84375,-4.546875 c 0.109375,-0.609375 0.171875,-0.875 0.28125,-1.171875 l -0.140625,-0.0625 z m -0.546875,1.46875 c -0.109375,0.5 -0.34375,0.9375 -0.703125,1.40625 -0.515625,0.625 -1.125,1.09375 -1.421875,1.09375 -0.140625,0 -0.21875,-0.203125 -0.21875,-0.53125 0,-0.953125 0.4375,-2.453125 0.84375,-2.953125 0.125,-0.15625 0.421875,-0.234375 0.734375,-0.234375 0.28125,0 0.484375,0.0625 0.96875,0.265625 z m 0,0"
           id="path2942" />
      </symbol>
      <symbol
         overflow="visible"
         id="symbol8274">
        <path
           style="stroke:none"
           d=""
           id="path6414" />
      </symbol>
      <symbol
         overflow="visible"
         id="symbol8475">
        <path
           style="stroke:none"
           d="m 0.46875,-3.875 h 0.0625 L 1.4375,-4.265625 c 0,-0.015625 0.015625,-0.015625 0.015625,-0.015625 0.046875,0 0.0625,0.0625 0.0625,0.234375 v 3.375 c 0,0.359375 -0.078125,0.4375 -0.453125,0.46875 L 0.671875,-0.1875 V 0.015625 C 1.734375,0 1.734375,0 1.8125,0 1.90625,0 2.0625,0 2.296875,0 2.390625,0.015625 2.625,0.015625 2.90625,0.015625 V -0.1875 L 2.546875,-0.203125 C 2.171875,-0.234375 2.09375,-0.3125 2.09375,-0.671875 v -4.125 L 2,-4.84375 c -0.453125,0.25 -0.953125,0.453125 -1.578125,0.671875 z m 0,0"
           id="path665" />
      </symbol>
    </g>
    <g
       id="g3869">
      <symbol
         overflow="visible"
         id="symbol7197">
        <path
           style="stroke:none"
           d=""
           id="path651" />
      </symbol>
      <symbol
         overflow="visible"
         id="symbol1663">
        <path
           style="stroke:none"
           d="m 3.84375,-4.5625 c -0.4375,-0.171875 -0.71875,-0.25 -1.015625,-0.25 -0.265625,0 -0.5,0.09375 -0.78125,0.25 C 1.6875,-4.34375 1.25,-3.984375 1.03125,-3.734375 c -0.40625,0.46875 -0.796875,1.9375 -0.796875,2.953125 0,0.59375 0.125,0.890625 0.359375,0.890625 C 0.8125,0.109375 1,0.03125 1.328125,-0.1875 L 1.40625,-0.25 C 2.046875,-0.703125 2.703125,-1.421875 3.078125,-2.078125 L 2.3125,2.046875 C 2.265625,2.28125 2.15625,2.484375 2.046875,2.609375 L 2.140625,2.75 C 2.4375,2.671875 2.75,2.609375 2.984375,2.578125 3.03125,2.046875 3.09375,1.5 3.1875,1 l 0.84375,-4.546875 c 0.109375,-0.609375 0.171875,-0.875 0.28125,-1.171875 l -0.140625,-0.0625 z m -0.546875,1.46875 c -0.109375,0.5 -0.34375,0.9375 -0.703125,1.40625 -0.515625,0.625 -1.125,1.09375 -1.421875,1.09375 -0.140625,0 -0.21875,-0.203125 -0.21875,-0.53125 0,-0.953125 0.4375,-2.453125 0.84375,-2.953125 0.125,-0.15625 0.421875,-0.234375 0.734375,-0.234375 0.28125,0 0.484375,0.0625 0.96875,0.265625 z m 0,0"
           id="path7926" />
      </symbol>
      <symbol
         overflow="visible"
         id="symbol2208">
        <path
           style="stroke:none"
           d=""
           id="path4908" />
      </symbol>
      <symbol
         overflow="visible"
         id="symbol1237">
        <path
           style="stroke:none"
           d="m 0.46875,-3.875 h 0.0625 L 1.4375,-4.265625 c 0,-0.015625 0.015625,-0.015625 0.015625,-0.015625 0.046875,0 0.0625,0.0625 0.0625,0.234375 v 3.375 c 0,0.359375 -0.078125,0.4375 -0.453125,0.46875 L 0.671875,-0.1875 V 0.015625 C 1.734375,0 1.734375,0 1.8125,0 1.90625,0 2.0625,0 2.296875,0 2.390625,0.015625 2.625,0.015625 2.90625,0.015625 V -0.1875 L 2.546875,-0.203125 C 2.171875,-0.234375 2.09375,-0.3125 2.09375,-0.671875 v -4.125 L 2,-4.84375 c -0.453125,0.25 -0.953125,0.453125 -1.578125,0.671875 z m 0,0"
           id="path5338" />
      </symbol>
    </g>
    <g
       id="g7111">
      <symbol
         overflow="visible"
         id="symbol4214">
        <path
           style="stroke:none"
           d=""
           id="path5723" />
      </symbol>
      <symbol
         overflow="visible"
         id="symbol2108">
        <path
           style="stroke:none"
           d="m 3.84375,-4.5625 c -0.4375,-0.171875 -0.71875,-0.25 -1.015625,-0.25 -0.265625,0 -0.5,0.09375 -0.78125,0.25 C 1.6875,-4.34375 1.25,-3.984375 1.03125,-3.734375 c -0.40625,0.46875 -0.796875,1.9375 -0.796875,2.953125 0,0.59375 0.125,0.890625 0.359375,0.890625 C 0.8125,0.109375 1,0.03125 1.328125,-0.1875 L 1.40625,-0.25 C 2.046875,-0.703125 2.703125,-1.421875 3.078125,-2.078125 L 2.3125,2.046875 C 2.265625,2.28125 2.15625,2.484375 2.046875,2.609375 L 2.140625,2.75 C 2.4375,2.671875 2.75,2.609375 2.984375,2.578125 3.03125,2.046875 3.09375,1.5 3.1875,1 l 0.84375,-4.546875 c 0.109375,-0.609375 0.171875,-0.875 0.28125,-1.171875 l -0.140625,-0.0625 z m -0.546875,1.46875 c -0.109375,0.5 -0.34375,0.9375 -0.703125,1.40625 -0.515625,0.625 -1.125,1.09375 -1.421875,1.09375 -0.140625,0 -0.21875,-0.203125 -0.21875,-0.53125 0,-0.953125 0.4375,-2.453125 0.84375,-2.953125 0.125,-0.15625 0.421875,-0.234375 0.734375,-0.234375 0.28125,0 0.484375,0.0625 0.96875,0.265625 z m 0,0"
           id="path9918" />
      </symbol>
      <symbol
         overflow="visible"
         id="symbol2066">
        <path
           style="stroke:none"
           d=""
           id="path7223" />
      </symbol>
      <symbol
         overflow="visible"
         id="symbol9845">
        <path
           style="stroke:none"
           d="m 0.46875,-3.875 h 0.0625 L 1.4375,-4.265625 c 0,-0.015625 0.015625,-0.015625 0.015625,-0.015625 0.046875,0 0.0625,0.0625 0.0625,0.234375 v 3.375 c 0,0.359375 -0.078125,0.4375 -0.453125,0.46875 L 0.671875,-0.1875 V 0.015625 C 1.734375,0 1.734375,0 1.8125,0 1.90625,0 2.0625,0 2.296875,0 2.390625,0.015625 2.625,0.015625 2.90625,0.015625 V -0.1875 L 2.546875,-0.203125 C 2.171875,-0.234375 2.09375,-0.3125 2.09375,-0.671875 v -4.125 L 2,-4.84375 c -0.453125,0.25 -0.953125,0.453125 -1.578125,0.671875 z m 0,0"
           id="path3141" />
      </symbol>
    </g>
    <g
       id="g4135">
      <symbol
         overflow="visible"
         id="symbol6405">
        <path
           style="stroke:none"
           d=""
           id="path3448" />
      </symbol>
      <symbol
         overflow="visible"
         id="symbol2451">
        <path
           style="stroke:none"
           d="m 4,-4.703125 -0.09375,-0.09375 -0.328125,0.1875 C 3.171875,-4.765625 3,-4.8125 2.734375,-4.8125 c -0.28125,0 -0.484375,0.0625 -0.75,0.1875 -0.625,0.3125 -0.953125,0.609375 -1.203125,1.09375 -0.4375,0.890625 -0.734375,2.078125 -0.734375,2.859375 0,0.4375 0.140625,0.78125 0.328125,0.78125 0.21875,0 0.609375,-0.21875 0.984375,-0.5625 0.421875,-0.375 0.796875,-0.828125 1.34375,-1.578125 L 2.40625,-0.765625 c -0.03125,0.171875 -0.046875,0.34375 -0.046875,0.5 0,0.21875 0.078125,0.359375 0.234375,0.359375 0.234375,0 0.640625,-0.265625 1.453125,-0.9375 L 3.984375,-1.0625 C 3.921875,-1 3.890625,-0.984375 3.84375,-0.953125 3.53125,-0.671875 3.375,-0.59375 3.234375,-0.59375 c -0.09375,0 -0.15625,-0.078125 -0.15625,-0.21875 0,-0.0625 0,-0.078125 0.015625,-0.109375 z M 3.1875,-4.125 c -0.234375,1.078125 -0.421875,1.609375 -0.75,2.125 -0.578125,0.828125 -1.1875,1.40625 -1.5,1.40625 -0.125,0 -0.1875,-0.125 -0.1875,-0.390625 0,-0.640625 0.28125,-1.8125 0.640625,-2.609375 0.234375,-0.546875 0.46875,-0.71875 0.9375,-0.71875 0.234375,0 0.40625,0.03125 0.859375,0.1875 z m 0,0"
           id="path7128" />
      </symbol>
    </g>
    <g
       id="g1295">
      <symbol
         overflow="visible"
         id="symbol3928">
        <path
           style="stroke:none"
           d=""
           id="path2753" />
      </symbol>
      <symbol
         overflow="visible"
         id="symbol9208">
        <path
           style="stroke:none"
           d="m 3.84375,-4.5625 c -0.4375,-0.171875 -0.71875,-0.25 -1.015625,-0.25 -0.265625,0 -0.5,0.09375 -0.78125,0.25 C 1.6875,-4.34375 1.25,-3.984375 1.03125,-3.734375 c -0.40625,0.46875 -0.796875,1.9375 -0.796875,2.953125 0,0.59375 0.125,0.890625 0.359375,0.890625 C 0.8125,0.109375 1,0.03125 1.328125,-0.1875 L 1.40625,-0.25 C 2.046875,-0.703125 2.703125,-1.421875 3.078125,-2.078125 L 2.3125,2.046875 C 2.265625,2.28125 2.15625,2.484375 2.046875,2.609375 L 2.140625,2.75 C 2.4375,2.671875 2.75,2.609375 2.984375,2.578125 3.03125,2.046875 3.09375,1.5 3.1875,1 l 0.84375,-4.546875 c 0.109375,-0.609375 0.171875,-0.875 0.28125,-1.171875 l -0.140625,-0.0625 z m -0.546875,1.46875 c -0.109375,0.5 -0.34375,0.9375 -0.703125,1.40625 -0.515625,0.625 -1.125,1.09375 -1.421875,1.09375 -0.140625,0 -0.21875,-0.203125 -0.21875,-0.53125 0,-0.953125 0.4375,-2.453125 0.84375,-2.953125 0.125,-0.15625 0.421875,-0.234375 0.734375,-0.234375 0.28125,0 0.484375,0.0625 0.96875,0.265625 z m 0,0"
           id="path5474" />
      </symbol>
      <symbol
         overflow="visible"
         id="symbol5293">
        <path
           style="stroke:none"
           d=""
           id="path3009" />
      </symbol>
      <symbol
         overflow="visible"
         id="symbol5279">
        <path
           style="stroke:none"
           d="m 0.46875,-3.875 h 0.0625 L 1.4375,-4.265625 c 0,-0.015625 0.015625,-0.015625 0.015625,-0.015625 0.046875,0 0.0625,0.0625 0.0625,0.234375 v 3.375 c 0,0.359375 -0.078125,0.4375 -0.453125,0.46875 L 0.671875,-0.1875 V 0.015625 C 1.734375,0 1.734375,0 1.8125,0 1.90625,0 2.0625,0 2.296875,0 2.390625,0.015625 2.625,0.015625 2.90625,0.015625 V -0.1875 L 2.546875,-0.203125 C 2.171875,-0.234375 2.09375,-0.3125 2.09375,-0.671875 v -4.125 L 2,-4.84375 c -0.453125,0.25 -0.953125,0.453125 -1.578125,0.671875 z m 0,0"
           id="path7075" />
      </symbol>
    </g>
    <g
       id="g4351">
      <symbol
         overflow="visible"
         id="symbol5765">
        <path
           style="stroke:none"
           d=""
           id="path940" />
      </symbol>
      <symbol
         overflow="visible"
         id="symbol8701">
        <path
           style="stroke:none"
           d="m 3.84375,-4.5625 c -0.4375,-0.171875 -0.71875,-0.25 -1.015625,-0.25 -0.265625,0 -0.5,0.09375 -0.78125,0.25 C 1.6875,-4.34375 1.25,-3.984375 1.03125,-3.734375 c -0.40625,0.46875 -0.796875,1.9375 -0.796875,2.953125 0,0.59375 0.125,0.890625 0.359375,0.890625 C 0.8125,0.109375 1,0.03125 1.328125,-0.1875 L 1.40625,-0.25 C 2.046875,-0.703125 2.703125,-1.421875 3.078125,-2.078125 L 2.3125,2.046875 C 2.265625,2.28125 2.15625,2.484375 2.046875,2.609375 L 2.140625,2.75 C 2.4375,2.671875 2.75,2.609375 2.984375,2.578125 3.03125,2.046875 3.09375,1.5 3.1875,1 l 0.84375,-4.546875 c 0.109375,-0.609375 0.171875,-0.875 0.28125,-1.171875 l -0.140625,-0.0625 z m -0.546875,1.46875 c -0.109375,0.5 -0.34375,0.9375 -0.703125,1.40625 -0.515625,0.625 -1.125,1.09375 -1.421875,1.09375 -0.140625,0 -0.21875,-0.203125 -0.21875,-0.53125 0,-0.953125 0.4375,-2.453125 0.84375,-2.953125 0.125,-0.15625 0.421875,-0.234375 0.734375,-0.234375 0.28125,0 0.484375,0.0625 0.96875,0.265625 z m 0,0"
           id="path5821" />
      </symbol>
      <symbol
         overflow="visible"
         id="symbol9381">
        <path
           style="stroke:none"
           d=""
           id="path1190" />
      </symbol>
      <symbol
         overflow="visible"
         id="symbol9361">
        <path
           style="stroke:none"
           d="M 0.109375,-0.15625 V 0.015625 C 1.421875,0 1.421875,0 1.671875,0 c 0.25,0 0.25,0 1.59375,0.015625 C 3.25,-0.125 3.25,-0.1875 3.25,-0.296875 c 0,-0.09375 0,-0.15625 0.015625,-0.3125 -0.8125,0.03125 -1.125,0.046875 -2.421875,0.078125 L 2.125,-1.875 C 2.796875,-2.59375 3,-2.984375 3,-3.5 3,-4.3125 2.453125,-4.796875 1.578125,-4.796875 c -0.5,0 -0.84375,0.140625 -1.1875,0.484375 l -0.125,0.953125 H 0.46875 L 0.5625,-3.6875 c 0.109375,-0.40625 0.359375,-0.578125 0.828125,-0.578125 0.609375,0 0.984375,0.375 0.984375,0.96875 0,0.515625 -0.296875,1.03125 -1.078125,1.875 z m 0,0"
           id="path7644" />
      </symbol>
    </g>
    <g
       id="g3629">
      <symbol
         overflow="visible"
         id="symbol8497">
        <path
           style="stroke:none"
           d=""
           id="path6359" />
      </symbol>
      <symbol
         overflow="visible"
         id="symbol328">
        <path
           style="stroke:none"
           d="M 9.34375,-6.625 9.375,-6.890625 H 9.09375 C 8.8125,-6.875 8.65625,-6.875 8.53125,-6.875 H 8.296875 l -0.59375,-0.015625 -0.15625,0.296875 c -0.265625,0.515625 -0.453125,0.859375 -0.6875,1.25 l -2.453125,4.203125 -1.5,-5.75 H 2.625 C 2.359375,-6.875 2.203125,-6.875 2.078125,-6.875 h -0.25 L 1.25,-6.890625 1.21875,-6.625 l 0.25,0.03125 C 2,-6.5625 2.171875,-6.453125 2.171875,-6.203125 c 0,0.0625 -0.015625,0.125 -0.03125,0.203125 l -1.4375,5.078125 c -0.171875,0.515625 -0.3125,0.640625 -0.859375,0.6875 L -0.1875,0.03125 0.203125,0.015625 C 0.53125,0.015625 0.78125,0 0.921875,0 c 0.140625,0 0.40625,0.015625 0.75,0.015625 L 2.03125,0.03125 2.046875,-0.25 1.671875,-0.28125 C 1.359375,-0.296875 1.1875,-0.40625 1.1875,-0.546875 c 0,-0.09375 0.015625,-0.234375 0.0625,-0.40625 l 1.25,-4.625 1.484375,5.75 h 0.21875 l 0.578125,-1.03125 c 0.765625,-1.40625 1.703125,-3.015625 2.375,-4.125 l 0.515625,-0.875 -0.359375,5.1875 C 7.265625,-0.390625 7.140625,-0.3125 6.640625,-0.28125 L 6.328125,-0.25 6.296875,0.03125 6.765625,0.015625 C 7.1875,0.015625 7.484375,0 7.640625,0 7.796875,0 8.09375,0.015625 8.5,0.015625 L 8.96875,0.03125 8.984375,-0.25 8.625,-0.28125 C 8.265625,-0.3125 8.078125,-0.421875 8.078125,-0.625 L 8.09375,-1 8.5,-6.296875 c 0.015625,-0.1875 0.171875,-0.28125 0.46875,-0.296875 z m 0,0"
           id="path490" />
      </symbol>
      <symbol
         overflow="visible"
         id="symbol2844">
        <path
           style="stroke:none"
           d=""
           id="path9886" />
      </symbol>
      <symbol
         overflow="visible"
         id="symbol9556">
        <path
           style="stroke:none"
           d="M 0.109375,-0.15625 V 0.015625 C 1.421875,0 1.421875,0 1.671875,0 c 0.25,0 0.25,0 1.59375,0.015625 C 3.25,-0.125 3.25,-0.1875 3.25,-0.296875 c 0,-0.09375 0,-0.15625 0.015625,-0.3125 -0.8125,0.03125 -1.125,0.046875 -2.421875,0.078125 L 2.125,-1.875 C 2.796875,-2.59375 3,-2.984375 3,-3.5 3,-4.3125 2.453125,-4.796875 1.578125,-4.796875 c -0.5,0 -0.84375,0.140625 -1.1875,0.484375 l -0.125,0.953125 H 0.46875 L 0.5625,-3.6875 c 0.109375,-0.40625 0.359375,-0.578125 0.828125,-0.578125 0.609375,0 0.984375,0.375 0.984375,0.96875 0,0.515625 -0.296875,1.03125 -1.078125,1.875 z m 0,0"
           id="path969" />
      </symbol>
    </g>
    <g
       id="g8895">
      <symbol
         overflow="visible"
         id="symbol3431">
        <path
           style="stroke:none"
           d=""
           id="path4216" />
      </symbol>
      <symbol
         overflow="visible"
         id="symbol2010">
        <path
           style="stroke:none"
           d="M 9.34375,-6.625 9.375,-6.890625 H 9.09375 C 8.8125,-6.875 8.65625,-6.875 8.53125,-6.875 H 8.296875 l -0.59375,-0.015625 -0.15625,0.296875 c -0.265625,0.515625 -0.453125,0.859375 -0.6875,1.25 l -2.453125,4.203125 -1.5,-5.75 H 2.625 C 2.359375,-6.875 2.203125,-6.875 2.078125,-6.875 h -0.25 L 1.25,-6.890625 1.21875,-6.625 l 0.25,0.03125 C 2,-6.5625 2.171875,-6.453125 2.171875,-6.203125 c 0,0.0625 -0.015625,0.125 -0.03125,0.203125 l -1.4375,5.078125 c -0.171875,0.515625 -0.3125,0.640625 -0.859375,0.6875 L -0.1875,0.03125 0.203125,0.015625 C 0.53125,0.015625 0.78125,0 0.921875,0 c 0.140625,0 0.40625,0.015625 0.75,0.015625 L 2.03125,0.03125 2.046875,-0.25 1.671875,-0.28125 C 1.359375,-0.296875 1.1875,-0.40625 1.1875,-0.546875 c 0,-0.09375 0.015625,-0.234375 0.0625,-0.40625 l 1.25,-4.625 1.484375,5.75 h 0.21875 l 0.578125,-1.03125 c 0.765625,-1.40625 1.703125,-3.015625 2.375,-4.125 l 0.515625,-0.875 -0.359375,5.1875 C 7.265625,-0.390625 7.140625,-0.3125 6.640625,-0.28125 L 6.328125,-0.25 6.296875,0.03125 6.765625,0.015625 C 7.1875,0.015625 7.484375,0 7.640625,0 7.796875,0 8.09375,0.015625 8.5,0.015625 L 8.96875,0.03125 8.984375,-0.25 8.625,-0.28125 C 8.265625,-0.3125 8.078125,-0.421875 8.078125,-0.625 L 8.09375,-1 8.5,-6.296875 c 0.015625,-0.1875 0.171875,-0.28125 0.46875,-0.296875 z m 0,0"
           id="path7922" />
      </symbol>
      <symbol
         overflow="visible"
         id="symbol5710">
        <path
           style="stroke:none"
           d=""
           id="path1150" />
      </symbol>
      <symbol
         overflow="visible"
         id="symbol4760">
        <path
           style="stroke:none"
           d="m 0.46875,-3.875 h 0.0625 L 1.4375,-4.265625 c 0,-0.015625 0.015625,-0.015625 0.015625,-0.015625 0.046875,0 0.0625,0.0625 0.0625,0.234375 v 3.375 c 0,0.359375 -0.078125,0.4375 -0.453125,0.46875 L 0.671875,-0.1875 V 0.015625 C 1.734375,0 1.734375,0 1.8125,0 1.90625,0 2.0625,0 2.296875,0 2.390625,0.015625 2.625,0.015625 2.90625,0.015625 V -0.1875 L 2.546875,-0.203125 C 2.171875,-0.234375 2.09375,-0.3125 2.09375,-0.671875 v -4.125 L 2,-4.84375 c -0.453125,0.25 -0.953125,0.453125 -1.578125,0.671875 z m 0,0"
           id="path5903" />
      </symbol>
    </g>
    <g
       id="g6031">
      <symbol
         overflow="visible"
         id="symbol7459">
        <path
           style="stroke:none"
           d=""
           id="path6757" />
      </symbol>
      <symbol
         overflow="visible"
         id="symbol8672">
        <path
           style="stroke:none"
           d="M 9.34375,-6.625 9.375,-6.890625 H 9.09375 C 8.8125,-6.875 8.65625,-6.875 8.53125,-6.875 H 8.296875 l -0.59375,-0.015625 -0.15625,0.296875 c -0.265625,0.515625 -0.453125,0.859375 -0.6875,1.25 l -2.453125,4.203125 -1.5,-5.75 H 2.625 C 2.359375,-6.875 2.203125,-6.875 2.078125,-6.875 h -0.25 L 1.25,-6.890625 1.21875,-6.625 l 0.25,0.03125 C 2,-6.5625 2.171875,-6.453125 2.171875,-6.203125 c 0,0.0625 -0.015625,0.125 -0.03125,0.203125 l -1.4375,5.078125 c -0.171875,0.515625 -0.3125,0.640625 -0.859375,0.6875 L -0.1875,0.03125 0.203125,0.015625 C 0.53125,0.015625 0.78125,0 0.921875,0 c 0.140625,0 0.40625,0.015625 0.75,0.015625 L 2.03125,0.03125 2.046875,-0.25 1.671875,-0.28125 C 1.359375,-0.296875 1.1875,-0.40625 1.1875,-0.546875 c 0,-0.09375 0.015625,-0.234375 0.0625,-0.40625 l 1.25,-4.625 1.484375,5.75 h 0.21875 l 0.578125,-1.03125 c 0.765625,-1.40625 1.703125,-3.015625 2.375,-4.125 l 0.515625,-0.875 -0.359375,5.1875 C 7.265625,-0.390625 7.140625,-0.3125 6.640625,-0.28125 L 6.328125,-0.25 6.296875,0.03125 6.765625,0.015625 C 7.1875,0.015625 7.484375,0 7.640625,0 7.796875,0 8.09375,0.015625 8.5,0.015625 L 8.96875,0.03125 8.984375,-0.25 8.625,-0.28125 C 8.265625,-0.3125 8.078125,-0.421875 8.078125,-0.625 L 8.09375,-1 8.5,-6.296875 c 0.015625,-0.1875 0.171875,-0.28125 0.46875,-0.296875 z m 0,0"
           id="path5236" />
      </symbol>
      <symbol
         overflow="visible"
         id="symbol5423">
        <path
           style="stroke:none"
           d=""
           id="path8178" />
      </symbol>
      <symbol
         overflow="visible"
         id="symbol3244">
        <path
           style="stroke:none"
           d="m 0.46875,-3.875 h 0.0625 L 1.4375,-4.265625 c 0,-0.015625 0.015625,-0.015625 0.015625,-0.015625 0.046875,0 0.0625,0.0625 0.0625,0.234375 v 3.375 c 0,0.359375 -0.078125,0.4375 -0.453125,0.46875 L 0.671875,-0.1875 V 0.015625 C 1.734375,0 1.734375,0 1.8125,0 1.90625,0 2.0625,0 2.296875,0 2.390625,0.015625 2.625,0.015625 2.90625,0.015625 V -0.1875 L 2.546875,-0.203125 C 2.171875,-0.234375 2.09375,-0.3125 2.09375,-0.671875 v -4.125 L 2,-4.84375 c -0.453125,0.25 -0.953125,0.453125 -1.578125,0.671875 z m 0,0"
           id="path6458" />
      </symbol>
    </g>
    <g
       id="g2827">
      <symbol
         overflow="visible"
         id="symbol8285">
        <path
           style="stroke:none"
           d=""
           id="path6088" />
      </symbol>
      <symbol
         overflow="visible"
         id="symbol2005">
        <path
           style="stroke:none"
           d="m 2.84375,-6.4375 1.0625,-0.046875 c 0.625,0 1.015625,0.09375 1.03125,0.25 l 0.078125,0.875 H 5.25 c 0.03125,-0.625 0.109375,-1.125 0.21875,-1.515625 C 5.25,-6.890625 4.96875,-6.890625 4.796875,-6.890625 H 4.390625 L 2.734375,-6.875 h -0.28125 c -0.25,0 -0.65625,0 -1.03125,-0.015625 H 0.9375 L 0.90625,-6.625 l 0.5625,0.03125 c 0.234375,0 0.34375,0.09375 0.34375,0.265625 0,0.140625 -0.03125,0.453125 -0.09375,0.75 L 0.984375,-1.25 C 0.8125,-0.328125 0.8125,-0.3125 0.40625,-0.28125 L 0.046875,-0.25 0,0.03125 0.34375,0.015625 C 0.734375,0.015625 1.0625,0 1.265625,0 1.453125,0 1.734375,0.015625 2.125,0.015625 L 2.640625,0.03125 2.671875,-0.25 2.03125,-0.28125 C 1.765625,-0.296875 1.671875,-0.375 1.671875,-0.5625 1.671875,-0.625 1.6875,-0.734375 1.6875,-0.78125 L 2.046875,-3 H 3.21875 c 0.265625,0 0.578125,0.015625 1.0625,0.03125 l 0.25,0.015625 L 4.71875,-3.40625 4.6875,-3.484375 C 3.875,-3.4375 3.28125,-3.421875 2.5,-3.421875 H 2.140625 L 2.59375,-6.125 C 2.625,-6.28125 2.625,-6.328125 2.6875,-6.4375 Z m 0,0"
           id="path9089" />
      </symbol>
      <symbol
         overflow="visible"
         id="symbol4576">
        <path
           style="stroke:none"
           d=""
           id="path1815" />
      </symbol>
      <symbol
         overflow="visible"
         id="symbol5844">
        <path
           style="stroke:none"
           d="m 0.46875,-3.875 h 0.0625 L 1.4375,-4.265625 c 0,-0.015625 0.015625,-0.015625 0.015625,-0.015625 0.046875,0 0.0625,0.0625 0.0625,0.234375 v 3.375 c 0,0.359375 -0.078125,0.4375 -0.453125,0.46875 L 0.671875,-0.1875 V 0.015625 C 1.734375,0 1.734375,0 1.8125,0 1.90625,0 2.0625,0 2.296875,0 2.390625,0.015625 2.625,0.015625 2.90625,0.015625 V -0.1875 L 2.546875,-0.203125 C 2.171875,-0.234375 2.09375,-0.3125 2.09375,-0.671875 v -4.125 L 2,-4.84375 c -0.453125,0.25 -0.953125,0.453125 -1.578125,0.671875 z m 0,0"
           id="path8846" />
      </symbol>
      <symbol
         overflow="visible"
         id="symbol479">
        <path
           style="stroke:none"
           d="M 0.109375,-0.15625 V 0.015625 C 1.421875,0 1.421875,0 1.671875,0 c 0.25,0 0.25,0 1.59375,0.015625 C 3.25,-0.125 3.25,-0.1875 3.25,-0.296875 c 0,-0.09375 0,-0.15625 0.015625,-0.3125 -0.8125,0.03125 -1.125,0.046875 -2.421875,0.078125 L 2.125,-1.875 C 2.796875,-2.59375 3,-2.984375 3,-3.5 3,-4.3125 2.453125,-4.796875 1.578125,-4.796875 c -0.5,0 -0.84375,0.140625 -1.1875,0.484375 l -0.125,0.953125 H 0.46875 L 0.5625,-3.6875 c 0.109375,-0.40625 0.359375,-0.578125 0.828125,-0.578125 0.609375,0 0.984375,0.375 0.984375,0.96875 0,0.515625 -0.296875,1.03125 -1.078125,1.875 z m 0,0"
           id="path4488" />
      </symbol>
      <symbol
         overflow="visible"
         id="symbol9194">
        <path
           style="stroke:none"
           d=""
           id="path4899" />
      </symbol>
      <symbol
         overflow="visible"
         id="symbol837">
        <path
           style="stroke:none"
           d="m 6.609375,-1.890625 -1.4375,-1.5 -0.21875,0.234375 0.875,1.0625 h -5.375 v 0.421875 h 5.375 l -0.875,1.046875 0.21875,0.234375 z m 0,0"
           id="path7486" />
      </symbol>
    </g>
    <g
       id="g5019">
      <symbol
         overflow="visible"
         id="symbol2646">
        <path
           style="stroke:none"
           d=""
           id="path4818" />
      </symbol>
      <symbol
         overflow="visible"
         id="symbol5184">
        <path
           style="stroke:none"
           d="m 2.53125,-6.1875 c 0.484375,-0.015625 0.8125,-0.015625 1.15625,-0.015625 0.671875,0 1.09375,0.0625 1.109375,0.1875 L 4.875,-5.28125 H 5.234375 L 5.375,-6.6875 5.3125,-6.765625 C 4.9375,-6.78125 4.75,-6.796875 4.359375,-6.796875 c -0.21875,0 -0.59375,0.015625 -1.40625,0.03125 -0.453125,0 -0.703125,0 -0.90625,0 -0.28125,0 -0.28125,0 -1.765625,-0.015625 v 0.359375 l 0.359375,0.03125 C 1.09375,-6.34375 1.125,-6.296875 1.125,-5.40625 v 4.0625 c 0,0.890625 -0.015625,0.90625 -0.484375,0.9375 L 0.28125,-0.375 V 0.03125 C 1.484375,0 1.484375,0 1.828125,0 c 0.3125,0 0.3125,0 1.65625,0.03125 V -0.375 L 3.015625,-0.40625 C 2.546875,-0.421875 2.53125,-0.46875 2.53125,-1.34375 v -1.859375 c 0.28125,-0.03125 0.453125,-0.03125 0.671875,-0.03125 h 0.5 C 4.09375,-3.234375 4.25,-3.125 4.28125,-2.875 l 0.0625,0.5 h 0.390625 l -0.03125,-1.078125 c 0,-0.109375 0,-0.25 0.03125,-1.015625 H 4.34375 l -0.0625,0.515625 C 4.25,-3.78125 4.125,-3.734375 3.703125,-3.734375 h -0.5 c -0.328125,0 -0.46875,0 -0.671875,-0.03125 z m 0,0"
           id="path5158" />
      </symbol>
      <symbol
         overflow="visible"
         id="symbol4126">
        <path
           style="stroke:none"
           d=""
           id="path3207" />
      </symbol>
      <symbol
         overflow="visible"
         id="symbol3196">
        <path
           style="stroke:none"
           d="m 0.46875,-3.875 h 0.0625 L 1.4375,-4.265625 c 0,-0.015625 0.015625,-0.015625 0.015625,-0.015625 0.046875,0 0.0625,0.0625 0.0625,0.234375 v 3.375 c 0,0.359375 -0.078125,0.4375 -0.453125,0.46875 L 0.671875,-0.1875 V 0.015625 C 1.734375,0 1.734375,0 1.8125,0 1.90625,0 2.0625,0 2.296875,0 2.390625,0.015625 2.625,0.015625 2.90625,0.015625 V -0.1875 L 2.546875,-0.203125 C 2.171875,-0.234375 2.09375,-0.3125 2.09375,-0.671875 v -4.125 L 2,-4.84375 c -0.453125,0.25 -0.953125,0.453125 -1.578125,0.671875 z m 0,0"
           id="path4851" />
      </symbol>
      <symbol
         overflow="visible"
         id="symbol5580">
        <path
           style="stroke:none"
           d="M 0.109375,-0.15625 V 0.015625 C 1.421875,0 1.421875,0 1.671875,0 c 0.25,0 0.25,0 1.59375,0.015625 C 3.25,-0.125 3.25,-0.1875 3.25,-0.296875 c 0,-0.09375 0,-0.15625 0.015625,-0.3125 -0.8125,0.03125 -1.125,0.046875 -2.421875,0.078125 L 2.125,-1.875 C 2.796875,-2.59375 3,-2.984375 3,-3.5 3,-4.3125 2.453125,-4.796875 1.578125,-4.796875 c -0.5,0 -0.84375,0.140625 -1.1875,0.484375 l -0.125,0.953125 H 0.46875 L 0.5625,-3.6875 c 0.109375,-0.40625 0.359375,-0.578125 0.828125,-0.578125 0.609375,0 0.984375,0.375 0.984375,0.96875 0,0.515625 -0.296875,1.03125 -1.078125,1.875 z m 0,0"
           id="path2577" />
      </symbol>
      <symbol
         overflow="visible"
         id="symbol6841">
        <path
           style="stroke:none"
           d=""
           id="path5056" />
      </symbol>
      <symbol
         overflow="visible"
         id="symbol5368">
        <path
           style="stroke:none"
           d="m 6.609375,-1.890625 -1.4375,-1.5 -0.21875,0.234375 0.875,1.0625 h -5.375 v 0.421875 h 5.375 l -0.875,1.046875 0.21875,0.234375 z m 0,0"
           id="path4805" />
      </symbol>
    </g>
    <marker
       style="overflow:visible"
       id="marker1946-8"
       refX="0"
       refY="0"
       orient="auto"
       inkscape:stockid="Arrow1Send"
       inkscape:isstock="true">
      <path
         transform="matrix(-0.2,0,0,-0.2,-1.2,0)"
         style="fill:#000000;fill-opacity:1;fill-rule:evenodd;stroke:#000000;stroke-width:1pt;stroke-opacity:1"
         d="M 0,0 5,-5 -12.5,0 5,5 Z"
         id="path1944-5" />
    </marker>
    <marker
       style="overflow:visible"
       id="Arrow1Send-9"
       refX="0"
       refY="0"
       orient="auto"
       inkscape:stockid="Arrow1Send"
       inkscape:isstock="true">
      <path
         transform="matrix(-0.2,0,0,-0.2,-1.2,0)"
         style="fill:#0000ce;fill-opacity:1;fill-rule:evenodd;stroke:#0000ce;stroke-width:1pt;stroke-opacity:1"
         d="M 0,0 5,-5 -12.5,0 5,5 Z"
         id="path995-2" />
    </marker>
    <g
       id="g9719">
      <symbol
         overflow="visible"
         id="symbol6626">
        <path
           style="stroke:none;"
           d=""
           id="path5423" />
      </symbol>
      <symbol
         overflow="visible"
         id="symbol1968">
        <path
           style="stroke:none;"
           d="M 4.59375 -2.9375 C 4.59375 -4 3.84375 -4.6875 2.71875 -4.6875 C 2.359375 -4.6875 2.109375 -4.625 1.828125 -4.46875 L 1.359375 -4.1875 C 0.703125 -3.796875 0.421875 -3.203125 0.421875 -2.25 C 0.421875 -0.671875 1.21875 0.171875 2.703125 0.171875 C 3.265625 0.171875 3.640625 0.0625 4.28125 -0.265625 L 4.5 -0.734375 L 4.375 -0.890625 C 3.90625 -0.625 3.609375 -0.53125 3.203125 -0.53125 C 2.6875 -0.53125 2.203125 -0.8125 1.953125 -1.25 C 1.796875 -1.53125 1.734375 -1.75 1.71875 -2.21875 L 3.015625 -2.21875 C 3.59375 -2.21875 4.03125 -2.28125 4.59375 -2.421875 Z M 2.5 -2.71875 L 2.453125 -2.71875 C 2.390625 -2.71875 2.125 -2.734375 1.96875 -2.734375 L 1.65625 -2.75 C 1.6875 -3.734375 1.921875 -4.140625 2.5 -4.140625 C 3.078125 -4.140625 3.3125 -3.734375 3.328125 -2.75 Z M 2.5 -2.71875 "
           id="path2931" />
      </symbol>
      <symbol
         overflow="visible"
         id="symbol4092">
        <path
           style="stroke:none;"
           d=""
           id="path7681" />
      </symbol>
      <symbol
         overflow="visible"
         id="symbol8453">
        <path
           style="stroke:none;"
           d="M 6.53125 -4.625 L 6.546875 -4.828125 L 6.359375 -4.8125 C 6.15625 -4.796875 6.0625 -4.796875 5.96875 -4.796875 L 5.796875 -4.796875 L 5.390625 -4.828125 L 5.28125 -4.609375 C 5.09375 -4.25 4.953125 -4.015625 4.796875 -3.734375 L 3.078125 -0.796875 L 2.03125 -4.828125 L 1.84375 -4.8125 C 1.640625 -4.796875 1.546875 -4.796875 1.453125 -4.796875 L 1.28125 -4.796875 L 0.875 -4.828125 L 0.84375 -4.625 L 1.03125 -4.609375 C 1.390625 -4.578125 1.515625 -4.515625 1.515625 -4.328125 C 1.515625 -4.296875 1.515625 -4.25 1.5 -4.1875 L 0.484375 -0.640625 C 0.375 -0.28125 0.265625 -0.1875 -0.109375 -0.15625 L -0.125 0.015625 L 0.140625 0.015625 C 0.375 0 0.546875 0 0.640625 0 C 0.75 0 0.921875 0 1.171875 0.015625 L 1.421875 0.015625 L 1.4375 -0.171875 L 1.171875 -0.1875 C 0.953125 -0.203125 0.828125 -0.28125 0.828125 -0.390625 C 0.828125 -0.453125 0.84375 -0.546875 0.875 -0.671875 L 1.734375 -3.90625 L 2.78125 0.125 L 2.9375 0.125 L 3.34375 -0.59375 C 3.875 -1.578125 4.53125 -2.703125 5 -3.484375 L 5.359375 -4.09375 L 5.109375 -0.46875 C 5.078125 -0.265625 5 -0.21875 4.640625 -0.1875 L 4.421875 -0.171875 L 4.40625 0.015625 L 4.734375 0.015625 C 5.03125 0 5.234375 0 5.34375 0 C 5.453125 0 5.65625 0 5.9375 0.015625 L 6.265625 0.015625 L 6.28125 -0.171875 L 6.03125 -0.1875 C 5.78125 -0.21875 5.65625 -0.296875 5.65625 -0.4375 L 5.65625 -0.703125 L 5.9375 -4.390625 C 5.953125 -4.53125 6.0625 -4.59375 6.265625 -4.609375 Z M 6.53125 -4.625 "
           id="path7806" />
      </symbol>
      <symbol
         overflow="visible"
         id="symbol3725">
        <path
           style="stroke:none;"
           d=""
           id="path2749" />
      </symbol>
      <symbol
         overflow="visible"
         id="symbol4169">
        <path
           style="stroke:none;"
           d="M 0.328125 -2.765625 L 0.390625 -2.765625 L 1.03125 -3.0625 C 1.03125 -3.0625 1.03125 -3.0625 1.046875 -3.0625 C 1.078125 -3.0625 1.078125 -3.015625 1.078125 -2.890625 L 1.078125 -0.484375 C 1.078125 -0.21875 1.03125 -0.171875 0.75 -0.15625 L 0.484375 -0.140625 L 0.484375 0.015625 C 1.25 0 1.25 0 1.296875 0 C 1.359375 0 1.46875 0 1.640625 0 C 1.703125 0.015625 1.875 0.015625 2.078125 0.015625 L 2.078125 -0.140625 L 1.828125 -0.15625 C 1.546875 -0.171875 1.5 -0.21875 1.5 -0.484375 L 1.5 -3.4375 L 1.4375 -3.453125 C 1.109375 -3.296875 0.75 -3.140625 0.296875 -2.984375 Z M 0.328125 -2.765625 "
           id="path1317" />
      </symbol>
      <symbol
         overflow="visible"
         id="symbol7185">
        <path
           style="stroke:none;"
           d="M 0.078125 -0.109375 L 0.078125 0.015625 C 1.015625 0 1.015625 0 1.1875 0 C 1.375 0 1.375 0 2.328125 0.015625 C 2.328125 -0.09375 2.328125 -0.140625 2.328125 -0.203125 C 2.328125 -0.28125 2.328125 -0.328125 2.328125 -0.4375 C 1.765625 -0.40625 1.53125 -0.40625 0.609375 -0.390625 L 1.515625 -1.34375 C 2 -1.859375 2.140625 -2.140625 2.140625 -2.5 C 2.140625 -3.078125 1.765625 -3.4375 1.125 -3.4375 C 0.765625 -3.4375 0.515625 -3.328125 0.28125 -3.078125 L 0.1875 -2.40625 L 0.34375 -2.40625 L 0.40625 -2.640625 C 0.484375 -2.921875 0.65625 -3.046875 1 -3.046875 C 1.421875 -3.046875 1.703125 -2.78125 1.703125 -2.359375 C 1.703125 -1.984375 1.484375 -1.609375 0.921875 -1.015625 Z M 0.078125 -0.109375 "
           id="path7860" />
      </symbol>
    </g>
    <marker
       style="overflow:visible"
       id="marker2241-6"
       refX="0"
       refY="0"
       orient="auto"
       inkscape:stockid="Arrow1Send"
       inkscape:isstock="true">
      <path
         transform="matrix(-0.2,0,0,-0.2,-1.2,0)"
         style="fill:#000000;fill-opacity:1;fill-rule:evenodd;stroke:#000000;stroke-width:1pt;stroke-opacity:1"
         d="M 0,0 5,-5 -12.5,0 5,5 Z"
         id="path2239-2" />
    </marker>
    <g
       id="g6976">
      <symbol
         overflow="visible"
         id="symbol81">
        <path
           style="stroke:none;"
           d=""
           id="path6450" />
      </symbol>
      <symbol
         overflow="visible"
         id="symbol7903">
        <path
           style="stroke:none;"
           d="M 2.640625 -6.1875 C 3.203125 -6.203125 3.53125 -6.21875 4.09375 -6.21875 C 4.625 -6.21875 5.046875 -6.125 5.0625 -6.015625 L 5.140625 -5.28125 L 5.5 -5.28125 L 5.640625 -6.6875 L 5.578125 -6.765625 C 5.21875 -6.78125 5.03125 -6.796875 4.640625 -6.796875 C 4.40625 -6.796875 4.109375 -6.78125 3.5625 -6.78125 C 2.828125 -6.765625 2.546875 -6.765625 2.265625 -6.765625 C 1.90625 -6.765625 1.484375 -6.765625 0.390625 -6.78125 L 0.390625 -6.421875 L 0.75 -6.390625 C 1.203125 -6.34375 1.234375 -6.296875 1.234375 -5.40625 L 1.234375 -0.953125 C 1.234375 -0.609375 1.1875 -0.453125 1.03125 -0.375 L 0.71875 -0.203125 L 0.71875 0.03125 C 1.703125 0 1.703125 0 1.9375 0 L 2.265625 0 C 3.28125 0.03125 3.671875 0.046875 4.1875 0.046875 C 4.703125 0.046875 5.015625 0.03125 5.59375 0 L 5.640625 -0.078125 L 5.75 -1.65625 L 5.359375 -1.65625 L 5.140625 -0.71875 C 5.140625 -0.703125 5.125 -0.703125 5.109375 -0.6875 C 4.796875 -0.59375 4.5 -0.546875 3.953125 -0.546875 C 3.53125 -0.546875 3.15625 -0.5625 2.640625 -0.578125 L 2.640625 -3.234375 C 2.921875 -3.265625 3.09375 -3.265625 3.3125 -3.265625 L 3.96875 -3.265625 C 4.34375 -3.265625 4.5 -3.15625 4.53125 -2.90625 L 4.59375 -2.40625 L 5 -2.40625 L 4.96875 -3.484375 C 4.96875 -3.59375 4.96875 -3.59375 5 -4.546875 L 4.59375 -4.546875 L 4.53125 -3.984375 C 4.515625 -3.8125 4.390625 -3.765625 3.96875 -3.765625 L 3.3125 -3.765625 C 2.984375 -3.765625 2.84375 -3.765625 2.640625 -3.78125 Z M 2.640625 -6.1875 "
           id="path9994" />
      </symbol>
    </g>
    <marker
       style="overflow:visible"
       id="marker1832-2"
       refX="0"
       refY="0"
       orient="auto"
       inkscape:stockid="Arrow1Mend"
       inkscape:isstock="true">
      <path
         transform="matrix(-0.4,0,0,-0.4,-4,0)"
         style="fill:#006c00;fill-opacity:1;fill-rule:evenodd;stroke:#006c00;stroke-width:1pt;stroke-opacity:1"
         d="M 0,0 5,-5 -12.5,0 5,5 Z"
         id="path1830-3" />
    </marker>
    <g
       id="g3189">
      <symbol
         overflow="visible"
         id="symbol1052">
        <path
           style="stroke:none;"
           d=""
           id="path6887" />
      </symbol>
      <symbol
         overflow="visible"
         id="symbol9911">
        <path
           style="stroke:none;"
           d="M 0.0625 2.21875 L 0.03125 2.28125 L 0.125 2.625 C 0.296875 2.640625 0.421875 2.65625 0.453125 2.65625 C 0.90625 2.65625 1.390625 2.34375 1.75 1.796875 C 2.140625 1.21875 2.265625 0.546875 2.265625 -0.984375 L 2.265625 -4.640625 L 2.15625 -4.6875 L 1.46875 -4.46875 C 1.203125 -4.390625 0.890625 -4.34375 0.515625 -4.28125 L 0.34375 -4.265625 L 0.34375 -3.90625 L 0.78125 -3.875 C 1.015625 -3.859375 1.046875 -3.765625 1.046875 -3.1875 L 1.046875 0.375 C 1.046875 1.6875 0.84375 2.21875 0.296875 2.21875 Z M 1.671875 -7.03125 C 1.234375 -7.03125 0.90625 -6.71875 0.90625 -6.296875 C 0.90625 -5.875 1.234375 -5.546875 1.65625 -5.546875 C 2.0625 -5.546875 2.40625 -5.875 2.40625 -6.296875 C 2.40625 -6.703125 2.078125 -7.03125 1.671875 -7.03125 Z M 1.671875 -7.03125 "
           id="path4853" />
      </symbol>
    </g>
  </defs>
  <metadata
     id="metadata5">
    <rdf:RDF>
      <cc:Work
         rdf:about="">
        <dc:format>image/svg+xml</dc:format>
        <dc:type
           rdf:resource="http://purl.org/dc/dcmitype/StillImage" />
        <dc:title />
      </cc:Work>
    </rdf:RDF>
  </metadata>
  <g
     id="layer1">
    <path
       style="fill:none;stroke:#000000;stroke-width:0.35277777;stroke-linecap:butt;stroke-linejoin:miter;stroke-opacity:1;stroke-miterlimit:4;stroke-dasharray:0.70555555, 0.35277776999999999;stroke-dashoffset:0;marker-end:url(#marker3139)"
       d="m 91.072601,24.250547 7.453918,-6.18227 1.724311,9.544094 3.18063,6.848208 2.78827,-6.792306 4.99298,-3.972418 1.60902,-9.357268 6.47081,3.776134"
       id="path3127" />
    <path
       style="fill:none;stroke:#000000;stroke-width:0.35277777;stroke-linecap:butt;stroke-linejoin:miter;stroke-opacity:1;stroke-miterlimit:4;stroke-dasharray:0.70555555, 0.35277776999999999;stroke-dashoffset:0;marker-end:url(#marker3159)"
       d="m 117.96214,29.840835 4.28788,-2.809446 2.09502,-4.96424 3.90269,1.92657 3.99724,6.784699 -2.94755,3.795408 7.92788,0.305694 4.22909,-5.922242"
       id="path3129" />
    <path
       style="fill:none;stroke:#000000;stroke-width:0.35277777;stroke-linecap:butt;stroke-linejoin:miter;stroke-opacity:1;stroke-miterlimit:4;stroke-dasharray:0.70555555, 0.35277776999999999;stroke-dashoffset:0;marker-end:url(#marker3149)"
       d="m 130.59085,17.428528 4.79923,-6.815011 4.45561,7.265326 -2.30051,6.85394 h 3.66032 l 4.26731,-6.64057"
       id="path3131" />
    <path
       style="fill:none;stroke:#000000;stroke-width:0.35277777;stroke-linecap:butt;stroke-linejoin:miter;stroke-opacity:1;stroke-miterlimit:4;stroke-dasharray:0.70555555, 0.35277776999999999;stroke-dashoffset:0;marker-end:url(#marker3169)"
       d="m 134.40563,41.311925 0.99827,5.03202 6.23298,-1.996535 -0.83232,-6.314853 4.74657,-2.067234"
       id="path3133" />
    <path
       style="fill:none;stroke:#000000;stroke-width:0.35277777;stroke-linecap:butt;stroke-linejoin:miter;stroke-opacity:1;stroke-miterlimit:4;stroke-dasharray:0.70555555, 0.35277776999999999;stroke-dashoffset:0;marker-end:url(#marker3179)"
       d="m 93.677408,43.368772 2.548131,-6.341277 2.662049,6.433481 5.104942,-1.475618 3.97451,-4.676084 3.34115,3.551822"
       id="path3135" />
    <path
       style="fill:none;stroke:#000000;stroke-width:0.35277778;stroke-linecap:butt;stroke-linejoin:miter;stroke-opacity:1;stroke-miterlimit:4;stroke-dasharray:0.70555557, 0.35277777999999999;stroke-dashoffset:0;marker-end:url(#marker2145)"
       d="m 17.07369,43.786758 20.066028,0.72767 -8.935839,-6.434153 -0.855033,9.009388 -6.957541,-7.71556 L 7.5193204,37.938088 20.061407,32.507179"
       id="path2141" />
    <path
       style="fill:none;stroke:#000000;stroke-width:0.35277777;stroke-linecap:butt;stroke-linejoin:miter;stroke-opacity:1;stroke-miterlimit:4;stroke-dasharray:0.70555555,0.35277777;stroke-dashoffset:0;marker-end:url(#marker2241)"
       d="m 57.306863,40.855563 7.718443,-2.994805 0.565711,-6.407253 5.223888,4.860589 -0.838186,7.81077 -6.488745,0.166378 -9.110924,2.217946 -6.699602,-4.188984 6.073134,-7.007669"
       id="path2237" />
    <path
       style="fill:none;stroke:#000000;stroke-width:0.35277778;stroke-linecap:butt;stroke-linejoin:miter;stroke-opacity:1;stroke-miterlimit:4;stroke-dasharray:0.70555557, 0.35277777999999999;stroke-dashoffset:0;marker-end:url(#marker2055)"
       d="m 14.873456,24.363936 5.768878,-2.958572 3.327561,3.660317 L 17.1589,29.464778 11.354972,31.294937 9.6555887,20.027023 26.827472,18.961239 17.623675,12.102958"
       id="path2051" />
    <path
       style="fill:none;stroke:#000000;stroke-width:0.35277777;stroke-linecap:butt;stroke-linejoin:miter;stroke-opacity:1;stroke-miterlimit:4;stroke-dasharray:0.70555555, 0.35277776999999999;stroke-dashoffset:0;marker-end:url(#marker1963)"
       d="m 54.866912,17.220693 8.652939,-1.818968 2.251617,7.106787 -6.119185,4.451201 c 0,0 -8.373009,-2.95388 -8.871656,-3.782388 C 50.28198,22.348816 46.409406,9.2154903 46.409406,9.2154903 L 57.4778,13.547814 39.861984,17.489661 24.333065,14.507097 39.393391,12.605631"
       id="path1959" />
    <path
       style="fill:none;stroke:#000000;stroke-width:0.35277778;stroke-linecap:butt;stroke-linejoin:miter;stroke-opacity:1;stroke-miterlimit:4;stroke-dasharray:0.70555557, 0.35277777999999999;stroke-dashoffset:0;marker-end:url(#marker1946)"
       d="m 41.131675,30.569511 4.588446,-3.254343 5.227048,5.781137 -7.858766,6.24772 -7.569205,0.960329 -2.429042,-7.056424 6.980685,-8.342656 -11.695795,-0.02991 -5.073166,11.324828"
       id="path1945" />
    <text
       xml:space="preserve"
       id="text1643-7"
       style="font-size:4.23333px;line-height:1.25;font-family:'Liberation Serif';-inkscape-font-specification:'Liberation Serif';white-space:pre;shape-inside:url(#rect1645-8);"
       transform="translate(61.753114,13.808432)"><tspan
         x="18.271484"
         y="-9.0802989"><tspan>b)</tspan></tspan></text>
    <text
       xml:space="preserve"
       id="text1643"
       style="font-size:4.23333px;line-height:1.25;font-family:'Liberation Serif';-inkscape-font-specification:'Liberation Serif';white-space:pre;shape-inside:url(#rect1645);"
       transform="translate(-15.784294,13.808432)"><tspan
         x="18.271484"
         y="-9.0802989"><tspan>a)</tspan></tspan></text>
    <path
       style="fill:none;stroke:#000000;stroke-width:0.264583px;stroke-linecap:butt;stroke-linejoin:miter;stroke-opacity:1"
       d="M 7.9374999,7.9374999 H 68.791666"
       id="path1876" />
    <path
       style="fill:none;stroke:#000000;stroke-width:0.264583px;stroke-linecap:butt;stroke-linejoin:miter;stroke-opacity:1"
       d="M 7.9374999,47.624999 H 68.791666"
       id="path1878" />
    <circle
       style="fill:#d20000;stroke:#d20000;stroke-width:0.352777"
       id="path1882"
       cx="17.20023"
       cy="43.765709"
       r="1.3229166" />
    <circle
       style="fill:#d20000;stroke:#d20000;stroke-width:0.352777"
       id="path1882-3"
       cx="14.729956"
       cy="24.08164"
       r="1.3229166" />
    <circle
       style="fill:#d20000;stroke:#d20000;stroke-width:0.352777"
       id="path1882-3-6"
       cx="41.009052"
       cy="30.436419"
       r="1.3229166" />
    <circle
       style="fill:#d20000;stroke:#d20000;stroke-width:0.352777"
       id="path1882-3-6-7"
       cx="54.733585"
       cy="17.170294"
       r="1.3229166" />
    <circle
       style="fill:#d20000;stroke:#d20000;stroke-width:0.352777"
       id="path1882-3-6-7-5"
       cx="57.106041"
       cy="41.049763"
       r="1.3229166" />
    <path
       style="fill:none;stroke:#000000;stroke-width:0.264583px;stroke-linecap:butt;stroke-linejoin:miter;stroke-opacity:1"
       d="M 84.292882,7.8765242 H 145.14724"
       id="path1876-6" />
    <path
       style="fill:none;stroke:#000000;stroke-width:0.264583px;stroke-linecap:butt;stroke-linejoin:miter;stroke-opacity:1"
       d="M 84.292882,47.56403 H 145.14724"
       id="path1878-1" />
    <circle
       style="fill:#d20000;stroke:#d20000;stroke-width:0.352777"
       id="path1882-8"
       cx="93.555618"
       cy="43.704746"
       r="1.3229166" />
    <circle
       style="fill:#d20000;stroke:#d20000;stroke-width:0.352777"
       id="path1882-3-7"
       cx="91.08535"
       cy="24.02067"
       r="1.3229166" />
    <circle
       style="fill:#d20000;stroke:#d20000;stroke-width:0.352777"
       id="path1882-3-6-9"
       cx="117.36444"
       cy="30.375452"
       r="1.3229166" />
    <circle
       style="fill:#d20000;stroke:#d20000;stroke-width:0.352777"
       id="path1882-3-6-7-2"
       cx="131.08891"
       cy="17.109312"
       r="1.3229166" />
    <circle
       style="fill:#d20000;stroke:#d20000;stroke-width:0.352777"
       id="path1882-3-6-7-5-0"
       cx="133.46135"
       cy="40.988796"
       r="1.3229166" />
    <path
       style="fill:#d20000;fill-opacity:1;stroke:#d20000;stroke-width:0.352778;stroke-linecap:butt;stroke-linejoin:miter;stroke-miterlimit:4;stroke-dasharray:none;stroke-opacity:1;marker-end:url(#marker1832)"
       d="M 130.34104,2.6458333 H 98.591045"
       id="path2983" />
    <g
       inkscape:label=""
       transform="matrix(0.42971631,0,0,0.42971631,73.016651,-28.778608)"
       id="g3602"
       style="fill:#d20000;fill-opacity:1">
      <g
         id="g3744"
         style="fill:#d20000;fill-opacity:1">
        <g
           style="fill:#d20000;fill-opacity:1"
           id="g5351">
          <use
             xlink:href="#symbol7903"
             x="91.925003"
             y="81.962997"
             id="use4852"
             width="100%"
             height="100%"
             style="fill:#d20000;fill-opacity:1" />
        </g>
      </g>
    </g>
    <path
       style="fill:#006c00;fill-opacity:1;stroke:#006c00;stroke-width:0.352778;stroke-linecap:butt;stroke-linejoin:miter;stroke-miterlimit:4;stroke-dasharray:none;stroke-opacity:1;marker-end:url(#marker1832-2)"
       d="M 102.30856,11.637396 H 86.689134"
       id="path2983-7" />
    <g
       inkscape:label=""
       transform="matrix(0.41190025,0,0,0.41190025,56.777645,-18.599101)"
       id="g4396"
       style="fill:#006c00;fill-opacity:1">
      <g
         id="g2365"
         style="fill:#006c00;fill-opacity:1">
        <g
           style="fill:#006c00;fill-opacity:1"
           id="g798">
          <use
             xlink:href="#symbol9911"
             x="91.925003"
             y="81.962997"
             id="use6061"
             width="100%"
             height="100%"
             style="fill:#006c00;fill-opacity:1" />
        </g>
      </g>
    </g>
  </g>
</svg>
