<?xml version="1.0" encoding="UTF-8" standalone="no"?>
<svg
   xmlns:dc="http://purl.org/dc/elements/1.1/"
   xmlns:cc="http://creativecommons.org/ns#"
   xmlns:rdf="http://www.w3.org/1999/02/22-rdf-syntax-ns#"
   xmlns:svg="http://www.w3.org/2000/svg"
   xmlns="http://www.w3.org/2000/svg"
   xmlns:xlink="http://www.w3.org/1999/xlink"
   xmlns:sodipodi="http://sodipodi.sourceforge.net/DTD/sodipodi-0.dtd"
   xmlns:inkscape="http://www.inkscape.org/namespaces/inkscape"
   version="1.1"
   id="svg4700"
   xml:space="preserve"
   width="480"
   height="288"
   viewBox="0 0 480 288"
   sodipodi:docname="moment_spire.svg"
   inkscape:version="1.0.1 (1.0.1+r75)"><metadata
     id="metadata4706"><rdf:RDF><cc:Work
         rdf:about=""><dc:format>image/svg+xml</dc:format><dc:type
           rdf:resource="http://purl.org/dc/dcmitype/StillImage" /><dc:title /></cc:Work></rdf:RDF></metadata><defs
     id="defs4704"><rect
   x="307.50001"
   y="212.25001"
   width="45.000001"
   height="26.250001"
   id="rect13124" /><marker
   style="overflow:visible"
   id="marker12145"
   refX="0"
   refY="0"
   orient="auto"
   inkscape:stockid="Arrow1Send"
   inkscape:isstock="true"><path
     transform="matrix(-0.2,0,0,-0.2,-1.2,0)"
     style="fill:#008800;fill-opacity:1;fill-rule:evenodd;stroke:#008800;stroke-width:1pt;stroke-opacity:1"
     d="M 0,0 5,-5 -12.5,0 5,5 Z"
     id="path12143" /></marker><marker
   style="overflow:visible;"
   id="marker5847"
   refX="0.0"
   refY="0.0"
   orient="auto"
   inkscape:stockid="Arrow1Mend"
   inkscape:isstock="true"><path
     transform="scale(0.4) rotate(180) translate(10,0)"
     style="fill-rule:evenodd;stroke:#000000;stroke-width:1pt;stroke-opacity:0.5;fill:#000000;fill-opacity:0.5"
     d="M 0.0,0.0 L 5.0,-5.0 L -12.5,0.0 L 5.0,5.0 L 0.0,0.0 z "
     id="path5845" /></marker><marker
   style="overflow:visible;"
   id="Arrow1Mend"
   refX="0.0"
   refY="0.0"
   orient="auto"
   inkscape:stockid="Arrow1Mend"
   inkscape:isstock="true"
   inkscape:collect="always"><path
     transform="scale(0.4) rotate(180) translate(10,0)"
     style="fill-rule:evenodd;stroke:#000000;stroke-width:1pt;stroke-opacity:0.5;fill:#000000;fill-opacity:0.5"
     d="M 0.0,0.0 L 5.0,-5.0 L -12.5,0.0 L 5.0,5.0 L 0.0,0.0 z "
     id="path5489" /></marker><marker
   style="overflow:visible"
   id="Arrow2Mstart"
   refX="0.0"
   refY="0.0"
   orient="auto"
   inkscape:stockid="Arrow2Mstart"
   inkscape:isstock="true"><path
     transform="scale(0.6) translate(0,0)"
     d="M 8.7185878,4.0337352 L -2.2072895,0.016013256 L 8.7185884,-4.0017078 C 6.9730900,-1.6296469 6.9831476,1.6157441 8.7185878,4.0337352 z "
     style="fill-rule:evenodd;stroke-width:0.625;stroke-linejoin:round;stroke:#000000;stroke-opacity:1;fill:#000000;fill-opacity:1"
     id="path5504" /></marker><clipPath
   clipPathUnits="userSpaceOnUse"
   id="clipPath4716"><path
     d="M 45,32.4 H 352.8 V 211.68 H 45 Z"
     id="path4714" /></clipPath><clipPath
   clipPathUnits="userSpaceOnUse"
   id="clipPath4726"><path
     d="M 45,32.4 H 352.8 V 211.68 H 45 Z"
     id="path4724" /></clipPath><clipPath
   clipPathUnits="userSpaceOnUse"
   id="clipPath4736"><path
     d="M 45,32.4 H 352.8 V 211.68 H 45 Z"
     id="path4734" /></clipPath><clipPath
   clipPathUnits="userSpaceOnUse"
   id="clipPath4746"><path
     d="M 45,32.4 H 352.8 V 211.68 H 45 Z"
     id="path4744" /></clipPath><clipPath
   clipPathUnits="userSpaceOnUse"
   id="clipPath4756"><path
     d="M 45,32.4 H 352.8 V 211.68 H 45 Z"
     id="path4754" /></clipPath><clipPath
   clipPathUnits="userSpaceOnUse"
   id="clipPath4766"><path
     d="M 45,32.4 H 352.8 V 211.68 H 45 Z"
     id="path4764" /></clipPath><clipPath
   clipPathUnits="userSpaceOnUse"
   id="clipPath4776"><path
     d="M 45,32.4 H 352.8 V 211.68 H 45 Z"
     id="path4774" /></clipPath><clipPath
   clipPathUnits="userSpaceOnUse"
   id="clipPath4786"><path
     d="M 45,32.4 H 352.8 V 211.68 H 45 Z"
     id="path4784" /></clipPath><clipPath
   clipPathUnits="userSpaceOnUse"
   id="clipPath4796"><path
     d="M 45,32.4 H 352.8 V 211.68 H 45 Z"
     id="path4794" /></clipPath><clipPath
   clipPathUnits="userSpaceOnUse"
   id="clipPath4806"><path
     d="M 45,32.4 H 352.8 V 211.68 H 45 Z"
     id="path4804" /></clipPath><clipPath
   clipPathUnits="userSpaceOnUse"
   id="clipPath4816"><path
     d="M 45,32.4 H 352.8 V 211.68 H 45 Z"
     id="path4814" /></clipPath><clipPath
   clipPathUnits="userSpaceOnUse"
   id="clipPath4826"><path
     d="M 45,32.4 H 352.8 V 211.68 H 45 Z"
     id="path4824" /></clipPath><clipPath
   clipPathUnits="userSpaceOnUse"
   id="clipPath4836"><path
     d="M 45,32.4 H 352.8 V 211.68 H 45 Z"
     id="path4834" /></clipPath><clipPath
   clipPathUnits="userSpaceOnUse"
   id="clipPath4846"><path
     d="M 45,32.4 H 352.8 V 211.68 H 45 Z"
     id="path4844" /></clipPath><clipPath
   clipPathUnits="userSpaceOnUse"
   id="clipPath5423"><rect
     style="fill:#008800;stroke:#008800;stroke-width:0.709;stroke-dasharray:1.418, 0.709"
     id="rect5425"
     width="302.43051"
     height="174.02484"
     x="47.974506"
     y="-209.20181"
     transform="scale(1,-1)" /></clipPath><marker
   style="overflow:visible"
   id="marker3120-3"
   refX="0"
   refY="0"
   orient="auto"
   inkscape:stockid="Arrow1Send"
   inkscape:isstock="true"
   inkscape:collect="always"><path
     transform="matrix(-0.2,0,0,-0.2,-1.2,0)"
     style="fill:#008800;fill-opacity:1;fill-rule:evenodd;stroke:#008800;stroke-width:1pt;stroke-opacity:1"
     d="M 0,0 5,-5 -12.5,0 5,5 Z"
     id="path3118-6" /></marker><marker
   style="overflow:visible"
   id="marker3120"
   refX="0"
   refY="0"
   orient="auto"
   inkscape:stockid="Arrow1Send"
   inkscape:isstock="true"
   inkscape:collect="always"><path
     transform="matrix(-0.2,0,0,-0.2,-1.2,0)"
     style="fill:#008800;fill-opacity:1;fill-rule:evenodd;stroke:#008800;stroke-width:1pt;stroke-opacity:1"
     d="M 0,0 5,-5 -12.5,0 5,5 Z"
     id="path3118" /></marker><g
   id="g9416">
      <symbol
   overflow="visible"
   id="symbol3573">
        <path
   style="stroke:none;"
   d=""
   id="path5050" />
      </symbol>
      <symbol
   overflow="visible"
   id="symbol8214">
        <path
   style="stroke:none;"
   d="M 5.71875 -5.03125 C 5.71875 -6.15625 5.390625 -7 4.109375 -7 C 1.53125 -7 0.703125 -4.109375 0.703125 -1.984375 C 0.703125 -0.796875 1.0625 0.15625 2.421875 0.15625 C 4.78125 0.15625 5.71875 -3.15625 5.71875 -5.03125 Z M 4.96875 -5.15625 C 4.96875 -4.703125 4.90625 -4.25 4.828125 -3.796875 L 1.671875 -3.796875 C 1.90625 -4.828125 2.640625 -6.734375 3.9375 -6.734375 C 4.796875 -6.734375 4.96875 -5.828125 4.96875 -5.15625 Z M 4.78125 -3.484375 C 4.546875 -2.359375 4 -0.125 2.578125 -0.125 C 1.5625 -0.125 1.46875 -1.25 1.46875 -2.03125 C 1.46875 -2.515625 1.5625 -3 1.625 -3.484375 Z M 4.78125 -3.484375 "
   id="path1896" />
      </symbol>
    </g>
  <g
   id="g3851">
      <symbol
   overflow="visible"
   id="symbol5846">
        <path
   style="stroke:none;"
   d=""
   id="path8347" />
      </symbol>
      <symbol
   overflow="visible"
   id="symbol8890">
        <path
   style="stroke:none;"
   d="M 3.671875 -3.640625 C 3.703125 -4.015625 3.75 -4.34375 3.828125 -4.75 C 3.71875 -4.796875 3.671875 -4.8125 3.625 -4.8125 C 3.3125 -4.8125 3.015625 -4.5625 2.65625 -4.0625 L 2.375 -3.671875 C 2 -3.109375 1.875 -2.90625 1.71875 -2.546875 L 1.796875 -2.953125 C 1.828125 -3.1875 1.90625 -3.59375 1.96875 -3.8125 L 2.03125 -4.0625 C 2.078125 -4.234375 2.09375 -4.359375 2.09375 -4.484375 C 2.09375 -4.6875 2.015625 -4.8125 1.859375 -4.8125 C 1.65625 -4.8125 1.28125 -4.59375 0.53125 -4.0625 L 0.265625 -3.875 L 0.328125 -3.671875 L 0.640625 -3.875 C 0.921875 -4.0625 1.03125 -4.109375 1.125 -4.109375 C 1.21875 -4.109375 1.296875 -4.015625 1.296875 -3.890625 C 1.296875 -3.3125 0.875 -1.25 0.46875 0.015625 L 0.5625 0.09375 C 0.71875 0.046875 0.875 0.015625 1.109375 -0.046875 L 1.234375 -0.0625 L 1.5 -1.25 C 1.671875 -2.078125 1.90625 -2.609375 2.34375 -3.1875 C 2.6875 -3.625 2.953125 -3.828125 3.171875 -3.828125 C 3.3125 -3.828125 3.421875 -3.78125 3.53125 -3.640625 Z M 3.671875 -3.640625 "
   id="path8585" />
      </symbol>
    </g>
  <g
   id="g7287">
      <symbol
   overflow="visible"
   id="symbol8428">
        <path
   style="stroke:none;"
   d=""
   id="path8276" />
      </symbol>
      <symbol
   overflow="visible"
   id="symbol1346">
        <path
   style="stroke:none;"
   d="M 9.34375 -6.625 L 9.375 -6.890625 L 9.09375 -6.890625 C 8.8125 -6.875 8.65625 -6.875 8.53125 -6.875 L 8.296875 -6.875 L 7.703125 -6.890625 L 7.546875 -6.59375 C 7.28125 -6.078125 7.09375 -5.734375 6.859375 -5.34375 L 4.40625 -1.140625 L 2.90625 -6.890625 L 2.625 -6.890625 C 2.359375 -6.875 2.203125 -6.875 2.078125 -6.875 L 1.828125 -6.875 L 1.25 -6.890625 L 1.21875 -6.625 L 1.46875 -6.59375 C 2 -6.5625 2.171875 -6.453125 2.171875 -6.203125 C 2.171875 -6.140625 2.15625 -6.078125 2.140625 -6 L 0.703125 -0.921875 C 0.53125 -0.40625 0.390625 -0.28125 -0.15625 -0.234375 L -0.1875 0.03125 L 0.203125 0.015625 C 0.53125 0.015625 0.78125 0 0.921875 0 C 1.0625 0 1.328125 0.015625 1.671875 0.015625 L 2.03125 0.03125 L 2.046875 -0.25 L 1.671875 -0.28125 C 1.359375 -0.296875 1.1875 -0.40625 1.1875 -0.546875 C 1.1875 -0.640625 1.203125 -0.78125 1.25 -0.953125 L 2.5 -5.578125 L 3.984375 0.171875 L 4.203125 0.171875 L 4.78125 -0.859375 C 5.546875 -2.265625 6.484375 -3.875 7.15625 -4.984375 L 7.671875 -5.859375 L 7.3125 -0.671875 C 7.265625 -0.390625 7.140625 -0.3125 6.640625 -0.28125 L 6.328125 -0.25 L 6.296875 0.03125 L 6.765625 0.015625 C 7.1875 0.015625 7.484375 0 7.640625 0 C 7.796875 0 8.09375 0.015625 8.5 0.015625 L 8.96875 0.03125 L 8.984375 -0.25 L 8.625 -0.28125 C 8.265625 -0.3125 8.078125 -0.421875 8.078125 -0.625 L 8.09375 -1 L 8.5 -6.296875 C 8.515625 -6.484375 8.671875 -6.578125 8.96875 -6.59375 Z M 9.34375 -6.625 "
   id="path5091" />
      </symbol>
    </g>
  <g
   id="g4915">
      <symbol
   overflow="visible"
   id="symbol8698">
        <path
   style="stroke:none;"
   d=""
   id="path839" />
      </symbol>
      <symbol
   overflow="visible"
   id="symbol2045">
        <path
   style="stroke:none;"
   d="M 0.203125 -0.875 C 0.203125 -0.671875 0.1875 -0.546875 0.125 -0.234375 C 0.109375 -0.109375 0.09375 -0.078125 0.09375 -0.015625 C 0.234375 0.0625 0.40625 0.109375 0.515625 0.109375 C 0.84375 0.109375 1.234375 -0.171875 1.546875 -0.640625 L 2.296875 -1.8125 L 2.40625 -1.125 C 2.546875 -0.28125 2.765625 0.109375 3.125 0.109375 C 3.34375 0.109375 3.671875 -0.0625 3.984375 -0.34375 L 4.46875 -0.78125 L 4.390625 -0.984375 C 4.03125 -0.671875 3.78125 -0.53125 3.625 -0.53125 C 3.46875 -0.53125 3.34375 -0.625 3.234375 -0.828125 C 3.15625 -1.015625 3.046875 -1.390625 2.984375 -1.671875 L 2.8125 -2.6875 L 3.15625 -3.171875 C 3.625 -3.8125 3.890625 -4.046875 4.203125 -4.046875 C 4.359375 -4.046875 4.484375 -3.96875 4.53125 -3.8125 L 4.671875 -3.859375 L 4.828125 -4.703125 C 4.703125 -4.78125 4.609375 -4.8125 4.53125 -4.8125 C 4.125 -4.8125 3.734375 -4.453125 3.109375 -3.53125 L 2.734375 -2.984375 L 2.6875 -3.453125 C 2.5625 -4.453125 2.296875 -4.8125 1.703125 -4.8125 C 1.453125 -4.8125 1.21875 -4.71875 1.140625 -4.59375 L 0.5625 -3.765625 L 0.734375 -3.671875 C 1.03125 -4 1.21875 -4.140625 1.421875 -4.140625 C 1.75 -4.140625 1.96875 -3.734375 2.140625 -2.765625 L 2.25 -2.140625 L 1.84375 -1.53125 C 1.421875 -0.859375 1.078125 -0.53125 0.796875 -0.53125 C 0.640625 -0.53125 0.53125 -0.578125 0.515625 -0.625 L 0.40625 -0.90625 Z M 0.203125 -0.875 "
   id="path7244" />
      </symbol>
    </g>
  <g
   id="g617">
      <symbol
   overflow="visible"
   id="symbol6653">
        <path
   style="stroke:none;"
   d=""
   id="path2590" />
      </symbol>
      <symbol
   overflow="visible"
   id="symbol6130">
        <path
   style="stroke:none;"
   d="M -0.0625 1.796875 C -0.078125 1.859375 -0.078125 1.921875 -0.078125 1.96875 C -0.078125 2.40625 0.296875 2.75 0.734375 2.75 C 1.796875 2.75 2.890625 1.515625 3.484375 -0.328125 L 4.890625 -4.71875 L 4.78125 -4.8125 C 4.484375 -4.6875 4.25 -4.640625 4.03125 -4.609375 L 3.6875 -3.296875 C 3.5625 -2.828125 3.21875 -2.109375 2.890625 -1.609375 C 2.546875 -1.109375 2.046875 -0.671875 1.828125 -0.671875 C 1.71875 -0.671875 1.625 -0.890625 1.640625 -1.140625 L 1.640625 -1.28125 L 1.796875 -3.203125 C 1.8125 -3.515625 1.828125 -3.890625 1.828125 -4.171875 C 1.828125 -4.625 1.765625 -4.8125 1.59375 -4.8125 C 1.46875 -4.8125 1.328125 -4.734375 0.84375 -4.40625 L 0.03125 -3.84375 L 0.140625 -3.671875 L 0.640625 -3.96875 L 0.671875 -4 C 0.78125 -4.0625 0.84375 -4.09375 0.890625 -4.09375 C 1.03125 -4.09375 1.109375 -3.890625 1.109375 -3.5625 C 1.109375 -3.5625 1.109375 -3.5 1.09375 -3.421875 L 0.921875 -1 L 0.921875 -0.59375 C 0.921875 -0.171875 1.09375 0.109375 1.34375 0.109375 C 1.71875 0.109375 2.546875 -0.734375 3.296875 -1.859375 L 2.8125 -0.15625 C 2.296875 1.609375 1.796875 2.328125 1.109375 2.328125 C 0.75 2.328125 0.484375 2.0625 0.484375 1.71875 C 0.484375 1.671875 0.5 1.578125 0.515625 1.5 L 0.40625 1.453125 Z M -0.0625 1.796875 "
   id="path4693" />
      </symbol>
    </g>
  <g
   id="g9767">
      <symbol
   overflow="visible"
   id="symbol5673">
        <path
   style="stroke:none;"
   d=""
   id="path4809" />
      </symbol>
      <symbol
   overflow="visible"
   id="symbol6624">
        <path
   style="stroke:none;"
   d="M 0.234375 -3.90625 L 0.6875 -3.875 C 0.921875 -3.859375 0.953125 -3.765625 0.953125 -3.1875 L 0.953125 -1 C 0.953125 -0.453125 0.890625 -0.375 0.59375 -0.359375 L 0.234375 -0.34375 L 0.234375 0.03125 L 1.53125 0 C 1.75 0 2.1875 0.015625 2.796875 0.03125 L 2.796875 -0.34375 L 2.515625 -0.359375 C 2.203125 -0.375 2.15625 -0.453125 2.15625 -1 L 2.15625 -3.15625 C 2.15625 -3.484375 2.578125 -3.84375 2.96875 -3.84375 C 3.546875 -3.84375 3.828125 -3.453125 3.828125 -2.6875 L 3.828125 -1 C 3.828125 -0.453125 3.78125 -0.375 3.46875 -0.359375 L 3.15625 -0.34375 L 3.15625 0.03125 C 4.203125 0 4.203125 0 4.453125 0 C 4.6875 0 4.6875 0 5.75 0.03125 L 5.75 -0.34375 L 5.40625 -0.359375 C 5.09375 -0.375 5.046875 -0.453125 5.046875 -1 L 5.046875 -3.15625 C 5.046875 -3.484375 5.453125 -3.84375 5.859375 -3.84375 C 6.4375 -3.84375 6.703125 -3.453125 6.703125 -2.6875 L 6.703125 0.03125 L 7.640625 0 C 8.140625 0.015625 8.203125 0.015625 8.609375 0.03125 L 8.609375 -0.34375 L 8.28125 -0.359375 C 7.96875 -0.375 7.921875 -0.453125 7.921875 -1 L 7.921875 -2.84375 C 7.921875 -4.234375 7.5625 -4.6875 6.5 -4.6875 C 6.171875 -4.6875 5.953125 -4.640625 5.78125 -4.5 L 4.984375 -3.890625 C 4.75 -4.453125 4.359375 -4.6875 3.671875 -4.6875 C 3.34375 -4.6875 3.125 -4.640625 2.953125 -4.5 L 2.15625 -3.890625 L 2.15625 -4.640625 L 2.109375 -4.6875 C 1.0625 -4.359375 0.78125 -4.296875 0.234375 -4.265625 Z M 0.234375 -3.90625 "
   id="path7988" />
      </symbol>
    </g>
  </defs><sodipodi:namedview
     pagecolor="#ffffff"
     bordercolor="#666666"
     borderopacity="1"
     objecttolerance="10"
     gridtolerance="10"
     guidetolerance="10"
     inkscape:pageopacity="0"
     inkscape:pageshadow="2"
     inkscape:window-width="1920"
     inkscape:window-height="1052"
     id="namedview4702"
     showgrid="false"
     inkscape:zoom="4.3113872"
     inkscape:cx="247.52346"
     inkscape:cy="152.81622"
     inkscape:window-x="0"
     inkscape:window-y="0"
     inkscape:window-maximized="1"
     inkscape:current-layer="g4708"
     inkscape:document-rotation="0"><inkscape:grid
       type="xygrid"
       id="grid5476" /></sodipodi:namedview><g
     id="g4708"
     inkscape:groupmode="layer"
     inkscape:label="moment_spire"
     transform="matrix(1.3333333,0,0,-1.3333333,0,288)"><path
       style="fill:none;stroke:#000000;stroke-width:0.75;stroke-linecap:butt;stroke-linejoin:miter;stroke-miterlimit:4;stroke-dasharray:none;stroke-opacity:0.5;marker-end:url(#Arrow1Mend)"
       d="M 35.839917,111 H 323.67451"
       id="path5798-5" /><path
       style="fill:none;stroke:#000000;stroke-width:0.7;stroke-linecap:butt;stroke-linejoin:miter;stroke-miterlimit:4;stroke-dasharray:none;stroke-opacity:0.5;marker-end:url(#marker5847)"
       d="M 181.41731,10.478702 V 209.2287"
       id="path5798" /><path
       style="fill:none;stroke:#008800;stroke-width:1.12319;stroke-linecap:butt;stroke-linejoin:miter;stroke-miterlimit:4;stroke-dasharray:none;stroke-opacity:1;marker-end:url(#marker3120-3)"
       d="M -282.79108,28.477424 -295.57337,7.164516"
       id="path3101-7" /><path
       style="fill:none;stroke:#008800;stroke-width:1.12319;stroke-linecap:butt;stroke-linejoin:miter;stroke-miterlimit:4;stroke-dasharray:none;stroke-opacity:1;marker-end:url(#marker3120)"
       d="m -282.79108,28.477424 30.86586,-8.826165"
       id="path3101" /><path
       style="fill:none;stroke:#000000;stroke-width:1.20342px;stroke-linecap:butt;stroke-linejoin:miter;stroke-miterlimit:4;stroke-dasharray:none;stroke-opacity:1"
       d="m -282.9144,23.418045 v 9.999997"
       id="path9624-3" /><path
       style="fill:none;stroke:#000000;stroke-width:1.20342px;stroke-linecap:butt;stroke-linejoin:miter;stroke-miterlimit:4;stroke-dasharray:none;stroke-opacity:1"
       d="m -290.15549,28.418043 h 14.48223"
       id="path9626-6" /><g
       id="g5474"
       transform="translate(-17.638617,-11.635656)"><g
         id="g4710"><g
           id="g4712"
           clip-path="url(#clipPath4716)"><path
             d="m 198.9,122.04 -0.5159,-4.72823 -1.53939,-4.65215 -2.53812,-4.50121 -3.496,-4.27786 -4.39764,-3.985661 -5.22851,-3.62934 -5.97525,-3.214619 -6.62586,-2.748175 -7.16984,-2.23751 -7.59847,-1.690844 -7.90483,-1.116971 -8.084,-0.525125 -8.13309,0.07517 -8.05133,0.674255 -7.84,1.26249 -7.50254,1.830414 -7.044354,2.368883 -6.472821,2.869237 -5.797138,3.323425 -5.028178,3.724131 -4.178312,4.06493 -3.261216,4.34031 -2.291646,4.54585 -1.285202,4.67826 -0.258079,4.73538 0.773197,4.71631 1.792032,4.62136 2.782032,4.45204 3.727269,4.2111 4.612531,3.90239 5.423578,3.53089 6.147356,3.10257 6.772221,2.62435 7.28812,2.10388 7.68675,1.54957 7.96169,0.97033 8.10853,0.37547 8.12491,-0.22543 8.01054,-0.82271 7.76729,-1.40674 7.39905,-1.96814 6.91177,-2.49787 6.31327,-2.98741 5.61318,-3.42888 4.82278,-3.81519 3.95478,-4.14009 3.02315,-4.39839 2.04287,-4.58592 1.02972,-4.69965 v -4.73776 l -1.02972,-4.69965 -2.04287,-4.58592 -3.02315,-4.39839 -3.95478,-4.14009 -4.82278,-3.815186 -5.61318,-3.428883 -6.31327,-2.987412 -6.91177,-2.497871 -7.39905,-1.96814 -7.76729,-1.406739 -8.01054,-0.822705 -8.12491,-0.225432 -8.10853,0.375468 -7.96169,0.970326 -7.68675,1.549572 -7.28812,2.103884 -6.772221,2.624344 -6.147356,3.102578 -5.423578,3.530889 -4.612531,3.902387 -3.727269,4.2111 -2.782032,4.45204 -1.792032,4.62136 -0.773197,4.71631 0.258079,4.73538 1.285202,4.67826 2.291646,4.54585 3.261216,4.34031 4.178312,4.06493 5.028178,3.72413 5.797138,3.32343 6.472821,2.86923 7.044354,2.36889 7.50254,1.83041 7.84,1.26249 8.05133,0.67426 8.13309,0.0752 8.084,-0.52512 7.90483,-1.11697 7.59847,-1.69085 7.16984,-2.23751 6.62586,-2.74817 5.97525,-3.21462 5.22851,-3.62934 4.39764,-3.98566 3.496,-4.27786 2.53812,-4.50121 1.53939,-4.65215 L 198.9,122.04"
             style="fill:none;stroke:#cd5c5c;stroke-width:1;stroke-linecap:square;stroke-linejoin:round;stroke-miterlimit:10;stroke-dasharray:none;stroke-opacity:1"
             id="path4718" /></g></g><g
         id="g4720"><g
           id="g4722"
           clip-path="url(#clipPath4726)"><path
             d="m 198.9,122.04 -0.41272,-3.78258 -1.23151,-3.72172 -2.0305,-3.60097 -2.7968,-3.42229 -3.51811,-3.18853 -4.1828,-2.90347 -4.78021,-2.571696 -5.30068,-2.19854 -5.73588,-1.790008 -6.07878,-1.352675 -6.32386,-0.893577 -6.4672,-0.4201 -6.50647,0.06014 -6.44106,0.539404 -6.27201,1.009993 -6.00203,1.46433 -5.63548,1.895107 -5.17826,2.29539 -4.63771,2.658742 -4.02254,2.97931 -3.34265,3.25194 -2.608971,3.47225 -1.833317,3.63668 -1.028162,3.74261 -0.206463,3.7883 0.618558,3.77305 1.433625,3.69708 2.22563,3.56164 2.98181,3.36887 3.69003,3.12192 4.33886,2.82471 4.91788,2.48206 5.41778,2.09948 5.8305,1.68311 6.14939,1.23965 6.36936,0.77626 6.48683,0.30038 6.49992,-0.18035 6.40843,-0.65816 6.21383,-1.1254 5.91925,-1.57451 5.52941,-1.9983 5.05061,-2.38993 4.49055,-2.74311 3.85823,-3.05214 3.16382,-3.31208 2.41852,-3.51871 1.63429,-3.66873 0.82378,-3.75972 v -3.79022 l -0.82378,-3.75972 -1.63429,-3.66873 -2.41852,-3.51871 -3.16382,-3.31207 -3.85823,-3.05214 -4.49055,-2.74311 -5.05061,-2.389934 -5.52941,-1.998297 -5.91925,-1.574512 -6.21383,-1.125392 -6.40843,-0.658163 -6.49992,-0.180346 -6.48683,0.300374 -6.36936,0.776261 -6.14939,1.239658 -5.8305,1.683107 -5.41778,2.099475 -4.91788,2.482069 -4.33886,2.82471 -3.69003,3.12191 -2.98181,3.36888 -2.22563,3.56163 -1.433625,3.69709 -0.618558,3.77305 0.206463,3.7883 1.028162,3.74261 1.833317,3.63668 2.608971,3.47225 3.34265,3.25194 4.02254,2.97931 4.63771,2.65874 5.17826,2.29539 5.63548,1.8951 6.00203,1.46433 6.27201,1.01 6.44106,0.5394 6.50647,0.0601 6.4672,-0.4201 6.32386,-0.89358 6.07878,-1.35268 5.73588,-1.79 5.30068,-2.19854 4.78021,-2.5717 4.1828,-2.90347 3.51811,-3.18853 2.7968,-3.42229 2.0305,-3.60097 1.23151,-3.72172 L 198.9,122.04"
             style="fill:none;stroke:#cd5c5c;stroke-width:1;stroke-linecap:square;stroke-linejoin:round;stroke-miterlimit:10;stroke-dasharray:none;stroke-opacity:1"
             id="path4728" /></g></g><g
         id="g4730"><g
           id="g4732"
           clip-path="url(#clipPath4736)"><path
             d="m 198.9,122.04 -0.30954,-2.83694 -0.92363,-2.79129 -1.52287,-2.70073 -2.09761,-2.56671 -2.63858,-2.3914 -3.1371,-2.1776 -3.58516,-1.92877 -3.97551,-1.64891 -4.30191,-1.3425 -4.55908,-1.01451 -4.7429,-0.670182 -4.8504,-0.315075 -4.87985,0.0451 -4.8308,0.404557 -4.704,0.75749 -4.50152,1.09825 -4.22661,1.42133 -3.8837,1.72154 -3.47828,1.99406 -3.01691,2.23448 -2.50698,2.43895 -1.95673,2.60419 -1.37499,2.72751 -0.77112,2.80695 -0.15485,2.84123 0.46392,2.82979 1.07522,2.77282 1.66922,2.67122 2.23636,2.52666 2.76752,2.34143 3.25414,2.11854 3.68842,1.86154 4.06333,1.57461 4.37287,1.26233 4.61205,0.92974 4.77702,0.5822 4.86512,0.22528 4.87494,-0.13526 4.80632,-0.49362 4.66038,-0.84405 4.43943,-1.18088 4.14706,-1.49872 3.78796,-1.79245 3.36791,-2.05733 2.89367,-2.28911 2.37287,-2.48406 1.81389,-2.63903 1.22572,-2.75155 0.61783,-2.81979 v -2.84266 l -0.61783,-2.81979 -1.22572,-2.75155 -1.81389,-2.63903 -2.37287,-2.48406 -2.89367,-2.28911 -3.36791,-2.05733 -3.78796,-1.79245 -4.14706,-1.49872 -4.43943,-1.18088 -4.66038,-0.84405 -4.80632,-0.493621 -4.87494,-0.135259 -4.86512,0.22528 -4.77702,0.5822 -4.61205,0.92974 -4.37287,1.26233 -4.06333,1.57461 -3.68842,1.86154 -3.25414,2.11854 -2.76752,2.34143 -2.23636,2.52666 -1.66922,2.67122 -1.07522,2.77282 -0.46392,2.82979 0.15485,2.84123 0.77112,2.80695 1.37499,2.72751 1.95673,2.60419 2.50698,2.43895 3.01691,2.23448 3.47828,1.99406 3.8837,1.72154 4.22661,1.42133 4.50152,1.09825 4.704,0.75749 4.8308,0.40456 4.87985,0.0451 4.8504,-0.31508 4.7429,-0.67018 4.55908,-1.01451 4.30191,-1.3425 3.97551,-1.64891 3.58516,-1.92877 3.1371,-2.1776 2.63858,-2.3914 2.09761,-2.56671 1.52287,-2.70073 0.92363,-2.79129 L 198.9,122.04"
             style="fill:none;stroke:#cd5c5c;stroke-width:1;stroke-linecap:square;stroke-linejoin:round;stroke-miterlimit:10;stroke-dasharray:none;stroke-opacity:1"
             id="path4738" /></g></g><g
         id="g4740"><g
           id="g4742"
           clip-path="url(#clipPath4746)"><path
             d="m 198.9,122.04 -0.20636,-1.89129 -0.61576,-1.86086 -1.01524,-1.80049 -1.3984,-1.71114 -1.75906,-1.59426 -2.0914,-1.45174 -2.3901,-1.28585 -2.65035,-1.09927 -2.86794,-0.895 -3.03938,-0.67634 -3.16193,-0.44679 -3.2336,-0.21005 -3.25324,0.0301 -3.22053,0.2697 -3.136,0.505 -3.00102,0.73216 -2.81774,0.94756 -2.58913,1.14769 -2.31885,1.32937 -2.01127,1.48966 -1.67133,1.62597 -1.30449,1.73612 -0.91665,1.81834 -0.51409,1.8713 -0.10323,1.89416 0.30928,1.88652 0.71681,1.84854 1.11282,1.78082 1.4909,1.68444 1.84502,1.56095 2.16943,1.41236 2.45894,1.24103 2.70889,1.04974 2.91525,0.84155 3.0747,0.61983 3.18467,0.38813 3.24342,0.15019 3.24996,-0.0902 3.20422,-0.32909 3.10691,-0.56269 2.95962,-0.78726 2.76471,-0.99915 2.52531,-1.19496 2.24527,-1.37155 1.92911,-1.52608 1.58192,-1.65603 1.20925,-1.75936 0.81715,-1.83437 0.41189,-1.87986 v -1.8951 l -0.41189,-1.87986 -0.81715,-1.83437 -1.20925,-1.75936 -1.58192,-1.65603 -1.92911,-1.52608 -2.24527,-1.37155 -2.52531,-1.19497 -2.76471,-0.99914 -2.95962,-0.78726 -3.10691,-0.56269 -3.20422,-0.32909 -3.24996,-0.0902 -3.24342,0.15019 -3.18467,0.38813 -3.0747,0.61983 -2.91525,0.84155 -2.70889,1.04974 -2.45894,1.24103 -2.16943,1.41236 -1.84502,1.56095 -1.4909,1.68444 -1.11282,1.78082 -0.71681,1.84854 -0.30928,1.88652 0.10323,1.89416 0.51409,1.8713 0.91665,1.81834 1.30449,1.73612 1.67133,1.62597 2.01127,1.48966 2.31885,1.32937 2.58913,1.14769 2.81774,0.94756 3.00102,0.73216 3.136,0.505 3.22053,0.2697 3.25324,0.0301 3.2336,-0.21005 3.16193,-0.44679 3.03938,-0.67634 2.86794,-0.895 2.65035,-1.09927 2.3901,-1.28585 2.0914,-1.45174 1.75906,-1.59426 1.3984,-1.71114 1.01524,-1.80049 0.61576,-1.86086 L 198.9,122.04"
             style="fill:none;stroke:#cd5c5c;stroke-width:1;stroke-linecap:square;stroke-linejoin:round;stroke-miterlimit:10;stroke-dasharray:none;stroke-opacity:1"
             id="path4748" /></g></g><g
         id="g4750"><g
           id="g4752"
           clip-path="url(#clipPath4756)"><path
             d="m 198.9,122.04 -0.10318,-0.94565 -0.30788,-0.93042 -0.50762,-0.90025 -0.6992,-0.85557 -0.87953,-0.79713 -1.0457,-0.72587 -1.19505,-0.64292 -1.32517,-0.54964 -1.43397,-0.4475 -1.5197,-0.33817 -1.58096,-0.22339 -1.6168,-0.10503 -1.62662,0.015 -1.61027,0.13485 -1.568,0.25249 -1.5005,0.36609 -1.40888,0.47377 -1.29456,0.57385 -1.15943,0.66469 -1.00563,0.74482 -0.83567,0.81299 -0.65224,0.86806 -0.45833,0.90917 -0.25704,0.93565 -0.0516,0.94708 0.15464,0.94326 0.3584,0.92427 0.55641,0.89041 0.74545,0.84222 0.92251,0.78048 1.08471,0.70618 1.22948,0.62051 1.35444,0.52487 1.45762,0.42078 1.53735,0.30991 1.59234,0.19407 1.62171,0.0751 1.62498,-0.0451 1.60211,-0.16454 1.55346,-0.28135 1.47981,-0.39362 1.38235,-0.49958 1.26265,-0.59748 1.12264,-0.68578 0.96456,-0.76303 0.79095,-0.82802 0.60463,-0.87968 0.40858,-0.91718 0.20594,-0.93993 v -0.94756 l -0.20594,-0.93993 -0.40858,-0.91718 -0.60463,-0.87968 -0.79095,-0.82802 -0.96456,-0.76303 -1.12264,-0.68578 -1.26265,-0.59748 -1.38235,-0.49958 -1.47981,-0.39362 -1.55346,-0.28135 -1.60211,-0.16454 -1.62498,-0.0451 -1.62171,0.0751 -1.59234,0.19407 -1.53735,0.30991 -1.45762,0.42078 -1.35444,0.52487 -1.22948,0.62052 -1.08471,0.70617 -0.92251,0.78048 -0.74545,0.84222 -0.55641,0.89041 -0.3584,0.92427 -0.15464,0.94326 0.0516,0.94708 0.25704,0.93565 0.45833,0.90917 0.65224,0.86806 0.83567,0.81299 1.00563,0.74482 1.15943,0.66469 1.29456,0.57385 1.40888,0.47377 1.5005,0.36609 1.568,0.25249 1.61027,0.13485 1.62662,0.015 1.6168,-0.10503 1.58096,-0.22339 1.5197,-0.33817 1.43397,-0.4475 1.32517,-0.54964 1.19505,-0.64292 1.0457,-0.72587 0.87953,-0.79713 0.6992,-0.85557 0.50762,-0.90024 0.30788,-0.93043 L 198.9,122.04"
             style="fill:none;stroke:#cd5c5c;stroke-width:1;stroke-linecap:square;stroke-linejoin:round;stroke-miterlimit:10;stroke-dasharray:none;stroke-opacity:1"
             id="path4758" /></g></g><g
         id="g4760"><g
           id="g4762"
           clip-path="url(#clipPath4766)"><path
             d="m 198.9,122.04 v 0 0 0 0 0 0 0 0 0 0 0 0 0 0 0 0 0 0 0 0 0 0 0 0 0 0 0 0 0 0 0 0 0 0 0 0 0 0 0 0 0 0 0 0 0 0 0 0 0 0 0 0 0 0 0 0 0 0 0 0 0 0 0 0 0 0 0 0 0 0 0 0 0 0 0 0 0 0 0 0 0 0 0 0 0 0 0 0 0 0 0 0 0 0 0 0 0 0 0"
             style="fill:none;stroke:#cd5c5c;stroke-width:1;stroke-linecap:square;stroke-linejoin:round;stroke-miterlimit:10;stroke-dasharray:none;stroke-opacity:1"
             id="path4768" /></g></g><g
         id="g4770"><g
           id="g4772"
           clip-path="url(#clipPath4776)"><path
             d="m 198.9,122.04 0.10318,0.94565 0.30788,0.93043 0.50762,0.90024 0.6992,0.85557 0.87953,0.79713 1.0457,0.72587 1.19505,0.64292 1.32517,0.54964 1.43397,0.4475 1.5197,0.33817 1.58096,0.22339 1.6168,0.10503 1.62662,-0.015 1.61027,-0.13485 1.568,-0.25249 1.5005,-0.36609 1.40887,-0.47377 1.29457,-0.57385 1.15943,-0.66469 1.00563,-0.74482 0.83566,-0.81299 0.65225,-0.86806 0.45833,-0.90917 0.25704,-0.93565 0.0516,-0.94708 -0.15464,-0.94326 -0.3584,-0.92427 -0.55641,-0.89041 -0.74545,-0.84222 -0.92251,-0.78048 -1.08472,-0.70617 -1.22947,-0.62052 -1.35444,-0.52487 -1.45762,-0.42078 -1.53735,-0.30991 -1.59234,-0.19407 -1.62171,-0.0751 -1.62498,0.0451 -1.60211,0.16454 -1.55346,0.28135 -1.47981,0.39362 -1.38235,0.49958 -1.26265,0.59748 -1.12264,0.68578 -0.96456,0.76303 -0.79095,0.82802 -0.60463,0.87968 -0.40858,0.91718 -0.20594,0.93993 v 0.94756 l 0.20594,0.93993 0.40858,0.91718 0.60463,0.87968 0.79095,0.82802 0.96456,0.76303 1.12264,0.68578 1.26265,0.59748 1.38235,0.49958 1.47981,0.39362 1.55346,0.28135 1.60211,0.16454 1.62498,0.0451 1.62171,-0.0751 1.59234,-0.19407 1.53735,-0.30991 1.45762,-0.42078 1.35444,-0.52487 1.22947,-0.62051 1.08472,-0.70618 0.92251,-0.78048 0.74545,-0.84222 0.55641,-0.89041 0.3584,-0.92427 0.15464,-0.94326 -0.0516,-0.94708 -0.25704,-0.93565 -0.45833,-0.90917 -0.65225,-0.86806 -0.83566,-0.81299 -1.00563,-0.74482 -1.15943,-0.66469 -1.29457,-0.57385 -1.40887,-0.47377 -1.5005,-0.36609 -1.568,-0.25249 -1.61027,-0.13485 -1.62662,-0.015 -1.6168,0.10503 -1.58096,0.22339 -1.5197,0.33817 -1.43397,0.4475 -1.32517,0.54964 -1.19505,0.64292 -1.0457,0.72587 -0.87953,0.79713 -0.6992,0.85557 -0.50762,0.90025 -0.30788,0.93042 L 198.9,122.04"
             style="fill:none;stroke:#cd5c5c;stroke-width:1;stroke-linecap:square;stroke-linejoin:round;stroke-miterlimit:10;stroke-dasharray:none;stroke-opacity:1"
             id="path4778" /></g></g><g
         id="g4780"><g
           id="g4782"
           clip-path="url(#clipPath4786)"><path
             d="m 198.9,122.04 0.20636,1.89129 0.61576,1.86086 1.01524,1.80049 1.3984,1.71114 1.75906,1.59426 2.0914,1.45174 2.3901,1.28585 2.65035,1.09927 2.86793,0.895 3.03939,0.67634 3.16193,0.44679 3.2336,0.21005 3.25324,-0.0301 3.22053,-0.2697 3.136,-0.505 3.00102,-0.73216 2.81774,-0.94756 2.58913,-1.14769 2.31885,-1.32937 2.01127,-1.48966 1.67133,-1.62597 1.30449,-1.73612 0.91665,-1.81834 0.51408,-1.8713 0.10324,-1.89416 -0.30928,-1.88652 -0.71682,-1.84854 -1.11281,-1.78082 -1.49091,-1.68444 -1.84501,-1.56095 -2.16943,-1.41236 -2.45894,-1.24103 -2.70889,-1.04974 -2.91525,-0.84155 -3.0747,-0.61983 -3.18467,-0.38813 -3.24342,-0.15019 -3.24996,0.0902 -3.20422,0.32909 -3.10691,0.56269 -2.95962,0.78726 -2.76471,0.99914 -2.52531,1.19497 -2.24527,1.37155 -1.92911,1.52608 -1.58192,1.65603 -1.20925,1.75936 -0.81715,1.83437 -0.41189,1.87986 v 1.8951 l 0.41189,1.87986 0.81715,1.83437 1.20925,1.75936 1.58192,1.65603 1.92911,1.52608 2.24527,1.37155 2.52531,1.19496 2.76471,0.99915 2.95962,0.78726 3.10691,0.56269 3.20422,0.32909 3.24996,0.0902 3.24342,-0.15019 3.18467,-0.38813 3.0747,-0.61983 2.91525,-0.84155 2.70889,-1.04974 2.45894,-1.24103 2.16943,-1.41236 1.84501,-1.56095 1.49091,-1.68444 1.11281,-1.78082 0.71682,-1.84854 0.30928,-1.88652 -0.10324,-1.89416 -0.51408,-1.8713 -0.91665,-1.81834 -1.30449,-1.73612 -1.67133,-1.62597 -2.01127,-1.48966 -2.31885,-1.32937 -2.58913,-1.14769 -2.81774,-0.94756 -3.00102,-0.73216 -3.136,-0.505 -3.22053,-0.2697 -3.25324,-0.0301 -3.2336,0.21005 -3.16193,0.44679 -3.03939,0.67634 -2.86793,0.895 -2.65035,1.09927 -2.3901,1.28585 -2.0914,1.45174 -1.75906,1.59426 -1.3984,1.71114 -1.01524,1.80049 -0.61576,1.86086 L 198.9,122.04"
             style="fill:none;stroke:#cd5c5c;stroke-width:1;stroke-linecap:square;stroke-linejoin:round;stroke-miterlimit:10;stroke-dasharray:none;stroke-opacity:1"
             id="path4788" /></g></g><g
         id="g4790"><g
           id="g4792"
           clip-path="url(#clipPath4796)"><path
             d="m 198.9,122.04 0.30954,2.83694 0.92363,2.79129 1.52287,2.70073 2.0976,2.56671 2.63859,2.3914 3.1371,2.1776 3.58516,1.92877 3.97551,1.64891 4.30191,1.3425 4.55908,1.01451 4.7429,0.67018 4.8504,0.31508 4.87985,-0.0451 4.8308,-0.40456 4.704,-0.75749 4.50152,-1.09825 4.22661,-1.42133 3.8837,-1.72154 3.47828,-1.99406 3.01691,-2.23448 2.50698,-2.43895 1.95673,-2.60419 1.37499,-2.72751 0.77112,-2.80695 0.15485,-2.84123 -0.46392,-2.82979 -1.07522,-2.77282 -1.66922,-2.67122 -2.23636,-2.52666 -2.76752,-2.34143 -3.25414,-2.11854 -3.68842,-1.86154 -4.06333,-1.57461 -4.37287,-1.26233 -4.61205,-0.92974 -4.77702,-0.582199 -4.86512,-0.22528 -4.87494,0.135259 -4.80633,0.49362 -4.66037,0.84405 -4.43943,1.18088 -4.14706,1.49872 -3.78796,1.79245 -3.36791,2.05733 -2.89367,2.28911 -2.37287,2.48406 -1.81389,2.63903 -1.22572,2.75155 -0.61783,2.81979 v 2.84266 l 0.61783,2.81979 1.22572,2.75155 1.81389,2.63903 2.37287,2.48406 2.89367,2.28911 3.36791,2.05733 3.78796,1.79245 4.14706,1.49872 4.43943,1.18088 4.66037,0.84405 4.80633,0.49362 4.87494,0.13526 4.86512,-0.22528 4.77702,-0.5822 4.61205,-0.92974 4.37287,-1.26233 4.06333,-1.57461 3.68842,-1.86154 3.25414,-2.11854 2.76752,-2.34143 2.23636,-2.52666 1.66922,-2.67122 1.07522,-2.77282 0.46392,-2.82979 -0.15485,-2.84123 -0.77112,-2.80695 -1.37499,-2.72751 -1.95673,-2.60419 -2.50698,-2.43895 -3.01691,-2.23448 -3.47828,-1.99406 -3.8837,-1.72154 -4.22661,-1.42133 -4.50152,-1.09825 -4.704,-0.75749 -4.8308,-0.404556 -4.87985,-0.0451 -4.8504,0.315075 -4.7429,0.670181 -4.55908,1.01451 -4.30191,1.3425 -3.97551,1.64891 -3.58516,1.92877 -3.1371,2.1776 -2.63859,2.3914 -2.0976,2.56671 -1.52287,2.70073 -0.92363,2.79129 L 198.9,122.04"
             style="fill:none;stroke:#cd5c5c;stroke-width:1;stroke-linecap:square;stroke-linejoin:round;stroke-miterlimit:10;stroke-dasharray:none;stroke-opacity:1"
             id="path4798" /></g></g><g
         id="g4800"><g
           id="g4802"
           clip-path="url(#clipPath4806)"><path
             d="m 198.9,122.04 0.41272,3.78258 1.23151,3.72172 2.03049,3.60097 2.79681,3.42229 3.51811,3.18853 4.1828,2.90347 4.78021,2.5717 5.30068,2.19854 5.73588,1.79 6.07877,1.35268 6.32387,0.89358 6.4672,0.4201 6.50647,-0.0601 6.44106,-0.5394 6.27201,-1.01 6.00203,-1.46433 5.63548,-1.8951 5.17826,-2.29539 4.63771,-2.65874 4.02254,-2.97931 3.34265,-3.25194 2.60897,-3.47225 1.83332,-3.63668 1.02816,-3.74261 0.20646,-3.7883 -0.61856,-3.77305 -1.43362,-3.69709 -2.22563,-3.56163 -2.98181,-3.36888 -3.69003,-3.12191 -4.33886,-2.82471 -4.91788,-2.482064 -5.41778,-2.099475 -5.8305,-1.683107 -6.14939,-1.239658 -6.36936,-0.776261 -6.48683,-0.300374 -6.49992,0.180346 -6.40843,0.658163 -6.21383,1.125392 -5.91925,1.574512 -5.52941,1.998297 -5.05061,2.389929 -4.49055,2.74311 -3.85823,3.05214 -3.16382,3.31208 -2.41852,3.51871 -1.63429,3.66873 -0.82378,3.75972 v 3.79022 l 0.82378,3.75972 1.63429,3.66873 2.41852,3.51871 3.16382,3.31208 3.85823,3.05214 4.49055,2.74311 5.05061,2.38993 5.52941,1.9983 5.91925,1.57451 6.21383,1.12539 6.40843,0.65816 6.49992,0.18035 6.48683,-0.30038 6.36936,-0.77626 6.14939,-1.23965 5.8305,-1.68311 5.41778,-2.09948 4.91788,-2.48206 4.33886,-2.82471 3.69003,-3.12191 2.98181,-3.36888 2.22563,-3.56163 1.43362,-3.69709 0.61856,-3.77305 -0.20646,-3.7883 -1.02816,-3.74261 -1.83332,-3.63668 -2.60897,-3.47225 -3.34265,-3.25194 -4.02254,-2.97931 -4.63771,-2.658737 -5.17826,-2.29539 -5.63548,-1.895107 -6.00203,-1.46433 -6.27201,-1.009993 -6.44106,-0.539404 -6.50647,-0.06014 -6.4672,0.4201 -6.32387,0.893577 -6.07877,1.352675 -5.73588,1.790008 -5.30068,2.19854 -4.78021,2.571691 -4.1828,2.90347 -3.51811,3.18853 -2.79681,3.42229 -2.03049,3.60097 -1.23151,3.72172 L 198.9,122.04"
             style="fill:none;stroke:#cd5c5c;stroke-width:1;stroke-linecap:square;stroke-linejoin:round;stroke-miterlimit:10;stroke-dasharray:none;stroke-opacity:1"
             id="path4808" /></g></g><g
         id="g4810"><g
           id="g4812"
           clip-path="url(#clipPath4816)"><path
             d="m 198.9,122.04 0.5159,4.72823 1.53939,4.65215 2.53812,4.50121 3.496,4.27786 4.39764,3.98566 5.2285,3.62934 5.97526,3.21462 6.62586,2.74817 7.16984,2.23751 7.59847,1.69085 7.90483,1.11697 8.084,0.52512 8.13309,-0.0752 8.05133,-0.67426 7.84,-1.26249 7.50254,-1.83041 7.04435,-2.36889 6.47282,-2.86923 5.79714,-3.32343 5.02818,-3.72413 4.17831,-4.06493 3.26122,-4.34031 2.29164,-4.54585 1.28521,-4.67826 0.25808,-4.73538 -0.7732,-4.71631 -1.79203,-4.62136 -2.78204,-4.45204 -3.72726,-4.2111 -4.61254,-3.902388 -5.42357,-3.530889 -6.14736,-3.102578 -6.77222,-2.624344 -7.28812,-2.103884 -7.68675,-1.549572 -7.96169,-0.970326 -8.10853,-0.375468 -8.12491,0.225432 -8.01054,0.822705 -7.76729,1.406739 -7.39905,1.96814 -6.91177,2.497871 -6.31327,2.987412 -5.61318,3.428883 -4.82278,3.815187 -3.95478,4.14009 -3.02315,4.39839 -2.04287,4.58592 -1.02972,4.69965 v 4.73776 l 1.02972,4.69965 2.04287,4.58592 3.02315,4.39839 3.95478,4.14009 4.82278,3.81519 5.61318,3.42888 6.31327,2.98741 6.91177,2.49787 7.39905,1.96814 7.76729,1.40674 8.01054,0.82271 8.12491,0.22543 8.10853,-0.37547 7.96169,-0.97033 7.68675,-1.54957 7.28812,-2.10388 6.77222,-2.62435 6.14736,-3.10257 5.42357,-3.53089 4.61254,-3.90239 3.72726,-4.2111 2.78204,-4.45204 1.79203,-4.62136 0.7732,-4.71631 -0.25808,-4.73538 -1.28521,-4.67826 -2.29164,-4.54585 -3.26122,-4.34031 -4.17831,-4.06493 -5.02818,-3.724132 -5.79714,-3.323425 -6.47282,-2.869237 -7.04435,-2.368883 -7.50254,-1.830414 -7.84,-1.26249 -8.05133,-0.674255 -8.13309,-0.07517 -8.084,0.525125 -7.90483,1.116971 -7.59847,1.690844 -7.16984,2.23751 -6.62586,2.748175 -5.97526,3.214619 -5.2285,3.62934 -4.39764,3.985662 -3.496,4.27786 -2.53812,4.50121 -1.53939,4.65215 L 198.9,122.04"
             style="fill:none;stroke:#cd5c5c;stroke-width:1;stroke-linecap:square;stroke-linejoin:round;stroke-miterlimit:10;stroke-dasharray:none;stroke-opacity:1"
             id="path4818" /></g></g><g
         id="g4820"><g
           id="g4822"
           clip-path="url(#clipPath4826)"><path
             d="m 198.9,122.04 3.09539,28.36937 9.23635,27.91289 15.2287,27.0073 L 235.9979,217 M 262.35724,-1 259.9777,0.882393 236.24901,25.72296 218.11014,52.113305 205.85293,79.628796 199.67463,107.8267 v 28.4266 l 6.1783,28.1979 12.25721,27.51549 L 235.31628,217 M 262.97547,-1 247.43645,13.083311 226.46044,38.750444 211.23174,65.757736 201.99539,93.670631 198.9,122.04"
             style="fill:none;stroke:#cd5c5c;stroke-width:1;stroke-linecap:square;stroke-linejoin:round;stroke-miterlimit:10;stroke-dasharray:none;stroke-opacity:1"
             id="path4828" /></g></g><g
         id="g4830"><g
           id="g4832"
           clip-path="url(#clipPath4836)"><path
             d="M 198.9,122.04 195.80461,93.670631 186.56826,65.757736 171.33956,38.750444 150.36355,13.083311 134.82453,-1 m 27.65919,218 17.20614,-25.03331 12.25721,-27.51549 6.1783,-28.1979 V 107.8267 L 191.94707,79.628796 179.68986,52.113305 161.55099,25.72296 137.8223,0.882393 135.44276,-1 m 26.35934,218 9.53746,-11.67044 15.2287,-27.0073 9.23635,-27.91289 L 198.9,122.04"
             style="fill:none;stroke:#cd5c5c;stroke-width:1;stroke-linecap:square;stroke-linejoin:round;stroke-miterlimit:10;stroke-dasharray:none;stroke-opacity:1"
             id="path4838" /></g></g><g
         id="g4840"><g
           id="g4842"
           clip-path="url(#clipPath4846)"><path
             d="M 198.9,32.4 V 211.68"
             style="fill:none;stroke:#cd5c5c;stroke-width:1;stroke-linecap:square;stroke-linejoin:round;stroke-miterlimit:10;stroke-dasharray:none;stroke-opacity:1"
             id="path4848" /></g></g><g
         id="g4850"
         clip-path="url(#clipPath5423)"><path
           d="M 45,32.4 V 211.68"
           style="fill:none;stroke:#000000;stroke-width:0.8;stroke-linecap:square;stroke-linejoin:miter;stroke-miterlimit:10;stroke-dasharray:none;stroke-opacity:1"
           id="path4852" /><path
           d="M 352.8,32.4 V 211.68"
           style="fill:none;stroke:#000000;stroke-width:0.8;stroke-linecap:square;stroke-linejoin:miter;stroke-miterlimit:10;stroke-dasharray:none;stroke-opacity:1"
           id="path4854" /><path
           d="M 45,32.4 H 352.8"
           style="fill:none;stroke:#000000;stroke-width:0.8;stroke-linecap:square;stroke-linejoin:miter;stroke-miterlimit:10;stroke-dasharray:none;stroke-opacity:1"
           id="path4856" /><path
           d="M 45,211.68 H 352.8"
           style="fill:none;stroke:#000000;stroke-width:0.8;stroke-linecap:square;stroke-linejoin:miter;stroke-miterlimit:10;stroke-dasharray:none;stroke-opacity:1"
           id="path4858" /></g></g><g
       id="g12050"
       style="stroke-width:0.581675;stroke-miterlimit:4;stroke-dasharray:none"
       transform="matrix(1.4482242,0,0,1,-296.49669,5.6249928)"><path
         style="fill:none;stroke:#000000;stroke-width:0.623223px;stroke-linecap:butt;stroke-linejoin:miter;stroke-opacity:1"
         d="m 391.16644,142.87501 v -7.5"
         id="path12044" /><path
         style="fill:none;stroke:#000000;stroke-width:0.623223px;stroke-linecap:butt;stroke-linejoin:miter;stroke-opacity:1"
         d="m 388.57706,139.12501 h 5.17875"
         id="path12046" /></g><path
       style="fill:none;stroke:#008800;stroke-width:1.00000002;stroke-linecap:butt;stroke-linejoin:miter;stroke-opacity:1;stroke-miterlimit:4;stroke-dasharray:2.00000005,1.00000002;stroke-dashoffset:0"
       d="m 181.28719,110.87817 88.87357,33.97607"
       id="path12133" /><path
       style="fill:none;stroke:#000000;stroke-width:1.50000004;stroke-linecap:butt;stroke-linejoin:miter;stroke-miterlimit:4;stroke-dasharray:none;stroke-opacity:1;marker-start:url(#Arrow2Mstart)"
       d="M 181.53277,132.46041 V 87.460413"
       id="path5478" /><path
       style="fill:none;stroke:#008800;stroke-width:1.00000002;stroke-miterlimit:4;stroke-dasharray:2.00000005,1.00000002;stroke-dashoffset:0;stroke-opacity:1;marker-end:url(#marker12145)"
       id="path12141"
       transform="scale(1,-1)"
       sodipodi:type="arc"
       sodipodi:cx="182.56981"
       sodipodi:cy="-111.68679"
       sodipodi:rx="32.462811"
       sodipodi:ry="32.462811"
       sodipodi:start="4.7234718"
       sodipodi:end="5.8596812"
       sodipodi:open="true"
       sodipodi:arc-type="arc"
       d="m 182.92958,-144.14761 a 32.462811,32.462811 0 0 1 29.2351,19.11998" /><g
       inkscape:label=""
       transform="matrix(-1,0,0,1,293.99793,68.525875)"
       id="g12333"
       style="fill:#008700;fill-opacity:0.94509804"><g
   id="g6324"
   style="fill:#008700;fill-opacity:0.94509804">
    <g
   style="fill:#008700;fill-opacity:0.94509804"
   id="g515">
      <use
   xlink:href="#symbol8214"
   x="91.925003"
   y="81.962997"
   id="use5447"
   width="100%"
   height="100%"
   style="fill:#008700;fill-opacity:0.94509804" />
    </g>
  </g>
</g><g
       inkscape:label=""
       transform="matrix(1,0,0,-1,138.72634,205.33897)"
       id="g12470"
       style="fill:#008700;fill-opacity:0.94509804"><g
   id="g5073"
   style="fill:#008700;fill-opacity:0.94509804">
    <g
   style="fill:#008700;fill-opacity:0.94509804"
   id="g713">
      <use
   xlink:href="#symbol8890"
   x="91.925003"
   y="81.962997"
   id="use5554"
   width="100%"
   height="100%"
   style="fill:#008700;fill-opacity:0.94509804" />
    </g>
  </g>
</g><g
       inkscape:label=""
       transform="matrix(1,0,0,-1,183.54688,227.85938)"
       id="g12616"><g
   id="g9087">
    <g
   style="fill:#000000;fill-opacity:1"
   id="g1659">
      <use
   xlink:href="#symbol1346"
   x="91.925003"
   y="81.962997"
   id="use8726"
   width="100%"
   height="100%" />
    </g>
  </g>
</g><g
       inkscape:label=""
       transform="matrix(-1,0,0,1,422.29689,26.562501)"
       id="g12771"
       style="fill:#000000;fill-opacity:0.75294119"><g
   id="g2355"
   style="fill:#000000;fill-opacity:0.75294119">
    <g
   style="fill:#000000;fill-opacity:0.75294119"
   id="g5340">
      <use
   xlink:href="#symbol2045"
   x="91.925003"
   y="81.962997"
   id="use1528"
   width="100%"
   height="100%"
   style="fill:#000000;fill-opacity:0.75294119" />
    </g>
  </g>
</g><g
       inkscape:label=""
       transform="matrix(1,0,0,-1,96.984377,288.75001)"
       id="g12935"
       style="fill:#000000;fill-opacity:0.63921571"><g
   id="g1204"
   style="fill:#000000;fill-opacity:0.63921571">
    <g
   style="fill:#000000;fill-opacity:0.63921571"
   id="g4644">
      <use
   xlink:href="#symbol6130"
   x="92.422997"
   y="81.962997"
   id="use1056"
   width="100%"
   height="100%"
   style="fill:#000000;fill-opacity:0.63921571" />
    </g>
  </g>
</g><g
       inkscape:label=""
       transform="matrix(1,0,0,-1,75.796877,187.53125)"
       id="g13108"><g
   id="g7035">
    <g
   style="fill:#000000;fill-opacity:1"
   id="g8435">
      <use
   xlink:href="#symbol6624"
   x="91.925003"
   y="81.962997"
   id="use5867"
   width="100%"
   height="100%" />
    </g>
  </g>
</g><path
       style="fill:#cd5c5c;fill-opacity:1;stroke:#cd5c5c;stroke-width:0.471875px;stroke-linecap:butt;stroke-linejoin:miter;stroke-opacity:1"
       d="m 311.83848,111.57864 -2.35938,-2.35938 -2.35938,2.35938 z"
       id="path13128" /><path
       style="fill:#cd5c5c;fill-opacity:1;stroke:#cd5c5c;stroke-width:0.471875px;stroke-linecap:butt;stroke-linejoin:miter;stroke-opacity:1"
       d="m 286.19493,111.81573 -2.35938,-2.35938 -2.35938,2.35938 z"
       id="path13128-2" /><path
       style="fill:#cd5c5c;fill-opacity:1;stroke:#cd5c5c;stroke-width:0.471875px;stroke-linecap:butt;stroke-linejoin:miter;stroke-opacity:1"
       d="m 260.55139,112.0527 -2.35938,-2.35938 -2.35938,2.35938 z"
       id="path13128-2-6" /><path
       style="fill:#cd5c5c;fill-opacity:1;stroke:#cd5c5c;stroke-width:0.471875px;stroke-linecap:butt;stroke-linejoin:miter;stroke-opacity:1"
       d="m 234.90785,112.28967 -2.35938,-2.35938 -2.35938,2.35938 z"
       id="path13128-2-1" /><path
       style="fill:#cd5c5c;fill-opacity:1;stroke:#cd5c5c;stroke-width:0.583018px;stroke-linecap:butt;stroke-linejoin:miter;stroke-opacity:1"
       d="m 158.40167,112.042 -2.27078,-3.74224 -2.27078,3.74224 z"
       id="path13128-6" /><path
       style="fill:#cd5c5c;fill-opacity:1;stroke:#cd5c5c;stroke-width:0.585437px;stroke-linecap:butt;stroke-linejoin:miter;stroke-opacity:1"
       d="m 132.24314,111.81901 -2.26885,-3.77656 -2.26885,3.77656 z"
       id="path13128-2-15" /><path
       style="fill:#cd5c5c;fill-opacity:1;stroke:#cd5c5c;stroke-width:0.593245px;stroke-linecap:butt;stroke-linejoin:miter;stroke-opacity:1"
       d="m 106.59338,112.05724 -2.26263,-3.88864 -2.26263,3.88864 z"
       id="path13128-2-6-9" /><path
       style="fill:#cd5c5c;fill-opacity:1;stroke:#cd5c5c;stroke-width:0.645386px;stroke-linecap:butt;stroke-linejoin:miter;stroke-opacity:1"
       d="m 80.908273,112.30625 -2.22106,-4.68836 -2.22106,4.68836 z"
       id="path13128-2-1-4" /><path
       style="fill:#cd5c5c;fill-opacity:1;stroke:#cd5c5c;stroke-width:0.587191px;stroke-linecap:butt;stroke-linejoin:miter;stroke-opacity:1"
       d="m 55.259505,112.05724 -2.267452,-3.80157 -2.267452,3.80157 z"
       id="path13128-2-0-9" /><path
       style="fill:#cd5c5c;fill-opacity:1;stroke:#cd5c5c;stroke-width:0.471875px;stroke-linecap:butt;stroke-linejoin:miter;stroke-opacity:1"
       d="m 183.67203,164.76118 -2.35938,2.35938 -2.35938,-2.35938 z"
       id="path13128-0" /><path
       style="fill:#cd5c5c;fill-opacity:1;stroke:#cd5c5c;stroke-width:0.471875px;stroke-linecap:butt;stroke-linejoin:miter;stroke-opacity:1"
       d="m 194.30458,161.60232 -1.07741,3.15794 -3.15793,-1.07741 z"
       id="path13128-0-9" /><path
       style="fill:#cd5c5c;fill-opacity:1;stroke:#cd5c5c;stroke-width:0.471875px;stroke-linecap:butt;stroke-linejoin:miter;stroke-opacity:1"
       d="m 168.21912,161.97924 1.07741,3.15794 3.15793,-1.07741 z"
       id="path13128-0-9-1" /><path
       style="fill:#cd5c5c;fill-opacity:1;stroke:#cd5c5c;stroke-width:0.583018px;stroke-linecap:butt;stroke-linejoin:miter;stroke-opacity:1"
       d="m 311.84664,111.57702 -2.27078,-3.74224 -2.27078,3.74224 z"
       id="path13128-6-7" /><path
       style="fill:#cd5c5c;fill-opacity:1;stroke:#cd5c5c;stroke-width:0.585437px;stroke-linecap:butt;stroke-linejoin:miter;stroke-opacity:1"
       d="m 286.20115,111.81447 -2.26885,-3.77656 -2.26885,3.77656 z"
       id="path13128-2-15-7" /><path
       style="fill:#cd5c5c;fill-opacity:1;stroke:#cd5c5c;stroke-width:0.593245px;stroke-linecap:butt;stroke-linejoin:miter;stroke-opacity:1"
       d="m 260.55139,112.0527 -2.26263,-3.88864 -2.26263,3.88864 z"
       id="path13128-2-6-9-1" /><path
       style="fill:#cd5c5c;fill-opacity:1;stroke:#cd5c5c;stroke-width:0.645386px;stroke-linecap:butt;stroke-linejoin:miter;stroke-opacity:1"
       d="m 234.86629,112.30171 -2.22106,-4.68836 -2.22106,4.68836 z"
       id="path13128-2-1-4-1" /><path
       style="fill:#cd5c5c;fill-opacity:1;stroke:#cd5c5c;stroke-width:0.587191px;stroke-linecap:butt;stroke-linejoin:miter;stroke-opacity:1"
       d="m 208.86372,112.56023 -2.26745,-3.80157 -2.26746,3.80157 z"
       id="path13128-2-0-9-5" /><path
       style="fill:#cd5c5c;fill-opacity:1;stroke:#cd5c5c;stroke-width:0.471875px;stroke-linecap:butt;stroke-linejoin:miter;stroke-opacity:1"
       d="m 183.71446,51.745366 -2.35938,2.35938 -2.35938,-2.35938 z"
       id="path13128-0-97" /><path
       style="fill:#cd5c5c;fill-opacity:1;stroke:#cd5c5c;stroke-width:0.471875px;stroke-linecap:butt;stroke-linejoin:miter;stroke-opacity:1"
       d="m 171.29998,55.785712 -1.07741,3.15794 -3.15793,-1.07741 z"
       id="path13128-0-9-7" /><path
       style="fill:#cd5c5c;fill-opacity:1;stroke:#cd5c5c;stroke-width:0.471875px;stroke-linecap:butt;stroke-linejoin:miter;stroke-opacity:1"
       d="m 191.27918,55.676052 1.07741,3.15794 3.15793,-1.07741 z"
       id="path13128-0-9-1-6" /></g></svg>
