<?xml version="1.0" encoding="UTF-8" standalone="no"?>
<svg
   xmlns:dc="http://purl.org/dc/elements/1.1/"
   xmlns:cc="http://creativecommons.org/ns#"
   xmlns:rdf="http://www.w3.org/1999/02/22-rdf-syntax-ns#"
   xmlns:svg="http://www.w3.org/2000/svg"
   xmlns="http://www.w3.org/2000/svg"
   xmlns:xlink="http://www.w3.org/1999/xlink"
   xmlns:sodipodi="http://sodipodi.sourceforge.net/DTD/sodipodi-0.dtd"
   xmlns:inkscape="http://www.inkscape.org/namespaces/inkscape"
   width="6cm"
   height="6cm"
   viewBox="0 0 212.59843 212.59843"
   id="svg2"
   version="1.1"
   inkscape:version="1.0.1 (1.0.1+r75)"
   sodipodi:docname="cavite.svg">
  <defs
     id="defs4">
    <inkscape:perspective
       sodipodi:type="inkscape:persp3d"
       inkscape:vp_x="0 : 450.77952 : 1"
       inkscape:vp_y="0 : 1000 : 0"
       inkscape:vp_z="744.09453 : 450.77952 : 1"
       inkscape:persp3d-origin="372.04725 : 275.38582 : 1"
       id="perspective4138" />
    <marker
       style="overflow:visible"
       id="marker3060"
       refX="0"
       refY="0"
       orient="auto"
       inkscape:stockid="Arrow1Sstart"
       inkscape:isstock="true">
      <path
         transform="matrix(0.2,0,0,0.2,1.2,0)"
         style="fill:#d20000;fill-opacity:1;fill-rule:evenodd;stroke:#d20000;stroke-width:1pt;stroke-opacity:1"
         d="M 0,0 5,-5 -12.5,0 5,5 Z"
         id="path2809" />
    </marker>
    <marker
       style="overflow:visible"
       id="Arrow2Send"
       refX="0"
       refY="0"
       orient="auto"
       inkscape:stockid="Arrow2Send"
       inkscape:isstock="true">
      <path
         transform="matrix(-0.3,0,0,-0.3,0.69,0)"
         d="M 8.7185878,4.0337352 -2.2072895,0.01601326 8.7185884,-4.0017078 c -1.7454984,2.3720609 -1.7354408,5.6174519 -6e-7,8.035443 z"
         style="fill:#d20000;fill-opacity:1;fill-rule:evenodd;stroke:#d20000;stroke-width:0.625;stroke-linejoin:round;stroke-opacity:1"
         id="path6011" />
    </marker>
    <marker
       style="overflow:visible"
       id="marker8130"
       refX="0"
       refY="0"
       orient="auto"
       inkscape:stockid="Arrow1Send"
       inkscape:isstock="true">
      <path
         transform="matrix(-0.2,0,0,-0.2,-1.2,0)"
         style="fill:#008800;fill-opacity:1;fill-rule:evenodd;stroke:#008800;stroke-width:1pt;stroke-opacity:1"
         d="M 0,0 5,-5 -12.5,0 5,5 Z"
         id="path8128" />
    </marker>
    <marker
       style="overflow:visible"
       id="Arrow1Sstart"
       refX="0"
       refY="0"
       orient="auto"
       inkscape:stockid="Arrow1Sstart"
       inkscape:isstock="true">
      <path
         transform="matrix(0.2,0,0,0.2,1.2,0)"
         style="fill:#008800;fill-opacity:1;fill-rule:evenodd;stroke:#008800;stroke-width:1pt;stroke-opacity:1"
         d="M 0,0 5,-5 -12.5,0 5,5 Z"
         id="path4453" />
    </marker>
    <marker
       style="overflow:visible"
       id="Arrow1Send"
       refX="0"
       refY="0"
       orient="auto"
       inkscape:stockid="Arrow1Send"
       inkscape:isstock="true"
       inkscape:collect="always">
      <path
         transform="matrix(-0.2,0,0,-0.2,-1.2,0)"
         style="fill:#008800;fill-opacity:1;fill-rule:evenodd;stroke:#008800;stroke-width:1pt;stroke-opacity:1"
         d="M 0,0 5,-5 -12.5,0 5,5 Z"
         id="path4456" />
    </marker>
    <rect
       x="46.157078"
       y="20.21114"
       width="16.587317"
       height="10.917552"
       id="rect7504" />
    <marker
       style="overflow:visible"
       id="marker7404"
       refX="0"
       refY="0"
       orient="auto"
       inkscape:stockid="Arrow1Mend"
       inkscape:isstock="true">
      <path
         transform="matrix(-0.4,0,0,-0.4,-4,0)"
         style="fill:#d70000;fill-opacity:0.996078;fill-rule:evenodd;stroke:#d70000;stroke-width:1pt;stroke-opacity:0.996078"
         d="M 0,0 5,-5 -12.5,0 5,5 Z"
         id="path7402" />
    </marker>
    <marker
       style="overflow:visible"
       id="marker4862"
       refX="0"
       refY="0"
       orient="auto"
       inkscape:stockid="Arrow1Mend"
       inkscape:isstock="true">
      <path
         transform="matrix(-0.4,0,0,-0.4,-4,0)"
         style="fill:#008800;fill-opacity:1;fill-rule:evenodd;stroke:#008800;stroke-width:1pt;stroke-opacity:1"
         d="M 0,0 5,-5 -12.5,0 5,5 Z"
         id="path4860" />
    </marker>
    <marker
       style="overflow:visible"
       id="marker4739"
       refX="0"
       refY="0"
       orient="auto"
       inkscape:stockid="Arrow1Mend"
       inkscape:isstock="true">
      <path
         transform="matrix(-0.4,0,0,-0.4,-4,0)"
         style="fill:#000000;fill-opacity:0.4;fill-rule:evenodd;stroke:#000000;stroke-width:1pt;stroke-opacity:0.4"
         d="M 0,0 5,-5 -12.5,0 5,5 Z"
         id="path4737" />
    </marker>
    <marker
       style="overflow:visible"
       id="Arrow1Mend"
       refX="0"
       refY="0"
       orient="auto"
       inkscape:stockid="Arrow1Mend"
       inkscape:isstock="true"
       inkscape:collect="always">
      <path
         transform="matrix(-0.4,0,0,-0.4,-4,0)"
         style="fill:#000000;fill-opacity:0.4;fill-rule:evenodd;stroke:#000000;stroke-width:1pt;stroke-opacity:0.4"
         d="M 0,0 5,-5 -12.5,0 5,5 Z"
         id="path4450" />
    </marker>
    <marker
       style="overflow:visible"
       id="Arrow1Mstart"
       refX="0"
       refY="0"
       orient="auto"
       inkscape:stockid="Arrow1Mstart"
       inkscape:isstock="true">
      <path
         transform="matrix(0.4,0,0,0.4,4,0)"
         style="fill:#000000;fill-opacity:0.4;fill-rule:evenodd;stroke:#000000;stroke-width:1pt;stroke-opacity:0.4"
         d="M 0,0 5,-5 -12.5,0 5,5 Z"
         id="path4447" />
    </marker>
    <marker
       style="overflow:visible"
       id="marker4862-4"
       refX="0"
       refY="0"
       orient="auto"
       inkscape:stockid="Arrow1Mend"
       inkscape:isstock="true">
      <path
         transform="matrix(-0.4,0,0,-0.4,-4,0)"
         style="fill:#008800;fill-opacity:1;fill-rule:evenodd;stroke:#008800;stroke-width:1pt;stroke-opacity:1"
         d="M 0,0 5,-5 -12.5,0 5,5 Z"
         id="path4860-9" />
    </marker>
    <g
       id="g7391">
      <symbol
         overflow="visible"
         id="symbol9776">
        <path
           style="stroke:none"
           d=""
           id="path8265" />
      </symbol>
      <symbol
         overflow="visible"
         id="symbol93">
        <path
           style="stroke:none"
           d="m 6.359375,-3.3125 c 0,-0.796875 -0.359375,-1.40625 -1.21875,-1.40625 -0.46875,0 -0.90625,0.1875 -1.28125,0.453125 C 3.453125,-4 3.125,-3.65625 2.921875,-3.203125 2.625,-2.609375 2.4375,-0.859375 2.359375,-0.171875 1.40625,-0.40625 1.09375,-1.15625 1.09375,-2.046875 c 0,-1.375 0.75,-2.265625 2.046875,-2.625 L 3.1875,-4.734375 3.125,-4.828125 C 1.65625,-4.609375 0.265625,-3.625 0.265625,-2 c 0,1.265625 0.875,1.890625 2.0625,2.0625 -0.109375,0.875 -0.296875,1.75 -0.46875,2.625 L 1.96875,2.765625 C 2.1875,2.65625 2.40625,2.578125 2.625,2.5 L 2.921875,0.046875 C 4.75,0 6.359375,-1.421875 6.359375,-3.3125 Z M 5.65625,-3.15625 c 0,1.59375 -1.140625,2.84375 -2.71875,3 l 0.265625,-1.625 c 0.140625,-0.875 0.375,-2.609375 1.578125,-2.609375 0.6875,0 0.875,0.65625 0.875,1.234375 z m 0,0"
           id="path8799" />
      </symbol>
    </g>
    <g
       id="g7377">
      <symbol
         overflow="visible"
         id="symbol1034">
        <path
           style="stroke:none"
           d=""
           id="path7150" />
      </symbol>
      <symbol
         overflow="visible"
         id="symbol2907">
        <path
           style="stroke:none"
           d="M 5.71875,-5.03125 C 5.71875,-6.15625 5.390625,-7 4.109375,-7 c -2.578125,0 -3.40625,2.890625 -3.40625,5.015625 0,1.1875 0.359375,2.140625 1.71875,2.140625 2.359375,0 3.296875,-3.3125 3.296875,-5.1875 z m -0.75,-0.125 c 0,0.453125 -0.0625,0.90625 -0.140625,1.359375 h -3.15625 c 0.234375,-1.03125 0.96875,-2.9375 2.265625,-2.9375 0.859375,0 1.03125,0.90625 1.03125,1.578125 z m -0.1875,1.671875 C 4.546875,-2.359375 4,-0.125 2.578125,-0.125 1.5625,-0.125 1.46875,-1.25 1.46875,-2.03125 1.46875,-2.515625 1.5625,-3 1.625,-3.484375 Z m 0,0"
           id="path5206" />
      </symbol>
    </g>
    <g
       id="g2264">
      <symbol
         overflow="visible"
         id="symbol2960">
        <path
           style="stroke:none"
           d=""
           id="path1139" />
      </symbol>
      <symbol
         overflow="visible"
         id="symbol731">
        <path
           style="stroke:none"
           d="M 3.671875,-3.640625 C 3.703125,-4.015625 3.75,-4.34375 3.828125,-4.75 3.71875,-4.796875 3.671875,-4.8125 3.625,-4.8125 c -0.3125,0 -0.609375,0.25 -0.96875,0.75 L 2.375,-3.671875 c -0.375,0.5625 -0.5,0.765625 -0.65625,1.125 l 0.078125,-0.40625 C 1.828125,-3.1875 1.90625,-3.59375 1.96875,-3.8125 l 0.0625,-0.25 c 0.046875,-0.171875 0.0625,-0.296875 0.0625,-0.421875 0,-0.203125 -0.078125,-0.328125 -0.234375,-0.328125 -0.203125,0 -0.578125,0.21875 -1.328125,0.75 l -0.265625,0.1875 0.0625,0.203125 0.3125,-0.203125 C 0.921875,-4.0625 1.03125,-4.109375 1.125,-4.109375 c 0.09375,0 0.171875,0.09375 0.171875,0.21875 C 1.296875,-3.3125 0.875,-1.25 0.46875,0.015625 L 0.5625,0.09375 C 0.71875,0.046875 0.875,0.015625 1.109375,-0.046875 L 1.234375,-0.0625 1.5,-1.25 c 0.171875,-0.828125 0.40625,-1.359375 0.84375,-1.9375 0.34375,-0.4375 0.609375,-0.640625 0.828125,-0.640625 0.140625,0 0.25,0.046875 0.359375,0.1875 z m 0,0"
           id="path2792" />
      </symbol>
    </g>
    <marker
       style="overflow:visible"
       id="marker4739-1"
       refX="0"
       refY="0"
       orient="auto"
       inkscape:stockid="Arrow1Mend"
       inkscape:isstock="true">
      <path
         transform="matrix(-0.4,0,0,-0.4,-4,0)"
         style="fill:#000000;fill-opacity:0.4;fill-rule:evenodd;stroke:#000000;stroke-width:1pt;stroke-opacity:0.4"
         d="M 0,0 5,-5 -12.5,0 5,5 Z"
         id="path4737-7" />
    </marker>
    <marker
       style="overflow:visible"
       id="Arrow1Mstart-1"
       refX="0"
       refY="0"
       orient="auto"
       inkscape:stockid="Arrow1Mstart"
       inkscape:isstock="true">
      <path
         transform="matrix(0.4,0,0,0.4,4,0)"
         style="fill:#000000;fill-opacity:0.4;fill-rule:evenodd;stroke:#000000;stroke-width:1pt;stroke-opacity:0.4"
         d="M 0,0 5,-5 -12.5,0 5,5 Z"
         id="path4447-5" />
    </marker>
    <g
       id="g7240">
      <symbol
         overflow="visible"
         id="symbol8811">
        <path
           style="stroke:none"
           d=""
           id="path5545" />
      </symbol>
      <symbol
         overflow="visible"
         id="symbol8872">
        <path
           style="stroke:none"
           d="m 4.59375,-2.9375 c 0,-1.0625 -0.75,-1.75 -1.875,-1.75 -0.359375,0 -0.609375,0.0625 -0.890625,0.21875 l -0.46875,0.28125 c -0.65625,0.390625 -0.9375,0.984375 -0.9375,1.9375 0,1.578125 0.796875,2.421875 2.28125,2.421875 0.5625,0 0.9375,-0.109375 1.578125,-0.4375 L 4.5,-0.734375 4.375,-0.890625 C 3.90625,-0.625 3.609375,-0.53125 3.203125,-0.53125 c -0.515625,0 -1,-0.28125 -1.25,-0.71875 -0.15625,-0.28125 -0.21875,-0.5 -0.234375,-0.96875 h 1.296875 c 0.578125,0 1.015625,-0.0625 1.578125,-0.203125 z M 2.5,-2.71875 H 2.453125 c -0.0625,0 -0.328125,-0.015625 -0.484375,-0.015625 L 1.65625,-2.75 C 1.6875,-3.734375 1.921875,-4.140625 2.5,-4.140625 c 0.578125,0 0.8125,0.40625 0.828125,1.390625 z m 0,0"
           id="path7693" />
      </symbol>
      <symbol
         overflow="visible"
         id="symbol1969">
        <path
           style="stroke:none"
           d=""
           id="path3517" />
      </symbol>
      <symbol
         overflow="visible"
         id="symbol908">
        <path
           style="stroke:none"
           d="M 2.5625,-2.546875 C 2.578125,-2.8125 2.625,-3.03125 2.671875,-3.3125 2.59375,-3.359375 2.578125,-3.359375 2.53125,-3.359375 c -0.203125,0 -0.421875,0.171875 -0.671875,0.515625 l -0.1875,0.28125 C 1.390625,-2.171875 1.3125,-2.03125 1.203125,-1.78125 L 1.25,-2.0625 c 0.03125,-0.171875 0.09375,-0.453125 0.125,-0.59375 l 0.046875,-0.1875 c 0.03125,-0.125 0.046875,-0.203125 0.046875,-0.296875 0,-0.140625 -0.0625,-0.21875 -0.171875,-0.21875 -0.140625,0 -0.40625,0.140625 -0.921875,0.515625 L 0.1875,-2.703125 0.234375,-2.5625 0.453125,-2.703125 C 0.640625,-2.84375 0.71875,-2.875 0.78125,-2.875 c 0.078125,0 0.125,0.0625 0.125,0.15625 0,0.40625 -0.296875,1.84375 -0.578125,2.734375 L 0.390625,0.0625 C 0.5,0.03125 0.609375,0 0.78125,-0.03125 L 0.859375,-0.046875 1.046875,-0.875 c 0.125,-0.578125 0.28125,-0.953125 0.59375,-1.34375 C 1.875,-2.53125 2.0625,-2.671875 2.21875,-2.671875 c 0.109375,0 0.171875,0.03125 0.25,0.125 z m 0,0"
           id="path6549" />
      </symbol>
    </g>
    <g
       id="g1013">
      <symbol
         overflow="visible"
         id="symbol1288">
        <path
           style="stroke:none"
           d=""
           id="path8739" />
      </symbol>
      <symbol
         overflow="visible"
         id="symbol1259">
        <path
           style="stroke:none"
           d="m 4.59375,-2.9375 c 0,-1.0625 -0.75,-1.75 -1.875,-1.75 -0.359375,0 -0.609375,0.0625 -0.890625,0.21875 l -0.46875,0.28125 c -0.65625,0.390625 -0.9375,0.984375 -0.9375,1.9375 0,1.578125 0.796875,2.421875 2.28125,2.421875 0.5625,0 0.9375,-0.109375 1.578125,-0.4375 L 4.5,-0.734375 4.375,-0.890625 C 3.90625,-0.625 3.609375,-0.53125 3.203125,-0.53125 c -0.515625,0 -1,-0.28125 -1.25,-0.71875 -0.15625,-0.28125 -0.21875,-0.5 -0.234375,-0.96875 h 1.296875 c 0.578125,0 1.015625,-0.0625 1.578125,-0.203125 z M 2.5,-2.71875 H 2.453125 c -0.0625,0 -0.328125,-0.015625 -0.484375,-0.015625 L 1.65625,-2.75 C 1.6875,-3.734375 1.921875,-4.140625 2.5,-4.140625 c 0.578125,0 0.8125,0.40625 0.828125,1.390625 z m 0,0"
           id="path8682" />
      </symbol>
      <symbol
         overflow="visible"
         id="symbol4300">
        <path
           style="stroke:none"
           d=""
           id="path7825" />
      </symbol>
      <symbol
         overflow="visible"
         id="symbol4632">
        <path
           style="stroke:none"
           d="m 4,-3.515625 c 0,-0.796875 -0.234375,-1.375 -1.125,-1.375 -1.8125,0 -2.375,2.015625 -2.375,3.5 0,0.828125 0.25,1.5 1.1875,1.5 1.65625,0 2.3125,-2.3125 2.3125,-3.625 z m -0.515625,-0.09375 c 0,0.3125 -0.0625,0.640625 -0.109375,0.953125 H 1.171875 C 1.34375,-3.375 1.84375,-4.703125 2.75,-4.703125 c 0.609375,0 0.734375,0.625 0.734375,1.09375 z M 3.34375,-2.4375 C 3.171875,-1.65625 2.796875,-0.09375 1.796875,-0.09375 1.09375,-0.09375 1.03125,-0.875 1.03125,-1.421875 1.03125,-1.75 1.09375,-2.09375 1.140625,-2.4375 Z m 0,0"
           id="path7776" />
      </symbol>
    </g>
    <g
       id="g377">
      <symbol
         overflow="visible"
         id="symbol27">
        <path
           style="stroke:none"
           d=""
           id="path6311" />
      </symbol>
      <symbol
         overflow="visible"
         id="symbol7434">
        <path
           style="stroke:none"
           d="m 4.59375,-2.9375 c 0,-1.0625 -0.75,-1.75 -1.875,-1.75 -0.359375,0 -0.609375,0.0625 -0.890625,0.21875 l -0.46875,0.28125 c -0.65625,0.390625 -0.9375,0.984375 -0.9375,1.9375 0,1.578125 0.796875,2.421875 2.28125,2.421875 0.5625,0 0.9375,-0.109375 1.578125,-0.4375 L 4.5,-0.734375 4.375,-0.890625 C 3.90625,-0.625 3.609375,-0.53125 3.203125,-0.53125 c -0.515625,0 -1,-0.28125 -1.25,-0.71875 -0.15625,-0.28125 -0.21875,-0.5 -0.234375,-0.96875 h 1.296875 c 0.578125,0 1.015625,-0.0625 1.578125,-0.203125 z M 2.5,-2.71875 H 2.453125 c -0.0625,0 -0.328125,-0.015625 -0.484375,-0.015625 L 1.65625,-2.75 C 1.6875,-3.734375 1.921875,-4.140625 2.5,-4.140625 c 0.578125,0 0.8125,0.40625 0.828125,1.390625 z m 0,0"
           id="path1167" />
      </symbol>
      <symbol
         overflow="visible"
         id="symbol8320">
        <path
           style="stroke:none"
           d=""
           id="path5017" />
      </symbol>
      <symbol
         overflow="visible"
         id="symbol4010">
        <path
           style="stroke:none"
           d="m 4.453125,-2.3125 c 0,-0.5625 -0.265625,-0.984375 -0.859375,-0.984375 -0.328125,0 -0.625,0.140625 -0.890625,0.3125 -0.28125,0.1875 -0.515625,0.4375 -0.65625,0.734375 -0.203125,0.4375 -0.34375,1.65625 -0.40625,2.125 -0.65625,-0.15625 -0.875,-0.6875 -0.875,-1.3125 0,-0.953125 0.53125,-1.578125 1.421875,-1.828125 L 2.234375,-3.3125 2.1875,-3.375 c -1.03125,0.15625 -2,0.84375 -2,1.96875 0,0.890625 0.609375,1.328125 1.4375,1.453125 C 1.546875,0.65625 1.421875,1.265625 1.296875,1.875 L 1.375,1.9375 C 1.53125,1.859375 1.6875,1.796875 1.84375,1.75 L 2.046875,0.03125 C 3.328125,0 4.453125,-0.984375 4.453125,-2.3125 Z m -0.5,0.109375 c 0,1.109375 -0.796875,1.984375 -1.90625,2.09375 l 0.1875,-1.125 C 2.34375,-1.859375 2.5,-3.0625 3.34375,-3.0625 c 0.484375,0 0.609375,0.453125 0.609375,0.859375 z m 0,0"
           id="path750" />
      </symbol>
    </g>
    <g
       id="g9679">
      <symbol
         overflow="visible"
         id="symbol6763">
        <path
           style="stroke:none"
           d=""
           id="path734" />
      </symbol>
      <symbol
         overflow="visible"
         id="symbol4216">
        <path
           style="stroke:none"
           d="m 0.203125,-0.875 c 0,0.203125 -0.015625,0.328125 -0.078125,0.640625 -0.015625,0.125 -0.03125,0.15625 -0.03125,0.21875 0.140625,0.078125 0.3125,0.125 0.421875,0.125 0.328125,0 0.71875,-0.28125 1.03125,-0.75 l 0.75,-1.171875 0.109375,0.6875 c 0.140625,0.84375 0.359375,1.234375 0.71875,1.234375 0.21875,0 0.546875,-0.171875 0.859375,-0.453125 L 4.46875,-0.78125 4.390625,-0.984375 C 4.03125,-0.671875 3.78125,-0.53125 3.625,-0.53125 c -0.15625,0 -0.28125,-0.09375 -0.390625,-0.296875 -0.078125,-0.1875 -0.1875,-0.5625 -0.25,-0.84375 L 2.8125,-2.6875 3.15625,-3.171875 c 0.46875,-0.640625 0.734375,-0.875 1.046875,-0.875 0.15625,0 0.28125,0.078125 0.328125,0.234375 l 0.140625,-0.046875 0.15625,-0.84375 C 4.703125,-4.78125 4.609375,-4.8125 4.53125,-4.8125 c -0.40625,0 -0.796875,0.359375 -1.421875,1.28125 l -0.375,0.546875 -0.046875,-0.46875 c -0.125,-1 -0.390625,-1.359375 -0.984375,-1.359375 -0.25,0 -0.484375,0.09375 -0.5625,0.21875 L 0.5625,-3.765625 0.734375,-3.671875 C 1.03125,-4 1.21875,-4.140625 1.421875,-4.140625 c 0.328125,0 0.546875,0.40625 0.71875,1.375 L 2.25,-2.140625 1.84375,-1.53125 c -0.421875,0.671875 -0.765625,1 -1.046875,1 -0.15625,0 -0.265625,-0.046875 -0.28125,-0.09375 L 0.40625,-0.90625 Z m 0,0"
           id="path3297" />
      </symbol>
    </g>
    <g
       id="g4162">
      <symbol
         overflow="visible"
         id="symbol9575">
        <path
           style="stroke:none"
           d=""
           id="path6329" />
      </symbol>
      <symbol
         overflow="visible"
         id="symbol6237">
        <path
           style="stroke:none"
           d="m -0.0625,1.796875 c -0.015625,0.0625 -0.015625,0.125 -0.015625,0.171875 0,0.4375 0.375,0.78125 0.8125,0.78125 1.0625,0 2.15625,-1.234375 2.75,-3.078125 L 4.890625,-4.71875 4.78125,-4.8125 c -0.296875,0.125 -0.53125,0.171875 -0.75,0.203125 l -0.34375,1.3125 c -0.125,0.46875 -0.46875,1.1875 -0.796875,1.6875 -0.34375,0.5 -0.84375,0.9375 -1.0625,0.9375 -0.109375,0 -0.203125,-0.21875 -0.1875,-0.46875 V -1.28125 l 0.15625,-1.921875 c 0.015625,-0.3125 0.03125,-0.6875 0.03125,-0.96875 0,-0.453125 -0.0625,-0.640625 -0.234375,-0.640625 -0.125,0 -0.265625,0.078125 -0.75,0.40625 l -0.8125,0.5625 0.109375,0.171875 0.5,-0.296875 L 0.671875,-4 c 0.109375,-0.0625 0.171875,-0.09375 0.21875,-0.09375 0.140625,0 0.21875,0.203125 0.21875,0.53125 0,0 0,0.0625 -0.015625,0.140625 L 0.921875,-1 v 0.40625 c 0,0.421875 0.171875,0.703125 0.421875,0.703125 0.375,0 1.203125,-0.84375 1.953125,-1.96875 L 2.8125,-0.15625 C 2.296875,1.609375 1.796875,2.328125 1.109375,2.328125 0.75,2.328125 0.484375,2.0625 0.484375,1.71875 0.484375,1.671875 0.5,1.578125 0.515625,1.5 L 0.40625,1.453125 Z m 0,0"
           id="path8353" />
      </symbol>
    </g>
    <g
       id="g8798">
      <symbol
         overflow="visible"
         id="symbol4244">
        <path
           style="stroke:none"
           d=""
           id="path278" />
      </symbol>
      <symbol
         overflow="visible"
         id="symbol5088">
        <path
           style="stroke:none"
           d="M -0.015625,-0.203125 0.078125,0.0625 c 0.296875,-0.234375 0.5625,-0.328125 0.90625,-0.328125 0.25,0 0.53125,0.0625 1.046875,0.171875 0.59375,0.15625 0.90625,0.203125 1.171875,0.203125 0.125,0 0.21875,-0.015625 0.5,-0.09375 0.109375,-0.625 0.1875,-0.96875 0.296875,-1.4375 H 3.78125 L 3.5625,-0.8125 c -0.046875,0.171875 -0.171875,0.25 -0.375,0.25 -0.125,0 -0.28125,-0.03125 -0.5,-0.078125 L 2.515625,-0.671875 C 2.1875,-0.75 1.84375,-0.796875 1.65625,-0.796875 c -0.328125,0 -0.59375,0.0625 -0.953125,0.203125 L 4.09375,-4.390625 4.140625,-4.71875 4.0625,-4.8125 3.828125,-4.578125 C 3.734375,-4.46875 3.625,-4.4375 3.484375,-4.4375 3.15625,-4.4375 2.625,-4.515625 2.15625,-4.640625 L 1.96875,-4.6875 C 1.6875,-4.765625 1.5,-4.8125 1.359375,-4.8125 c -0.171875,0 -0.375,0.03125 -0.609375,0.109375 l -0.328125,1.21875 h 0.21875 L 0.9375,-4.0625 c 0.171875,-0.046875 0.265625,-0.046875 0.390625,-0.046875 0.140625,0 0.25,0 0.453125,0.046875 0.328125,0.0625 0.59375,0.09375 0.796875,0.09375 0.359375,0 0.609375,-0.0625 0.9375,-0.234375 z m 0,0"
           id="path4316" />
      </symbol>
    </g>
    <g
       id="g30">
      <symbol
         overflow="visible"
         id="symbol6070">
        <path
           style="stroke:none"
           d=""
           id="path5971" />
      </symbol>
      <symbol
         overflow="visible"
         id="symbol5270">
        <path
           style="stroke:none"
           d="m 2.625,-6.875 c -1.546875,0 -2.328125,1.234375 -2.328125,3.640625 C 0.296875,-2.0625 0.5,-1.0625 0.84375,-0.5625 1.203125,-0.078125 1.75,0.203125 2.375,0.203125 c 1.5,0 2.265625,-1.296875 2.265625,-3.859375 0,-2.171875 -0.65625,-3.21875 -2.015625,-3.21875 z m -0.1875,0.359375 c 0.96875,0 1.359375,0.96875 1.359375,3.359375 0,2.125 -0.375,3 -1.296875,3 -0.96875,0 -1.375,-1 -1.375,-3.4375 0,-2.09375 0.375,-2.921875 1.3125,-2.921875 z m 0,0"
           id="path9949" />
      </symbol>
    </g>
    <g
       id="g920">
      <symbol
         overflow="visible"
         id="symbol5553">
        <path
           style="stroke:none"
           d=""
           id="path766" />
      </symbol>
      <symbol
         overflow="visible"
         id="symbol4875">
        <path
           style="stroke:none"
           d="m 4,-7.0625 c -2.265625,0 -3.78125,1.46875 -3.78125,3.65625 0,2.09375 1.453125,3.609375 3.46875,3.609375 2.234375,0 3.921875,-1.671875 3.921875,-3.859375 C 7.609375,-5.75 6.21875,-7.0625 4,-7.0625 Z m -0.15625,0.40625 c 1.703125,0 2.703125,1.21875 2.703125,3.296875 0,1.96875 -0.921875,3.140625 -2.453125,3.140625 -1.6875,0 -2.8125,-1.421875 -2.8125,-3.546875 0,-1.84375 0.921875,-2.890625 2.5625,-2.890625 z m 0,0"
           id="path9379" />
      </symbol>
    </g>
    <g
       id="g1997">
      <symbol
         overflow="visible"
         id="symbol6393">
        <path
           style="stroke:none"
           d=""
           id="path2276" />
      </symbol>
      <symbol
         overflow="visible"
         id="symbol1421">
        <path
           style="stroke:none"
           d="m 7.296875,-1.203125 c 0,0.796875 -0.046875,0.859375 -0.515625,0.90625 l -0.328125,0.03125 V 0.03125 C 6.90625,0.015625 7.203125,0 7.71875,0 8.28125,0 8.640625,0.015625 9.234375,0.03125 V -0.265625 L 8.75,-0.296875 c -0.453125,-0.03125 -0.5,-0.109375 -0.5,-0.90625 v -4.46875 c 0,-0.78125 0.046875,-0.875 0.5,-0.890625 L 9.171875,-6.59375 V -6.890625 C 8.40625,-6.875 8.40625,-6.875 8.25,-6.875 c -0.15625,0 -0.15625,0 -0.953125,-0.015625 L 4.6875,-1.359375 2.046875,-6.890625 C 1.25,-6.875 1.25,-6.875 1.109375,-6.875 c -0.15625,0 -0.15625,0 -0.953125,-0.015625 v 0.296875 l 0.4375,0.03125 c 0.46875,0.015625 0.515625,0.109375 0.515625,0.890625 v 4.46875 c 0,0.78125 -0.046875,0.875 -0.515625,0.90625 l -0.4375,0.03125 V 0.03125 C 1.140625,0 1.140625,0 1.3125,0 1.46875,0 1.46875,0 2.515625,0.03125 v -0.296875 l -0.4375,-0.03125 C 1.609375,-0.328125 1.5625,-0.421875 1.5625,-1.203125 v -4.5625 L 4.34375,0.125 h 0.203125 c 0.0625,-0.140625 0.125,-0.296875 0.1875,-0.453125 C 4.890625,-0.71875 5.015625,-1 5.078125,-1.140625 L 6.859375,-4.90625 C 7,-5.1875 7.125,-5.421875 7.296875,-5.765625 Z m 0,0"
           id="path702" />
      </symbol>
    </g>
    <g
       id="g87">
      <symbol
         overflow="visible"
         id="symbol6426">
        <path
           style="stroke:none"
           d=""
           id="path2879" />
      </symbol>
      <symbol
         overflow="visible"
         id="symbol2930">
        <path
           style="stroke:none"
           d="m 1.5,1.71875 c 0,-0.765625 0.25,-1.125 0.765625,-1.125 0.296875,0 0.578125,0.078125 0.96875,0.28125 l 1.4375,0.765625 C 5.28125,1.9375 5.453125,2 5.859375,2 6.59375,2 6.953125,1.578125 7.0625,0.609375 h -0.25 C 6.75,1.140625 6.53125,1.390625 6.125,1.390625 5.96875,1.390625 5.765625,1.34375 5.515625,1.25 L 3.15625,0.296875 C 2.90625,0.1875 2.734375,0.15625 2.5,0.15625 c -0.734375,0 -1.25,0.5 -1.25,1.265625 0,0.015625 0,0.078125 0.015625,0.15625 z m 3.125,-8.75 c -2.359375,0 -4.09375,1.8125 -4.09375,4.3125 0,1.890625 0.9375,2.890625 2.6875,2.890625 0.84375,0 1.5625,-0.1875 2.203125,-0.59375 1.25,-0.78125 2.03125,-2.234375 2.03125,-3.8125 0,-1.78125 -1.03125,-2.796875 -2.828125,-2.796875 z M 4.3125,-6.625 c 0.484375,0 0.96875,0.125 1.296875,0.328125 0.65625,0.375 0.96875,1.125 0.96875,2.21875 0,1.25 -0.390625,2.390625 -1.078125,3.078125 -0.484375,0.5 -1.140625,0.765625 -1.90625,0.765625 -1.4375,0 -2.1875,-0.859375 -2.1875,-2.53125 C 1.40625,-4.0625 1.796875,-5.21875 2.5,-5.90625 2.953125,-6.390625 3.5625,-6.625 4.3125,-6.625 Z m 0,0"
           id="path9829" />
      </symbol>
    </g>
    <g
       id="g4981">
      <symbol
         overflow="visible"
         id="symbol23">
        <path
           style="stroke:none"
           d=""
           id="path4134" />
      </symbol>
      <symbol
         overflow="visible"
         id="symbol5004">
        <path
           style="stroke:none"
           d="m 2.640625,-6.1875 c 0.5625,-0.015625 0.890625,-0.03125 1.453125,-0.03125 0.53125,0 0.953125,0.09375 0.96875,0.203125 L 5.140625,-5.28125 H 5.5 l 0.140625,-1.40625 -0.0625,-0.078125 c -0.359375,-0.015625 -0.546875,-0.03125 -0.9375,-0.03125 -0.234375,0 -0.53125,0.015625 -1.078125,0.015625 -0.734375,0.015625 -1.015625,0.015625 -1.296875,0.015625 -0.359375,0 -0.78125,0 -1.875,-0.015625 v 0.359375 L 0.75,-6.390625 c 0.453125,0.046875 0.484375,0.09375 0.484375,0.984375 v 4.453125 c 0,0.34375 -0.046875,0.5 -0.203125,0.578125 l -0.3125,0.171875 V 0.03125 C 1.703125,0 1.703125,0 1.9375,0 H 2.265625 C 3.28125,0.03125 3.671875,0.046875 4.1875,0.046875 4.703125,0.046875 5.015625,0.03125 5.59375,0 L 5.640625,-0.078125 5.75,-1.65625 H 5.359375 l -0.21875,0.9375 c 0,0.015625 -0.015625,0.015625 -0.03125,0.03125 -0.3125,0.09375 -0.609375,0.140625 -1.15625,0.140625 -0.421875,0 -0.796875,-0.015625 -1.3125,-0.03125 v -2.65625 c 0.28125,-0.03125 0.453125,-0.03125 0.671875,-0.03125 h 0.65625 c 0.375,0 0.53125,0.109375 0.5625,0.359375 l 0.0625,0.5 H 5 L 4.96875,-3.484375 c 0,-0.109375 0,-0.109375 0.03125,-1.0625 H 4.59375 l -0.0625,0.5625 c -0.015625,0.171875 -0.140625,0.21875 -0.5625,0.21875 H 3.3125 c -0.328125,0 -0.46875,0 -0.671875,-0.015625 z m 0,0"
           id="path3518" />
      </symbol>
      <symbol
         overflow="visible"
         id="symbol5222">
        <path
           style="stroke:none"
           d=""
           id="path4701" />
      </symbol>
      <symbol
         overflow="visible"
         id="symbol8179">
        <path
           style="stroke:none"
           d="M 3,1.9375 C 2.28125,1.046875 2.03125,0.5625 1.765625,-0.328125 1.5625,-1.046875 1.453125,-1.796875 1.453125,-2.65625 1.453125,-3.484375 1.5625,-4.1875 1.75,-4.828125 2,-5.65625 2.265625,-6.125 3,-6.984375 l -0.1875,-0.25 c -1.03125,0.921875 -1.453125,1.46875 -1.828125,2.453125 -0.25,0.671875 -0.390625,1.375 -0.390625,2.125 0,1.078125 0.25,2.078125 0.734375,2.96875 C 1.671875,0.984375 2,1.375 2.8125,2.140625 Z m 0,0"
           id="path9030" />
      </symbol>
      <symbol
         overflow="visible"
         id="symbol8675">
        <path
           style="stroke:none"
           d="m 0.515625,2.140625 c 0.6875,-0.640625 0.96875,-0.96875 1.28125,-1.46875 0.609375,-0.96875 0.921875,-2.125 0.921875,-3.3125 0,-0.765625 -0.125,-1.46875 -0.390625,-2.140625 -0.375,-0.96875 -0.78125,-1.515625 -1.8125,-2.453125 l -0.203125,0.25 c 0.734375,0.859375 1,1.328125 1.25,2.15625 0.203125,0.640625 0.296875,1.34375 0.296875,2.171875 0,0.859375 -0.09375,1.609375 -0.296875,2.328125 -0.265625,0.890625 -0.53125,1.375 -1.25,2.265625 z m 0,0"
           id="path8556" />
      </symbol>
      <symbol
         overflow="visible"
         id="symbol4176">
        <path
           style="stroke:none"
           d=""
           id="path9996" />
      </symbol>
      <symbol
         overflow="visible"
         id="symbol6871">
        <path
           style="stroke:none"
           d="M 9.34375,-6.625 9.375,-6.890625 H 9.09375 C 8.8125,-6.875 8.65625,-6.875 8.53125,-6.875 H 8.296875 l -0.59375,-0.015625 -0.15625,0.296875 c -0.265625,0.515625 -0.453125,0.859375 -0.6875,1.25 l -2.453125,4.203125 -1.5,-5.75 H 2.625 C 2.359375,-6.875 2.203125,-6.875 2.078125,-6.875 h -0.25 L 1.25,-6.890625 1.21875,-6.625 l 0.25,0.03125 C 2,-6.5625 2.171875,-6.453125 2.171875,-6.203125 c 0,0.0625 -0.015625,0.125 -0.03125,0.203125 l -1.4375,5.078125 c -0.171875,0.515625 -0.3125,0.640625 -0.859375,0.6875 L -0.1875,0.03125 0.203125,0.015625 C 0.53125,0.015625 0.78125,0 0.921875,0 c 0.140625,0 0.40625,0.015625 0.75,0.015625 L 2.03125,0.03125 2.046875,-0.25 1.671875,-0.28125 C 1.359375,-0.296875 1.1875,-0.40625 1.1875,-0.546875 c 0,-0.09375 0.015625,-0.234375 0.0625,-0.40625 l 1.25,-4.625 1.484375,5.75 h 0.21875 l 0.578125,-1.03125 c 0.765625,-1.40625 1.703125,-3.015625 2.375,-4.125 l 0.515625,-0.875 -0.359375,5.1875 C 7.265625,-0.390625 7.140625,-0.3125 6.640625,-0.28125 L 6.328125,-0.25 6.296875,0.03125 6.765625,0.015625 C 7.1875,0.015625 7.484375,0 7.640625,0 7.796875,0 8.09375,0.015625 8.5,0.015625 L 8.96875,0.03125 8.984375,-0.25 8.625,-0.28125 C 8.265625,-0.3125 8.078125,-0.421875 8.078125,-0.625 L 8.09375,-1 8.5,-6.296875 c 0.015625,-0.1875 0.171875,-0.28125 0.46875,-0.296875 z m 0,0"
           id="path7867" />
      </symbol>
    </g>
    <g
       id="g1677">
      <symbol
         overflow="visible"
         id="symbol9955">
        <path
           style="stroke:none"
           d=""
           id="path2461" />
      </symbol>
      <symbol
         overflow="visible"
         id="symbol7159">
        <path
           style="stroke:none"
           d="M 9.34375,-6.625 9.375,-6.890625 H 9.09375 C 8.8125,-6.875 8.65625,-6.875 8.53125,-6.875 H 8.296875 l -0.59375,-0.015625 -0.15625,0.296875 c -0.265625,0.515625 -0.453125,0.859375 -0.6875,1.25 l -2.453125,4.203125 -1.5,-5.75 H 2.625 C 2.359375,-6.875 2.203125,-6.875 2.078125,-6.875 h -0.25 L 1.25,-6.890625 1.21875,-6.625 l 0.25,0.03125 C 2,-6.5625 2.171875,-6.453125 2.171875,-6.203125 c 0,0.0625 -0.015625,0.125 -0.03125,0.203125 l -1.4375,5.078125 c -0.171875,0.515625 -0.3125,0.640625 -0.859375,0.6875 L -0.1875,0.03125 0.203125,0.015625 C 0.53125,0.015625 0.78125,0 0.921875,0 c 0.140625,0 0.40625,0.015625 0.75,0.015625 L 2.03125,0.03125 2.046875,-0.25 1.671875,-0.28125 C 1.359375,-0.296875 1.1875,-0.40625 1.1875,-0.546875 c 0,-0.09375 0.015625,-0.234375 0.0625,-0.40625 l 1.25,-4.625 1.484375,5.75 h 0.21875 l 0.578125,-1.03125 c 0.765625,-1.40625 1.703125,-3.015625 2.375,-4.125 l 0.515625,-0.875 -0.359375,5.1875 C 7.265625,-0.390625 7.140625,-0.3125 6.640625,-0.28125 L 6.328125,-0.25 6.296875,0.03125 6.765625,0.015625 C 7.1875,0.015625 7.484375,0 7.640625,0 7.796875,0 8.09375,0.015625 8.5,0.015625 L 8.96875,0.03125 8.984375,-0.25 8.625,-0.28125 C 8.265625,-0.3125 8.078125,-0.421875 8.078125,-0.625 L 8.09375,-1 8.5,-6.296875 c 0.015625,-0.1875 0.171875,-0.28125 0.46875,-0.296875 z m 0,0"
           id="path4238" />
      </symbol>
    </g>
    <g
       id="g1359">
      <symbol
         overflow="visible"
         id="symbol3480">
        <path
           style="stroke:none"
           d=""
           id="path3245" />
      </symbol>
      <symbol
         overflow="visible"
         id="symbol2927">
        <path
           style="stroke:none"
           d="m 4.625,-7.03125 c -2.359375,0 -4.09375,1.8125 -4.09375,4.3125 0,1.890625 0.9375,2.890625 2.6875,2.890625 0.84375,0 1.5625,-0.1875 2.203125,-0.59375 1.25,-0.78125 2.03125,-2.234375 2.03125,-3.8125 0,-1.78125 -1.03125,-2.796875 -2.828125,-2.796875 z M 4.3125,-6.625 c 0.484375,0 0.96875,0.125 1.296875,0.328125 0.65625,0.375 0.96875,1.125 0.96875,2.21875 0,1.25 -0.390625,2.390625 -1.078125,3.078125 -0.484375,0.5 -1.140625,0.765625 -1.90625,0.765625 -1.4375,0 -2.1875,-0.859375 -2.1875,-2.53125 C 1.40625,-4.0625 1.796875,-5.21875 2.5,-5.90625 2.953125,-6.390625 3.5625,-6.625 4.3125,-6.625 Z m 0,0"
           id="path9603" />
      </symbol>
    </g>
    <g
       id="g4850">
      <symbol
         overflow="visible"
         id="symbol4314">
        <path
           style="stroke:none"
           d=""
           id="path482" />
      </symbol>
      <symbol
         overflow="visible"
         id="symbol1313">
        <path
           style="stroke:none"
           d="m 4.625,-7.03125 c -2.359375,0 -4.09375,1.8125 -4.09375,4.3125 0,1.890625 0.9375,2.890625 2.6875,2.890625 0.84375,0 1.5625,-0.1875 2.203125,-0.59375 1.25,-0.78125 2.03125,-2.234375 2.03125,-3.8125 0,-1.78125 -1.03125,-2.796875 -2.828125,-2.796875 z M 4.3125,-6.625 c 0.484375,0 0.96875,0.125 1.296875,0.328125 0.65625,0.375 0.96875,1.125 0.96875,2.21875 0,1.25 -0.390625,2.390625 -1.078125,3.078125 -0.484375,0.5 -1.140625,0.765625 -1.90625,0.765625 -1.4375,0 -2.1875,-0.859375 -2.1875,-2.53125 C 1.40625,-4.0625 1.796875,-5.21875 2.5,-5.90625 2.953125,-6.390625 3.5625,-6.625 4.3125,-6.625 Z m 0,0"
           id="path4776" />
      </symbol>
      <symbol
         overflow="visible"
         id="symbol5255">
        <path
           style="stroke:none"
           d=""
           id="path955" />
      </symbol>
      <symbol
         overflow="visible"
         id="symbol8526">
        <path
           style="stroke:none"
           d="m 0.46875,-3.875 h 0.0625 L 1.4375,-4.265625 c 0,-0.015625 0.015625,-0.015625 0.015625,-0.015625 0.046875,0 0.0625,0.0625 0.0625,0.234375 v 3.375 c 0,0.359375 -0.078125,0.4375 -0.453125,0.46875 L 0.671875,-0.1875 V 0.015625 C 1.734375,0 1.734375,0 1.8125,0 1.90625,0 2.0625,0 2.296875,0 2.390625,0.015625 2.625,0.015625 2.90625,0.015625 V -0.1875 L 2.546875,-0.203125 C 2.171875,-0.234375 2.09375,-0.3125 2.09375,-0.671875 v -4.125 L 2,-4.84375 c -0.453125,0.25 -0.953125,0.453125 -1.578125,0.671875 z m 0,0"
           id="path9429" />
      </symbol>
    </g>
    <g
       id="g6262">
      <symbol
         overflow="visible"
         id="symbol705">
        <path
           style="stroke:none"
           d=""
           id="path9657" />
      </symbol>
      <symbol
         overflow="visible"
         id="symbol6256">
        <path
           style="stroke:none"
           d="m 1.046875,-6.625 0.5625,0.03125 c 0.234375,0 0.34375,0.078125 0.34375,0.265625 0,0.140625 -0.046875,0.453125 -0.09375,0.75 L 1.109375,-1.25 C 0.953125,-0.34375 0.9375,-0.3125 0.53125,-0.28125 L 0.125,-0.25 0.09375,0.03125 0.515625,0.015625 C 0.984375,0 1.171875,0 1.40625,0 L 2.375,0.03125 h 0.25 L 2.65625,-0.25 2.171875,-0.28125 C 1.90625,-0.296875 1.8125,-0.375 1.8125,-0.578125 c 0,-0.09375 0.015625,-0.171875 0.046875,-0.34375 L 2.703125,-5.78125 C 2.703125,-5.796875 2.75,-6 2.796875,-6.1875 c 0.015625,-0.078125 0.03125,-0.140625 0.0625,-0.265625 0.296875,-0.0625 0.484375,-0.09375 0.765625,-0.09375 0.859375,0 1.3125,0.390625 1.3125,1.140625 0,0.9375 -0.765625,1.640625 -1.8125,1.640625 H 2.6875 L 2.65625,-3.65625 C 4,-1.71875 4.3125,-1.234375 5.046875,0.03125 L 5.71875,0 h 0.1875 c 0,0 0.140625,0.015625 0.328125,0.03125 H 6.375 V -0.234375 C 5.96875,-0.296875 5.859375,-0.375 5.578125,-0.78125 l -1.84375,-2.75 C 4.28125,-3.625 4.578125,-3.75 4.9375,-4 c 0.578125,-0.421875 0.890625,-0.96875 0.890625,-1.578125 0,-0.859375 -0.640625,-1.34375 -1.75,-1.3125 l -1.5,0.015625 c -0.140625,0 -0.328125,0 -1.5,-0.015625 z m 0,0"
           id="path1989" />
      </symbol>
      <symbol
         overflow="visible"
         id="symbol6896">
        <path
           style="stroke:none"
           d=""
           id="path9514" />
      </symbol>
      <symbol
         overflow="visible"
         id="symbol5474">
        <path
           style="stroke:none"
           d="m 0.46875,-3.875 h 0.0625 L 1.4375,-4.265625 c 0,-0.015625 0.015625,-0.015625 0.015625,-0.015625 0.046875,0 0.0625,0.0625 0.0625,0.234375 v 3.375 c 0,0.359375 -0.078125,0.4375 -0.453125,0.46875 L 0.671875,-0.1875 V 0.015625 C 1.734375,0 1.734375,0 1.8125,0 1.90625,0 2.0625,0 2.296875,0 2.390625,0.015625 2.625,0.015625 2.90625,0.015625 V -0.1875 L 2.546875,-0.203125 C 2.171875,-0.234375 2.09375,-0.3125 2.09375,-0.671875 v -4.125 L 2,-4.84375 c -0.453125,0.25 -0.953125,0.453125 -1.578125,0.671875 z m 0,0"
           id="path2717" />
      </symbol>
    </g>
    <g
       id="g4241">
      <symbol
         overflow="visible"
         id="symbol7158">
        <path
           style="stroke:none"
           d=""
           id="path9184" />
      </symbol>
      <symbol
         overflow="visible"
         id="symbol9998">
        <path
           style="stroke:none"
           d="m 7.046875,-6.203125 c 0,-0.828125 -1.46875,-1.15625 -2.109375,-1.15625 -1.203125,0 -2.75,0.59375 -2.75,2.03125 0,1.921875 3.234375,1.96875 3.234375,3.734375 0,1.078125 -1.484375,1.3125 -2.296875,1.3125 -0.890625,0 -2.0625,-0.609375 -2.0625,-1.609375 0,-0.234375 0.046875,-0.46875 0.171875,-0.65625 L 1.15625,-2.578125 c -0.375,0.171875 -1.09375,0.84375 -1.09375,1.296875 0,1.1875 1.859375,1.578125 2.78125,1.578125 1.015625,0 2.046875,-0.359375 2.78125,-1.078125 0.328125,-0.3125 0.9375,-1.046875 0.9375,-1.53125 0,-1.671875 -3.390625,-2.03125 -3.390625,-3.65625 0,-0.703125 0.859375,-0.984375 1.4375,-0.984375 0.828125,0 1.5625,0.5 1.5625,1.390625 0,0.1875 -0.078125,0.375 -0.203125,0.5 0.578125,-0.015625 1.078125,-0.5625 1.078125,-1.140625 z m 0,0"
           id="path8512" />
      </symbol>
    </g>
    <g
       id="g7319">
      <symbol
         overflow="visible"
         id="symbol7808">
        <path
           style="stroke:none;"
           d=""
           id="path1309" />
      </symbol>
      <symbol
         overflow="visible"
         id="symbol3327">
        <path
           style="stroke:none;"
           d="M 4.625 -7.03125 C 2.265625 -7.03125 0.53125 -5.21875 0.53125 -2.71875 C 0.53125 -0.828125 1.46875 0.171875 3.21875 0.171875 C 4.0625 0.171875 4.78125 -0.015625 5.421875 -0.421875 C 6.671875 -1.203125 7.453125 -2.65625 7.453125 -4.234375 C 7.453125 -6.015625 6.421875 -7.03125 4.625 -7.03125 Z M 4.3125 -6.625 C 4.796875 -6.625 5.28125 -6.5 5.609375 -6.296875 C 6.265625 -5.921875 6.578125 -5.171875 6.578125 -4.078125 C 6.578125 -2.828125 6.1875 -1.6875 5.5 -1 C 5.015625 -0.5 4.359375 -0.234375 3.59375 -0.234375 C 2.15625 -0.234375 1.40625 -1.09375 1.40625 -2.765625 C 1.40625 -4.0625 1.796875 -5.21875 2.5 -5.90625 C 2.953125 -6.390625 3.5625 -6.625 4.3125 -6.625 Z M 4.3125 -6.625 "
           id="path707" />
      </symbol>
      <symbol
         overflow="visible"
         id="symbol166">
        <path
           style="stroke:none;"
           d=""
           id="path7866" />
      </symbol>
      <symbol
         overflow="visible"
         id="symbol6853">
        <path
           style="stroke:none;"
           d="M 0.109375 -0.15625 L 0.109375 0.015625 C 1.421875 0 1.421875 0 1.671875 0 C 1.921875 0 1.921875 0 3.265625 0.015625 C 3.25 -0.125 3.25 -0.1875 3.25 -0.296875 C 3.25 -0.390625 3.25 -0.453125 3.265625 -0.609375 C 2.453125 -0.578125 2.140625 -0.5625 0.84375 -0.53125 L 2.125 -1.875 C 2.796875 -2.59375 3 -2.984375 3 -3.5 C 3 -4.3125 2.453125 -4.796875 1.578125 -4.796875 C 1.078125 -4.796875 0.734375 -4.65625 0.390625 -4.3125 L 0.265625 -3.359375 L 0.46875 -3.359375 L 0.5625 -3.6875 C 0.671875 -4.09375 0.921875 -4.265625 1.390625 -4.265625 C 2 -4.265625 2.375 -3.890625 2.375 -3.296875 C 2.375 -2.78125 2.078125 -2.265625 1.296875 -1.421875 Z M 0.109375 -0.15625 "
           id="path5480" />
      </symbol>
    </g>
    <g
       id="g1503">
      <symbol
         overflow="visible"
         id="symbol1285">
        <path
           style="stroke:none;"
           d=""
           id="path5684" />
      </symbol>
      <symbol
         overflow="visible"
         id="symbol4902">
        <path
           style="stroke:none;"
           d="M 4.625 -7.03125 C 2.265625 -7.03125 0.53125 -5.21875 0.53125 -2.71875 C 0.53125 -0.828125 1.46875 0.171875 3.21875 0.171875 C 4.0625 0.171875 4.78125 -0.015625 5.421875 -0.421875 C 6.671875 -1.203125 7.453125 -2.65625 7.453125 -4.234375 C 7.453125 -6.015625 6.421875 -7.03125 4.625 -7.03125 Z M 4.3125 -6.625 C 4.796875 -6.625 5.28125 -6.5 5.609375 -6.296875 C 6.265625 -5.921875 6.578125 -5.171875 6.578125 -4.078125 C 6.578125 -2.828125 6.1875 -1.6875 5.5 -1 C 5.015625 -0.5 4.359375 -0.234375 3.59375 -0.234375 C 2.15625 -0.234375 1.40625 -1.09375 1.40625 -2.765625 C 1.40625 -4.0625 1.796875 -5.21875 2.5 -5.90625 C 2.953125 -6.390625 3.5625 -6.625 4.3125 -6.625 Z M 4.3125 -6.625 "
           id="path9182" />
      </symbol>
      <symbol
         overflow="visible"
         id="symbol1627">
        <path
           style="stroke:none;"
           d=""
           id="path9757" />
      </symbol>
      <symbol
         overflow="visible"
         id="symbol9614">
        <path
           style="stroke:none;"
           d="M 0.109375 -0.15625 L 0.109375 0.015625 C 1.421875 0 1.421875 0 1.671875 0 C 1.921875 0 1.921875 0 3.265625 0.015625 C 3.25 -0.125 3.25 -0.1875 3.25 -0.296875 C 3.25 -0.390625 3.25 -0.453125 3.265625 -0.609375 C 2.453125 -0.578125 2.140625 -0.5625 0.84375 -0.53125 L 2.125 -1.875 C 2.796875 -2.59375 3 -2.984375 3 -3.5 C 3 -4.3125 2.453125 -4.796875 1.578125 -4.796875 C 1.078125 -4.796875 0.734375 -4.65625 0.390625 -4.3125 L 0.265625 -3.359375 L 0.46875 -3.359375 L 0.5625 -3.6875 C 0.671875 -4.09375 0.921875 -4.265625 1.390625 -4.265625 C 2 -4.265625 2.375 -3.890625 2.375 -3.296875 C 2.375 -2.78125 2.078125 -2.265625 1.296875 -1.421875 Z M 0.109375 -0.15625 "
           id="path4751" />
      </symbol>
    </g>
    <g
       id="g7049">
      <symbol
         overflow="visible"
         id="symbol9201">
        <path
           style="stroke:none;"
           d=""
           id="path7085" />
      </symbol>
      <symbol
         overflow="visible"
         id="symbol1881">
        <path
           style="stroke:none;"
           d="M 4.625 -7.03125 C 2.265625 -7.03125 0.53125 -5.21875 0.53125 -2.71875 C 0.53125 -0.828125 1.46875 0.171875 3.21875 0.171875 C 4.0625 0.171875 4.78125 -0.015625 5.421875 -0.421875 C 6.671875 -1.203125 7.453125 -2.65625 7.453125 -4.234375 C 7.453125 -6.015625 6.421875 -7.03125 4.625 -7.03125 Z M 4.3125 -6.625 C 4.796875 -6.625 5.28125 -6.5 5.609375 -6.296875 C 6.265625 -5.921875 6.578125 -5.171875 6.578125 -4.078125 C 6.578125 -2.828125 6.1875 -1.6875 5.5 -1 C 5.015625 -0.5 4.359375 -0.234375 3.59375 -0.234375 C 2.15625 -0.234375 1.40625 -1.09375 1.40625 -2.765625 C 1.40625 -4.0625 1.796875 -5.21875 2.5 -5.90625 C 2.953125 -6.390625 3.5625 -6.625 4.3125 -6.625 Z M 4.3125 -6.625 "
           id="path5741" />
      </symbol>
      <symbol
         overflow="visible"
         id="symbol3817">
        <path
           style="stroke:none;"
           d=""
           id="path7115" />
      </symbol>
      <symbol
         overflow="visible"
         id="symbol3567">
        <path
           style="stroke:none;"
           d="M 0.109375 -0.15625 L 0.109375 0.015625 C 1.421875 0 1.421875 0 1.671875 0 C 1.921875 0 1.921875 0 3.265625 0.015625 C 3.25 -0.125 3.25 -0.1875 3.25 -0.296875 C 3.25 -0.390625 3.25 -0.453125 3.265625 -0.609375 C 2.453125 -0.578125 2.140625 -0.5625 0.84375 -0.53125 L 2.125 -1.875 C 2.796875 -2.59375 3 -2.984375 3 -3.5 C 3 -4.3125 2.453125 -4.796875 1.578125 -4.796875 C 1.078125 -4.796875 0.734375 -4.65625 0.390625 -4.3125 L 0.265625 -3.359375 L 0.46875 -3.359375 L 0.5625 -3.6875 C 0.671875 -4.09375 0.921875 -4.265625 1.390625 -4.265625 C 2 -4.265625 2.375 -3.890625 2.375 -3.296875 C 2.375 -2.78125 2.078125 -2.265625 1.296875 -1.421875 Z M 0.109375 -0.15625 "
           id="path2355" />
      </symbol>
    </g>
    <g
       id="g5951">
      <symbol
         overflow="visible"
         id="symbol7829">
        <path
           style="stroke:none;"
           d=""
           id="path9012" />
      </symbol>
      <symbol
         overflow="visible"
         id="symbol6201">
        <path
           style="stroke:none;"
           d="M 5.203125 -3.234375 C 5.203125 -4.1875 4.734375 -4.71875 3.78125 -4.71875 C 2.59375 -4.71875 1.46875 -3.9375 1.15625 -2.765625 C 1.03125 -2.328125 1 -1.875 0.953125 -1.4375 C 0.796875 -0.015625 0.53125 1.40625 0.40625 2.828125 C 0.6875 2.828125 0.984375 2.765625 1.25 2.65625 C 1.21875 2.4375 1.21875 2.203125 1.21875 1.984375 C 1.21875 1.21875 1.3125 0.453125 1.421875 -0.296875 L 1.453125 -0.296875 C 1.71875 0.046875 2.078125 0.15625 2.484375 0.15625 C 4.25 0.15625 5.203125 -1.671875 5.203125 -3.234375 Z M 4.40625 -3.09375 C 4.40625 -2.03125 3.984375 -0.109375 2.609375 -0.109375 C 1.828125 -0.109375 1.640625 -0.71875 1.640625 -1.375 C 1.640625 -2.421875 2.03125 -4.390625 3.40625 -4.390625 C 4.1875 -4.390625 4.40625 -3.78125 4.40625 -3.09375 Z M 4.40625 -3.09375 "
           id="path8041" />
      </symbol>
    </g>
    <g
       id="g2050">
      <symbol
         overflow="visible"
         id="symbol3902">
        <path
           style="stroke:none;"
           d=""
           id="path4344" />
      </symbol>
      <symbol
         overflow="visible"
         id="symbol2311">
        <path
           style="stroke:none;"
           d="M 5.203125 -3.234375 C 5.203125 -4.1875 4.734375 -4.71875 3.78125 -4.71875 C 2.59375 -4.71875 1.46875 -3.9375 1.15625 -2.765625 C 1.03125 -2.328125 1 -1.875 0.953125 -1.4375 C 0.796875 -0.015625 0.53125 1.40625 0.40625 2.828125 C 0.6875 2.828125 0.984375 2.765625 1.25 2.65625 C 1.21875 2.4375 1.21875 2.203125 1.21875 1.984375 C 1.21875 1.21875 1.3125 0.453125 1.421875 -0.296875 L 1.453125 -0.296875 C 1.71875 0.046875 2.078125 0.15625 2.484375 0.15625 C 4.25 0.15625 5.203125 -1.671875 5.203125 -3.234375 Z M 4.40625 -3.09375 C 4.40625 -2.03125 3.984375 -0.109375 2.609375 -0.109375 C 1.828125 -0.109375 1.640625 -0.71875 1.640625 -1.375 C 1.640625 -2.421875 2.03125 -4.390625 3.40625 -4.390625 C 4.1875 -4.390625 4.40625 -3.78125 4.40625 -3.09375 Z M 4.40625 -3.09375 "
           id="path8631" />
      </symbol>
    </g>
  </defs>
  <sodipodi:namedview
     id="base"
     pagecolor="#ffffff"
     bordercolor="#666666"
     borderopacity="1.0"
     inkscape:pageopacity="0.0"
     inkscape:pageshadow="2"
     inkscape:zoom="1.4"
     inkscape:cx="120.56485"
     inkscape:cy="-36.268698"
     inkscape:document-units="px"
     inkscape:current-layer="layer1"
     showgrid="false"
     inkscape:window-width="1853"
     inkscape:window-height="1025"
     inkscape:window-x="67"
     inkscape:window-y="27"
     inkscape:window-maximized="1"
     units="cm"
     inkscape:document-rotation="0">
    <inkscape:grid
       type="xygrid"
       id="grid4136" />
  </sodipodi:namedview>
  <metadata
     id="metadata7">
    <rdf:RDF>
      <cc:Work
         rdf:about="">
        <dc:format>image/svg+xml</dc:format>
        <dc:type
           rdf:resource="http://purl.org/dc/dcmitype/StillImage" />
        <dc:title></dc:title>
      </cc:Work>
    </rdf:RDF>
  </metadata>
  <g
     inkscape:label="Calque 1"
     inkscape:groupmode="layer"
     id="layer1"
     transform="translate(0,-764.36216)">
    <ellipse
       style="fill:#1c120e;fill-opacity:0.0772947;stroke:#000000;stroke-width:0.87500002;stroke-miterlimit:4;stroke-dasharray:none;stroke-dashoffset:2.12599;stroke-opacity:1"
       id="path4156"
       cx="106.22104"
       cy="867.10431"
       rx="98.08992"
       ry="93.418976" />
    <path
       style="fill:#1c120e;fill-opacity:0.0772947;fill-rule:evenodd;stroke:#000000;stroke-width:0.87500002;stroke-linecap:butt;stroke-linejoin:miter;stroke-miterlimit:4;stroke-dasharray:none;stroke-opacity:1"
       d="m 8.1311082,867.10426 c 0,0 18.4224198,7.16361 28.0256918,9.34195 24.483647,5.55349 49.630556,9.5621 74.73519,9.34187 22.01821,-0.19314 43.96324,-4.28297 65.39327,-9.34187 9.58381,-2.26249 28.02569,-9.34195 28.02569,-9.34195"
       id="path4168"
       inkscape:connector-curvature="0"
       sodipodi:nodetypes="csssc" />
    <path
       style="fill:#1c120e;fill-opacity:0.0772947;fill-rule:evenodd;stroke:#000000;stroke-width:0.8746875;stroke-linecap:butt;stroke-linejoin:miter;stroke-miterlimit:4;stroke-dasharray:0.8746875,0.8746875;stroke-dashoffset:0;stroke-opacity:1"
       d="m 7.4638302,867.12843 c 0,0 18.4224208,-7.1636 28.0256858,-9.34187 24.483655,-5.55357 49.630556,-9.56211 74.735194,-9.34195 22.01821,0.19322 43.96324,4.28305 65.39328,9.34195 9.5838,2.26249 28.02569,9.34187 28.02569,9.34187"
       id="path4168-3"
       inkscape:connector-curvature="0"
       sodipodi:nodetypes="csssc" />
    <g
       id="g6933"
       transform="matrix(1.2330677,0,0,1.2330677,-31.01638,-190.01166)">
      <ellipse
         style="fill:#ffffff;fill-opacity:1;stroke:#000000;stroke-width:0.875;stroke-miterlimit:4;stroke-dasharray:none;stroke-dashoffset:2.12599;stroke-opacity:1"
         id="path4156-6"
         cx="133.38771"
         cy="814.96967"
         rx="27.842539"
         ry="26.516705" />
      <path
         style="fill:none;fill-opacity:0.0772947;fill-rule:evenodd;stroke:#000000;stroke-width:0.875;stroke-linecap:butt;stroke-linejoin:miter;stroke-miterlimit:4;stroke-dasharray:none;stroke-opacity:1"
         d="m 105.54514,814.96971 c 0,0 5.22915,2.03332 7.95502,2.65169 6.9496,1.57633 14.08749,2.71422 21.21336,2.65162 6.2498,-0.0548 12.47884,-1.21565 18.56169,-2.65162 2.72033,-0.64224 7.95502,-2.65169 7.95502,-2.65169"
         id="path4168-2"
         inkscape:connector-curvature="0"
         sodipodi:nodetypes="csssc" />
      <path
         style="fill:none;fill-opacity:0.0772947;fill-rule:evenodd;stroke:#000000;stroke-width:0.875;stroke-linecap:butt;stroke-linejoin:miter;stroke-miterlimit:4;stroke-dasharray:0.875, 0.875;stroke-dashoffset:0;stroke-opacity:1"
         d="m 105.35574,814.97654 c 0,0 5.22915,-2.03339 7.95501,-2.65161 6.94961,-1.57641 14.08749,-2.71422 21.21337,-2.6517 6.24981,0.0548 12.47884,1.21573 18.56169,2.6517 2.72033,0.64209 7.95501,2.65161 7.95501,2.65161"
         id="path4168-3-9"
         inkscape:connector-curvature="0"
         sodipodi:nodetypes="csssc" />
      <g
         id="g2217"
         transform="matrix(1.187187,0,0,1.187187,-173.54776,-329.7494)"
         style="stroke:#000000;stroke-width:0.737036;stroke-miterlimit:4;stroke-dasharray:none;stroke-opacity:1">
        <path
           inkscape:connector-curvature="0"
           id="path4257"
           d="m 258.15541,960.9446 v 5.57928"
           style="fill:none;fill-rule:evenodd;stroke:#000000;stroke-width:0.737036;stroke-linecap:butt;stroke-linejoin:miter;stroke-miterlimit:4;stroke-dasharray:none;stroke-opacity:1" />
        <path
           inkscape:connector-curvature="0"
           id="path4259"
           d="m 255.36577,963.73424 h 5.57928"
           style="fill:none;fill-rule:evenodd;stroke:#000000;stroke-width:0.737036;stroke-linecap:butt;stroke-linejoin:miter;stroke-miterlimit:4;stroke-dasharray:none;stroke-opacity:1" />
      </g>
    </g>
    <path
       style="fill:none;fill-rule:evenodd;stroke:#000000;stroke-width:0.87500002;stroke-linecap:butt;stroke-linejoin:miter;stroke-miterlimit:4;stroke-dasharray:none;stroke-opacity:1"
       d="m 107.40791,862.39508 v 10.18416"
       id="path4257-2"
       inkscape:connector-curvature="0" />
    <path
       style="fill:none;fill-rule:evenodd;stroke:#000000;stroke-width:0.87500002;stroke-linecap:butt;stroke-linejoin:miter;stroke-miterlimit:4;stroke-dasharray:none;stroke-opacity:1"
       d="M 102.31582,867.48716 H 112.5"
       id="path4259-7"
       inkscape:connector-curvature="0" />
    <g
       inkscape:label=""
       transform="matrix(1.4971469,0,0,1.4971469,-10.709654,673.87478)"
       id="g6993"
       style="fill:#cc0000;fill-opacity:0.827451">
      <g
         id="g8176"
         style="fill:#cc0000;fill-opacity:0.827451">
        <g
           style="fill:#cc0000;fill-opacity:0.827451"
           id="g3135">
          <use
             xlink:href="#symbol7159"
             x="91.925003"
             y="81.962997"
             id="use4763"
             width="100%"
             height="100%"
             style="fill:#cc0000;fill-opacity:0.827451" />
        </g>
      </g>
    </g>
    <g
       inkscape:label=""
       transform="matrix(1.6554235,0,0,1.6554235,-70.436081,736.54755)"
       id="g2516">
      <g
         id="g6757">
        <g
           style="fill:#000000;fill-opacity:1"
           id="g7609">
          <use
             xlink:href="#symbol1313"
             x="91.925003"
             y="81.962997"
             id="use9126"
             width="100%"
             height="100%" />
        </g>
        <g
           style="fill:#000000;fill-opacity:1"
           id="g2843">
          <use
             xlink:href="#symbol8526"
             x="99.676003"
             y="83.457001"
             id="use7227"
             width="100%"
             height="100%" />
        </g>
      </g>
    </g>
    <path
       style="fill:none;stroke:#d20000;stroke-width:1.25;stroke-linecap:butt;stroke-linejoin:miter;stroke-miterlimit:4;stroke-dasharray:none;stroke-opacity:1;marker-start:url(#marker3060);marker-end:url(#Arrow2Send)"
       d="m 108.10794,867.48718 91.70859,-0.24495"
       id="path2789" />
    <g
       inkscape:label=""
       transform="matrix(1.5810049,0,0,1.5810049,-19.491085,732.98855)"
       id="g3433"
       style="fill:#d20000;fill-opacity:1">
      <g
         id="g7024"
         style="fill:#d20000;fill-opacity:1">
        <g
           style="fill:#d20000;fill-opacity:1"
           id="g8873">
          <use
             xlink:href="#symbol6256"
             x="91.925003"
             y="81.962997"
             id="use6026"
             width="100%"
             height="100%"
             style="fill:#d20000;fill-opacity:1" />
        </g>
        <g
           style="fill:#d20000;fill-opacity:1"
           id="g9288">
          <use
             xlink:href="#symbol5474"
             x="98.57"
             y="83.457001"
             id="use2443"
             width="100%"
             height="100%"
             style="fill:#d20000;fill-opacity:1" />
        </g>
      </g>
    </g>
    <g
       inkscape:groupmode="layer"
       id="layer2"
       inkscape:label="gauss"
       style="display:inline"
       transform="matrix(3.5433071,0,0,3.5433071,480.26772,611.95648)" />
    <g
       id="g6922"
       style="display:inline"
       transform="translate(0,764.36216)">
      <path
         style="fill:#d70000;fill-opacity:1;stroke:#d70000;stroke-width:0.937499px;stroke-linecap:butt;stroke-linejoin:miter;stroke-opacity:1"
         d="m 145.60793,32.81252 v 9.375"
         id="path9624" />
      <path
         style="fill:#d70000;fill-opacity:1;stroke:#d70000;stroke-width:0.937499px;stroke-linecap:butt;stroke-linejoin:miter;stroke-opacity:1"
         d="m 140.92045,37.50002 h 9.37499"
         id="path9626" />
    </g>
    <g
       inkscape:label=""
       transform="matrix(1.7770441,0,0,1.7770441,-129.3123,-588.25841)"
       id="g10376"
       style="display:inline">
      <g
         id="g2012">
        <g
           style="fill:#000000;fill-opacity:1"
           id="g5331">
          <g
             id="use2159"
             transform="matrix(0.93750003,0,0,0.93750003,91.925003,846.32516)">
            <path
               style="stroke:none"
               d="m 5.203125,-3.234375 c 0,-0.953125 -0.46875,-1.484375 -1.421875,-1.484375 -1.1875,0 -2.3125,0.78125 -2.625,1.953125 C 1.03125,-2.328125 1,-1.875 0.953125,-1.4375 0.796875,-0.015625 0.53125,1.40625 0.40625,2.828125 0.6875,2.828125 0.984375,2.765625 1.25,2.65625 1.21875,2.4375 1.21875,2.203125 1.21875,1.984375 c 0,-0.765625 0.09375,-1.53125 0.203125,-2.28125 h 0.03125 c 0.265625,0.34375 0.625,0.453125 1.03125,0.453125 1.765625,0 2.71875,-1.828125 2.71875,-3.390625 z M 4.40625,-3.09375 c 0,1.0625 -0.421875,2.984375 -1.796875,2.984375 -0.78125,0 -0.96875,-0.609375 -0.96875,-1.265625 0,-1.046875 0.390625,-3.015625 1.765625,-3.015625 0.78125,0 1,0.609375 1,1.296875 z m 0,0"
               id="path10423" />
          </g>
        </g>
      </g>
    </g>
    <g
       inkscape:label=""
       transform="matrix(1.7315787,0,0,1.7315787,-23.44759,-632.07132)"
       id="g10696"
       style="display:inline">
      <g
         id="g5299">
        <g
           style="fill:#000000;fill-opacity:1"
           id="g4010">
          <g
             id="use2479"
             transform="matrix(0.93750003,0,0,0.93750003,91.925003,846.32516)">
            <path
               style="stroke:none"
               d="m 4.625,-7.03125 c -2.359375,0 -4.09375,1.8125 -4.09375,4.3125 0,1.890625 0.9375,2.890625 2.6875,2.890625 0.84375,0 1.5625,-0.1875 2.203125,-0.59375 1.25,-0.78125 2.03125,-2.234375 2.03125,-3.8125 0,-1.78125 -1.03125,-2.796875 -2.828125,-2.796875 z M 4.3125,-6.625 c 0.484375,0 0.96875,0.125 1.296875,0.328125 0.65625,0.375 0.96875,1.125 0.96875,2.21875 0,1.25 -0.390625,2.390625 -1.078125,3.078125 -0.484375,0.5 -1.140625,0.765625 -1.90625,0.765625 -1.4375,0 -2.1875,-0.859375 -2.1875,-2.53125 C 1.40625,-4.0625 1.796875,-5.21875 2.5,-5.90625 2.953125,-6.390625 3.5625,-6.625 4.3125,-6.625 Z m 0,0"
               id="path10761" />
          </g>
        </g>
        <g
           style="fill:#000000;fill-opacity:1"
           id="g8508">
          <g
             id="use319"
             transform="matrix(0.93750003,0,0,0.93750003,99.676003,847.81916)">
            <path
               style="stroke:none"
               d="M 0.109375,-0.15625 V 0.015625 C 1.421875,0 1.421875,0 1.671875,0 c 0.25,0 0.25,0 1.59375,0.015625 C 3.25,-0.125 3.25,-0.1875 3.25,-0.296875 c 0,-0.09375 0,-0.15625 0.015625,-0.3125 -0.8125,0.03125 -1.125,0.046875 -2.421875,0.078125 L 2.125,-1.875 C 2.796875,-2.59375 3,-2.984375 3,-3.5 3,-4.3125 2.453125,-4.796875 1.578125,-4.796875 c -0.5,0 -0.84375,0.140625 -1.1875,0.484375 l -0.125,0.953125 H 0.46875 L 0.5625,-3.6875 c 0.109375,-0.40625 0.359375,-0.578125 0.828125,-0.578125 0.609375,0 0.984375,0.375 0.984375,0.96875 0,0.515625 -0.296875,1.03125 -1.078125,1.875 z m 0,0"
               id="path10757" />
          </g>
        </g>
      </g>
    </g>
  </g>
  <g
     inkscape:groupmode="layer"
     id="layer4"
     inkscape:label="repre"
     style="display:none">
    <path
       style="fill:none;stroke:#d70000;stroke-width:0.937499px;stroke-linecap:butt;stroke-linejoin:miter;stroke-opacity:0.996078;marker-end:url(#marker7404)"
       d="M 145.60793,37.50002 170.59129,-4.73327"
       id="path5976" />
    <path
       style="fill:none;stroke:#008800;stroke-width:0.740551;stroke-miterlimit:4;stroke-dasharray:2.22165, 0.740551;stroke-dashoffset:0;marker-end:url(#marker4862)"
       id="path4858"
       sodipodi:type="arc"
       sodipodi:cx="-103.64517"
       sodipodi:cy="92.289658"
       sodipodi:rx="49.367176"
       sodipodi:ry="37.5"
       sodipodi:start="1.1528979"
       sodipodi:end="2.1197033"
       sodipodi:arc-type="arc"
       sodipodi:open="true"
       transform="scale(-1,1)"
       d="m -83.609966,126.56255 a 49.367176,37.5 0 0 1 -45.792784,-2.28182" />
    <g
       id="g4786"
       transform="matrix(3.5433071,0,0,3.5433071,-9.07958,-23.43748)"
       style="stroke:#000000;stroke-width:0.352778;stroke-miterlimit:4;stroke-dasharray:none;stroke-opacity:0.4">
      <path
         style="fill:none;stroke:#000000;stroke-width:0.352778;stroke-linecap:butt;stroke-linejoin:miter;stroke-miterlimit:4;stroke-dasharray:none;stroke-opacity:0.4;marker-end:url(#marker4739)"
         d="M 33.072916,35.71875 V 10.583333"
         id="path4400" />
      <path
         style="fill:none;stroke:#000000;stroke-width:0.352778;stroke-linecap:butt;stroke-linejoin:miter;stroke-miterlimit:4;stroke-dasharray:none;stroke-opacity:0.4;marker-end:url(#Arrow1Mend)"
         d="M 33.072915,35.71875 H 58.208333"
         id="path4400-1" />
      <path
         style="fill:none;stroke:#000000;stroke-width:0.352778;stroke-linecap:butt;stroke-linejoin:miter;stroke-miterlimit:4;stroke-dasharray:none;stroke-opacity:0.4;marker-start:url(#Arrow1Mstart)"
         d="M 13.079304,50.951764 33.072917,35.71875"
         id="path4400-1-5" />
    </g>
    <path
       style="fill:none;stroke:#000000;stroke-width:0.937499;stroke-linecap:butt;stroke-linejoin:miter;stroke-miterlimit:4;stroke-dasharray:1.875, 0.937499;stroke-dashoffset:0;stroke-opacity:0.4"
       d="m 108.10794,103.12502 37.49999,28.125"
       id="path4906" />
    <path
       style="fill:none;stroke:#000000;stroke-width:0.937499;stroke-linecap:butt;stroke-linejoin:miter;stroke-miterlimit:4;stroke-dasharray:1.875, 0.937499;stroke-dashoffset:0;stroke-opacity:0.4"
       d="m 145.60793,131.25002 v -93.75"
       id="path4926" />
    <path
       style="fill:none;stroke:#008800;stroke-width:0.937499;stroke-linecap:butt;stroke-linejoin:miter;stroke-miterlimit:4;stroke-dasharray:1.875, 0.937499;stroke-dashoffset:0;stroke-opacity:0.929412"
       d="m 108.10794,103.12502 37.49999,-65.625"
       id="path4943" />
    <path
       style="fill:none;stroke:#008800;stroke-width:0.626407;stroke-miterlimit:4;stroke-dasharray:1.87922, 0.626407;stroke-dashoffset:0;marker-end:url(#marker4862-4)"
       id="path4858-0"
       sodipodi:type="arc"
       sodipodi:cx="-114.50381"
       sodipodi:cy="27.576792"
       sodipodi:rx="30.175455"
       sodipodi:ry="21.853228"
       sodipodi:start="1.1528979"
       sodipodi:end="2.1197033"
       sodipodi:arc-type="arc"
       sodipodi:open="true"
       transform="matrix(-0.71558646,-0.69852418,0.76311406,-0.64626382,0,0)"
       d="M -102.25738,47.549415 A 30.175455,21.853228 0 0 1 -130.248,46.219678" />
    <g
       inkscape:label=""
       transform="matrix(1.1705072,0,0,1.1705072,-5.83656,42.40976)"
       id="g7487"
       style="fill:#008800;fill-opacity:1">
      <g
         id="g8077"
         style="fill:#008800;fill-opacity:1">
        <g
           style="fill:#008800;fill-opacity:1"
           id="g8290">
          <use
             xlink:href="#symbol93"
             x="91.925003"
             y="81.962997"
             id="use7934"
             width="100%"
             height="100%"
             style="fill:#008800;fill-opacity:1" />
        </g>
      </g>
    </g>
    <g
       inkscape:label=""
       transform="matrix(1.136281,0,0,1.136281,8.0545554,-54.070406)"
       id="g7551"
       style="fill:#008800;fill-opacity:1;stroke:#008800;stroke-opacity:1">
      <g
         id="g4280"
         style="fill:#008800;fill-opacity:1;stroke:#008800;stroke-opacity:1">
        <g
           style="fill:#008800;fill-opacity:1;stroke:#008800;stroke-opacity:1"
           id="g7266">
          <use
             xlink:href="#symbol2907"
             x="91.925003"
             y="81.962997"
             id="use9912"
             width="100%"
             height="100%"
             style="fill:#008800;fill-opacity:1;stroke:#008800;stroke-opacity:1" />
        </g>
      </g>
    </g>
    <g
       inkscape:label=""
       transform="matrix(1.5300339,0,0,1.5300339,-14.8755,-43.25783)"
       id="g7630"
       style="fill:#008800;fill-opacity:1">
      <g
         id="g1927"
         style="fill:#008800;fill-opacity:1">
        <g
           style="fill:#008800;fill-opacity:1"
           id="g362">
          <use
             xlink:href="#symbol731"
             x="91.925003"
             y="81.962997"
             id="use2242"
             width="100%"
             height="100%"
             style="fill:#008800;fill-opacity:1" />
        </g>
      </g>
    </g>
    <path
       style="fill:none;fill-opacity:1;stroke:#008800;stroke-width:1.25;stroke-linecap:butt;stroke-linejoin:miter;stroke-miterlimit:4;stroke-dasharray:none;stroke-opacity:1;marker-start:url(#Arrow1Sstart);marker-end:url(#Arrow1Send)"
       d="m 157.55199,17.3343 -11.94406,20.16572 20.1657,11.94405"
       id="path7988" />
    <path
       style="fill:none;fill-opacity:1;stroke:#008800;stroke-width:1.25;stroke-linecap:butt;stroke-linejoin:miter;stroke-miterlimit:4;stroke-dasharray:none;stroke-opacity:1;marker-end:url(#marker8130)"
       d="m 145.60793,37.50002 10.23105,-7.13246"
       id="path7990" />
    <g
       inkscape:label=""
       transform="matrix(1.6265209,0,0,1.6265209,-8.92604,-114.70095)"
       id="g8415"
       style="fill:#008800;fill-opacity:1;stroke:#d70000;stroke-opacity:1">
      <g
         id="g7045"
         style="fill:#008800;fill-opacity:1;stroke:#d70000;stroke-opacity:1">
        <g
           style="fill:#008800;fill-opacity:1;stroke:#d70000;stroke-opacity:1"
           id="g2785">
          <use
             xlink:href="#symbol8872"
             x="91.925003"
             y="81.962997"
             id="use5044"
             width="100%"
             height="100%"
             style="fill:#008800;fill-opacity:1;stroke:#d70000;stroke-opacity:1" />
        </g>
        <g
           style="fill:#008800;fill-opacity:1;stroke:#d70000;stroke-opacity:1"
           id="g6199">
          <use
             xlink:href="#symbol908"
             x="96.906998"
             y="83.457001"
             id="use8782"
             width="100%"
             height="100%"
             style="fill:#008800;fill-opacity:1;stroke:#d70000;stroke-opacity:1" />
        </g>
      </g>
    </g>
    <g
       inkscape:label=""
       transform="matrix(1.7605825,0,0,1.7605825,-2.51376,-84.07723)"
       id="g8530"
       style="fill:#008800;fill-opacity:1">
      <g
         id="g9657"
         style="fill:#008800;fill-opacity:1">
        <g
           style="fill:#008800;fill-opacity:1"
           id="g9491">
          <use
             xlink:href="#symbol1259"
             x="91.925003"
             y="81.962997"
             id="use2750"
             width="100%"
             height="100%"
             style="fill:#008800;fill-opacity:1" />
        </g>
        <g
           style="fill:#008800;fill-opacity:1"
           id="g6725">
          <use
             xlink:href="#symbol4632"
             x="96.906998"
             y="83.457001"
             id="use4188"
             width="100%"
             height="100%"
             style="fill:#008800;fill-opacity:1" />
        </g>
      </g>
    </g>
    <g
       inkscape:label=""
       transform="matrix(1.6893179,0,0,1.6893179,3.65808,-103.33131)"
       id="g8660"
       style="fill:#008800;fill-opacity:1">
      <g
         id="g1251"
         style="fill:#008800;fill-opacity:1">
        <g
           style="fill:#008800;fill-opacity:1"
           id="g871">
          <use
             xlink:href="#symbol7434"
             x="91.925003"
             y="81.962997"
             id="use6705"
             width="100%"
             height="100%"
             style="fill:#008800;fill-opacity:1" />
        </g>
        <g
           style="fill:#008800;fill-opacity:1"
           id="g7618">
          <use
             xlink:href="#symbol4010"
             x="96.906998"
             y="83.457001"
             id="use4548"
             width="100%"
             height="100%"
             style="fill:#008800;fill-opacity:1" />
        </g>
      </g>
    </g>
    <g
       inkscape:label=""
       transform="matrix(2.2839983,0,0,2.2839983,-176.01165,-15.2077)"
       id="g8799"
       style="fill:#000000;fill-opacity:0.627451">
      <g
         id="g6038"
         style="fill:#000000;fill-opacity:0.627451">
        <g
           style="fill:#000000;fill-opacity:0.627451"
           id="g4875">
          <use
             xlink:href="#symbol4216"
             x="91.925003"
             y="81.962997"
             id="use1057"
             width="100%"
             height="100%"
             style="fill:#000000;fill-opacity:0.627451" />
        </g>
      </g>
    </g>
    <g
       inkscape:label=""
       transform="matrix(2.1951292,0,0,2.1951292,0.08561,-66.26865)"
       id="g8941"
       style="fill:#000000;fill-opacity:0.627451">
      <g
         id="g5799"
         style="fill:#000000;fill-opacity:0.627451">
        <g
           style="fill:#000000;fill-opacity:0.627451"
           id="g6605">
          <use
             xlink:href="#symbol6237"
             x="92.422997"
             y="81.962997"
             id="use4663"
             width="100%"
             height="100%"
             style="fill:#000000;fill-opacity:0.627451" />
        </g>
      </g>
    </g>
    <g
       inkscape:label=""
       transform="matrix(2.0833987,0,0,2.0833987,-98.504,-155.21216)"
       id="g9092"
       style="fill:#000000;fill-opacity:0.627451;stroke:#d70000;stroke-opacity:1">
      <g
         id="g3996"
         style="fill:#000000;fill-opacity:0.627451;stroke:#d70000;stroke-opacity:1">
        <g
           style="fill:#000000;fill-opacity:0.627451;stroke:#d70000;stroke-opacity:1"
           id="g1191">
          <use
             xlink:href="#symbol5088"
             x="91.925003"
             y="81.962997"
             id="use1025"
             width="100%"
             height="100%"
             style="fill:#000000;fill-opacity:0.627451;stroke:#d70000;stroke-opacity:1" />
        </g>
      </g>
    </g>
    <g
       inkscape:label=""
       transform="matrix(1.3893444,0,0,1.3893444,47.31722,-112.61347)"
       id="g6751"
       style="fill:#d70000;fill-opacity:1">
      <g
         id="g779"
         style="fill:#d70000;fill-opacity:1">
        <g
           style="fill:#d70000;fill-opacity:1"
           id="g4281">
          <use
             xlink:href="#symbol5004"
             x="91.925003"
             y="81.962997"
             id="use4521"
             width="100%"
             height="100%"
             style="fill:#d70000;fill-opacity:1" />
        </g>
        <g
           style="fill:#d70000;fill-opacity:1"
           id="g9962">
          <use
             xlink:href="#symbol8179"
             x="98.012001"
             y="81.962997"
             id="use6743"
             width="100%"
             height="100%"
             style="fill:#d70000;fill-opacity:1" />
        </g>
        <g
           style="fill:#d70000;fill-opacity:1"
           id="g2686">
          <use
             xlink:href="#symbol6871"
             x="101.33"
             y="81.962997"
             id="use3338"
             width="100%"
             height="100%"
             style="fill:#d70000;fill-opacity:1" />
        </g>
        <g
           style="fill:#d70000;fill-opacity:1"
           id="g2145">
          <use
             xlink:href="#symbol8675"
             x="110.735"
             y="81.962997"
             id="use4698"
             width="100%"
             height="100%"
             style="fill:#d70000;fill-opacity:1" />
        </g>
      </g>
    </g>
  </g>
</svg>
