<?xml version="1.0" encoding="UTF-8" standalone="no"?>
<svg
   xmlns:dc="http://purl.org/dc/elements/1.1/"
   xmlns:cc="http://creativecommons.org/ns#"
   xmlns:rdf="http://www.w3.org/1999/02/22-rdf-syntax-ns#"
   xmlns:svg="http://www.w3.org/2000/svg"
   xmlns="http://www.w3.org/2000/svg"
   xmlns:sodipodi="http://sodipodi.sourceforge.net/DTD/sodipodi-0.dtd"
   xmlns:inkscape="http://www.inkscape.org/namespaces/inkscape"
   version="1.1"
   id="svg4397"
   xml:space="preserve"
   width="70.602379mm"
   height="66.145836mm"
   viewBox="0 0 266.84363 250"
   sodipodi:docname="fil.svg"
   inkscape:version="1.0.1 (1.0.1+r75)"><metadata
     id="metadata4403"><rdf:RDF><cc:Work
         rdf:about=""><dc:format>image/svg+xml</dc:format><dc:type
           rdf:resource="http://purl.org/dc/dcmitype/StillImage" /><dc:title></dc:title></cc:Work></rdf:RDF></metadata><defs
     id="defs4401" /><sodipodi:namedview
     pagecolor="#ffffff"
     bordercolor="#666666"
     borderopacity="1"
     objecttolerance="10"
     gridtolerance="10"
     guidetolerance="10"
     inkscape:pageopacity="0"
     inkscape:pageshadow="2"
     inkscape:window-width="1853"
     inkscape:window-height="1025"
     id="namedview4399"
     showgrid="false"
     units="mm"
     inkscape:zoom="1.2416795"
     inkscape:cx="133.42181"
     inkscape:cy="125"
     inkscape:window-x="67"
     inkscape:window-y="27"
     inkscape:window-maximized="1"
     inkscape:current-layer="g4405" /><g
     id="g4405"
     inkscape:groupmode="layer"
     inkscape:label="fil"
     transform="matrix(1.3333333,0,0,1.3333333,0,6.25e-6)"><g
       id="g4407"><g
         id="g4409"><path
           d="m 150.375,86.25 v 52.5"
           style="fill:none;stroke:#008800;stroke-width:0.749999;stroke-linecap:butt;stroke-linejoin:miter;stroke-miterlimit:4;stroke-dasharray:1.5, 0.749999;stroke-dashoffset:0;stroke-opacity:1"
           id="path4411" /></g><g
         id="g4413"
         transform="scale(1,0.966755)"><path
           d="m 86.316,128.058 v -73.7"
           style="fill:none;stroke:#000000;stroke-width:1.03439;stroke-linecap:butt;stroke-linejoin:miter;stroke-miterlimit:4;stroke-dasharray:none;stroke-opacity:0.4"
           id="path4415" /></g><path
         d="m 86.316,56.551 2.071,2 -2.071,-7 -2.07,7 z"
         style="fill:#000000;fill-opacity:0.4;fill-rule:evenodd;stroke:none"
         id="path4417" /><g
         id="g4419"
         transform="matrix(0,0.966755,-1,0,0,0)"><path
           d="m 58.495,-86.316 2.069,-2.071 -7.24,2.071 7.24,2.07 z"
           style="fill:none;stroke:#000000;stroke-width:0.551674;stroke-linecap:butt;stroke-linejoin:miter;stroke-miterlimit:4;stroke-dasharray:none;stroke-opacity:0.4"
           id="path4421" /></g><g
         id="g4423"
         transform="scale(1,0.966755)"><path
           d="m 86.316,128.058 h 98.079"
           style="fill:none;stroke:#000000;stroke-width:1.19326;stroke-linecap:butt;stroke-linejoin:miter;stroke-miterlimit:4;stroke-dasharray:none;stroke-opacity:0.4"
           id="path4425" /></g><path
         d="m 179.621,123.801 -2.387,2.304 8.356,-2.304 -8.356,-2.309 z"
         style="fill:#000000;fill-opacity:0.4;fill-rule:evenodd;stroke:none"
         id="path4427" /><g
         id="g4429"
         transform="scale(-1,-0.966755)"><path
           d="m -179.621,-128.058 2.387,-2.384 -8.356,2.384 8.356,2.388 z"
           style="fill:none;stroke:#000000;stroke-width:0.636407;stroke-linecap:butt;stroke-linejoin:miter;stroke-miterlimit:4;stroke-dasharray:none;stroke-opacity:0.4"
           id="path4431" /></g><g
         id="g4433"
         transform="scale(1,0.966755)"><path
           d="M 27.691,172.723 86.316,128.058"
           style="fill:none;stroke:#000000;stroke-width:1.03439;stroke-linecap:butt;stroke-linejoin:miter;stroke-miterlimit:4;stroke-dasharray:none;stroke-opacity:0.4"
           id="path4435" /></g><path
         d="m 30.984,164.555 0.391,-2.801 -4.504,5.832 7.012,-2.652 z"
         style="fill:#000000;fill-opacity:0.4;fill-rule:evenodd;stroke:none"
         id="path4437" /><g
         id="g4439"
         transform="matrix(1,-0.736565,0.761894,0.966755,0,0)"><path
           d="m -62.449,122.634 1.643,-1.645 -5.757,1.646 5.759,1.644 z"
           style="fill:none;stroke:#000000;stroke-width:0.438821;stroke-linecap:butt;stroke-linejoin:miter;stroke-miterlimit:4;stroke-dasharray:none;stroke-opacity:0.4"
           id="path4441" /></g><g
         id="g4443"><path
           d="m 150.375,86.25 37.566,8.703"
           style="fill:none;stroke:#d70000;stroke-width:0.699999;stroke-linecap:butt;stroke-linejoin:miter;stroke-miterlimit:4;stroke-dasharray:none;stroke-opacity:0.996078"
           id="path4445" /></g><path
         d="m 185.211,94.32 -1.68,1.051 5.09,-0.262 -4.457,-2.468 z"
         style="fill:#d70000;fill-opacity:0.996078;fill-rule:evenodd;stroke:none"
         id="path4447" /><g
         id="g4449"
         transform="matrix(-1,-0.23168,0.23168,-1,0,0)"><path
           d="m -196.515,-48.792 1.363,-1.366 -4.773,1.367 4.773,1.363 z"
           style="fill:none;stroke:#d70000;stroke-width:0.363699;stroke-linecap:butt;stroke-linejoin:miter;stroke-miterlimit:4;stroke-dasharray:none;stroke-opacity:0.996078"
           id="path4451" /></g><path
         d="m 27.613,177.297 c 0,0.371 -0.027,0.601 -0.14,1.172 -0.032,0.226 -0.059,0.285 -0.059,0.398 0.258,0.145 0.57,0.231 0.77,0.231 0.601,0 1.316,-0.516 1.886,-1.371 l 1.371,-2.141 0.2,1.254 c 0.257,1.543 0.656,2.258 1.312,2.258 0.399,0 1,-0.317 1.57,-0.828 l 0.887,-0.801 -0.144,-0.371 c -0.657,0.57 -1.114,0.828 -1.399,0.828 -0.285,0 -0.515,-0.172 -0.715,-0.543 -0.14,-0.344 -0.34,-1.028 -0.457,-1.543 l -0.312,-1.856 0.629,-0.882 c 0.855,-1.172 1.34,-1.598 1.91,-1.598 0.285,0 0.516,0.141 0.601,0.426 l 0.258,-0.086 0.285,-1.539 c -0.23,-0.145 -0.402,-0.203 -0.543,-0.203 -0.742,0 -1.457,0.66 -2.597,2.343 l -0.688,1 -0.086,-0.859 c -0.226,-1.824 -0.711,-2.484 -1.797,-2.484 -0.457,0 -0.886,0.171 -1.027,0.402 l -1.058,1.512 0.316,0.172 c 0.543,-0.602 0.883,-0.856 1.254,-0.856 0.601,0 1,0.742 1.316,2.512 l 0.199,1.14 -0.742,1.114 c -0.773,1.23 -1.398,1.828 -1.914,1.828 -0.285,0 -0.484,-0.086 -0.515,-0.172 l -0.2,-0.512 z"
         style="fill:#000000;fill-opacity:0.627451;fill-rule:nonzero;stroke:none"
         id="path4453" /><path
         d="m 183.789,139.844 c -0.027,0.109 -0.027,0.218 -0.027,0.301 0,0.769 0.66,1.371 1.429,1.371 1.864,0 3.786,-2.168 4.829,-5.403 l 2.468,-7.711 -0.191,-0.164 c -0.52,0.219 -0.934,0.301 -1.317,0.356 l -0.605,2.304 c -0.219,0.825 -0.82,2.086 -1.398,2.965 -0.602,0.875 -1.481,1.645 -1.868,1.645 -0.191,0 -0.355,-0.383 -0.328,-0.824 v -0.246 l 0.274,-3.376 c 0.027,-0.546 0.054,-1.207 0.054,-1.699 0,-0.797 -0.109,-1.125 -0.41,-1.125 -0.219,0 -0.465,0.137 -1.316,0.711 l -1.426,0.989 0.191,0.3 0.879,-0.519 0.055,-0.055 c 0.191,-0.109 0.301,-0.164 0.383,-0.164 0.246,0 0.383,0.355 0.383,0.93 0,0 0,0.113 -0.028,0.25 l -0.3,4.25 v 0.715 c 0,0.742 0.3,1.234 0.742,1.234 0.656,0 2.113,-1.481 3.429,-3.457 l -0.851,2.992 c -0.906,3.102 -1.785,4.363 -2.992,4.363 -0.629,0 -1.098,-0.468 -1.098,-1.07 0,-0.082 0.027,-0.25 0.055,-0.387 l -0.192,-0.082 z"
         style="fill:#000000;fill-opacity:0.627451;fill-rule:nonzero;stroke:none"
         id="path4455" /><path
         d="m 74.473,53.402 0.156,0.442 c 0.492,-0.391 0.937,-0.547 1.508,-0.547 0.418,0 0.886,0.105 1.746,0.285 0.988,0.262 1.512,0.34 1.953,0.34 0.207,0 0.363,-0.027 0.832,-0.156 0.184,-1.043 0.312,-1.614 0.496,-2.395 h -0.363 l -0.367,1.016 c -0.079,0.285 -0.286,0.414 -0.625,0.414 -0.207,0 -0.469,-0.051 -0.832,-0.129 L 78.691,52.621 C 78.145,52.488 77.57,52.41 77.258,52.41 c -0.547,0 -0.988,0.106 -1.59,0.34 l 5.652,-6.328 0.078,-0.547 -0.128,-0.156 -0.391,0.39 c -0.156,0.184 -0.34,0.235 -0.574,0.235 -0.547,0 -1.434,-0.129 -2.215,-0.34 l -0.313,-0.078 c -0.468,-0.129 -0.781,-0.207 -1.015,-0.207 -0.285,0 -0.625,0.051 -1.016,0.183 l -0.547,2.032 h 0.367 l 0.493,-0.965 c 0.289,-0.078 0.445,-0.078 0.652,-0.078 0.234,0 0.418,0 0.754,0.078 0.547,0.105 0.992,0.156 1.328,0.156 0.602,0 1.016,-0.105 1.562,-0.391 z"
         style="fill:#000000;fill-opacity:0.627451;fill-rule:nonzero;stroke:none"
         id="path4457" /><path
         d="m 138.656,118.465 0.156,0.441 c 0.497,-0.39 0.938,-0.547 1.512,-0.547 0.414,0 0.883,0.106 1.742,0.286 0.993,0.261 1.512,0.339 1.954,0.339 0.21,0 0.367,-0.027 0.835,-0.156 0.18,-1.043 0.313,-1.613 0.493,-2.394 h -0.364 l -0.363,1.015 c -0.078,0.285 -0.289,0.414 -0.625,0.414 -0.211,0 -0.469,-0.051 -0.836,-0.129 l -0.285,-0.05 c -0.547,-0.133 -1.121,-0.211 -1.434,-0.211 -0.546,0 -0.988,0.105 -1.586,0.339 l 5.649,-6.328 0.078,-0.546 -0.129,-0.157 -0.391,0.391 c -0.156,0.183 -0.339,0.234 -0.574,0.234 -0.547,0 -1.429,-0.129 -2.211,-0.34 l -0.312,-0.078 c -0.469,-0.129 -0.781,-0.207 -1.016,-0.207 -0.289,0 -0.625,0.051 -1.015,0.184 l -0.547,2.031 h 0.363 l 0.496,-0.965 c 0.285,-0.078 0.442,-0.078 0.649,-0.078 0.234,0 0.417,0 0.757,0.078 0.547,0.106 0.989,0.157 1.328,0.157 0.598,0 1.016,-0.106 1.563,-0.391 z"
         style="fill:#008800;fill-opacity:1;fill-rule:nonzero;stroke:none"
         id="path4459" /><g
         id="g4461"><path
           d="m 86.625,123.75 63.75,15"
           style="fill:none;stroke:#000000;stroke-width:0.710036;stroke-linecap:butt;stroke-linejoin:miter;stroke-miterlimit:4;stroke-dasharray:1.42008, 0.710036;stroke-dashoffset:0;stroke-opacity:0.5"
           id="path4463" /></g><g
         id="g4465"><path
           d="M 150.375,86.25 V 67.5"
           style="fill:none;stroke:#008800;stroke-width:0.699999;stroke-linecap:butt;stroke-linejoin:miter;stroke-miterlimit:4;stroke-dasharray:none;stroke-opacity:1"
           id="path4467" /></g><g
         id="g4469"
         transform="rotate(90)"><path
           d="m 68.34,-150.375 0.699,-0.699 -2.449,0.699 2.449,0.699 z"
           style="fill:#008800;fill-opacity:1;fill-rule:evenodd;stroke:#008800;stroke-width:0.186666;stroke-linecap:butt;stroke-linejoin:miter;stroke-miterlimit:4;stroke-dasharray:none;stroke-opacity:1"
           id="path4471" /></g><g
         id="g4473"><path
           d="m 150.375,86.25 16.84,3.957"
           style="fill:none;stroke:#008800;stroke-width:0.699999;stroke-linecap:butt;stroke-linejoin:miter;stroke-miterlimit:4;stroke-dasharray:none;stroke-opacity:1"
           id="path4475" /></g><g
         id="g4477"
         transform="matrix(-1,-0.234917,0.234917,-1,0,0)"><path
           d="m -177.736,-48.262 0.68,-0.68 -2.383,0.681 2.383,0.683 z"
           style="fill:#008800;fill-opacity:1;fill-rule:evenodd;stroke:#008800;stroke-width:0.181719;stroke-linecap:butt;stroke-linejoin:miter;stroke-miterlimit:4;stroke-dasharray:none;stroke-opacity:1"
           id="path4479" /></g><g
         id="g4481"><path
           d="m 86.625,71.25 63.75,15"
           style="fill:none;stroke:#008800;stroke-width:0.710036;stroke-linecap:butt;stroke-linejoin:miter;stroke-miterlimit:4;stroke-dasharray:1.42008, 0.710036;stroke-dashoffset:0;stroke-opacity:1"
           id="path4483" /></g><path
         d="m 105.941,138.922 c 0,-1.02 -0.3,-1.789 -1.464,-1.789 -2.344,0 -3.094,2.629 -3.094,4.558 0,1.082 0.324,1.95 1.558,1.95 2.149,0 3,-3.012 3,-4.719 z m -0.683,-0.113 c 0,0.414 -0.055,0.824 -0.129,1.238 h -2.867 c 0.211,-0.938 0.879,-2.672 2.058,-2.672 0.782,0 0.938,0.824 0.938,1.434 z m -0.168,1.519 c -0.215,1.024 -0.711,3.055 -2.004,3.055 -0.926,0 -1.008,-1.024 -1.008,-1.731 0,-0.441 0.082,-0.882 0.141,-1.324 z"
         style="fill:#008800;fill-opacity:1;fill-rule:nonzero;stroke:none"
         id="path4485" /><path
         d="m 123.469,70.801 c 0.039,-0.461 0.093,-0.86 0.191,-1.36 -0.133,-0.054 -0.191,-0.074 -0.25,-0.074 -0.383,0 -0.746,0.305 -1.183,0.918 l -0.344,0.477 c -0.461,0.687 -0.613,0.937 -0.805,1.379 l 0.094,-0.5 c 0.039,-0.286 0.137,-0.782 0.211,-1.051 l 0.078,-0.305 c 0.059,-0.211 0.074,-0.363 0.074,-0.519 0,-0.246 -0.094,-0.399 -0.285,-0.399 -0.25,0 -0.707,0.266 -1.625,0.918 l -0.324,0.227 0.074,0.25 0.383,-0.25 c 0.344,-0.227 0.48,-0.285 0.594,-0.285 0.113,0 0.21,0.113 0.21,0.269 0,0.707 -0.515,3.231 -1.015,4.781 l 0.117,0.094 c 0.191,-0.059 0.383,-0.094 0.668,-0.172 l 0.152,-0.019 0.325,-1.453 c 0.211,-1.016 0.5,-1.665 1.035,-2.372 0.422,-0.535 0.746,-0.785 1.011,-0.785 0.172,0 0.309,0.059 0.442,0.231 z"
         style="fill:#008800;fill-opacity:1;fill-rule:nonzero;stroke:none"
         id="path4487" /><g
         id="g4489"><path
           d="m 150.477,86.102 11.16,-7.782"
           style="fill:none;stroke:#008800;stroke-width:0.699999;stroke-linecap:butt;stroke-linejoin:miter;stroke-miterlimit:4;stroke-dasharray:none;stroke-opacity:1"
           id="path4491" /></g><g
         id="g4493"
         transform="matrix(-1,0.697139,-0.697139,-1,0,0)"><path
           d="m -71.342,-128.536 0.577,-0.575 -2.011,0.575 2.011,0.574 z"
           style="fill:#008800;fill-opacity:1;fill-rule:evenodd;stroke:#008800;stroke-width:0.153129;stroke-linecap:butt;stroke-linejoin:miter;stroke-miterlimit:4;stroke-dasharray:none;stroke-opacity:1"
           id="path4495" /></g><path
         d="m 166.18,94.578 c 0,-1.383 -0.973,-2.277 -2.438,-2.277 -0.469,0 -0.793,0.078 -1.16,0.281 l -0.609,0.367 c -0.856,0.508 -1.219,1.281 -1.219,2.524 0,2.05 1.035,3.148 2.969,3.148 0.73,0 1.218,-0.141 2.05,-0.566 l 0.286,-0.614 -0.161,-0.203 c -0.613,0.348 -0.996,0.469 -1.527,0.469 -0.672,0 -1.301,-0.367 -1.625,-0.934 -0.203,-0.367 -0.285,-0.652 -0.305,-1.261 h 1.688 c 0.75,0 1.32,-0.082 2.051,-0.266 z m -2.723,0.281 h -0.062 c -0.079,0 -0.426,-0.019 -0.629,-0.019 l -0.407,-0.02 c 0.039,-1.281 0.344,-1.808 1.098,-1.808 0.754,0 1.059,0.527 1.078,1.808 z"
         style="fill:#008800;fill-opacity:1;fill-rule:nonzero;stroke:none"
         id="path4497" /><path
         d="m 170.02,97.027 c 0.023,-0.343 0.082,-0.629 0.144,-0.996 -0.102,-0.058 -0.121,-0.058 -0.184,-0.058 -0.265,0 -0.55,0.222 -0.875,0.668 l -0.242,0.367 c -0.367,0.508 -0.468,0.691 -0.609,1.015 l 0.058,-0.363 c 0.043,-0.226 0.122,-0.59 0.165,-0.773 l 0.058,-0.246 c 0.043,-0.161 0.063,-0.262 0.063,-0.383 0,-0.184 -0.082,-0.285 -0.223,-0.285 -0.184,0 -0.531,0.183 -1.199,0.668 l -0.246,0.183 0.062,0.184 0.285,-0.184 c 0.243,-0.183 0.344,-0.222 0.426,-0.222 0.102,0 0.164,0.082 0.164,0.203 0,0.527 -0.387,2.398 -0.754,3.558 l 0.082,0.063 c 0.141,-0.043 0.285,-0.082 0.508,-0.125 l 0.102,-0.02 0.246,-1.078 c 0.16,-0.75 0.363,-1.238 0.769,-1.746 0.305,-0.406 0.551,-0.59 0.754,-0.59 0.141,0 0.223,0.039 0.324,0.16 z"
         style="fill:#008800;fill-opacity:1;fill-rule:nonzero;stroke:none"
         id="path4499" /><path
         d="m 164.168,70.746 c 0,-1.496 -1.055,-2.465 -2.641,-2.465 -0.504,0 -0.859,0.086 -1.254,0.309 l -0.66,0.394 c -0.925,0.551 -1.32,1.387 -1.32,2.731 0,2.223 1.121,3.41 3.211,3.41 0.793,0 1.32,-0.156 2.223,-0.617 l 0.308,-0.66 -0.176,-0.219 c -0.66,0.375 -1.078,0.504 -1.648,0.504 -0.727,0 -1.41,-0.395 -1.762,-1.012 -0.219,-0.394 -0.308,-0.703 -0.328,-1.363 h 1.824 c 0.817,0 1.43,-0.09 2.223,-0.285 z m -2.949,0.309 h -0.067 c -0.086,0 -0.461,-0.024 -0.679,-0.024 l -0.442,-0.023 c 0.043,-1.387 0.375,-1.957 1.188,-1.957 0.816,0 1.144,0.57 1.168,1.957 z"
         style="fill:#008800;fill-opacity:1;fill-rule:nonzero;stroke:none"
         id="path4501" /><path
         d="m 170.348,72.035 c 0,-1.121 -0.328,-1.937 -1.582,-1.937 -2.555,0 -3.348,2.84 -3.348,4.929 0,1.168 0.355,2.114 1.676,2.114 2.332,0 3.254,-3.258 3.254,-5.106 z m -0.723,-0.133 c 0,0.442 -0.09,0.903 -0.156,1.344 h -3.102 c 0.242,-1.012 0.945,-2.883 2.223,-2.883 0.855,0 1.035,0.879 1.035,1.539 z m -0.199,1.653 c -0.242,1.097 -0.77,3.3 -2.18,3.3 -0.988,0 -1.078,-1.101 -1.078,-1.871 0,-0.461 0.09,-0.945 0.152,-1.429 z"
         style="fill:#008800;fill-opacity:1;fill-rule:nonzero;stroke:none"
         id="path4503" /><g
         id="g4505"><path
           d="M 150.375,82.5 V 90"
           style="fill:none;stroke:#000000;stroke-width:0.749999;stroke-linecap:butt;stroke-linejoin:miter;stroke-miterlimit:4;stroke-dasharray:none;stroke-opacity:1"
           id="path4507" /></g><g
         id="g4509"><path
           d="m 146.625,86.25 h 7.5"
           style="fill:none;stroke:#000000;stroke-width:0.749999;stroke-linecap:butt;stroke-linejoin:miter;stroke-miterlimit:4;stroke-dasharray:none;stroke-opacity:1"
           id="path4511" /></g><g
         id="g4513"><path
           d="m 86.574,122.199 v 3.102"
           style="fill:none;stroke:#000000;stroke-width:0.5;stroke-linecap:butt;stroke-linejoin:miter;stroke-miterlimit:4;stroke-dasharray:none;stroke-opacity:1"
           id="path4515" /></g><g
         id="g4517"><path
           d="m 85.023,123.75 h 3.102"
           style="fill:none;stroke:#000000;stroke-width:0.5;stroke-linecap:butt;stroke-linejoin:miter;stroke-miterlimit:4;stroke-dasharray:none;stroke-opacity:1"
           id="path4519" /></g><path
         d="m 179.141,98.758 c 0.625,-0.016 0.988,-0.035 1.613,-0.035 0.59,0 1.058,0.105 1.078,0.226 l 0.086,0.817 h 0.398 l 0.157,-1.563 -0.071,-0.09 c -0.398,-0.015 -0.605,-0.031 -1.039,-0.031 -0.261,0 -0.59,0.016 -1.199,0.016 -0.816,0.015 -1.129,0.015 -1.441,0.015 -0.399,0 -0.868,0 -2.086,-0.015 v 0.398 l 0.402,0.035 c 0.504,0.051 0.535,0.106 0.535,1.094 v 4.949 c 0,0.383 -0.051,0.559 -0.222,0.645 l -0.348,0.191 v 0.258 c 1.094,-0.031 1.094,-0.031 1.355,-0.031 h 0.364 c 1.129,0.031 1.562,0.051 2.136,0.051 0.571,0 0.918,-0.02 1.563,-0.051 l 0.051,-0.09 0.121,-1.754 h -0.434 l -0.242,1.043 c 0,0.016 -0.02,0.016 -0.035,0.035 -0.348,0.106 -0.676,0.156 -1.285,0.156 -0.469,0 -0.887,-0.019 -1.457,-0.035 v -2.953 c 0.312,-0.035 0.504,-0.035 0.746,-0.035 h 0.726 c 0.418,0 0.594,0.121 0.629,0.402 l 0.067,0.555 h 0.453 l -0.035,-1.199 c 0,-0.121 0,-0.121 0.035,-1.18 h -0.453 l -0.067,0.625 c -0.019,0.191 -0.156,0.242 -0.629,0.242 h -0.726 c -0.367,0 -0.524,0 -0.746,-0.015 z"
         style="fill:#d70000;fill-opacity:1;fill-rule:nonzero;stroke:none"
         id="path4521" /><path
         d="m 186.305,107.789 c -0.801,-0.992 -1.078,-1.527 -1.371,-2.519 -0.227,-0.797 -0.348,-1.633 -0.348,-2.586 0,-0.922 0.121,-1.704 0.328,-2.414 0.277,-0.922 0.574,-1.442 1.391,-2.399 l -0.211,-0.277 c -1.145,1.023 -1.614,1.633 -2.032,2.726 -0.277,0.746 -0.433,1.528 -0.433,2.364 0,1.195 0.277,2.308 0.816,3.296 0.383,0.75 0.746,1.184 1.649,2.036 z"
         style="fill:#d70000;fill-opacity:1;fill-rule:nonzero;stroke:none"
         id="path4523" /><path
         d="m 197.043,98.27 0.035,-0.293 h -0.312 c -0.313,0.015 -0.489,0.015 -0.625,0.015 h -0.262 l -0.66,-0.015 -0.172,0.328 c -0.297,0.574 -0.504,0.957 -0.766,1.39 l -2.726,4.672 -1.668,-6.39 h -0.313 c -0.293,0.015 -0.469,0.015 -0.605,0.015 h -0.281 l -0.641,-0.015 -0.035,0.293 0.277,0.035 c 0.59,0.035 0.781,0.156 0.781,0.437 0,0.067 -0.015,0.137 -0.035,0.223 l -1.597,5.644 c -0.192,0.575 -0.348,0.715 -0.954,0.766 l -0.035,0.293 0.434,-0.016 c 0.363,0 0.644,-0.015 0.801,-0.015 0.156,0 0.449,0.015 0.832,0.015 l 0.398,0.016 0.02,-0.313 -0.418,-0.031 c -0.348,-0.019 -0.539,-0.14 -0.539,-0.297 0,-0.105 0.019,-0.261 0.07,-0.453 l 1.391,-5.14 1.648,6.39 h 0.242 l 0.645,-1.144 c 0.851,-1.563 1.89,-3.352 2.64,-4.586 l 0.571,-0.973 -0.399,5.766 c -0.051,0.312 -0.191,0.402 -0.746,0.437 l -0.348,0.031 -0.035,0.313 0.52,-0.016 c 0.469,0 0.801,-0.015 0.972,-0.015 0.176,0 0.504,0.015 0.957,0.015 l 0.52,0.016 0.02,-0.313 -0.403,-0.031 c -0.398,-0.035 -0.605,-0.16 -0.605,-0.383 l 0.015,-0.418 0.453,-5.886 c 0.016,-0.211 0.192,-0.313 0.52,-0.332 z"
         style="fill:#d70000;fill-opacity:1;fill-rule:nonzero;stroke:none"
         id="path4525" /><path
         d="m 197.684,108.016 c 0.765,-0.715 1.078,-1.078 1.425,-1.633 0.676,-1.078 1.024,-2.363 1.024,-3.684 0,-0.851 -0.141,-1.633 -0.434,-2.379 -0.418,-1.078 -0.867,-1.683 -2.015,-2.726 l -0.227,0.277 c 0.816,0.957 1.113,1.477 1.391,2.399 0.226,0.71 0.328,1.492 0.328,2.414 0,0.953 -0.102,1.789 -0.328,2.586 -0.297,0.992 -0.59,1.527 -1.391,2.519 z"
         style="fill:#d70000;fill-opacity:1;fill-rule:nonzero;stroke:none"
         id="path4527" /><path
         d="m 147.035,88.301 0.035,-0.317 h -0.336 C 146.398,88 146.211,88 146.059,88 h -0.278 l -0.711,-0.016 -0.187,0.356 c -0.321,0.617 -0.543,1.027 -0.824,1.496 l -2.938,5.035 -1.797,-6.887 h -0.34 C 138.668,88 138.48,88 138.332,88 h -0.301 l -0.691,-0.016 -0.039,0.317 0.301,0.039 c 0.636,0.035 0.843,0.168 0.843,0.469 0,0.074 -0.019,0.148 -0.039,0.242 l -1.722,6.082 c -0.204,0.617 -0.375,0.765 -1.028,0.824 l -0.039,0.316 0.469,-0.019 c 0.394,0 0.691,-0.02 0.859,-0.02 0.168,0 0.489,0.02 0.899,0.02 l 0.429,0.019 0.02,-0.335 -0.449,-0.04 c -0.375,-0.019 -0.578,-0.148 -0.578,-0.316 0,-0.113 0.019,-0.281 0.074,-0.488 l 1.496,-5.539 1.777,6.886 h 0.262 l 0.695,-1.234 c 0.914,-1.684 2.039,-3.613 2.844,-4.941 l 0.617,-1.047 -0.429,6.211 c -0.059,0.34 -0.207,0.433 -0.805,0.468 l -0.375,0.04 -0.039,0.335 0.562,-0.019 c 0.504,0 0.86,-0.02 1.047,-0.02 0.188,0 0.543,0.02 1.031,0.02 l 0.563,0.019 0.016,-0.335 -0.43,-0.04 c -0.43,-0.035 -0.652,-0.168 -0.652,-0.41 l 0.015,-0.449 0.488,-6.344 c 0.02,-0.226 0.207,-0.336 0.563,-0.355 z"
         style="fill:#000000;fill-opacity:1;fill-rule:nonzero;stroke:none"
         id="path4529" /><path
         d="m 68.926,126.656 c -2.903,0 -5.039,2.231 -5.039,5.309 0,2.328 1.156,3.558 3.308,3.558 1.039,0 1.926,-0.23 2.715,-0.73 1.539,-0.965 2.5,-2.754 2.5,-4.695 0,-2.192 -1.269,-3.442 -3.484,-3.442 z m -0.383,0.5 c 0.598,0 1.191,0.153 1.598,0.403 0.808,0.461 1.191,1.386 1.191,2.73 0,1.539 -0.48,2.945 -1.328,3.789 -0.594,0.617 -1.402,0.945 -2.348,0.945 -1.769,0 -2.691,-1.058 -2.691,-3.117 0,-1.597 0.48,-3.019 1.347,-3.867 0.559,-0.594 1.309,-0.883 2.231,-0.883 z"
         style="fill:#000000;fill-opacity:1;fill-rule:nonzero;stroke:none"
         id="path4531" /><g
         id="g4533"><path
           d="M 86.625,0 V 187.5"
           style="fill:none;stroke:#000000;stroke-width:0.749999;stroke-linecap:butt;stroke-linejoin:miter;stroke-miterlimit:4;stroke-dasharray:none;stroke-opacity:1"
           id="path4535" /></g><g
         id="g4537"
         transform="matrix(1,0.274946,-0.274946,1,0,0)"><path
           d="M 134.648,93.581 C 134.647,100.37 121.513,106.7 99.72,110.41"
           style="fill:none;stroke:#008800;stroke-width:0.625319;stroke-linecap:butt;stroke-linejoin:miter;stroke-miterlimit:4;stroke-dasharray:1.25064, 0.625319;stroke-dashoffset:0;stroke-opacity:0.952941"
           id="path4539" /></g><path
         d="m 108.711,131.352 0.453,0.796 -0.023,-2.359 -1.227,2.016 z"
         style="fill:#008800;fill-opacity:0.952941;fill-rule:evenodd;stroke:none"
         id="path4541" /><g
         id="g4543"
         transform="matrix(-0.274946,1,-1,-0.274946,0,0)"><path
           d="m 94.331,-134.647 0.625,-0.625 -2.188,0.625 2.188,0.625 z"
           style="fill:none;stroke:#008800;stroke-width:0.166752;stroke-linecap:butt;stroke-linejoin:miter;stroke-miterlimit:4;stroke-dasharray:none;stroke-opacity:0.952941"
           id="path4545" /></g><g
         id="g4547"><path
           d="M 0.691,43.359 0.535,124.25"
           style="fill:none;stroke:#2d3d96;stroke-width:0.738068;stroke-linecap:butt;stroke-linejoin:miter;stroke-miterlimit:4;stroke-dasharray:1.47614, 0.738068, 0.369034, 0.738068;stroke-dashoffset:0;stroke-opacity:1"
           id="path4549" /></g><g
         id="g4551"><path
           d="m 172.875,123.75 c 0,12.398 -38.453,22.461 -85.98,22.5 -47.532,0.039 -86.223,-9.961 -86.52,-22.359 -0.297,-12.399 37.914,-22.524 85.437,-22.641 47.528,-0.117 86.461,9.82 87.055,22.219"
           style="fill:none;stroke:#2d3d96;stroke-width:0.751181;stroke-linecap:butt;stroke-linejoin:miter;stroke-miterlimit:4;stroke-dasharray:1.50236, 0.751181, 0.375591, 0.751181;stroke-dashoffset:0;stroke-opacity:1"
           id="path4553" /></g><g
         id="g4555"><path
           d="m 172.879,41.531 c 0,12.399 -38.449,22.461 -85.977,22.5 C 39.371,64.07 0.68,54.07 0.383,41.672 0.086,29.273 38.293,19.148 85.82,19.031 c 47.528,-0.113 86.457,9.821 87.055,22.219"
           style="fill:none;stroke:#2d3d96;stroke-width:0.751181;stroke-linecap:butt;stroke-linejoin:miter;stroke-miterlimit:4;stroke-dasharray:1.50236, 0.751181, 0.375591, 0.751181;stroke-dashoffset:0;stroke-opacity:1"
           id="path4557" /></g><g
         id="g4559"><path
           d="m 173.02,42.578 -0.153,80.891"
           style="fill:none;stroke:#2d3d96;stroke-width:0.738068;stroke-linecap:butt;stroke-linejoin:miter;stroke-miterlimit:4;stroke-dasharray:1.47614, 0.738068, 0.369034, 0.738068;stroke-dashoffset:0;stroke-opacity:1"
           id="path4561" /></g><path
         d="m 144.207,63.492 c 0,-1.605 -1.133,-2.644 -2.832,-2.644 -0.543,0 -0.922,0.093 -1.348,0.332 l -0.707,0.425 c -0.992,0.59 -1.418,1.485 -1.418,2.926 0,2.383 1.207,3.66 3.45,3.66 0.847,0 1.414,-0.168 2.382,-0.66 l 0.332,-0.711 -0.191,-0.234 c -0.707,0.402 -1.156,0.543 -1.77,0.543 -0.777,0 -1.511,-0.426 -1.886,-1.086 -0.239,-0.426 -0.332,-0.758 -0.356,-1.465 h 1.961 c 0.871,0 1.531,-0.094 2.383,-0.305 z m -3.164,0.332 h -0.07 c -0.094,0 -0.496,-0.023 -0.731,-0.023 l -0.472,-0.024 c 0.046,-1.488 0.402,-2.101 1.273,-2.101 0.875,0 1.227,0.613 1.25,2.101 z"
         style="fill:#008800;fill-opacity:1;fill-rule:nonzero;stroke:none"
         id="path4563" /><path
         d="m 144.793,69.977 0.094,0.281 c 0.308,-0.258 0.59,-0.352 0.945,-0.352 0.262,0 0.566,0.071 1.109,0.188 0.637,0.164 0.969,0.211 1.25,0.211 0.121,0 0.215,-0.024 0.52,-0.117 0.121,-0.637 0.191,-0.993 0.309,-1.489 h -0.239 l -0.211,0.617 c -0.07,0.188 -0.187,0.282 -0.425,0.282 -0.118,0 -0.282,-0.024 -0.52,-0.094 l -0.187,-0.024 c -0.333,-0.07 -0.684,-0.14 -0.899,-0.14 -0.328,0 -0.613,0.07 -0.988,0.234 l 3.562,-4.035 0.071,-0.332 -0.094,-0.094 -0.258,0.235 c -0.098,0.117 -0.215,0.168 -0.355,0.168 -0.356,0 -0.899,-0.098 -1.418,-0.239 l -0.188,-0.047 c -0.285,-0.07 -0.496,-0.117 -0.637,-0.117 -0.191,0 -0.402,0.024 -0.66,0.094 l -0.332,1.297 h 0.235 l 0.308,-0.613 c 0.188,-0.047 0.281,-0.047 0.403,-0.047 0.164,0 0.257,0 0.472,0.047 0.375,0.07 0.637,0.093 0.871,0.093 0.379,0 0.614,-0.046 0.969,-0.234 z"
         style="fill:#008800;fill-opacity:1;fill-rule:nonzero;stroke:none"
         id="path4565" /></g></g></svg>
